<svg width="24" height="24" viewBox="0 0 24 24" fill="none" xmlns="http://www.w3.org/2000/svg">
<path d="M2.46973 3.53039L1.51513 2.57579L0.560538 3.53039L1.51513 4.48498L2.46973 3.53039ZM10.9394 12.0001L11.894 12.9547L12.8486 12.0001L11.894 11.0455L10.9394 12.0001ZM3.53039 2.46973L4.48498 1.51513L3.53039 0.560539L2.57579 1.51513L3.53039 2.46973ZM12.0001 10.9394L11.0455 11.894L12.0001 12.8486L12.9547 11.894L12.0001 10.9394ZM20.4697 2.46973L21.4243 1.51513L20.4697 0.560539L19.5151 1.51513L20.4697 2.46973ZM21.5304 3.53039L22.485 4.48498L23.4396 3.53039L22.485 2.57579L21.5304 3.53039ZM13.0607 12.0001L12.1061 11.0455L11.1515 12.0001L12.1061 12.9547L13.0607 12.0001ZM21.5304 20.4697L22.485 21.4243L23.4396 20.4697L22.485 19.5151L21.5304 20.4697ZM20.4697 21.5304L19.5151 22.485L20.4697 23.4396L21.4243 22.485L20.4697 21.5304ZM12.0001 13.0607L12.9547 12.1061L12.0001 11.1515L11.0455 12.1061L12.0001 13.0607ZM3.53039 21.5304L2.57579 22.485L3.53039 23.4396L4.48498 22.485L3.53039 21.5304ZM2.46973 20.4697L1.51513 19.5151L0.56054 20.4697L1.51513 21.4243L2.46973 20.4697ZM1.51513 4.48498L9.9848 12.9547L11.894 11.0455L3.42432 2.57579L1.51513 4.48498ZM2.57579 1.51513L1.51513 2.57579L3.42432 4.48498L4.48498 3.42432L2.57579 1.51513ZM12.9547 9.9848L4.48498 1.51513L2.57579 3.42432L11.0455 11.894L12.9547 9.9848ZM12.9547 11.894L21.4243 3.42432L19.5151 1.51513L11.0455 9.9848L12.9547 11.894ZM19.5151 3.42432L20.5758 4.48498L22.485 2.57579L21.4243 1.51513L19.5151 3.42432ZM20.5758 2.57579L12.1061 11.0455L14.0153 12.9547L22.485 4.48498L20.5758 2.57579ZM22.485 19.5151L14.0153 11.0455L12.1061 12.9547L20.5758 21.4243L22.485 19.5151ZM21.4243 22.485L22.485 21.4243L20.5758 19.5151L19.5151 20.5758L21.4243 22.485ZM11.0455 14.0153L19.5151 22.485L21.4243 20.5758L12.9547 12.1061L11.0455 14.0153ZM11.0455 12.1061L2.57579 20.5758L4.48498 22.485L12.9547 14.0153L11.0455 12.1061ZM4.48498 20.5758L3.42432 19.5151L1.51513 21.4243L2.57579 22.485L4.48498 20.5758ZM3.42432 21.4243L11.894 12.9547L9.9848 11.0455L1.51513 19.5151L3.42432 21.4243Z" fill="white"/>
</svg>
