<svg width="16" height="16" viewBox="0 0 16 16" fill="none" xmlns="http://www.w3.org/2000/svg">
<path fill-rule="evenodd" clip-rule="evenodd" d="M3.99992 2.0415H6.33325C7.80601 2.0415 9.99991 3.23541 9.99991 4.70817L11.4726 4.70817C11.8114 4.70817 12.1374 4.83711 12.3846 5.06879L14.2452 6.8131C14.514 7.06516 14.6666 7.41727 14.6666 7.78581V11.3748C14.6666 11.7323 14.5259 12.0568 14.297 12.2962C14.1024 11.204 13.148 10.3748 11.9999 10.3748C11.1511 10.3748 10.4082 10.828 9.99991 11.5056V11.5C9.99991 11.5 9.81436 11.7916 9.74848 12C9.63855 12.3477 9.63855 12.7082 9.63855 12.7082H6.99992C6.99992 11.4195 5.95525 10.3748 4.66659 10.3748C3.56248 10.3748 2.63799 11.1413 2.39538 12.1716C1.75026 11.6849 1.33325 10.9119 1.33325 10.0415V4.70817C1.33325 3.23541 2.52716 2.0415 3.99992 2.0415ZM5.99991 12.7082C5.99991 13.4445 5.40296 14.0415 4.66658 14.0415C3.9302 14.0415 3.33324 13.4445 3.33324 12.7082C3.33324 12.6802 3.3341 12.6524 3.3358 12.6248C3.37883 11.9273 3.95819 11.3748 4.66658 11.3748C5.40296 11.3748 5.99991 11.9718 5.99991 12.7082ZM13.3332 12.7082C13.3332 13.4445 12.7363 14.0415 11.9999 14.0415C11.2635 14.0415 10.6666 13.4445 10.6666 12.7082C10.6666 11.9718 11.2635 11.3748 11.9999 11.3748C12.7363 11.3748 13.3332 11.9718 13.3332 12.7082Z" fill="#393939"/>
</svg>
