<svg width="16" height="12" viewBox="0 0 16 12" fill="none" xmlns="http://www.w3.org/2000/svg">
<path fill-rule="evenodd" clip-rule="evenodd" d="M10.2857 0.2C10.2857 0.0895431 10.1962 0 10.0857 0H0.2C0.0895431 0 0 0.0895429 0 0.2V6.65714C0 6.7676 0.0895433 6.85714 0.2 6.85714H10.0857C10.1962 6.85714 10.2857 6.7676 10.2857 6.65714V0.2ZM5.0613 10.1268C5.08732 10.2183 5.16831 10.2857 5.26343 10.2857H10.1651C10.2602 10.2857 10.3412 10.2183 10.3672 10.1268C10.6226 9.22898 11.4488 8.57143 12.4285 8.57143C13.4083 8.57143 14.2345 9.22898 14.4899 10.1268C14.5159 10.2183 14.5969 10.2857 14.692 10.2857H15.2285C15.339 10.2857 15.4285 10.1962 15.4285 10.0857V5.2257C15.4285 5.17266 15.4075 5.12179 15.37 5.08428L12.9157 2.63001C12.8782 2.5925 12.8273 2.57143 12.7743 2.57143H11.3428C11.2324 2.57143 11.1428 2.66097 11.1428 2.77143V7.51429C11.1428 7.62474 11.0533 7.71429 10.9428 7.71429H0.234947C0.12449 7.71429 0.034947 7.80383 0.034947 7.91429V10.0857C0.034947 10.1962 0.12449 10.2857 0.234947 10.2857H0.736488C0.831609 10.2857 0.9126 10.2183 0.938623 10.1268C1.19401 9.22898 2.02019 8.57143 2.99996 8.57143C3.97973 8.57143 4.80592 9.22898 5.0613 10.1268ZM3 12C3.71008 12 4.28571 11.4244 4.28571 10.7143C4.28571 10.0042 3.71008 9.42857 3 9.42857C2.28992 9.42857 1.71429 10.0042 1.71429 10.7143C1.71429 11.4244 2.28992 12 3 12ZM13.7143 10.7143C13.7143 11.4244 13.1387 12 12.4286 12C11.7185 12 11.1429 11.4244 11.1429 10.7143C11.1429 10.0042 11.7185 9.42857 12.4286 9.42857C13.1387 9.42857 13.7143 10.0042 13.7143 10.7143Z" fill="#393939"/>
</svg>
