<svg width="56" height="10" viewBox="0 0 56 10" fill="none" xmlns="http://www.w3.org/2000/svg">
<path fill-rule="evenodd" clip-rule="evenodd" d="M16.4622 7.42254C15.968 7.42254 15.4848 7.28055 15.0737 7.01451C14.6626 6.74846 14.3421 6.37028 14.1526 5.92776C13.9631 5.48521 13.9131 4.99816 14.009 4.52811C14.1048 4.05807 14.3422 3.62607 14.6912 3.28675C15.0401 2.94739 15.485 2.7159 15.9695 2.62151C16.4541 2.52708 16.9567 2.57401 17.4138 2.75631C17.8709 2.93865 18.262 3.24818 18.5377 3.64582C18.8134 4.0435 18.9614 4.51144 18.963 4.99062C18.9645 5.30928 18.9012 5.62509 18.7765 5.91996C18.6519 6.21482 18.4684 6.4829 18.2366 6.70886C18.0048 6.93482 17.7292 7.11418 17.4258 7.23664C17.1223 7.35911 16.7969 7.42228 16.4681 7.42254H16.4622ZM16.4622 0.000329204C15.5944 -0.00205405 14.7399 0.207903 13.978 0.610754C13.2161 1.01361 12.5714 1.59632 12.1036 2.30495C11.6358 3.01358 11.3599 3.82518 11.3017 4.6646C11.2435 5.50402 11.4047 6.34412 11.7704 7.10712C12.1361 7.87008 12.6945 8.53124 13.3939 9.0294C14.0933 9.52752 14.911 9.84654 15.7714 9.95683C16.6317 10.0672 17.5069 9.96521 18.3158 9.66044C19.1248 9.3557 19.8413 8.85797 20.399 8.21339C20.0775 8.81267 19.5924 9.31477 18.9966 9.66491V9.92341H21.6059V4.97912C21.6012 3.66004 21.0587 2.39633 20.0965 1.46359C19.1344 0.530879 17.8308 0.00487229 16.4701 0.000329204H16.4622ZM41.2188 7.46849H37.8152V5.84849H41.1458C41.5624 5.84849 42.0483 6.23146 42.0483 6.66042C42.0459 6.87462 41.9567 7.07927 41.8 7.23039C41.6433 7.38152 41.4319 7.467 41.2109 7.46849H41.2188ZM37.8152 2.53184H40.6676C40.8816 2.54719 41.0824 2.63712 41.2331 2.78497C41.3838 2.93285 41.4741 3.12863 41.4874 3.33613C41.4847 3.44668 41.4595 3.55564 41.413 3.6567C41.3665 3.7578 41.3002 3.84902 41.2175 3.92514C41.1345 4.00127 41.0373 4.06085 40.9308 4.10039C40.8242 4.13996 40.7107 4.15874 40.5965 4.1557H37.8152V2.53184ZM43.5299 4.69954C43.8365 4.2428 44.0088 3.71366 44.028 3.16911C44.0476 2.62452 43.9135 2.08511 43.6404 1.60885C43.3609 1.14655 42.9623 0.762415 42.484 0.493923C42.0054 0.225434 41.4635 0.0817616 40.9105 0.0769271H35.2058V9.92341H41.5882C42.4047 9.93364 43.1923 9.62919 43.7775 9.077C44.3626 8.52477 44.6978 7.7699 44.7091 6.97827C44.7141 6.53478 44.6089 6.09666 44.4028 5.70077C44.1963 5.30488 43.895 4.96283 43.5239 4.70336L43.5299 4.69954ZM32.6263 3.70952C33.4836 5.94997 33.5271 7.9817 33.5271 9.92341H30.8761C30.8761 8.34936 30.8188 6.9151 30.481 5.61677C30.0247 3.87994 29.1753 2.6161 28.3872 2.6161C27.599 2.6161 26.7496 3.87994 26.2933 5.61677C25.9536 6.9151 25.8983 8.31105 25.8983 9.92341H23.2454C23.2454 8.15594 23.2889 5.94997 24.1462 3.70952C24.9363 1.62226 26.4356 0.000329204 28.3852 0.000329204C30.3348 0.000329204 31.836 1.62226 32.6263 3.70952ZM7.63852 0.0826715H10.2874V1.11864C10.2882 1.86301 10.1174 2.59813 9.78767 3.27033C9.45786 3.94257 8.97737 4.53485 8.38125 5.00399C8.97734 5.47277 9.45783 6.06473 9.78764 6.73661C10.1174 7.40852 10.2882 8.14338 10.2874 8.88747V9.92341H7.63852V8.62703C7.62023 7.99763 7.3495 7.39994 6.88381 6.96101C6.41813 6.52209 5.79422 6.27654 5.14469 6.27654C4.4952 6.27654 3.87129 6.52209 3.40557 6.96101C2.93988 7.39994 2.66915 7.99763 2.65086 8.62703V9.92341H0V8.88747C1.6595e-05 8.14302 0.171313 7.40797 0.501404 6.73583C0.831499 6.0637 1.31208 5.47141 1.90814 5.00208C1.31213 4.53317 0.831552 3.94121 0.501447 3.26936C0.171343 2.59755 3.319e-05 1.86278 0 1.11864V0.0826715H2.65086V1.37716C2.64124 1.69489 2.6963 2.01132 2.81293 2.30841C2.92956 2.60548 3.10547 2.87735 3.33053 3.10849C3.55562 3.33959 3.82552 3.52546 4.12476 3.65541C4.42401 3.78532 4.74671 3.85682 5.0745 3.86576C5.40225 3.87469 5.7286 3.82088 6.03488 3.70745C6.34119 3.59405 6.62141 3.42317 6.85955 3.20469C7.09769 2.98619 7.28906 2.72432 7.42272 2.43405C7.55638 2.14382 7.62972 1.83086 7.63852 1.5131C7.63852 1.46715 7.63852 1.42311 7.63852 1.37716V0.0826715ZM50.8502 7.42254C50.3557 7.42407 49.8718 7.28337 49.4596 7.01823C49.0477 6.75309 48.7257 6.37546 48.5352 5.93307C48.3444 5.49068 48.2933 5.00337 48.3882 4.53284C48.4831 4.06228 48.7201 3.62957 49.0686 3.28947C49.4171 2.94937 49.8622 2.7171 50.3468 2.62209C50.8317 2.52705 51.3345 2.57352 51.7922 2.7556C52.2499 2.93768 52.6412 3.24721 52.9173 3.64505C53.1935 4.04288 53.3418 4.51112 53.3431 4.99062C53.3445 5.30847 53.2811 5.62344 53.1569 5.91759C53.0328 6.21174 52.8499 6.47928 52.6189 6.70494C52.3879 6.93057 52.1135 7.10993 51.8111 7.23272C51.5087 7.35551 51.1841 7.41937 50.8562 7.42063L50.8502 7.42254ZM55.992 4.97145C55.9857 3.79763 55.5533 2.66344 54.7706 1.76775C53.988 0.872006 52.9054 0.271891 51.7119 0.0725815C50.5187 -0.126728 49.2913 0.0874865 48.2445 0.677676C47.1977 1.26788 46.3988 2.19638 45.9876 3.30041C45.5764 4.40448 45.579 5.61363 45.9952 6.71595C46.4114 7.81824 47.2146 8.74337 48.2641 9.32912C49.3132 9.91489 50.5419 10.1239 51.7341 9.91956C52.9266 9.7152 54.0066 9.11051 54.7852 8.21148C54.4626 8.81053 53.9777 9.31302 53.3826 9.66491V9.9215H56V4.97912L55.992 4.97145Z" fill="#FF4E50"/>
</svg>
