<svg width="56" height="14" viewBox="0 0 56 14" fill="none" xmlns="http://www.w3.org/2000/svg">
<path d="M5.25783 0.00139643C5.22922 0.00184276 5.20271 0.00225632 5.1785 0.00238903L0 0.00243322V14H5.0041V5.74488H5.33966L8.1292 14H11.8941L14.6837 5.75099H15.0192V14H20.0233V0.00243322L15.1136 0.00242761C15.0756 0.00242761 15.0341 0.00190552 14.9896 0.00134559C14.2903 -0.00745199 12.8483 -0.0255944 12.25 1.82503C11.8782 2.9752 11.195 5.12477 10.2005 8.27372H9.82283C8.89549 5.28686 8.2197 3.1373 7.79546 1.82503C7.19612 -0.0288375 5.82066 -0.00738267 5.25783 0.00139643Z" fill="#0F754E"/>
<path d="M27.2091 8.25756V0.00243322H22.1005V14H26.943C26.943 14 28.4134 13.8778 29.0721 12.533L32.3987 5.74488H32.798V14H37.9066V0.00243322H33.0641C33.0641 0.00243322 31.6602 0.11857 31.0015 1.46943L27.6083 8.25756H27.2091Z" fill="#0F754E"/>
<path d="M50.1362 9.83035C52.6138 9.83035 54.8516 8.5049 55.5642 6.65417H39.9208V14H44.7788V9.83035H50.1362Z" fill="#0F754E"/>
<path d="M39.666 0.00242975H50.3704C54.4892 0.00242975 56.48 3.19651 55.9017 5.78655H45.8802C42.849 5.78655 39.9208 3.11876 39.666 0.00242975Z" fill="#0F754E"/>
</svg>
