<svg width="56" height="17" viewBox="0 0 56 17" fill="none" xmlns="http://www.w3.org/2000/svg">
<path fill-rule="evenodd" clip-rule="evenodd" d="M40.6206 0.692325C39.7286 0.358619 38.3306 0 36.5839 0C32.1334 0 28.9973 2.23432 28.971 5.43436C28.9466 7.80243 31.2091 9.12086 32.9182 9.91022C34.6708 10.716 35.2609 11.2313 35.2517 11.9518C35.2405 13.0558 33.8524 13.56 32.5577 13.56C30.7545 13.56 29.7973 13.3115 28.3177 12.6966L27.7368 12.4343L27.1046 16.1215C28.1578 16.5804 30.1019 16.9797 32.1222 17C36.8576 17 39.9318 14.7919 39.9661 11.3735C39.9825 9.49981 38.7832 8.07385 36.1852 6.89965C34.6096 6.13718 33.6458 5.62777 33.6564 4.85677C33.6564 4.17362 34.4715 3.43999 36.2346 3.43999C37.7095 3.41705 38.7753 3.73764 39.6062 4.072L40.0108 4.26082L40.6206 0.692325ZM19.782 16.7555L22.5984 0.287188H27.1022L24.2845 16.7555H19.782ZM48.6917 0.303295H52.1726L55.8178 16.7598H51.6377C51.6377 16.7598 51.2252 14.869 51.0904 14.2927C50.742 14.2927 49.287 14.2909 47.9195 14.2892C46.7074 14.2876 45.5641 14.2862 45.3214 14.2862C45.1464 14.7313 44.3734 16.7598 44.3734 16.7598H39.6426L46.3319 1.66893C46.8069 0.595697 47.6128 0.303295 48.6917 0.303295ZM46.6171 10.9177C46.9901 9.96904 48.4125 6.31335 48.4125 6.31335C48.3993 6.33478 48.4869 6.10807 48.6065 5.79853L48.6065 5.79845C48.732 5.47377 48.8926 5.05799 49.0092 4.74185L49.3131 6.1619C49.3131 6.1619 50.1762 10.0923 50.3571 10.9177H46.6171ZM11.5946 11.5291L16.0037 0.299185H20.7746L13.684 16.7354L8.9177 16.7419L4.88623 2.33814C7.74536 3.76475 10.3038 6.61534 11.1242 9.24697L11.5946 11.5291Z" fill="#1A1F71"/>
<path fill-rule="evenodd" clip-rule="evenodd" d="M7.50315 0.288574H0.238876L0.181641 0.630803C5.8328 1.99513 9.57217 5.28892 11.1241 9.2475L9.54454 1.67847C9.27218 0.635393 8.48075 0.324633 7.50315 0.288574Z" fill="#F9A51A"/>
</svg>
