<svg width="70" height="10" viewBox="0 0 70 10" fill="none" xmlns="http://www.w3.org/2000/svg">
<path d="M56.4067 4.54719L53.7063 1.6151H52.1249V8.40752H53.7758V4.07171L56.2445 6.63771H56.5492L58.9755 4.07171V8.4H60.6264V1.60752H59.045L56.4106 4.53962L56.4067 4.54719ZM68.4881 1.6151L64.3951 6.02643V1.6151H62.7442V8.40752H64.26L68.3491 4V8.4H70V1.60752L68.4881 1.6151ZM43.226 4.09809C43.2097 4.58857 43.3497 5.07176 43.6258 5.48129C43.9023 5.89081 44.3016 6.20652 44.7689 6.3849L43.0254 8.4H45.0425L46.6318 6.56981H48.3483V8.4H49.9992V1.60752H45.7948C45.4546 1.58757 45.1145 1.63786 44.7956 1.75514C44.4766 1.87248 44.1863 2.05414 43.9442 2.28838C43.7017 2.52262 43.5124 2.80414 43.3887 3.11467C43.2649 3.42514 43.2097 3.75767 43.226 4.09057V4.09809ZM48.3449 3.10943V5.117H46.0994C45.328 5.117 44.9425 4.70943 44.9425 4.11319C44.9425 3.517 45.359 3.10943 46.0994 3.10943H48.3449ZM35.5574 2.97357C35.4532 5.30567 34.9479 6.81133 33.945 6.81133H33.7136V8.44152H33.9759C35.9586 8.54719 37.0617 6.85281 37.2354 3.15848H39.843V8.4H41.4937V1.60752H35.6114L35.5574 2.97357ZM29.3432 1.52076C27.1097 1.52076 25.4858 3.03019 25.4858 5.00752C25.4858 7.05662 27.2332 8.50943 29.3432 8.50943C31.5187 8.50943 33.2005 6.97738 33.2005 5.00752C33.2005 3.03771 31.5071 1.52076 29.3432 1.52076ZM29.3432 6.883C28.0779 6.883 27.2216 6.07924 27.2216 4.99624C27.2216 3.91319 28.0818 3.10943 29.3432 3.10943C30.6045 3.10943 31.4917 3.92452 31.4917 4.99624C31.4917 6.0679 30.5891 6.883 29.3432 6.883ZM23.7499 1.63019H17.9253L17.8674 2.9849C17.7864 4.93962 17.2618 6.8 16.2743 6.82643H15.8153V10H17.4817V8.4H23.2678V10H24.9496V6.82643H23.7538L23.7499 1.63019ZM22.099 6.82643H18.5772C19.1712 5.94338 19.4914 4.6679 19.5492 3.17738H22.099V6.82643ZM11.9579 0H10.415V8.3019H11.9579V0ZM1.54296 1.6981H0V10H1.54296V1.6981ZM5.01461 1.13209H3.47165V9.43395H5.01461V1.13209ZM8.48627 0.566048H6.94331V8.8679H8.48627V0.566048Z" fill="black"/>
</svg>
