<svg width="37" height="22" viewBox="0 0 37 22" fill="none" xmlns="http://www.w3.org/2000/svg">
<path fill-rule="evenodd" clip-rule="evenodd" d="M25.4299 22C31.6357 22 36.6665 17.0751 36.6665 11C36.6665 4.92487 31.6357 0 25.4299 0C19.2241 0 14.1934 4.92487 14.1934 11C14.1934 17.0751 19.2241 22 25.4299 22Z" fill="#F79E1B"/>
<path fill-rule="evenodd" clip-rule="evenodd" d="M11.2366 22C17.4423 22 22.4731 17.0751 22.4731 11C22.4731 4.92487 17.4423 0 11.2366 0C5.03078 0 0 4.92487 0 11C0 17.0751 5.03078 22 11.2366 22Z" fill="#EB001B"/>
<path fill-rule="evenodd" clip-rule="evenodd" d="M18.3329 2.47119C15.8066 4.48827 14.1934 7.55964 14.1934 10.9999C14.1934 14.4401 15.8066 17.5115 18.3329 19.5286C20.8592 17.5115 22.4725 14.4401 22.4725 10.9999C22.4725 7.55964 20.8592 4.48827 18.3329 2.47119Z" fill="#FF5F00"/>
</svg>
