<svg width="16" height="16" viewBox="0 0 16 16" fill="none" xmlns="http://www.w3.org/2000/svg">
<path d="M13.98 0.666748H12.02C11.44 0.666748 11.0133 0.906748 10.82 1.33341C10.7133 1.52675 10.6666 1.75341 10.6666 2.02008V3.98008C10.6666 4.82675 11.1733 5.33342 12.02 5.33342H13.98C14.2466 5.33342 14.4733 5.28675 14.6666 5.18008C15.0933 4.98675 15.3333 4.56008 15.3333 3.98008V2.02008C15.3333 1.17341 14.8266 0.666748 13.98 0.666748ZM14.6066 3.28675C14.54 3.35341 14.44 3.40008 14.3333 3.40675H13.3933V3.74675L13.4 4.33341C13.3933 4.44675 13.3533 4.54008 13.2733 4.62008C13.2066 4.68675 13.1066 4.73341 13 4.73341C12.78 4.73341 12.6 4.55341 12.6 4.33341V3.40008L11.6666 3.40675C11.4466 3.40675 11.2666 3.22008 11.2666 3.00008C11.2666 2.78008 11.4466 2.60008 11.6666 2.60008L12.2533 2.60675H12.6V1.67341C12.6 1.45341 12.78 1.26675 13 1.26675C13.22 1.26675 13.4 1.45341 13.4 1.67341L13.3933 2.14675V2.60008H14.3333C14.5533 2.60008 14.7333 2.78008 14.7333 3.00008C14.7266 3.11341 14.68 3.20675 14.6066 3.28675Z" fill="#D1739B"/>
<path d="M6 6.91992C6.87629 6.91992 7.58666 6.20954 7.58666 5.33325C7.58666 4.45696 6.87629 3.74658 6 3.74658C5.12371 3.74658 4.41333 4.45696 4.41333 5.33325C4.41333 6.20954 5.12371 6.91992 6 6.91992Z" fill="#D1739B"/>
<path d="M13.98 5.33325H13.6667V8.40659L13.58 8.33325C13.06 7.88659 12.22 7.88659 11.7 8.33325L8.92671 10.7133C8.40671 11.1599 7.56671 11.1599 7.04671 10.7133L6.82004 10.5266C6.34671 10.1133 5.59337 10.0733 5.06004 10.4333L2.56671 12.1066C2.42004 11.7333 2.33337 11.2999 2.33337 10.7933V5.20659C2.33337 3.32659 3.32671 2.33325 5.20671 2.33325H10.6667V2.01992C10.6667 1.75325 10.7134 1.52659 10.82 1.33325H5.20671C2.78004 1.33325 1.33337 2.77992 1.33337 5.20659V10.7933C1.33337 11.5199 1.46004 12.1533 1.70671 12.6866C2.28004 13.9533 3.50671 14.6666 5.20671 14.6666H10.7934C13.22 14.6666 14.6667 13.2199 14.6667 10.7933V5.17992C14.4734 5.28659 14.2467 5.33325 13.98 5.33325Z" fill="#D1739B"/>
</svg>
