<?xml version="1.0" encoding="UTF-8"?>
<svg width="28px" height="28px" viewBox="0 0 28 28" version="1.1" xmlns="http://www.w3.org/2000/svg" xmlns:xlink="http://www.w3.org/1999/xlink">
    <!-- Generator: Sketch 50.2 (55047) - http://www.bohemiancoding.com/sketch -->
    <title>Group 14</title>
    <desc>Created with Sketch.</desc>
    <defs></defs>
    <g id="new-pages" stroke="none" stroke-width="1" fill="none" fill-rule="evenodd">
        <g id="lifemebel_index" transform="translate(-1191.000000, -5672.000000)">
            <g id="footer" transform="translate(0.000000, 4809.000000)">
                <g transform="translate(92.000000, 581.000000)" id="social">
                    <g>
                        <g transform="translate(1026.000000, 282.000000)">
                            <g id="Group-14" transform="translate(73.000000, 0.000000)">
                                <path d="M11.7970462,11.8490028 L9.38904618,11.8490028 C9.28190293,11.8490028 9.19504618,11.9358596 9.19504618,12.0430028 L9.19504618,19.8000028 C9.19504618,19.8514548 9.2154854,19.9007995 9.25186746,19.9371816 C9.28824952,19.9735636 9.33759418,19.9940028 9.38904618,19.9940028 L11.7970462,19.9940028 C11.8484982,19.9940028 11.8978428,19.9735636 11.9342249,19.9371816 C11.9706069,19.9007995 11.9910462,19.8514548 11.9910462,19.8000028 L11.9910462,12.0430028 C11.9910462,11.9915508 11.9706069,11.9422062 11.9342249,11.9058241 C11.8978428,11.8694421 11.8484982,11.8490028 11.7970462,11.8490028 Z M10.5940462,8.00000285 C9.95027513,7.99878895 9.36921871,8.38565307 9.12201662,8.98007191 C8.87481453,9.57449074 9.01019223,10.2592997 9.46497813,10.7149447 C9.91976402,11.1705898 10.6043162,11.3072598 11.1992006,11.06118 C11.7940849,10.8151003 12.182045,10.234775 12.1820462,9.59100285 C12.1820477,8.71348805 11.4715594,8.0016575 10.5940462,8.00000285 Z M17.9230462,11.6620028 C17.1235861,11.6460627 16.3547691,11.9694309 15.8070462,12.5520028 L15.8070462,12.0520028 C15.8070476,11.9452489 15.7207987,11.8585531 15.6140462,11.8580028 L13.3090462,11.8580028 C13.2576857,11.8580022 13.2084432,11.8784732 13.1722198,11.9148843 C13.1359964,11.9512954 13.1157801,12.000643 13.1160462,12.0520028 L13.1160462,19.8000028 C13.1157801,19.8513627 13.1359964,19.9007103 13.1722198,19.9371214 C13.2084432,19.9735325 13.2576857,19.9940035 13.3090462,19.9940028 L15.7090462,19.9940028 C15.7615297,19.9956268 15.81243,19.9759068 15.8501202,19.9393472 C15.8878105,19.9027877 15.9090713,19.8525115 15.9090462,19.8000028 L15.9090462,15.9600028 C15.9090462,14.6670028 16.2590462,14.1600028 17.1580462,14.1600028 C18.1380462,14.1600028 18.2160462,14.9670028 18.2160462,16.0230028 L18.2160462,19.8000028 C18.2157801,19.8513627 18.2359964,19.9007103 18.2722198,19.9371214 C18.3084432,19.9735325 18.3576857,19.9940035 18.4090462,19.9940028 L20.8090462,19.9940028 C20.9161894,19.9940028 21.0030462,19.9071461 21.0030462,19.8000028 L21.0030462,15.5440028 C21.0020462,13.6220028 20.6360462,11.6570028 17.9230462,11.6570028 L17.9230462,11.6620028 Z" id="Shape" fill="#FFFFFF"></path>
                            </g>
                        </g>
                    </g>
                </g>
            </g>
        </g>
    </g>
</svg>