<svg width="51" height="50" viewBox="0 0 51 50" fill="none" xmlns="http://www.w3.org/2000/svg">
<path d="M38.1459 22.4805V13L32.2038 16.4323C30.2205 15.4399 28.0347 14.9187 25.8169 14.9099C23.599 14.9007 21.4093 15.4042 19.4178 16.3809L13.5462 13V22.0861C12.6946 23.747 12.2503 25.5866 12.25 27.4532C12.2687 34.384 18.3095 40 25.7594 40C33.2093 40 39.25 34.3652 39.25 27.4532C39.2507 25.7349 38.8736 24.0373 38.1459 22.4805Z" stroke="#000" stroke-width="1.4" stroke-linecap="round" stroke-linejoin="round"/>
<path d="M22.2498 27C23.904 27 25.25 25.654 25.25 23.9998C25.25 22.3456 23.904 21 22.2498 21C20.5956 21 19.25 22.346 19.25 23.9998C19.25 25.6544 20.5956 27 22.2498 27ZM22.2498 21.8999C23.4078 21.8999 24.3501 22.8419 24.3501 23.9998C24.3501 25.1578 23.4078 26.1001 22.2498 26.1001C21.0919 26.1001 20.1499 25.1578 20.1499 23.9998C20.1499 22.8419 21.0919 21.8999 22.2498 21.8999Z" fill="#000"/>
<path d="M28.2502 27C26.596 27 25.25 28.346 25.25 29.9998C25.25 31.654 26.596 33 28.2502 33C29.9044 33 31.25 31.654 31.25 29.9998C31.25 28.3456 29.9044 27 28.2502 27ZM28.2502 32.1001C27.0922 32.1001 26.1499 31.1578 26.1499 29.9998C26.1499 28.8419 27.0922 27.8999 28.2502 27.8999C29.4081 27.8999 30.3501 28.8419 30.3501 29.9998C30.3501 31.1578 29.4081 32.1001 28.2502 32.1001Z" fill="#000"/>
<path d="M19.3794 32.8706C19.4656 32.9569 19.5787 33 19.6917 33C19.8048 33 19.9178 32.9569 20.0041 32.8706L31.1206 21.7538C31.2931 21.5813 31.2931 21.3019 31.1206 21.1294C30.9481 20.9569 30.6687 20.9569 30.4962 21.1294L19.3797 32.2462C19.2068 32.4187 19.2068 32.6981 19.3794 32.8706Z" fill="#000"/>
</svg>
