<svg width="40" height="40" viewBox="0 0 40 40" fill="none" xmlns="http://www.w3.org/2000/svg">
<path d="M25 11.0003C25.2626 10.7377 25.5744 10.5293 25.9176 10.3872C26.2608 10.245 26.6286 10.1719 27 10.1719C27.3714 10.1719 27.7392 10.245 28.0824 10.3872C28.4256 10.5293 28.7374 10.7377 29 11.0003C29.2626 11.2629 29.471 11.5747 29.6131 11.9179C29.7553 12.2611 29.8284 12.6289 29.8284 13.0003C29.8284 13.3717 29.7553 13.7395 29.6131 14.0827C29.471 14.4259 29.2626 14.7377 29 15.0003L15.5 28.5003L10 30.0003L11.5 24.5003L25 11.0003Z" stroke="#A1A1A1" stroke-width="2" stroke-linecap="round" stroke-linejoin="round"/>
</svg>
