<svg width="46" height="28" viewBox="0 0 46 28" fill="none" xmlns="http://www.w3.org/2000/svg">
<path d="M45.8219 12.0003V18.646H43.5787V13.9842H41.4189V18.646H39.1758V11.9999H45.8219V12.0003Z" fill="white"/>
<path fill-rule="evenodd" clip-rule="evenodd" d="M34.2863 18.9457C36.4042 18.9457 37.9768 17.635 37.9768 15.6481C37.9768 13.7249 36.8165 12.4763 34.8773 12.4763C33.9823 12.4763 33.2439 12.7942 32.6876 13.3429C32.8204 12.2089 33.7705 11.381 34.8166 11.381C35.058 11.381 36.8755 11.3771 36.8755 11.3771L37.9032 9.39197C37.9032 9.39197 35.6214 9.44439 34.5607 9.44439C32.1371 9.48702 30.5 11.7106 30.5 14.4113C30.5 17.5575 32.0966 18.9457 34.2863 18.9457ZM34.2992 14.2346C35.0855 14.2346 35.6307 14.7561 35.6307 15.6478C35.6307 16.4504 35.1463 17.1117 34.2992 17.1135C33.4889 17.1135 32.9437 16.5008 32.9437 15.6615C32.9437 14.7696 33.4889 14.2346 34.2992 14.2346Z" fill="white"/>
<path d="M28.6914 16.3023C28.6914 16.3023 28.1396 16.6227 27.3155 16.6833C26.368 16.7116 25.5238 16.1089 25.5238 15.0381C25.5238 13.9935 26.2688 13.3949 27.2916 13.3949C27.9188 13.3949 28.7485 13.8327 28.7485 13.8327C28.7485 13.8327 29.3557 12.7107 29.6702 12.1495C29.0943 11.7099 28.3272 11.4689 27.435 11.4689C25.1834 11.4689 23.4395 12.9474 23.4395 15.0248C23.4395 17.1288 25.0786 18.573 27.435 18.5294C28.0937 18.5047 29.0024 18.2717 29.5562 17.9134L28.6914 16.3023Z" fill="white"/>
<path d="M0.176758 6.31555L3.4998 12.2086V15.8032L0.180645 21.6846L0.176758 6.31555Z" fill="#5B57A2"/>
<path d="M12.6367 10.3077L15.6363 8.39792L21.7751 8.39197L12.6367 14.2073V10.3077Z" fill="#D90751"/>
<path d="M12.6199 6.39731L12.6375 14.2076L9.31445 12.1749V0.5L12.6202 6.39731H12.6199Z" fill="#FAB718"/>
<path d="M21.7759 8.38624L15.58 8.39223L12.5357 6.47538L9.31445 0.5L21.7756 8.38624H21.7759Z" fill="#ED6F26"/>
<path d="M12.6376 21.3534L12.6397 17.4712L9.31668 15.4867L9.31641 27.2284L12.6376 21.3534Z" fill="#63B22F"/>
<path d="M15.5907 19.6077L3.40507 12.1069L0.176758 6.31555L21.7765 19.6001L15.5905 19.6077H15.5907Z" fill="#1487C9"/>
<path d="M9.31445 27.5L12.5546 21.5187L15.5781 19.6156L21.7759 19.6078L9.31445 27.5Z" fill="#017F36"/>
<path d="M0.176758 21.6845L9.60192 15.8833L6.52963 13.9998L3.3859 15.9577L0.176758 21.6845Z" fill="#984995"/>
</svg>
