<svg width="17" height="16" viewBox="0 0 17 16" fill="none" xmlns="http://www.w3.org/2000/svg">
<circle cx="8.5" cy="8" r="8" fill="white"/>
<circle cx="8.5" cy="8" r="4" fill="#83C150"/>
<mask id="path-3-inside-1_846_5861" fill="white">
<path d="M8.5 15.493C8.5 15.773 8.72724 16.0017 9.00671 15.9839C9.92651 15.9256 10.8306 15.7086 11.6787 15.3414C12.6822 14.9069 13.5859 14.2713 14.3341 13.4739C15.0822 12.6765 15.659 11.7342 16.0288 10.7052C16.3985 9.67611 16.5534 8.5822 16.4838 7.49096C16.4142 6.39972 16.1217 5.33433 15.6242 4.36058C15.1268 3.38683 14.435 2.52539 13.5916 1.82947C12.7482 1.13354 11.7711 0.617891 10.7206 0.314374C9.83275 0.0578401 8.9084 -0.0425537 7.98863 0.0163597C7.70917 0.0342599 7.51282 0.289954 7.54838 0.56772V0.56772C7.58395 0.845487 7.838 1.03989 8.11762 1.02456C8.89959 0.981698 9.68445 1.07056 10.4391 1.28862C11.3565 1.55366 12.2097 2.00394 12.9462 2.61165C13.6827 3.21936 14.2868 3.97161 14.7212 4.82192C15.1555 5.67224 15.411 6.60258 15.4718 7.55549C15.5325 8.5084 15.3973 9.46365 15.0744 10.3622C14.7515 11.2608 14.2479 12.0837 13.5945 12.78C12.9412 13.4764 12.152 14.0314 11.2758 14.4108C10.5549 14.7229 9.78769 14.9107 9.00661 14.9675C8.72731 14.9878 8.5 15.2129 8.5 15.493V15.493Z"/>
</mask>
<path d="M8.5 15.493C8.5 15.773 8.72724 16.0017 9.00671 15.9839C9.92651 15.9256 10.8306 15.7086 11.6787 15.3414C12.6822 14.9069 13.5859 14.2713 14.3341 13.4739C15.0822 12.6765 15.659 11.7342 16.0288 10.7052C16.3985 9.67611 16.5534 8.5822 16.4838 7.49096C16.4142 6.39972 16.1217 5.33433 15.6242 4.36058C15.1268 3.38683 14.435 2.52539 13.5916 1.82947C12.7482 1.13354 11.7711 0.617891 10.7206 0.314374C9.83275 0.0578401 8.9084 -0.0425537 7.98863 0.0163597C7.70917 0.0342599 7.51282 0.289954 7.54838 0.56772V0.56772C7.58395 0.845487 7.838 1.03989 8.11762 1.02456C8.89959 0.981698 9.68445 1.07056 10.4391 1.28862C11.3565 1.55366 12.2097 2.00394 12.9462 2.61165C13.6827 3.21936 14.2868 3.97161 14.7212 4.82192C15.1555 5.67224 15.411 6.60258 15.4718 7.55549C15.5325 8.5084 15.3973 9.46365 15.0744 10.3622C14.7515 11.2608 14.2479 12.0837 13.5945 12.78C12.9412 13.4764 12.152 14.0314 11.2758 14.4108C10.5549 14.7229 9.78769 14.9107 9.00661 14.9675C8.72731 14.9878 8.5 15.2129 8.5 15.493V15.493Z" fill="white" stroke="#83C150" stroke-width="2" mask="url(#path-3-inside-1_846_5861)"/>
</svg>
