<svg width="144" height="38" viewBox="0 0 144 38" fill="none" xmlns="http://www.w3.org/2000/svg">
<g clip-path="url(#clip0_6399_511433)">
<mask id="mask0_6399_511433" style="mask-type:luminance" maskUnits="userSpaceOnUse" x="0" y="0" width="144" height="38">
<path d="M143.533 0H0.243042V38H143.533V0Z" fill="white"/>
</mask>
<g mask="url(#mask0_6399_511433)">
<path d="M42.1326 17.7752L42.6835 16.0071L40.8609 16.0642C40.7069 16.0642 39.5876 16.0325 38.5018 15.243C38.5827 15.251 38.6636 15.2621 38.7462 15.2621C39.8639 15.2621 40.945 14.5872 41.3785 13.6227L42.1628 11.8799C41.1801 11.8927 40.2814 11.7685 40.2814 11.7685C40.2734 11.7669 39.5654 11.6762 38.7462 10.8373C38.1587 10.2358 37.4317 9.91737 36.6441 9.91737C36.2997 9.91737 35.9916 9.97943 35.7265 10.0639C35.7679 9.92218 35.8074 9.77892 35.8298 9.63085C36.0805 7.99944 35.0328 6.75482 35.0328 6.75646L33.6626 5.05504L32.8133 7.05407C32.81 7.06046 32.5957 7.52843 32.2116 7.75757C32.0957 7.17028 31.8115 6.50978 31.2034 5.87787C30.0571 4.68733 28.6616 4.51064 27.9313 4.51064C27.5931 4.51064 27.3519 4.54728 27.293 4.5568L25.6388 4.88316C25.734 4.51232 25.9372 3.86764 26.3087 3.28671L27.2216 1.86066L24.9243 2.12328L24.1924 0.565021L22.7763 1.2972L21.4665 0L20.1598 1.2972L18.7389 0.565021L18.0086 2.12328L15.713 1.86066L16.6273 3.28671C16.9989 3.86764 17.2021 4.51064 17.2958 4.88149L15.7176 4.56957L15.6637 4.56005C15.5842 4.54728 15.3446 4.51064 15.0048 4.51064C14.2745 4.51064 12.879 4.6889 11.7358 5.87787C11.1262 6.5082 10.842 7.17028 10.7246 7.75757C10.3436 7.5316 10.1308 7.06996 10.1308 7.06996L9.2798 5.05975L7.88751 6.77242C7.71759 6.99358 6.87776 8.16348 7.10634 9.63414C7.1302 9.78057 7.16832 9.92376 7.20958 10.0655C6.94606 9.98108 6.63803 9.91901 6.29356 9.91901C5.50606 9.91901 4.77896 10.2373 4.18994 10.8391C3.37381 11.6746 2.66891 11.7685 2.67534 11.7685C2.67534 11.7685 1.9307 11.9022 0.7781 11.8814L1.5576 13.6243C1.99109 14.5905 3.07376 15.2637 4.18994 15.2637C4.27409 15.2637 4.35501 15.2525 4.4376 15.2446C3.35483 16.034 2.23554 16.0658 2.10055 16.0674L0.243042 16.0071L0.805078 17.7736C1.0877 18.6842 2.03228 20.1929 3.84226 20.3553C3.64534 21.1829 3.20874 22.1093 2.24985 22.5087L0.867016 23.0801L1.6211 24.3964C2.0466 25.1063 3.04522 25.9371 4.46769 25.9371C4.77574 25.9355 5.07257 25.9052 5.35841 25.8448C5.43146 26.1695 5.52349 26.4942 5.6315 26.8156C6.05534 28.0794 5.69022 28.9611 5.68545 28.9708L5.00275 30.4047L6.5269 30.8075C6.54599 30.8138 7.00636 30.9395 7.58267 30.9395C7.84469 30.9395 8.09387 30.9125 8.3289 30.8569C8.50665 30.8154 8.67657 30.7597 8.84004 30.6929C9.03694 31.0478 9.27667 31.3709 9.5561 31.6605C10.5325 32.6649 11.9154 33.1741 13.668 33.1741H13.6744L14.9255 33.1582L12.3407 34.2342L14.3032 35.1845C15.016 35.533 15.8621 35.9452 16.7227 36.2603L16.4781 36.9321L17.1545 37.2408C17.2148 37.2678 18.515 37.852 20.6775 37.9761C20.6775 37.9761 21.1998 38 21.4871 38C21.7744 38 22.2904 37.9746 22.2904 37.9746C24.4386 37.8472 25.7292 37.2695 25.7897 37.2408L26.4675 36.9304L26.2198 36.2572C27.1058 35.9325 27.9821 35.5043 28.6648 35.1701L30.5906 34.2326L28.0138 33.1552L29.2696 33.1711C31.0241 33.1711 32.4085 32.6617 33.3831 31.6558C33.661 31.3677 33.9008 31.0447 34.0993 30.6897C34.2628 30.7566 34.4342 30.8122 34.612 30.8537C34.8454 30.9093 35.0947 30.9364 35.3566 30.9364C35.9234 30.9364 36.3886 30.8107 36.4013 30.8075L37.9318 30.4016L37.2649 28.9946C37.2491 28.958 36.8839 28.0778 37.3078 26.8125C37.4157 26.4894 37.5062 26.1648 37.5792 25.8416C37.8667 25.9021 38.1667 25.9339 38.4764 25.9339C40.2878 25.9339 41.1562 24.6558 41.3245 24.3789L42.0707 23.077L40.6879 22.5071C39.7274 22.1076 39.2924 21.1797 39.0971 20.3538C40.8815 20.2009 41.8405 18.6921 42.1326 17.7752ZM17.4164 5.4911L17.3975 5.49591L17.4133 5.4752L17.4164 5.4911Z" fill="white"/>
<path d="M21.4681 5.41309C20.0043 5.41465 18.9073 5.89531 18.6675 6.46035L21.4681 7.56818L24.2687 6.46035C24.0305 5.89531 22.9335 5.41465 21.4681 5.41309Z" fill="white"/>
<path d="M21.4965 34.7387H21.4933H21.4694H21.4424H21.4409C20.5533 34.7451 19.3325 34.562 18.7434 34.3901L18.0353 36.3112C18.5021 36.4784 20.0835 36.7966 21.4694 36.7966C22.8523 36.7966 24.4351 36.4768 24.9003 36.3112L24.1937 34.3901C23.6033 34.5636 22.3839 34.7451 21.4965 34.7387Z" fill="white"/>
<path d="M26.8551 32.8289C26.328 33.1281 25.1515 33.5769 24.4672 33.7854L25.042 35.3723C26.1009 35.0825 26.974 34.7436 27.6965 34.3807L26.5041 33.9827L26.8551 32.8289Z" fill="white"/>
<path d="M16.0829 32.8289L16.4353 33.9827L15.2415 34.3807C15.9622 34.7436 16.8402 35.0825 17.8944 35.3723L18.4691 33.7854C17.7879 33.5769 16.61 33.1265 16.0829 32.8289Z" fill="white"/>
<path d="M21.4682 3.57617C22.5716 3.57617 23.6543 3.84036 24.4862 4.30521C24.5625 4.04887 24.6689 3.73852 24.8133 3.41382L24.4991 3.45203L24.1687 3.48709L24.029 3.18626L23.6083 2.29498L22.8415 2.69597L22.543 2.8488L22.3049 2.61328L21.4714 1.78564L20.6395 2.61328L20.4013 2.8488L20.1029 2.69597L19.3313 2.29498L18.9153 3.18626L18.7724 3.48709L18.4422 3.45203L18.1278 3.41382C18.2724 3.74008 18.3771 4.04887 18.4549 4.30521C19.2884 3.84036 20.3679 3.57617 21.4682 3.57617Z" fill="white"/>
<path d="M38.3145 13.8774C38.4575 13.9268 38.6035 13.949 38.748 13.949C39.3719 13.949 39.9752 13.5448 40.1831 13.0816C40.1831 13.0816 39.0385 13.0116 37.808 11.7589C37.416 11.353 37.0016 11.2322 36.6459 11.2322C36.0934 11.2322 35.679 11.525 35.679 11.525C37.1651 12.3176 37.4682 13.5909 38.3145 13.8774Z" fill="white"/>
<path d="M4.18898 13.949C4.33341 13.949 4.47949 13.9268 4.61925 13.8774C5.46858 13.5909 5.77341 12.3176 7.25946 11.525C7.25946 11.525 6.84342 11.2322 6.29415 11.2322C5.93692 11.2322 5.52253 11.353 5.12878 11.7589C3.90003 13.0116 2.75531 13.0816 2.75531 13.0816C2.96012 13.5448 3.56501 13.949 4.18898 13.949Z" fill="white"/>
<path d="M38.7181 19.0519C38.7435 19.0534 38.7658 19.0534 38.7928 19.0534C40.3501 19.0534 40.8789 17.3805 40.8789 17.3805H40.8487C40.563 17.3805 38.2466 17.3137 36.6097 15.2271C35.5318 13.8552 34.6489 12.6487 32.9041 12.1743L32.7327 12.1441L32.6946 11.969C32.647 11.7016 32.8296 11.4518 33.244 11.1812C35.6508 9.60075 34.0171 7.58574 34.0171 7.58574C34.0171 7.58574 33.3296 9.19808 31.7913 9.19808C31.7547 9.19808 31.715 9.19637 31.677 9.19637C31.5023 9.18687 31.3341 9.18047 31.1641 9.14399L30.88 9.0882C30.88 9.0882 31.3182 7.89291 30.2608 6.79471C29.4637 5.96549 28.4938 5.82544 27.9333 5.82544C27.6507 5.82544 27.4713 5.86196 27.4713 5.86196C28.0031 6.55911 28.3873 7.71469 27.773 8.42769C27.2428 9.04044 25.9472 9.07065 25.9472 9.98424C25.9472 10.3711 26.3076 10.8231 26.9553 11.2289C28.9034 12.4592 30.8371 14.0906 31.6404 16.2776C32.6454 19.0056 31.5134 20.8154 29.8972 21.8531C29.8972 21.8531 30.4037 22.3209 31.1388 22.3798C31.288 22.3942 31.4341 22.4005 31.5707 22.4005C33.1217 22.4005 33.9235 21.6716 33.9235 21.6716C33.9235 21.6716 33.7916 22.679 32.9835 23.615C32.239 24.4792 31.261 24.9869 29.7702 25.0092C29.7702 25.0092 29.7226 25.7031 30.383 26.3032C30.8053 26.682 31.7817 26.8061 31.7817 26.8061C31.7817 26.8061 29.9543 27.177 29.7527 29.8828C29.6431 31.3486 29.2701 31.8579 29.2701 31.8579H29.3035C33.544 31.8579 33.4345 28.2116 33.4345 28.2116C33.4345 28.2116 33.7297 29.2906 34.9125 29.5724C35.0553 29.6106 35.2078 29.625 35.3538 29.625C35.735 29.625 36.0651 29.5358 36.0651 29.5358C36.0651 29.5358 35.446 28.2259 36.0603 26.3939C36.57 24.8739 36.4874 23.7471 36.4874 23.7471C36.4874 23.7471 37.059 24.6129 38.4753 24.6209H38.4894C39.6691 24.6209 40.1834 23.7248 40.1834 23.7248C37.3559 22.5486 37.6354 18.751 37.6354 18.751C37.6354 18.751 38.0021 19.0247 38.7181 19.0519ZM37.8671 23.018C36.7177 22.4499 35.9905 20.9411 35.8143 20.3967C35.6238 23.3889 34.1663 25.466 32.4628 27.4651C31.5785 28.5012 31.2706 29.5086 31.2706 29.5086C31.2706 29.5086 31.4404 28.3676 32.2056 27.4381C33.7948 25.5233 35.3048 23.1407 35.4174 20.3856C35.4952 18.4629 35.0014 16.9031 34.2315 15.6187C34.6616 16.9572 34.6014 18.5966 33.1391 20.1261C33.1391 20.1261 36.0493 16.6293 31.9802 13.045C30.3513 11.6811 28.5699 10.839 27.6524 10.2422C30.9673 11.3261 32.5851 10.1323 32.5851 10.1323C31.5261 11.0522 30.156 11.0363 29.3065 10.9043C29.5368 11.0173 29.7766 11.135 30.0354 11.2735C32.8296 12.7952 35.3412 15.2987 35.7698 18.7669V18.7398C36.4208 22.1442 37.8671 23.018 37.8671 23.018Z" fill="white"/>
<path d="M11.1547 26.8061C11.1547 26.8061 12.1311 26.6836 12.5534 26.3032C13.2122 25.7031 13.1663 25.0092 13.1663 25.0092C11.6739 24.9885 10.6975 24.4792 9.94814 23.6166C9.14631 22.6807 9.01302 21.6732 9.01302 21.6732C9.01302 21.6732 9.81466 22.4022 11.3643 22.4022C11.504 22.4022 11.6485 22.3958 11.7977 22.3814C12.5328 22.3225 13.0408 21.8546 13.0408 21.8546C11.4245 20.8169 10.291 19.0056 11.2944 16.2776C12.0994 14.0922 14.0315 12.4592 15.9796 11.2289C16.6273 10.8231 16.9877 10.3726 16.9877 9.98424C16.9877 9.07065 15.6937 9.04044 15.1634 8.42769C14.5491 7.71469 14.9349 6.55752 15.4652 5.86196C15.4652 5.86196 15.2889 5.82544 15.0047 5.82544C14.4459 5.82544 13.4758 5.96549 12.6788 6.79471C11.6183 7.89291 12.0581 9.0882 12.0581 9.0882L11.7739 9.14399C11.6041 9.18047 11.4341 9.18687 11.261 9.19637C11.2214 9.19637 11.1864 9.19808 11.1484 9.19808C9.6068 9.19808 8.92255 7.58726 8.92255 7.58726C8.92255 7.58726 7.28884 9.60234 9.69408 11.1828C10.1085 11.4534 10.2895 11.7032 10.2419 11.9706L10.2036 12.1457L10.029 12.176C8.28745 12.6503 7.40316 13.8567 6.32517 15.2287C4.69145 17.3122 2.37826 17.3805 2.08941 17.3805H2.05756C2.05756 17.3805 2.58629 19.0534 4.14373 19.0534C4.16916 19.0534 4.19136 19.0534 4.21834 19.0519C4.93434 19.0263 5.30266 18.751 5.30266 18.751C5.30266 18.751 5.57896 22.5469 2.75457 23.7248C2.75457 23.7248 3.26899 24.6209 4.44857 24.6209H4.46288C5.88057 24.6129 6.45063 23.7471 6.45063 23.7471C6.45063 23.7471 6.36799 24.8739 6.87612 26.3939C7.49044 28.2259 6.87443 29.5358 6.87443 29.5358C6.87443 29.5358 7.20469 29.625 7.5841 29.625C7.73173 29.625 7.88262 29.6106 8.02393 29.5724C9.20504 29.2906 9.50199 28.2116 9.50199 28.2116C9.50199 28.2116 9.39399 31.8579 13.6346 31.8579H13.6647C13.6647 31.8579 13.2933 31.3486 13.1853 29.8828C12.9821 27.177 11.1547 26.8061 11.1547 26.8061ZM10.4737 27.4651C8.77016 25.466 7.31426 23.3889 7.12211 20.3967C6.94593 20.9395 6.22192 22.4499 5.07255 23.018C5.07255 23.018 6.51719 22.1442 7.16663 18.7398V18.7669C7.59687 15.3004 10.1069 12.7952 12.9026 11.2735C13.1583 11.1334 13.4011 11.0157 13.6298 10.9043C12.7804 11.0363 11.4103 11.0522 10.3513 10.1323C10.3513 10.1323 11.9692 11.3261 15.2825 10.2422C14.3649 10.839 12.5852 11.6811 10.9562 13.045C6.88551 16.6293 9.79726 20.1261 9.79726 20.1261C8.33353 18.5949 8.2748 16.9572 8.70498 15.6187C7.93346 16.9047 7.44123 18.4629 7.52062 20.3856C7.63175 23.1407 9.14155 25.5233 10.7276 27.4381C11.4945 28.366 11.6676 29.5086 11.6676 29.5086C11.6676 29.5086 11.3563 28.5012 10.4737 27.4651Z" fill="white"/>
<path d="M18.333 13.4747C18.4028 13.5495 18.471 13.6308 18.5363 13.7118C18.5521 13.731 18.5663 13.7485 18.5822 13.7708C18.6426 13.8519 18.7045 13.9379 18.7633 14.0254C18.7759 14.043 18.7887 14.0637 18.8029 14.0842C18.8744 14.1925 18.9411 14.304 19.0077 14.4186C19.619 15.4769 20.5986 16.1089 21.467 16.1105C22.337 16.1089 23.3134 15.4769 23.9279 14.4186C23.9961 14.3008 24.0644 14.1862 24.1357 14.0796C24.1469 14.0637 24.1581 14.0493 24.1675 14.0335C24.2278 13.9427 24.2914 13.8536 24.3581 13.7676C24.3723 13.7485 24.385 13.7326 24.3978 13.7167C24.466 13.6323 24.5359 13.5496 24.6073 13.4731C24.62 13.4604 24.6295 13.4493 24.6406 13.4398C24.9518 13.1199 25.3233 12.8762 25.8091 12.741L25.5932 12.6153H25.5806L24.7199 12.1139L23.8357 11.6062L21.4733 12.8954L21.467 12.8906L21.4622 12.8954L19.0982 11.6062L18.2155 12.1123L17.3535 12.6136H17.3439L17.1248 12.7394C17.6122 12.8746 17.9821 13.115 18.2949 13.435C18.3091 13.4477 18.3186 13.462 18.333 13.4747ZM20.5112 13.3713H21.5114H22.51V14.0588C22.2751 13.7708 21.8179 13.8297 21.8179 13.8297V14.8213C21.8179 14.8213 21.8353 15.3084 22.0051 15.5199H21.5114H21.0161C21.1891 15.3099 21.205 14.8213 21.205 14.8213V13.8297C21.205 13.8297 20.7494 13.7708 20.5112 14.0588V13.3713Z" fill="white"/>
<path d="M21.2636 12.0374V8.01225L18.7075 7.14307L19.3823 11.0442L21.2636 12.0374ZM20.7143 9.00063V9.64676L20.5905 9.58944C20.5841 9.58469 20.4032 9.54334 20.0856 9.29178C19.5617 8.88442 19.5522 8.50879 19.5522 8.50879L20.7143 9.00063Z" fill="white"/>
<path d="M23.5564 11.0442L24.2279 7.14307L21.6734 8.01225V12.0374L23.5564 11.0442ZM22.2228 9.00063L23.3848 8.51037C23.3848 8.51037 23.3754 8.886 22.8498 9.29336C22.5339 9.54492 22.3513 9.58621 22.3449 9.59103L22.221 9.64828V9.00063H22.2228Z" fill="white"/>
<path d="M17.6486 21.3693C17.8979 21.4599 18.1995 21.479 18.3535 21.479C18.3599 21.4599 18.3678 21.436 18.3758 21.4074C18.39 21.3612 18.4028 21.3167 18.4123 21.2657C18.4552 21.043 18.471 20.7899 18.4741 20.6276C18.3693 20.5622 18.2217 20.446 18.1392 20.2726C18.0439 20.072 17.909 19.9797 17.7105 19.9797C17.4533 19.9797 17.1771 20.1341 17.0596 20.2074C16.966 20.7628 17.3739 21.2674 17.6486 21.3693Z" fill="white"/>
<path d="M23.3019 19.2329C22.8272 19.7502 21.8984 20.6511 21.8523 20.6972L21.7967 20.7546L18.8613 20.7083C18.8596 20.9997 18.812 21.2479 18.766 21.4294C18.758 21.4596 18.7501 21.4914 18.7421 21.5233L22.2349 22.152C22.5985 21.8973 23.5987 21.1651 23.9861 20.8787C23.7034 20.4649 23.6764 19.9746 23.7399 19.6293C23.5559 19.5099 23.4145 19.3762 23.3019 19.2329Z" fill="white"/>
<path d="M23.7006 15.6936C23.0242 16.3668 22.3748 16.6151 21.7955 16.6724C21.6906 16.6836 21.5843 16.6898 21.4763 16.6898H21.4683H21.4619C21.354 16.6898 21.2461 16.6836 21.1412 16.6724C21.0397 16.6628 20.9333 16.6469 20.827 16.6231C20.7888 16.7742 20.7411 17.0909 20.8777 17.3902C21 17.6624 21.2493 17.8645 21.6128 17.9983L21.735 18.0459L21.7367 18.178C21.7367 18.2178 21.7652 19.0741 22.6972 19.3113C22.8495 19.1537 22.9877 19.0121 23.0893 18.8942C22.8988 18.4454 22.9987 17.987 23.275 17.7626C23.2624 17.8103 23.1417 18.9341 24.0404 19.351L24.188 19.4211L24.1435 19.5787C24.1291 19.6264 23.8291 20.7135 24.9167 21.1178L25.1088 21.191L25.023 21.3788C25.004 21.4202 24.577 22.4071 25.582 22.9672H27.7617V21.2324C26.987 21.1368 26.6583 20.513 26.5741 20.0704C26.2138 20.0084 25.9344 19.8524 25.7438 19.5978C25.2865 18.9945 25.6803 18.4423 25.6851 18.412C25.6835 18.4168 25.6851 19.0057 26.047 19.3686C26.2265 19.5436 26.4393 19.679 26.7615 19.7092L26.9202 19.7236L26.9346 19.8859C26.9376 19.9208 27.025 20.7167 27.7633 20.8424L27.7617 17.2995C27.7617 16.7504 27.922 16.1981 28.1142 15.6887H23.7006V15.6936Z" fill="white"/>
<path d="M17.8345 17.3165L17.7758 19.5735L18.0313 19.6117L18.6568 17.4471L18.3394 16.7817L17.8345 17.3165Z" fill="white"/>
<path d="M24.731 27.6672C24.75 27.6672 24.7723 27.6704 24.7929 27.6752C25.1819 27.7867 25.2804 29.1936 25.963 29.3193C26.0297 29.3337 26.0916 29.3369 26.1456 29.3369C26.3425 29.3369 26.4599 29.2524 26.5869 29.1029C26.5869 29.1029 26.244 28.5617 25.9869 28.1973C25.6455 27.7198 25.3805 27.1419 24.7453 27.1419C24.731 27.1419 24.712 27.1419 24.6961 27.1437C24.4866 27.1548 24.3579 27.2566 24.3579 27.2566C24.1007 27.0943 23.8611 27.0386 23.6434 27.0386C23.2451 27.0386 22.9355 27.2217 22.7814 27.2217H22.7751L21.3556 27.0816C21.1335 27.0609 20.9588 26.8365 20.8954 26.7489C20.8794 26.725 20.8715 26.7107 20.8715 26.7107C20.8715 26.6725 20.8715 26.6327 20.8684 26.5977C20.8207 25.4343 19.9222 24.936 19.603 24.928C19.603 24.928 19.641 24.7069 19.5538 24.6225L19.241 25.0028L18.2138 24.4856L18.9457 25.3435L18.325 26.0421C18.2471 26.1219 18.2566 26.2301 18.2884 26.2746L18.5567 26.5118L18.8965 26.3048C18.9139 26.2922 18.9442 26.2889 18.9822 26.2889C19.0759 26.2889 19.2172 26.3128 19.3442 26.3128C19.4823 26.3128 19.603 26.2825 19.6173 26.152C19.5744 26.5833 19.176 27.333 19.4379 27.9219L19.6317 28.366L18.3774 28.1845L17.7899 29.1793C17.609 29.5104 17.5804 29.8684 17.755 30.0627L17.974 30.338C17.974 30.338 18.2821 30.0101 18.3519 29.7952L18.2519 29.6854C18.1677 29.5931 18.1726 29.5104 18.2234 29.4101L18.5917 28.7973L20.0729 29.1475L20.1507 29.0137C20.2507 28.8467 20.3952 28.7957 20.554 28.7957C20.6191 28.7957 20.6857 28.8037 20.7556 28.8148C21.0303 28.869 21.4828 28.9421 21.9353 28.9421C22.4321 28.9421 22.9243 28.8531 23.1862 28.5586C23.7229 29.356 24.8104 29.4833 24.7246 29.8875L24.4389 31.2532C24.6279 31.2452 24.8104 31.2325 24.9834 31.2086L25.255 29.7872C25.2852 29.6328 25.3136 29.4243 25.3136 29.4243C25.2089 29.3177 24.9549 29.0918 24.8121 28.818C24.6199 28.4487 24.7246 28.2561 24.5453 27.7754C24.5516 27.7787 24.6056 27.6672 24.731 27.6672ZM19.1903 25.6713C19.1172 25.6697 19.0647 25.6077 19.0679 25.5345C19.0743 25.4645 19.133 25.4087 19.2044 25.4151C19.2775 25.4183 19.3299 25.482 19.3268 25.5521C19.3204 25.622 19.2601 25.6762 19.1903 25.6713Z" fill="white"/>
<path d="M17.1678 28.9594C17.1678 28.9594 17.6583 28.7573 17.7027 28.6124L17.6376 28.4485C17.5916 28.3418 17.5979 28.2256 17.6868 28.162L18.2171 27.7943L19.1031 27.9646C19.1031 27.9646 18.9427 27.764 18.9586 27.4951L18.114 27.3152L17.317 27.8022C16.9756 28.0585 16.9501 28.477 17.063 28.7253L17.1678 28.9594Z" fill="white"/>
<path d="M23.4289 31.2738C23.5877 31.2674 23.7623 31.2643 23.9544 31.2643C23.9544 31.2643 24.4102 29.9289 24.4354 29.8859C24.1799 29.7729 23.6496 29.4911 23.4448 29.3623C23.5797 29.5644 23.9084 29.7968 23.8434 29.9751L23.4289 31.2738Z" fill="white"/>
<path d="M27.7661 23.354H15.1714V28.1034C15.1714 30.0452 16.5734 31.2612 18.642 31.2612C20.371 31.2612 20.8265 31.328 21.4696 31.9678C21.9126 31.5254 22.2793 31.3598 23.0318 31.2977L23.0492 31.2246L23.4461 29.9943C23.424 29.9671 22.7746 29.2271 22.7746 29.2271C22.5175 29.3131 22.3016 29.3274 21.938 29.3274C21.5649 29.3274 21.1442 29.2843 20.6885 29.1985C20.6424 29.1874 20.5996 29.1842 20.5567 29.1842C20.5011 29.1842 20.4964 29.1889 20.4821 29.2159L20.4027 29.3464L20.2582 29.5852L19.9868 29.5231L18.7786 29.2382L18.6134 29.512L18.6388 29.5406L18.7865 29.703L18.7214 29.9147C18.6325 30.1916 18.3435 30.5147 18.2562 30.6039L17.9545 30.9285L17.6799 30.58L17.4736 30.3205C17.2559 30.077 17.2053 29.703 17.3274 29.3115C17.3242 29.3146 17.3194 29.3162 17.3148 29.3162L16.9735 29.4579L16.8194 29.1235L16.7114 28.8866C16.5258 28.4695 16.5939 27.8599 17.0942 27.4922L18.0673 26.9415L18.993 27.1246C19.0151 27.0354 19.0484 26.7171 19.0754 26.636C19.058 26.6344 19.0406 26.6296 19.023 26.6296L18.4896 26.8285L17.9752 26.472C17.9752 26.472 17.7736 26.2778 17.9561 26.0837L18.4546 25.3277L17.1925 23.7391L19.1326 24.5382L19.2612 24.3775L19.5231 24.0638L19.82 24.3472C19.9042 24.4283 19.9518 24.5286 19.9756 24.6289C20.5106 24.8374 21.4679 25.4534 21.5521 26.4545L21.2521 26.5755V26.5834C21.3204 26.6646 21.3775 26.6981 21.3949 26.7012L22.7794 26.8381C22.8143 26.8317 22.8588 26.8158 22.908 26.8014C23.0794 26.7427 23.3383 26.6582 23.6446 26.6582C23.8939 26.6582 24.1351 26.7155 24.367 26.8238C24.4527 26.7919 24.5576 26.768 24.6783 26.7601L24.7448 26.7586C25.4863 26.7586 25.8546 27.3139 26.15 27.7565C26.1991 27.8327 26.2483 27.9061 26.2991 27.9777C26.5579 28.3438 26.8961 28.8802 26.9104 28.9024L27.0628 29.1412L26.8754 29.3593C26.731 29.5263 26.515 29.7222 26.1436 29.7222C26.0674 29.7222 25.9832 29.7141 25.8927 29.6966C25.8134 29.6823 25.7419 29.6583 25.6721 29.6298C25.661 29.703 25.6467 29.7906 25.6323 29.8653L25.3894 31.1355C26.8421 30.7774 27.7646 29.6775 27.7646 28.105L27.7661 23.354Z" fill="#FFDD2D"/>
<path d="M15.1717 22.9721H24.9658C24.4768 22.466 24.4832 21.8246 24.6086 21.4075C24.4657 21.3391 24.3482 21.2562 24.2435 21.1672C23.8608 21.4504 22.6923 22.3036 22.3875 22.5168L22.3225 22.5615L18.4787 21.8643H18.401C18.3089 21.8643 18.174 21.8611 18.0263 21.8436C17.985 22.0171 17.8359 22.1365 17.6643 22.1365C17.6452 22.1365 17.623 22.1349 17.6024 22.1301C17.5023 22.1126 17.4151 22.0616 17.3563 21.9773C17.2961 21.8946 17.2723 21.7958 17.2897 21.694L17.3039 21.6112C16.9071 21.3311 16.5419 20.7055 16.7038 20.0466L16.7197 19.9766L16.7753 19.9369C16.7832 19.9305 16.8498 19.8859 16.9483 19.8286L16.6689 19.7856C16.5641 19.7666 16.4943 19.6694 16.5102 19.566C16.5277 19.461 16.626 19.3861 16.7292 19.4068L17.3944 19.5119L17.4548 17.1626L18.4455 16.1122L19.0631 17.4158L18.4105 19.6758L18.998 19.7681C19.1011 19.784 19.1726 19.8811 19.1568 19.9877C19.1408 20.0816 19.0615 20.1469 18.9678 20.1469C18.9583 20.1469 18.9472 20.1469 18.9376 20.1454L18.4597 20.0674C18.4661 20.0816 18.4755 20.0896 18.482 20.1055C18.5328 20.2106 18.6455 20.287 18.7121 20.3188L21.643 20.365C21.7668 20.244 22.0749 19.9416 22.3908 19.6217C21.67 19.3479 21.4079 18.724 21.3635 18.3101C20.9603 18.1383 20.6824 17.8805 20.5285 17.5446C20.341 17.1293 20.4078 16.7138 20.457 16.5117C20.0664 16.3684 19.6553 16.1075 19.2361 15.6904H14.8225C15.0115 16.1996 15.1717 16.752 15.1717 17.3011V22.9721Z" fill="#FFDD2D"/>
<path d="M19.2059 25.4148C19.1344 25.4084 19.0741 25.4641 19.0694 25.5341C19.0646 25.6073 19.1186 25.6693 19.1917 25.6709C19.2614 25.6773 19.3234 25.6232 19.3297 25.5516C19.3297 25.4816 19.279 25.4164 19.2059 25.4148Z" fill="black"/>
<path d="M27.7491 34.027L27.0236 33.7484L27.2236 32.9972L27.4442 32.1775C27.4442 32.1775 26.1582 32.8763 24.3468 33.4016C23.8324 33.5495 23.4434 33.6164 23.4434 33.6164V34.1734C23.4434 34.1734 22.475 34.3422 21.4954 34.3422H21.4842H21.47H21.4509H21.4398C20.4603 34.3422 19.4918 34.1734 19.4918 34.1734V33.6164C19.4918 33.6164 19.1012 33.5495 18.5884 33.4016C16.7769 32.8763 15.4925 32.1775 15.4925 32.1775L15.71 32.9972L15.9148 33.7484L15.1877 34.027L14.3812 34.3294C15.3068 34.7766 16.5879 35.4293 17.7613 35.7507L17.485 36.5083C17.485 36.5083 18.9726 37.188 21.4509 37.1944V37.196H21.4589H21.47H21.4795H21.4858V37.1944C23.9674 37.188 25.4533 36.5083 25.4533 36.5083L25.1755 35.7507C26.3487 35.4293 27.6332 34.7766 28.554 34.3294L27.7491 34.027ZM15.2417 34.3804L16.4355 33.9825L16.0831 32.8285C16.6085 33.1277 17.7883 33.5765 18.4709 33.7851L17.8946 35.3719C16.8404 35.0807 15.9624 34.7417 15.2417 34.3804ZM21.47 36.7964C20.0839 36.7964 18.5011 36.4765 18.0359 36.3111L18.7439 34.3899C19.3314 34.5619 20.5539 34.7448 21.4414 34.7384H21.443H21.47H21.4938H21.497C22.3845 34.7448 23.6037 34.5619 24.1944 34.3899L24.9008 36.3111C24.4357 36.4781 22.8544 36.7964 21.47 36.7964ZM25.0421 35.3719L24.4675 33.7851C25.1517 33.5765 26.328 33.1277 26.8552 32.8285L26.5043 33.9825L27.6967 34.3804C26.9743 34.7417 26.101 35.0807 25.0421 35.3719Z" fill="black"/>
<path d="M21.4684 4.04092C22.9449 4.04092 24.126 4.53121 24.7786 5.05488C24.7786 5.05488 24.9722 3.88496 25.6343 2.85206L24.4451 2.98729L23.8229 1.66151L22.6273 2.27908L21.4684 1.12988L20.3126 2.27908L19.1156 1.66151L18.4947 2.98729L17.3056 2.85206C17.9676 3.88496 18.1613 5.05488 18.1613 5.05488C18.8154 4.53121 19.9934 4.04092 21.4684 4.04092ZM18.4407 3.45204L18.771 3.4871L18.9139 3.18628L19.3297 2.29499L20.1014 2.69441L20.3999 2.84724L20.6381 2.61172L21.47 1.78408L22.3035 2.61172L22.5416 2.84724L22.8401 2.69441L23.607 2.29499L24.0276 3.18628L24.1673 3.4871L24.4975 3.45204L24.8119 3.41383C24.6674 3.7402 24.561 4.04888 24.4848 4.30522C23.6529 3.84048 22.5701 3.57618 21.4668 3.57618C20.3682 3.57618 19.2869 3.84048 18.4518 4.30522C18.3741 4.04888 18.2693 3.73852 18.1248 3.41383L18.4407 3.45204Z" fill="black"/>
<path d="M38.7909 19.5642C40.7009 19.5642 41.339 17.6161 41.3661 17.5333L41.5788 16.8472L40.8627 16.8695H40.8597C40.6072 16.8695 38.5004 16.8138 37.0065 14.9103L36.8652 14.7336C35.8888 13.489 34.9632 12.3064 33.3089 11.7668C33.3565 11.7239 33.4247 11.6697 33.5185 11.6093C34.3964 11.0299 34.9076 10.3264 35.0362 9.50988C35.2235 8.28115 34.4424 7.30227 34.4076 7.2625L33.8757 6.60358L33.5439 7.38511C33.5217 7.43439 32.9628 8.68547 31.7879 8.68547H31.7006C31.6197 8.68066 31.5434 8.67749 31.4672 8.67103C31.5085 8.11243 31.4069 7.24819 30.6258 6.43803C29.6874 5.46236 28.5349 5.31592 27.9316 5.31592C27.6093 5.31592 27.395 5.3557 27.3727 5.35895L26.5695 5.51805L27.0648 6.17225C27.4538 6.67679 27.8062 7.60792 27.3885 8.09495C27.2552 8.24936 26.9806 8.37508 26.717 8.50079C26.1757 8.75064 25.4374 9.09758 25.4374 9.9826C25.4374 10.5556 25.8804 11.154 26.6837 11.6633C29.062 13.1626 30.5289 14.7272 31.1624 16.4541C32.142 19.1106 30.8639 20.6258 29.6224 21.4232L29.0651 21.7829L29.5526 22.2316C29.6176 22.2891 30.2146 22.8158 31.0957 22.8923C31.2624 22.9034 31.4227 22.9129 31.572 22.9129C32.1372 22.9129 32.6183 22.8238 33.0088 22.7044C32.9008 22.8938 32.769 23.0865 32.6024 23.2806C31.8928 24.105 31.0195 24.4807 29.7637 24.4998L29.2969 24.5078L29.2604 24.9773C29.2556 25.0711 29.2208 25.9418 30.0431 26.682C30.1686 26.7964 30.321 26.8904 30.4797 26.9684C29.9225 27.4714 29.3556 28.3467 29.2462 29.8477C29.1541 31.1002 28.8556 31.5634 28.8524 31.5681L28.3365 32.3576L29.2684 32.3704C30.8085 32.3704 31.9879 31.9438 32.8055 31.1002C33.2883 30.6005 33.5645 30.037 33.7281 29.5373C33.9964 29.7664 34.3425 29.967 34.7932 30.0736C34.9648 30.1134 35.1522 30.1356 35.3538 30.1356C35.7888 30.1356 36.1524 30.0434 36.1937 30.0339L36.789 29.8747L36.5254 29.3176C36.5063 29.2731 36.0095 28.1557 36.5444 26.5609C36.7747 25.8717 36.8921 25.2542 36.9492 24.7735C37.324 24.9692 37.8257 25.1316 38.475 25.1332C39.9483 25.1332 40.5976 24.0303 40.6279 23.9841L40.9184 23.4779L40.3802 23.2551C38.6243 22.5246 38.2353 20.5621 38.1575 19.4989C38.3162 19.5292 38.4973 19.5578 38.702 19.5642H38.7909ZM40.1832 23.7246C40.1832 23.7246 39.6689 24.6208 38.4893 24.6208H38.475C37.0588 24.6128 36.4873 23.7469 36.4873 23.7469C36.4873 23.7469 36.5698 24.8739 36.0587 26.3938C35.4443 28.2258 36.0634 29.5358 36.0634 29.5358C36.0634 29.5358 35.7332 29.6248 35.3522 29.6248C35.2061 29.6248 35.0537 29.6105 34.9108 29.5722C33.7281 29.2906 33.4328 28.2115 33.4328 28.2115C33.4328 28.2115 33.5423 31.8579 29.3017 31.8579H29.2684C29.2684 31.8579 29.6415 31.3485 29.7526 29.8826C29.9542 27.1769 31.7816 26.8061 31.7816 26.8061C31.7816 26.8061 30.8067 26.6835 30.3845 26.3031C29.7239 25.7031 29.77 25.0091 29.77 25.0091C31.2624 24.9884 32.2388 24.4792 32.9834 23.6148C33.79 22.679 33.9233 21.6715 33.9233 21.6715C33.9233 21.6715 33.1215 22.4004 31.5705 22.4004C31.4339 22.4004 31.2878 22.394 31.1386 22.3797C30.4051 22.3209 29.8971 21.8529 29.8971 21.8529C31.5116 20.8151 32.6452 19.0039 31.6403 16.2758C30.8354 14.0906 28.9016 12.4576 26.9552 11.2273C26.3074 10.8214 25.947 10.371 25.947 9.9826C25.947 9.06902 27.2426 9.04039 27.7744 8.42593C28.3872 7.71293 28.003 6.55589 27.4712 5.86033C27.4712 5.86033 27.6505 5.82369 27.9331 5.82369C28.4936 5.82369 29.4637 5.96531 30.2606 6.79295C31.3196 7.89115 30.8798 9.0865 30.8798 9.0865L31.164 9.14223C31.3339 9.17884 31.5022 9.18524 31.6768 9.19315C31.7148 9.19315 31.753 9.19474 31.791 9.19474C33.3295 9.19474 34.017 7.5824 34.017 7.5824C34.017 7.5824 35.6523 9.59906 33.2454 11.1779C32.831 11.4485 32.6484 11.6983 32.6961 11.9658L32.7342 12.1409L32.9056 12.1711C34.6504 12.6454 35.5332 13.8519 36.6112 15.2238C38.248 17.3105 40.5644 17.3773 40.8501 17.3773H40.8803C40.8803 17.3773 40.3516 19.05 38.7941 19.05C38.7687 19.05 38.7465 19.05 38.7195 19.0485C38.0035 19.023 37.6367 18.7477 37.6367 18.7477C37.6367 18.7477 37.3558 22.5469 40.1832 23.7246Z" fill="black"/>
<path d="M35.4362 11.9772C36.1489 12.3575 36.5633 12.8669 36.9269 13.3188C37.2841 13.7597 37.6239 14.1847 38.154 14.3614C38.343 14.4267 38.543 14.4569 38.7463 14.4569C39.5432 14.4569 40.3435 13.9682 40.6466 13.2918L40.9515 12.6138L40.2133 12.5692C40.1783 12.5676 39.2289 12.4817 38.1716 11.3978C37.7366 10.9538 37.2111 10.7197 36.6443 10.7197C35.9521 10.7197 35.4392 11.0667 35.3821 11.1018L34.7026 11.5809L35.4362 11.9772ZM36.6459 11.2323C37.0014 11.2323 37.4158 11.3532 37.808 11.7591C39.0384 13.0118 40.1831 13.0817 40.1831 13.0817C39.9752 13.5433 39.3719 13.9492 38.7478 13.9492C38.6035 13.9492 38.4589 13.9269 38.3144 13.8776C37.4683 13.5911 37.165 12.3178 35.6774 11.5251C35.6774 11.5251 36.0934 11.2323 36.6459 11.2323Z" fill="black"/>
<path d="M35.7691 18.7397V18.7653C35.3405 15.2987 32.8289 12.795 30.0346 11.2719C29.7759 11.1334 29.5378 11.0156 29.3059 10.9026C30.1569 11.0347 31.527 11.0507 32.5844 10.1306C32.5844 10.1306 30.9666 11.3244 27.6516 10.2405C28.5693 10.8374 30.3522 11.6794 31.9795 13.0434C36.0486 16.6276 33.1369 20.1244 33.1369 20.1244C34.5991 18.595 34.6594 16.9556 34.2292 15.6171C34.9992 16.9015 35.4913 18.4612 35.4151 20.3839C35.3025 23.139 33.7926 25.5217 32.2033 27.4364C31.4397 28.3659 31.2683 29.5071 31.2683 29.5071C31.2683 29.5071 31.5762 28.4996 32.4605 27.4634C34.164 25.4644 35.6199 23.3873 35.8104 20.395C35.9866 20.9379 36.7122 22.4483 37.8632 23.0164C37.8663 23.018 36.4201 22.1443 35.7691 18.7397Z" fill="black"/>
<path d="M14.084 31.5664C14.0824 31.5616 13.7871 31.0984 13.692 29.8458C13.5808 28.3449 13.0155 27.4695 12.4568 26.9666C12.6187 26.8902 12.7679 26.7963 12.8933 26.6802C13.7142 25.9399 13.6792 25.0694 13.6744 24.9755L13.6427 24.506L13.1727 24.498C11.9201 24.4772 11.0452 24.1017 10.3356 23.2788C10.1705 23.0847 10.0372 22.892 9.92924 22.7026C10.3197 22.822 10.7976 22.9112 11.3644 22.9112C11.5169 22.9112 11.6741 22.9015 11.8407 22.8904C12.7218 22.814 13.3188 22.2888 13.3854 22.23L13.8728 21.7811L13.3156 21.4213C12.0693 20.6224 10.7961 19.1071 11.774 16.4524C12.4075 14.7254 13.8728 13.1608 16.2543 11.6615C17.0577 11.1522 17.4974 10.5538 17.4974 9.98081C17.4974 9.09591 16.7608 8.74732 16.2194 8.49899C15.9558 8.37328 15.6812 8.24756 15.5479 8.09316C15.1287 7.60771 15.4827 6.67506 15.8701 6.17043L16.3687 5.51633L15.5621 5.35712C15.5384 5.35398 15.3272 5.31421 15.0033 5.31421C14.3999 5.31421 13.2506 5.46064 12.3106 6.43629C11.528 7.24803 11.4248 8.11222 11.4645 8.66924C11.3883 8.6757 11.3121 8.67892 11.2326 8.68361H11.147C9.96893 8.68361 9.41172 7.43265 9.38949 7.38325L9.05754 6.60178L8.52098 7.2607C8.4908 7.3006 7.70657 8.28094 7.89709 9.50809C8.02406 10.3246 8.53526 11.028 9.41322 11.6075C9.50844 11.6679 9.57519 11.722 9.62277 11.7651C7.97009 12.3045 7.04611 13.4888 6.06966 14.7333L5.92834 14.91C4.43605 16.8136 2.32445 16.8694 2.07202 16.8694L1.35291 16.8471L1.57193 17.533C1.59734 17.6158 2.23398 19.564 4.14543 19.564L4.23757 19.5609C4.43916 19.5545 4.62021 19.5274 4.78217 19.4956C4.7027 20.5571 4.31373 22.5196 2.55623 23.2517L2.01962 23.4746L2.31024 23.9807C2.33877 24.0269 2.98972 25.1299 4.46614 25.1299C5.11076 25.1282 5.61241 24.9659 5.98873 24.7702C6.0459 25.2508 6.16334 25.8684 6.3936 26.5575C6.92865 28.1523 6.4301 29.2697 6.41101 29.3143L6.14747 29.8713L6.74446 30.0305C6.78409 30.04 7.15085 30.1323 7.58423 30.1323C7.78752 30.1323 7.97491 30.11 8.1432 30.0702C8.59567 29.9636 8.94484 29.7632 9.20993 29.5339C9.3719 30.0336 9.64981 30.5971 10.1309 31.0968C10.95 31.9404 12.128 32.3669 13.668 32.3669L14.6016 32.3543L14.084 31.5664ZM13.6331 31.8577C9.39256 31.8577 9.50062 28.2112 9.50062 28.2112C9.50062 28.2112 9.20529 29.2904 8.02249 29.5721C7.88118 29.6103 7.73036 29.6247 7.58266 29.6247C7.20169 29.6247 6.873 29.5355 6.873 29.5355C6.873 29.5355 7.489 28.2256 6.87456 26.3936C6.36662 24.8736 6.4492 23.7468 6.4492 23.7468C6.4492 23.7468 5.87916 24.6126 4.46147 24.6206H4.44715C3.26757 24.6206 2.75316 23.7245 2.75316 23.7245C5.5791 22.5483 5.30125 18.7506 5.30125 18.7506C5.30125 18.7506 4.93459 19.0244 4.21692 19.0515C4.19151 19.0531 4.16774 19.0531 4.14232 19.0531C2.58322 19.0531 2.05614 17.3803 2.05614 17.3803H2.08789C2.37529 17.3803 4.68848 17.3134 6.32529 15.2268C7.40329 13.8548 8.28758 12.6499 10.0292 12.1741L10.2038 12.1439L10.242 11.9688C10.2897 11.7013 10.1086 11.4515 9.69427 11.1809C7.2874 9.60042 8.92268 7.58541 8.92268 7.58541C8.92268 7.58541 9.60693 9.19617 11.1485 9.19617C11.1866 9.19617 11.2216 9.19452 11.2612 9.19452C11.4342 9.18496 11.6058 9.17863 11.774 9.14202L12.0582 9.08629C12.0582 9.08629 11.6184 7.89106 12.6789 6.7928C13.476 5.9636 14.446 5.82354 15.0048 5.82354C15.289 5.82354 15.4653 5.86008 15.4653 5.86008C14.9351 6.55719 14.5508 7.71278 15.1636 8.42585C15.6939 9.0386 16.9878 9.0688 16.9878 9.98239C16.9878 10.3691 16.6274 10.8212 15.9797 11.2271C14.0316 12.4574 12.0979 14.0904 11.2945 16.2757C10.2912 19.0038 11.4232 20.8133 13.041 21.8527C13.041 21.8527 12.5329 22.3206 11.7979 22.3796C11.6486 22.3939 11.5042 22.4002 11.3644 22.4002C9.81491 22.4002 9.01315 21.6712 9.01315 21.6712C9.01315 21.6712 9.14644 22.6788 9.94827 23.6146C10.6976 24.4788 11.6741 24.9882 13.1664 25.0089C13.1664 25.0089 13.2141 25.7029 12.5535 26.3028C12.1297 26.6817 11.1548 26.8058 11.1548 26.8058C11.1548 26.8058 12.9839 27.1767 13.1838 29.8824C13.2934 31.3483 13.6633 31.8577 13.6633 31.8577H13.6331Z" fill="black"/>
<path d="M4.1887 14.4587C4.39351 14.4587 4.59354 14.4283 4.78238 14.363C5.31588 14.1864 5.65401 13.7614 6.01123 13.3206C6.37644 12.8685 6.78766 12.3592 7.50039 11.9789L8.23398 11.5842L7.5528 11.105C7.49564 11.0684 6.98444 10.7231 6.29386 10.7231C5.72551 10.7231 5.19843 10.9555 4.76495 11.401C3.7076 12.4834 2.7598 12.5708 2.72483 12.5725L1.98663 12.6154L2.2899 13.295C2.59463 13.9683 3.39322 14.4587 4.1887 14.4587ZM5.1285 11.7609C5.52225 11.3549 5.93664 11.234 6.29386 11.234C6.84313 11.234 7.2591 11.5267 7.2591 11.5267C5.77312 12.321 5.4683 13.5928 4.61887 13.8792C4.47921 13.9286 4.33313 13.9509 4.1887 13.9509C3.56472 13.9509 2.96139 13.5466 2.75503 13.0835C2.75503 13.0819 3.89808 13.0118 5.1285 11.7609Z" fill="black"/>
<path d="M7.52095 20.3856C7.44162 18.4629 7.93379 16.903 8.70532 15.6186C8.27507 16.9572 8.33386 18.5966 9.79765 20.1262C9.79765 20.1262 6.88591 16.6294 10.9565 13.045C12.5856 11.681 14.3668 10.839 15.2829 10.2421C11.9695 11.326 10.3517 10.1323 10.3517 10.1323C11.409 11.0523 12.7792 11.0364 13.6302 10.9028C13.4 11.0157 13.1586 11.1335 12.903 11.2719C10.1057 12.7951 7.59558 15.2987 7.16527 18.7653V18.7383C6.51602 22.1428 5.07123 23.0165 5.07123 23.0165C6.22072 22.4483 6.9447 20.9395 7.12088 20.3952C7.31303 23.3874 8.7688 25.4644 10.4724 27.4636C11.3567 28.4996 11.6679 29.5072 11.6679 29.5072C11.6679 29.5072 11.4948 28.3659 10.728 27.4364C9.14195 25.5249 7.63208 23.1407 7.52095 20.3856Z" fill="black"/>
<path d="M20.5109 13.3713V14.0589C20.7475 13.7708 21.2048 13.8297 21.2048 13.8297V14.8214C21.2048 14.8214 21.1889 15.3084 21.0158 15.52H21.5111H22.0049C21.835 15.31 21.8175 14.8214 21.8175 14.8214V13.8297C21.8175 13.8297 22.2747 13.7708 22.5098 14.0589V13.3713H21.5111H20.5109Z" fill="black"/>
<path d="M20.0853 9.29355C20.4012 9.54511 20.5838 9.58647 20.5902 9.59128L20.714 9.64853V9.0007L19.5519 8.5105C19.5519 8.51208 19.563 8.88606 20.0853 9.29355Z" fill="black"/>
<path d="M22.8495 9.29355C23.375 8.88606 23.3846 8.5105 23.3846 8.5105L22.2224 9.0007V9.64853L22.3446 9.59128C22.3526 9.58647 22.5336 9.54511 22.8495 9.29355Z" fill="black"/>
<path d="M24.9431 6.65616C24.9431 5.67411 23.2935 4.79077 21.4725 4.79077H21.4709H21.4662H21.4615C19.6404 4.79077 17.9909 5.67411 17.9909 6.65616L18.0274 6.89803L18.7545 11.0824L18.0243 11.5074L16.1349 12.6136H16.1414C16.1414 12.6136 15.7159 12.8316 15.5189 12.9669C14.7998 13.4684 14.6474 14.1988 15.0649 14.5013C15.1682 13.906 15.638 13.2821 16.5176 13.2821C17.1511 13.2821 17.6336 13.6099 18.0243 14.1018C18.1243 14.2259 18.2195 14.358 18.3084 14.5013C18.4179 14.681 18.5274 14.8387 18.6371 14.9915H13.7711C14.1282 15.7125 14.468 16.4765 14.468 17.3057V28.1032C14.468 30.7167 16.4731 31.9645 18.6418 31.9645C20.3184 31.9645 20.5439 31.8882 21.4695 32.8112C22.3903 31.8866 22.6157 31.9645 24.2938 31.9645C26.464 31.9645 28.4661 30.7167 28.4661 28.1032V17.3057C28.4661 16.4765 28.8059 15.7125 29.1647 14.9915H24.297C24.405 14.8402 24.5145 14.681 24.624 14.5013C24.7145 14.358 24.8082 14.2259 24.9066 14.1018C25.3003 13.6084 25.7813 13.2821 26.4148 13.2821C27.2943 13.2821 27.7628 13.9044 27.8675 14.5013C28.2851 14.1988 28.1342 13.4684 27.4102 12.9669C27.2166 12.8316 26.791 12.6136 26.791 12.6136H26.7975L24.9082 11.5074L24.1811 11.0824L24.9082 6.89803L24.9431 6.65616ZM18.7069 7.14319L21.263 8.01219V12.0374L19.3817 11.0427L18.7069 7.14319ZM19.2356 15.6933C19.6548 16.1119 20.066 16.3714 20.4565 16.5146C20.4056 16.7168 20.3391 17.1338 20.528 17.5492C20.6819 17.8834 20.9614 18.1413 21.363 18.3132C21.4074 18.727 21.6678 19.3493 22.3903 19.6247C22.0743 19.9446 21.7663 20.2454 21.6408 20.368L18.7116 20.3218C18.645 20.2883 18.5323 20.2136 18.4815 20.107C18.4751 20.0926 18.4656 20.0846 18.4609 20.0687L18.9387 20.1467C18.9499 20.1483 18.9593 20.1483 18.9689 20.1483C19.061 20.1483 19.1419 20.0846 19.1578 19.9892C19.1737 19.8825 19.1023 19.7853 18.9991 19.7695L18.4116 19.6772L19.0641 17.4186L18.4465 16.1151L17.456 17.1657L17.3955 19.5148L16.7304 19.4098C16.6271 19.3891 16.5287 19.4655 16.5113 19.5689C16.4954 19.6725 16.5652 19.7695 16.67 19.7886L16.9494 19.8315C16.8494 19.8889 16.7844 19.9334 16.7763 19.9398L16.7192 19.9796L16.7033 20.0497C16.5414 20.7086 16.9081 21.3341 17.3035 21.6142L17.2892 21.6969C17.2733 21.7989 17.2956 21.8975 17.3558 21.9803C17.413 22.0647 17.5019 22.1156 17.6003 22.1331C17.6211 22.1362 17.6432 22.1378 17.6623 22.1378C17.8337 22.1378 17.983 22.0184 18.0259 21.8451C18.1735 21.8625 18.3084 21.8657 18.4005 21.8657H18.4784L22.322 22.5612L22.387 22.5183C22.6934 22.3034 23.8603 21.4503 24.243 21.1685C24.3477 21.2593 24.4652 21.3421 24.6081 21.4104C24.4843 21.8274 24.4763 22.4689 24.9669 22.9751H15.1713V17.3073C15.1713 16.7582 15.011 16.2059 14.822 15.6965H19.2356V15.6933ZM23.9857 20.8789C23.5969 21.1654 22.5966 21.8975 22.2346 22.1521L18.7419 21.5235C18.7498 21.4917 18.7577 21.4614 18.7657 21.4296C18.8117 21.248 18.8578 20.9998 18.861 20.7086L21.7964 20.7564L21.852 20.6989C21.8965 20.6545 22.8268 19.7536 23.3015 19.2347C23.4142 19.3763 23.5555 19.5117 23.7397 19.631C23.6762 19.9748 23.7032 20.465 23.9857 20.8789ZM18.1386 20.2724C18.2211 20.4459 18.3703 20.5621 18.4735 20.6274C18.4703 20.7897 18.4545 21.0428 18.4116 21.2656C18.402 21.315 18.3895 21.3611 18.3751 21.4073C18.3672 21.436 18.3592 21.4598 18.3529 21.4789C18.1989 21.4789 17.8956 21.4598 17.648 21.3691C17.3734 21.2672 16.9637 20.7627 17.059 20.2073C17.178 20.1339 17.4527 19.9796 17.71 19.9796C17.9084 19.978 18.0433 20.0719 18.1386 20.2724ZM17.775 19.5738L17.8337 17.3184L18.3386 16.782L18.6562 17.4473L18.0306 19.6119L17.775 19.5738ZM23.954 31.2658C23.7635 31.2658 23.5873 31.269 23.4285 31.2754L23.8445 29.9782C23.9096 29.7983 23.5809 29.5675 23.4459 29.3654C23.6508 29.4944 24.1811 29.7761 24.4367 29.8891C24.4097 29.9304 23.954 31.2658 23.954 31.2658ZM25.259 29.792L24.9876 31.2117C24.8145 31.2356 24.6304 31.2482 24.4415 31.2562L24.7272 29.8907C24.8129 29.4847 23.7255 29.359 23.1888 28.5616C22.9268 28.8577 22.4331 28.9452 21.9378 28.9452C21.4853 28.9452 21.0329 28.872 20.7581 28.8179C20.6883 28.8068 20.6216 28.7988 20.5565 28.7988C20.3978 28.7988 20.2532 28.8482 20.1533 29.0168L20.0738 29.1505L18.5927 28.8004L18.2244 29.4116C18.1719 29.5103 18.1687 29.5947 18.2529 29.6868L18.3529 29.7968C18.2846 30.0132 17.9767 30.3395 17.9767 30.3395L17.756 30.064C17.5812 29.8683 17.6099 29.5119 17.7925 29.1808L18.3799 28.1859L19.6342 28.3674L19.4388 27.9218C19.1769 27.3328 19.5754 26.5832 19.6182 26.1519C19.6039 26.2824 19.4848 26.3111 19.3451 26.3111C19.2182 26.3111 19.0768 26.2871 18.9832 26.2871C18.9467 26.2871 18.9149 26.2903 18.8975 26.303L18.5577 26.51L18.2894 26.2728C18.2576 26.2267 18.2465 26.1201 18.3258 26.0405L18.9467 25.3434L18.2133 24.4855L19.2404 25.0028L19.5531 24.6224C19.6389 24.7067 19.6024 24.928 19.6024 24.928C19.9231 24.9359 20.8216 25.4342 20.8693 26.596C20.8724 26.6309 20.8724 26.6708 20.8724 26.7089C20.8724 26.7089 20.8805 26.7233 20.8963 26.7471C20.9598 26.8348 21.1344 27.0591 21.3566 27.0798L22.776 27.2199H22.7823C22.938 27.2199 23.2476 27.0369 23.6444 27.0369C23.8603 27.0369 24.1016 27.0926 24.3589 27.2549C24.3589 27.2549 24.4874 27.153 24.697 27.1418C24.7129 27.1402 24.7305 27.1402 24.7463 27.1402C25.383 27.1402 25.6464 27.7165 25.9878 28.1956C26.245 28.5601 26.5879 29.1012 26.5879 29.1012C26.4609 29.2524 26.3434 29.3351 26.1465 29.3351C26.0926 29.3351 26.0307 29.3303 25.964 29.3176C25.2812 29.1919 25.1829 27.7849 24.7939 27.6735C24.7733 27.6671 24.7511 27.6655 24.732 27.6655C24.6066 27.6655 24.5511 27.777 24.5511 27.777C24.7287 28.256 24.6256 28.4502 24.8161 28.8195C24.959 29.0933 25.213 29.3192 25.3178 29.4259C25.3178 29.4291 25.2892 29.636 25.259 29.792ZM17.6369 28.4486L17.7019 28.6126C17.6591 28.7558 17.167 28.9595 17.167 28.9595L17.0605 28.7271C16.9478 28.4788 16.9716 28.0603 17.3146 27.804L18.1115 27.3169L18.9562 27.4968C18.9403 27.7658 19.1006 27.9664 19.1006 27.9664L18.2148 27.7961L17.6845 28.1637C17.5956 28.2258 17.5892 28.342 17.6369 28.4486ZM25.3924 31.1337L25.6354 29.8635C25.648 29.7888 25.6639 29.7013 25.675 29.628C25.7433 29.6567 25.8163 29.6805 25.8957 29.6949C25.9861 29.7124 26.0703 29.7203 26.1465 29.7203C26.5181 29.7203 26.734 29.5246 26.8784 29.3574L27.0658 29.1394L26.9134 28.9007C26.8991 28.8768 26.5625 28.342 26.3022 27.9759C26.2513 27.9043 26.202 27.8327 26.1529 27.7546C25.8576 27.3121 25.4877 26.7568 24.7463 26.7568L24.6796 26.7584C24.5573 26.7663 24.4526 26.7901 24.3685 26.8219C24.135 26.7121 23.8953 26.6564 23.646 26.6564C23.3396 26.6564 23.0808 26.7409 22.9094 26.7997C22.8602 26.814 22.8157 26.8299 22.7808 26.8363L21.3947 26.6994C21.3773 26.6963 21.3201 26.6629 21.2519 26.5801V26.5737L21.5519 26.4527C21.4678 25.4517 20.5089 24.8357 19.9739 24.6271C19.9501 24.5268 19.9025 24.4265 19.8183 24.3455L19.5198 24.0621L19.2578 24.3773L19.1292 24.5381L17.1892 23.7389L18.4514 25.3274L17.9528 26.0835C17.7702 26.2777 17.9719 26.4718 17.9719 26.4718L18.4862 26.8267L19.0197 26.6278C19.0387 26.6278 19.0547 26.6326 19.0721 26.6342C19.0467 26.7153 19.0133 27.0337 18.9911 27.1228L18.0655 26.9397L17.0923 27.4905C16.5922 27.8581 16.5239 28.4677 16.7097 28.8848L16.8177 29.1218L16.9716 29.4562L17.3114 29.3144C17.3161 29.3128 17.321 29.3113 17.324 29.3081C17.2018 29.6997 17.2511 30.0721 17.4701 30.3172L17.6765 30.5782L17.9513 30.9268L18.2529 30.602C18.3418 30.5129 18.6292 30.1899 18.7181 29.9129L18.7831 29.7011L18.6355 29.5389L18.6116 29.5102L18.7769 29.2365L19.9849 29.5214L20.2564 29.5835L20.4009 29.3447L20.4803 29.2141C20.4946 29.1871 20.4993 29.1823 20.555 29.1823C20.5978 29.1823 20.6406 29.1871 20.6867 29.1967C21.1423 29.2826 21.563 29.3256 21.9361 29.3256C22.2981 29.3256 22.514 29.3113 22.7728 29.2254C22.7728 29.2254 23.4222 29.9638 23.4444 29.9925L23.0475 31.2212L23.03 31.2961C22.2775 31.3565 21.9108 31.5221 21.4678 31.9661C20.8248 31.3262 20.3691 31.2595 18.6403 31.2595C16.5715 31.2595 15.1697 30.0435 15.1697 28.1017V23.3539H27.7628L27.766 28.1017C27.7675 29.6773 26.8451 30.7755 25.3924 31.1337ZM28.1152 15.6933C27.9232 16.2027 27.7628 16.755 27.7628 17.3041L27.7644 20.8471C27.0261 20.7229 26.9388 19.9254 26.9356 19.8905L26.9213 19.7282L26.7626 19.7138C26.4419 19.6836 26.2291 19.5466 26.0497 19.3717C25.6877 19.0088 25.6861 18.4198 25.6877 18.415C25.683 18.4452 25.2892 18.9975 25.7465 19.6007C25.9385 19.8555 26.2164 20.0115 26.5768 20.0735C26.6609 20.516 26.9896 21.1399 27.7644 21.2354V22.9703H25.5861C24.5811 22.4101 25.0066 21.4231 25.0272 21.3819L25.113 21.194L24.9209 21.1207C23.8333 20.7165 24.1319 19.6278 24.1477 19.5817L24.1922 19.4225L24.0445 19.3525C23.1458 18.9354 23.2682 17.8102 23.2793 17.7641C23.003 17.9885 22.903 18.4468 23.0935 18.8957C22.9903 19.0135 22.8523 19.1567 22.7014 19.3127C21.771 19.0756 21.7425 18.2177 21.7425 18.178L21.7408 18.0458L21.6186 17.998C21.2551 17.8627 21.0057 17.6606 20.8835 17.3884C20.7455 17.0877 20.7946 16.7725 20.8328 16.6212C20.9391 16.6452 21.0455 16.6627 21.1471 16.6706C21.2519 16.6817 21.3599 16.6882 21.4678 16.6882H21.4742H21.4821C21.5901 16.6882 21.6965 16.6817 21.8012 16.6706C22.3807 16.6133 23.03 16.3635 23.7064 15.6917H28.1152V15.6933ZM24.7209 12.1121L25.5813 12.6136H25.594L25.81 12.7393C25.3242 12.8746 24.9527 13.1181 24.6416 13.438C24.6304 13.4476 24.6193 13.4604 24.6081 13.4715C24.5367 13.5478 24.4652 13.6306 24.3986 13.715C24.3859 13.7309 24.3732 13.7484 24.3589 13.766C24.2922 13.8518 24.2303 13.9395 24.1699 14.0317C24.1604 14.0477 24.1493 14.0636 24.1382 14.0779C24.0667 14.1845 23.9986 14.2991 23.9303 14.4168C23.3174 15.4753 22.3394 16.1072 21.4695 16.1088C20.601 16.1072 19.623 15.4753 19.0102 14.4168C18.9434 14.3022 18.8768 14.1909 18.8054 14.0826C18.791 14.0619 18.7783 14.0413 18.7657 14.0237C18.7054 13.9362 18.645 13.8503 18.5831 13.7692C18.5673 13.7468 18.5529 13.7293 18.537 13.7102C18.4703 13.629 18.402 13.5478 18.3338 13.473C18.3196 13.462 18.31 13.4476 18.2957 13.4349C17.983 13.115 17.613 12.873 17.1256 12.7393L17.3448 12.6136H17.3542L18.2148 12.1121L19.0991 11.6045L21.4615 12.8937L21.4662 12.8889L21.4725 12.8937L23.8349 11.6045L24.7209 12.1121ZM23.5555 11.0442L21.6727 12.039V8.01219L24.2271 7.14319L23.5555 11.0442ZM21.4678 7.56974L18.6672 6.4604C18.9054 5.89538 20.004 5.41462 21.4678 5.41305C22.9332 5.41462 24.0318 5.89538 24.2684 6.4604L21.4678 7.56974Z" fill="black"/>
<path d="M56.1485 24.4147V18.0417H59.8773V15.7225H49.7047V18.0417H53.4333V24.4147H56.1485ZM63.5885 20.7808V15.7225H60.9639V24.4147H63.2811L67.8058 19.3565V24.4147H70.4304V15.7225H68.1139L63.5885 20.7808ZM79.2607 21.1826V24.4147H81.8853V15.7225H79.2607V18.8999H75.0428V15.7225H72.4182V24.4147H75.0428V21.1826H79.2607ZM89.1942 24.4147C89.7915 24.4147 90.3343 24.36 90.8414 24.2139C92.1994 23.8305 93.086 22.7164 93.086 21.2008C93.086 19.7582 92.3259 18.7539 91.1138 18.2973C90.5328 18.0782 89.8466 18.0599 89.1942 18.0599H86.497V15.7225H83.8731V24.4147H89.1942ZM88.7416 20.1052C89.1041 20.1052 89.4478 20.1052 89.7552 20.2148C90.1903 20.3608 90.4432 20.7261 90.4432 21.1643C90.4432 21.6208 90.1903 22.0043 89.7733 22.1869C89.4841 22.3148 89.1942 22.3148 88.7416 22.3148H86.497V20.1052H88.7416ZM97.7916 21.1278L100.923 24.4147H104.416L100.055 19.886L104.254 15.7225H100.96L97.7916 18.9912H97.0679V15.7225H94.444V24.4147H97.0679V21.1278H97.7916ZM109.817 15.4852C106.287 15.4852 104.17 17.4938 104.17 20.0868C104.17 22.68 106.287 24.6887 109.817 24.6887C113.329 24.6887 115.447 22.68 115.447 20.0868C115.447 17.4938 113.329 15.4852 109.817 15.4852ZM109.817 22.5705C108.061 22.5705 106.94 21.5113 106.94 20.0868C106.94 18.6627 108.061 17.6217 109.817 17.6217C111.555 17.6217 112.695 18.6627 112.695 20.0868C112.695 21.5113 111.555 22.5705 109.817 22.5705ZM124.188 15.2295H121.563V16.106C118.269 16.179 116.296 17.5851 116.296 20.0687C116.296 22.5521 118.269 23.8487 121.563 23.9217V24.7983H124.188V23.9217C127.499 23.8487 129.473 22.5521 129.473 20.0687C129.473 17.5851 127.499 16.179 124.188 16.106V15.2295ZM121.563 22.0591C119.753 21.9861 118.957 21.2374 118.957 20.0687C118.957 18.8999 119.753 18.0599 121.563 17.987V22.0591ZM124.188 17.987C126.016 18.0599 126.794 18.8999 126.794 20.0687C126.794 21.2374 126.016 21.9861 124.188 22.0591V17.987ZM138.205 15.2295H135.58V16.106C132.286 16.179 130.314 17.5851 130.314 20.0687C130.314 22.5521 132.286 23.8487 135.58 23.9217V24.7983H138.205V23.9217C141.518 23.8487 143.49 22.5521 143.49 20.0687C143.49 17.5851 141.518 16.179 138.205 16.106V15.2295ZM135.58 22.0591C133.77 21.9861 132.974 21.2374 132.974 20.0687C132.974 18.8999 133.77 18.0599 135.58 17.987V22.0591ZM138.205 17.987C140.033 18.0599 140.811 18.8999 140.811 20.0687C140.811 21.2374 140.033 21.9861 138.205 22.0591V17.987Z" fill="black"/>
</g>
</g>
<defs>
<clipPath id="clip0_6399_511433">
<rect width="144" height="38" fill="white"/>
</clipPath>
</defs>
</svg>
