<svg width="136" height="69" viewBox="0 0 136 69" fill="none" xmlns="http://www.w3.org/2000/svg">
<g clip-path="url(#clip0_3607_10916)">
<path d="M119.213 19.6957V36.565H113.253V24.7315H107.514V36.565H101.554V19.6945H119.213V19.6957Z" fill="black"/>
<path fill-rule="evenodd" clip-rule="evenodd" d="M89.314 37.168C94.6501 37.168 98.6121 33.8618 98.6121 28.8501C98.6121 23.9988 95.6889 20.849 90.8035 20.849C88.5488 20.849 86.6884 21.6511 85.2871 23.0351C85.6217 20.1745 88.0152 18.0861 90.6505 18.0861C91.2587 18.0861 95.8374 18.0763 95.8374 18.0763L98.4261 13.0681C98.4261 13.0681 92.6782 13.2003 90.0059 13.2003C83.9001 13.3084 79.7759 18.9175 79.7759 25.7296C79.7759 33.6669 83.7982 37.1686 89.3146 37.1686L89.314 37.168ZM89.347 25.2845C91.3281 25.2845 92.7015 26.6001 92.7015 28.8495C92.7015 30.8735 91.4811 32.5422 89.347 32.5468C87.3057 32.5468 85.9323 31.0012 85.9323 28.884C85.9323 26.634 87.3057 25.2845 89.347 25.2845Z" fill="black"/>
<path d="M74.924 30.9177C74.924 30.9177 73.5165 31.7377 71.4137 31.8929C68.9974 31.9654 66.844 30.4227 66.844 27.6816C66.844 25.0079 68.7443 23.4755 71.3534 23.4755C72.9532 23.4755 75.0697 24.5962 75.0697 24.5962C75.0697 24.5962 76.6183 21.7241 77.4205 20.2877C75.9515 19.1624 73.9949 18.5455 71.7192 18.5455C65.9758 18.5455 61.5273 22.3301 61.5273 27.6477C61.5273 33.0332 65.7084 36.7298 71.7192 36.6177C73.3993 36.5545 75.7171 35.9588 77.1298 35.0416L74.924 30.9177Z" fill="black"/>
<path d="M1.63525 15.019L9.90299 29.9546V39.0649L1.64493 53.9712L1.63525 15.019Z" fill="#5B57A2"/>
<path d="M33.3804 24.5196L41.1275 19.7207L56.9826 19.7057L33.3804 34.3188V24.5196Z" fill="#D90751"/>
<path d="M33.3361 14.931L33.3799 34.7053L25.0928 29.559V0L33.3361 14.931Z" fill="#FAB718"/>
<path d="M56.982 19.7058L41.1265 19.7208L33.336 14.931L25.0928 0L56.982 19.7058Z" fill="#ED6F26"/>
<path d="M33.3799 54.0538V44.46L25.0928 39.4115L25.0973 68.9998L33.3799 54.0538Z" fill="#63B22F"/>
<path d="M41.1078 49.2988L9.90242 29.9546L1.63525 15.019L56.9487 49.2792L41.1078 49.2988Z" fill="#1487C9"/>
<path d="M25.0977 69.0003L33.3791 54.0543L41.1069 49.299L56.9477 49.2795L25.0977 69.0003Z" fill="#017F36"/>
<path d="M1.64551 53.9712L25.1612 39.4122L17.2553 34.5097L9.90357 39.0649L1.64551 53.9712Z" fill="#984995"/>
<path d="M66.8451 47.9189C66.663 48.1535 66.4235 48.3306 66.1362 48.4502C65.8414 48.5715 65.526 48.6332 65.2077 48.6319C64.8911 48.6363 64.5764 48.5829 64.2786 48.4744C64.0111 48.3762 63.7667 48.2231 63.5606 48.0247C63.3572 47.826 63.1974 47.5862 63.0918 47.3209C62.9774 47.0301 62.9204 46.7196 62.924 46.4067C62.924 46.0962 62.9769 45.8087 63.0867 45.5367C63.1872 45.2734 63.3402 45.0339 63.5362 44.8329C63.7315 44.6333 63.9623 44.4727 64.2166 44.3597C64.48 44.2447 64.7673 44.1826 65.0831 44.1826C65.4233 44.1826 65.7391 44.2257 66.0264 44.3114C66.3137 44.3976 66.5578 44.5414 66.7586 44.7426L66.4093 45.3406C66.2403 45.1859 66.0413 45.0684 65.825 44.9956C65.6191 44.9286 65.4041 44.8948 65.1878 44.8956C64.9972 44.8956 64.8151 44.9335 64.6382 45.0048C64.4638 45.076 64.3045 45.1802 64.1688 45.3119C64.0301 45.4471 63.9209 45.61 63.8479 45.7903C63.7654 45.9865 63.7247 46.1981 63.7285 46.4113C63.7285 46.6464 63.7711 46.8569 63.8525 47.038C63.9344 47.2255 64.0442 47.383 64.1825 47.517C64.3219 47.6515 64.484 47.7516 64.6712 47.8189C64.8611 47.8905 65.0624 47.9262 65.2652 47.9241C65.5234 47.9241 65.7584 47.8712 65.9592 47.7706C66.1583 47.6734 66.3371 47.5388 66.4861 47.3738L66.8451 47.9189ZM67.831 48.5313V44.2734H68.5877V47.4457L71.0484 44.2734H71.805V48.5319H71.0484V45.3596L68.5877 48.5319L67.831 48.5313ZM76.8173 47.9189C76.6312 48.1555 76.387 48.3387 76.109 48.4502C75.814 48.5715 75.4984 48.6332 75.1799 48.6319C74.8636 48.6362 74.5491 48.5828 74.2515 48.4744C73.9838 48.3762 73.7391 48.2231 73.5329 48.0247C73.3294 47.826 73.1697 47.5862 73.0641 47.3209C72.9497 47.0301 72.8927 46.7196 72.8962 46.4067C72.8962 46.0962 72.9492 45.8087 73.059 45.5367C73.1648 45.2636 73.3178 45.0295 73.5084 44.8329C73.7038 44.6333 73.9346 44.4727 74.1889 44.3597C74.4617 44.2382 74.7573 44.1778 75.0554 44.1826C75.3956 44.1826 75.7113 44.2257 75.9986 44.3114C76.286 44.3976 76.53 44.5414 76.7314 44.7426L76.3815 45.3406C76.2129 45.1858 76.014 45.0683 75.7978 44.9956C75.5919 44.9286 75.3769 44.8949 75.1606 44.8956C74.7805 44.897 74.4155 45.046 74.1411 45.3119C74.0036 45.4481 73.8945 45.6108 73.8202 45.7903C73.7377 45.9865 73.697 46.1981 73.7007 46.4113C73.7007 46.6464 73.744 46.8569 73.8253 47.038C73.9067 47.2255 74.0165 47.383 74.1553 47.517C74.2941 47.6515 74.4568 47.7516 74.644 47.8189C74.8306 47.8856 75.0269 47.9241 75.2374 47.9241C75.4963 47.9241 75.7261 47.8712 75.9315 47.7706C76.1305 47.6734 76.3093 47.5388 76.4583 47.3738L76.8173 47.9189ZM77.2053 44.2734H81.0878V45.0295H79.5272V48.5313H78.7705V45.0295H77.2099V44.2734H77.2053Z" fill="black"/>
<path fill-rule="evenodd" clip-rule="evenodd" d="M84.6211 48.4885C84.9084 48.3976 85.1525 48.2585 85.363 48.0676L85.1332 47.4742C84.9943 47.599 84.8077 47.7042 84.583 47.7904C84.3577 47.8767 84.1039 47.9192 83.8263 47.9192C83.4098 47.9192 83.0651 47.8094 82.792 47.5846C82.5189 47.3592 82.371 47.0441 82.3368 46.6416H85.6122C85.647 46.4733 85.663 46.3017 85.66 46.1298C85.6635 45.8568 85.6096 45.5861 85.5018 45.3358C85.4038 45.1035 85.2607 44.8935 85.0808 44.7182C84.8985 44.5446 84.6835 44.4097 84.4487 44.3215C84.203 44.2251 83.9414 44.1763 83.6778 44.1777C83.3234 44.1777 83.0122 44.2398 82.7391 44.3548C82.4816 44.4644 82.2488 44.6256 82.0546 44.8286C81.866 45.0306 81.7211 45.2701 81.6291 45.5318C81.5279 45.8106 81.4776 46.1055 81.4806 46.4024C81.4806 46.7376 81.5375 47.0435 81.6433 47.3166C81.7457 47.5812 81.9024 47.8209 82.103 48.0199C82.2993 48.2154 82.5382 48.3643 82.821 48.4695C83.1237 48.578 83.4431 48.6313 83.7643 48.6271C84.0552 48.6252 84.3441 48.5781 84.6211 48.4885ZM82.7061 45.211C82.9405 44.9959 83.2517 44.8907 83.6443 44.8907C84.0129 44.8907 84.3099 44.9913 84.5255 45.1926C84.7412 45.3933 84.8555 45.671 84.8749 46.0246H82.2896C82.3263 45.7115 82.4743 45.422 82.7061 45.211Z" fill="black"/>
<path d="M86.6885 44.2735H87.378L89.0154 46.3837L90.5663 44.2735H91.2365V48.5319H90.4798V45.4269L89.0057 47.4026H88.9767L87.4452 45.4264V48.5314H86.6885V44.2735Z" fill="black"/>
<path fill-rule="evenodd" clip-rule="evenodd" d="M93.2964 44.2878C93.0669 44.3485 92.8478 44.4434 92.6461 44.5695L92.8469 45.1733C93.0193 45.087 93.1917 45.0152 93.3641 44.9531C93.5365 44.8898 93.7566 44.8611 94.0201 44.8611C94.2306 44.8611 94.3984 44.8956 94.5275 44.9623C94.6567 45.0244 94.7523 45.1204 94.8194 45.2354C94.8865 45.3504 94.9298 45.4936 94.9537 45.6609C94.9776 45.8282 94.9872 46.0099 94.9872 46.2066C94.8323 46.0975 94.6556 46.0239 94.4695 45.9909C94.29 45.9549 94.1075 45.9356 93.9245 45.9334C93.6992 45.9334 93.4887 45.9674 93.2873 46.0243C93.0864 46.0818 92.9141 46.168 92.7752 46.283C92.6333 46.3978 92.5186 46.5432 92.4396 46.7085C92.3554 46.8896 92.313 47.0876 92.3155 47.2876C92.3155 47.7039 92.435 48.0293 92.674 48.2593C92.9141 48.4887 93.2298 48.6032 93.6224 48.6032C93.9768 48.6032 94.2596 48.5411 94.4746 48.4169C94.6903 48.2921 94.8626 48.1489 94.9867 47.9856V48.5365H95.6956V45.9242C95.6956 45.3688 95.5761 44.9387 95.3314 44.6362C95.0925 44.3355 94.6658 44.182 94.0627 44.182C93.7948 44.182 93.5404 44.2205 93.2964 44.2878ZM94.5617 47.7378C94.3893 47.862 94.1634 47.9189 93.8864 47.9189C93.6417 47.9189 93.4506 47.8568 93.3169 47.7372C93.1826 47.613 93.1155 47.4497 93.1155 47.2485C93.1155 47.13 93.1394 47.0294 93.1923 46.938C93.2452 46.8465 93.3169 46.7758 93.3982 46.7183C93.4872 46.6582 93.586 46.6144 93.6901 46.5889C93.8005 46.5602 93.9103 46.5458 94.0252 46.5458C94.399 46.5458 94.7193 46.6367 94.9827 46.8276V47.3681C94.8586 47.5088 94.7171 47.6335 94.5617 47.7378ZM102.375 42.7755C102.528 42.7042 102.671 42.5846 102.806 42.4075L102.394 41.8095C102.288 41.9533 102.169 42.0533 102.035 42.1062C101.892 42.1624 101.745 42.2041 101.594 42.2304L101.451 42.2563C101.326 42.2782 101.193 42.3023 101.049 42.3265C100.818 42.3696 100.593 42.4403 100.378 42.5369C100.038 42.6853 99.7657 42.8859 99.5592 43.1395C99.3527 43.3931 99.1911 43.68 99.0807 43.9963C98.9689 44.3166 98.8935 44.6488 98.856 44.9864C98.8173 45.3314 98.7985 45.6609 98.7985 45.9766C98.7985 46.3837 98.8509 46.7517 98.9561 47.0817C99.0619 47.4123 99.2099 47.6895 99.4056 47.9143C99.6024 48.1443 99.8374 48.3168 100.115 48.441C100.393 48.5652 100.704 48.6273 101.053 48.6273C101.374 48.6273 101.671 48.5652 101.939 48.4502C102.197 48.3397 102.432 48.1789 102.629 47.977C102.82 47.7803 102.973 47.5457 103.078 47.283C103.188 47.0161 103.243 46.7296 103.241 46.4406C103.241 46.1203 103.194 45.8288 103.103 45.57C103.019 45.3234 102.885 45.097 102.71 44.9053C102.535 44.7169 102.32 44.5697 102.082 44.4741C101.82 44.3698 101.541 44.3178 101.259 44.3211C101.077 44.3211 100.9 44.3453 100.728 44.393C100.56 44.4408 100.399 44.51 100.249 44.5989C100.103 44.6833 99.9692 44.7878 99.8516 44.9094C99.7367 45.0295 99.6411 45.1635 99.574 45.3165H99.5546C99.5687 45.114 99.5959 44.9127 99.636 44.7139C99.6792 44.508 99.7413 44.3114 99.8232 44.1251C99.9045 43.9388 100.01 43.7709 100.139 43.6179C100.277 43.4635 100.447 43.3411 100.637 43.2591C100.845 43.1588 101.066 43.0865 101.293 43.0441L101.443 43.0165C101.593 42.9889 101.735 42.9624 101.872 42.9337C102.054 42.8957 102.221 42.8468 102.375 42.7755ZM99.7122 46.8667C99.6384 46.6251 99.6031 46.3731 99.6076 46.1203C99.6396 45.9752 99.6981 45.8374 99.7799 45.7138C99.8642 45.5823 99.9694 45.4657 100.091 45.3688C100.372 45.1462 100.72 45.0266 101.077 45.0295C101.523 45.0295 101.858 45.1675 102.092 45.4412C102.327 45.7184 102.442 46.0622 102.442 46.4791C102.442 46.685 102.403 46.8718 102.337 47.0438C102.272 47.2134 102.174 47.3682 102.049 47.4988C101.924 47.6295 101.774 47.7335 101.608 47.8045C101.437 47.881 101.249 47.9195 101.039 47.9195C100.828 47.9195 100.637 47.8764 100.46 47.7901C100.284 47.7056 100.129 47.5831 100.005 47.4313C99.8749 47.2621 99.7761 47.0709 99.7128 46.8667H99.7122ZM109.044 44.2734H108.287V48.5319H109.044V44.2734ZM104.333 44.2734H105.089V45.5511H105.788C106.118 45.5511 106.386 45.5942 106.602 45.6753C106.818 45.7569 106.99 45.8667 107.119 46.0007C107.248 46.1347 107.339 46.2928 107.392 46.4693C107.445 46.6464 107.474 46.8281 107.474 47.0196C107.474 47.2111 107.445 47.3934 107.383 47.5751C107.325 47.7568 107.224 47.9143 107.09 48.0581C106.956 48.2018 106.774 48.3168 106.544 48.4031C106.315 48.4887 106.037 48.5365 105.702 48.5365H104.328V44.2734H104.333ZM105.089 46.2629V47.8235H105.64C106.018 47.8235 106.286 47.7568 106.439 47.6222C106.593 47.4882 106.669 47.2973 106.669 47.0438C106.669 46.785 106.588 46.5895 106.435 46.455C106.277 46.321 106.013 46.2537 105.65 46.2537H105.089V46.2629Z" fill="black"/>
<path d="M114.046 47.9188C113.864 48.1534 113.625 48.3305 113.337 48.4501C113.043 48.5713 112.727 48.633 112.409 48.6318C112.092 48.6361 111.778 48.5827 111.48 48.4742C111.212 48.3762 110.968 48.2231 110.762 48.0246C110.558 47.8258 110.398 47.586 110.292 47.3208C110.178 47.0299 110.122 46.7194 110.125 46.4065C110.125 46.096 110.177 45.8085 110.288 45.5366C110.388 45.2733 110.541 45.0337 110.737 44.8328C110.93 44.6315 111.158 44.4791 111.418 44.3595C111.691 44.238 111.986 44.1776 112.284 44.1824C112.624 44.1824 112.94 44.2256 113.228 44.3112C113.515 44.3975 113.759 44.5412 113.96 44.7425L113.61 45.3405C113.441 45.1857 113.242 45.0682 113.026 44.9955C112.82 44.9284 112.605 44.8947 112.389 44.8954C112.198 44.8954 112.016 44.9334 111.839 45.0047C111.665 45.0758 111.505 45.1801 111.37 45.3117C111.232 45.4478 111.123 45.6105 111.049 45.7901C110.967 45.9863 110.926 46.1979 110.93 46.4111C110.93 46.6463 110.972 46.8568 111.054 47.0379C111.135 47.2253 111.245 47.3829 111.384 47.5169C111.523 47.6514 111.685 47.7515 111.872 47.8187C112.06 47.8854 112.256 47.924 112.466 47.924C112.706 47.927 112.944 47.8745 113.16 47.7704C113.359 47.6733 113.538 47.5386 113.687 47.3737L114.046 47.9188ZM114.433 44.2733H118.317V45.0294H116.756V48.5312H115.999V45.0294H114.439V44.2733H114.433Z" fill="black"/>
<path fill-rule="evenodd" clip-rule="evenodd" d="M119.897 44.274H119.141V50.4265H119.897V48.3358C120.05 48.4364 120.232 48.5083 120.443 48.556C120.653 48.6038 120.874 48.6273 121.099 48.6273C121.434 48.6273 121.736 48.5652 122.009 48.4508C122.271 48.3376 122.508 48.1735 122.707 47.9678C122.905 47.759 123.058 47.5112 123.157 47.2399C123.263 46.9581 123.315 46.6562 123.315 46.336C123.315 46.0197 123.268 45.7282 123.177 45.4648C123.091 45.2147 122.958 44.984 122.784 44.7858C122.614 44.5924 122.403 44.4403 122.166 44.3407C121.908 44.2284 121.628 44.1729 121.347 44.178C121.051 44.178 120.773 44.2355 120.51 44.3505C120.247 44.4655 120.041 44.6035 119.897 44.776V44.274ZM120.424 45.0635C120.64 44.9485 120.874 44.891 121.128 44.891C121.348 44.891 121.544 44.9243 121.722 44.9962C121.894 45.0681 122.038 45.1687 122.158 45.3027C122.277 45.4367 122.368 45.5902 122.425 45.7713C122.488 45.953 122.516 46.1497 122.516 46.3647C122.516 46.5947 122.478 46.8 122.411 46.9915C122.349 47.173 122.249 47.3393 122.119 47.4796C121.988 47.6183 121.83 47.7275 121.655 47.7999C121.459 47.8827 121.249 47.9234 121.037 47.9195C120.831 47.9195 120.64 47.8959 120.458 47.8482C120.258 47.7934 120.069 47.706 119.898 47.5895V45.4792C120.032 45.3171 120.209 45.1785 120.424 45.0635ZM129.117 44.2734H128.361V48.5319H129.117V44.2734ZM124.402 44.2734H125.159V45.5511H125.857C126.187 45.5511 126.456 45.5942 126.671 45.6753C126.887 45.7569 127.06 45.8668 127.189 46.0007C127.318 46.1347 127.409 46.2928 127.461 46.4694C127.514 46.6465 127.543 46.8282 127.543 47.0196C127.543 47.2111 127.514 47.3934 127.452 47.5751C127.395 47.7568 127.294 47.9143 127.16 48.0581C127.026 48.2018 126.844 48.3168 126.614 48.4031C126.384 48.4888 126.107 48.5365 125.772 48.5365H124.398V44.2734H124.402ZM125.164 46.2629V47.8235H125.715C126.092 47.8235 126.361 47.7568 126.514 47.6222C126.667 47.4883 126.744 47.2974 126.744 47.0438C126.744 46.785 126.662 46.5895 126.509 46.455C126.351 46.321 126.088 46.2537 125.724 46.2537H125.164V46.2629Z" fill="black"/>
<path d="M132.747 46.326L134.365 48.5317H133.436L132.186 46.809L130.917 48.5317H130.037L131.645 46.3639L130.132 44.2732H131.061L132.215 45.8809L133.387 44.2732H134.269L132.747 46.326ZM66.2855 53.7946H63.9637V57.3447H63.207V53.0868H67.0416V57.3447H66.285L66.2855 53.7946ZM71.336 53.8424H69.8425L69.7941 54.56C69.7418 55.1677 69.6701 55.6559 69.5694 56.0285C69.4687 56.4023 69.3441 56.6892 69.2007 56.8899C69.0574 57.0911 68.8895 57.2291 68.6978 57.297C68.5 57.3695 68.2909 57.4051 68.0805 57.4022L68.0231 56.665C68.1207 56.6673 68.2174 56.646 68.3052 56.6029C68.4111 56.5552 68.5157 56.45 68.6165 56.2924C68.7172 56.1291 68.8082 55.8997 68.8895 55.6024C68.9709 55.3017 69.0238 54.9096 69.0523 54.4162L69.1291 53.0908H72.0926V57.3493H71.336V53.8424Z" fill="black"/>
<path fill-rule="evenodd" clip-rule="evenodd" d="M74.1319 53.0968C73.8873 53.1635 73.6671 53.2589 73.4805 53.3785L73.6819 53.9817C73.8543 53.8954 74.0267 53.8236 74.1985 53.7615C74.3709 53.6994 74.5911 53.6706 74.8545 53.6706C75.065 53.6706 75.2328 53.704 75.362 53.7707C75.4917 53.8333 75.5872 53.9288 75.6544 54.0438C75.7209 54.1588 75.7642 54.3025 75.7881 54.4693C75.812 54.6372 75.8217 54.8189 75.8217 55.015C75.6666 54.906 75.4899 54.8326 75.3039 54.7999C75.1244 54.7638 74.9419 54.7446 74.7589 54.7424C74.5342 54.7424 74.3231 54.7758 74.1217 54.8333C73.9208 54.8908 73.7485 54.977 73.6096 55.092C73.4677 55.2068 73.353 55.3521 73.274 55.5175C73.19 55.6986 73.1478 55.8966 73.1505 56.0965C73.1505 56.5123 73.27 56.8383 73.5089 57.0677C73.7479 57.2971 74.0648 57.4121 74.4573 57.4121C74.8118 57.4121 75.094 57.3501 75.3096 57.2253C75.5247 57.1011 75.6965 56.9573 75.8217 56.794V57.3449H76.5305V54.7326C76.5305 54.1778 76.4105 53.7471 76.1664 53.4458C75.9269 53.1439 75.5008 52.9915 74.8977 52.9915C74.639 52.9918 74.3814 53.0275 74.1319 53.0968ZM75.4006 56.5456C75.2288 56.6704 75.0035 56.7279 74.7259 56.7279C74.4767 56.7279 74.2901 56.6658 74.1564 56.5456C74.0221 56.4214 73.955 56.2581 73.955 56.058C73.955 55.9384 73.9789 55.8378 74.0318 55.7469C74.0841 55.6561 74.1564 55.5842 74.2377 55.5267C74.3191 55.4692 74.4192 55.4261 74.5296 55.3973C74.6391 55.3688 74.7517 55.3545 74.8647 55.3548C75.2379 55.3548 75.5588 55.4457 75.8222 55.6366V56.177C75.6978 56.3174 75.5562 56.4417 75.4006 56.5456Z" fill="black"/>
<path d="M77.272 53.087H81.1549V53.8426H79.5938V57.3443H78.8371V53.8426H77.2771V53.087H77.272Z" fill="black"/>
<path fill-rule="evenodd" clip-rule="evenodd" d="M84.6881 57.3017C84.9754 57.2108 85.2195 57.0717 85.43 56.8808L85.2001 56.2874C85.0613 56.4121 84.8747 56.5174 84.6494 56.6036C84.4247 56.6899 84.1709 56.7324 83.8927 56.7324C83.4768 56.7324 83.132 56.6226 82.859 56.3978C82.5859 56.1729 82.4379 55.8573 82.4038 55.4548H85.6792C85.7122 55.307 85.7269 55.1385 85.7269 54.943C85.7269 54.6515 85.674 54.3881 85.5688 54.1489C85.4707 53.9167 85.3274 53.7069 85.1472 53.532C84.9652 53.358 84.7504 53.2229 84.5157 53.1346C84.2699 53.0383 84.0084 52.9896 83.7448 52.9909C83.3903 52.9909 83.0791 53.053 82.806 53.168C82.5484 53.2774 82.3156 53.4386 82.1216 53.6418C81.9328 53.8439 81.7875 54.0833 81.6949 54.345C81.5942 54.6239 81.5441 54.9188 81.547 55.2156C81.547 55.5508 81.6039 55.8567 81.7097 56.1298C81.8155 56.4024 81.9731 56.637 82.1694 56.833C82.3657 57.0291 82.6052 57.1775 82.888 57.2827C83.1905 57.3914 83.5097 57.4449 83.8307 57.4408C84.1135 57.4408 84.4008 57.3925 84.6881 57.3017ZM82.7685 54.0196C83.0029 53.8045 83.3141 53.6993 83.7067 53.6993C84.0805 53.6993 84.3723 53.8045 84.5879 54.0006C84.803 54.2018 84.9179 54.479 84.9373 54.8332H82.352C82.3885 54.5199 82.5366 54.2307 82.7685 54.0196ZM86.0956 53.0869H87.0531L88.513 55.1397L86.9524 57.3448H86.0239L87.6608 55.1391L86.0956 53.0869ZM88.6996 53.0869H89.4563V57.3448H88.6996V53.0869ZM92.161 57.3448L90.4952 55.1391L92.0512 53.0863H91.1125L89.6429 55.1391L91.2228 57.3448H92.161ZM95.6178 57.3017C95.9052 57.2108 96.1492 57.0717 96.3597 56.8808L96.1299 56.2874C95.9911 56.4121 95.8045 56.5174 95.5797 56.6036C95.3544 56.6899 95.1007 56.7324 94.8231 56.7324C94.4066 56.7324 94.0618 56.6226 93.7887 56.3978C93.5156 56.1729 93.3677 55.8573 93.3336 55.4548H96.6089C96.6425 55.307 96.6567 55.1385 96.6567 54.943C96.6567 54.6515 96.6044 54.3881 96.4986 54.1489C96.4005 53.9169 96.2574 53.7071 96.0776 53.532C95.8954 53.358 95.6804 53.2229 95.4455 53.1346C95.1997 53.0383 94.9382 52.9895 94.6746 52.9909C94.3207 52.9909 94.0089 53.053 93.7358 53.168C93.4785 53.2775 93.2458 53.4387 93.052 53.6418C92.8627 53.8436 92.7174 54.0831 92.6253 54.345C92.5243 54.6238 92.4742 54.9187 92.4773 55.2156C92.4773 55.5508 92.5342 55.8567 92.6401 56.1298C92.7453 56.4024 92.9035 56.637 93.0998 56.833C93.296 57.0291 93.535 57.1775 93.8178 57.2827C94.1204 57.3914 94.4398 57.4449 94.761 57.4408C95.052 57.4386 95.3409 57.3917 95.6178 57.3017ZM93.6983 54.0196C93.9332 53.8045 94.2444 53.6993 94.637 53.6993C95.0057 53.6993 95.3021 53.8045 95.5177 54.0006C95.7333 54.2018 95.8477 54.479 95.867 54.8332H93.2818C93.3183 54.5199 93.4663 54.2307 93.6983 54.0196ZM99.7261 51.6563C99.2806 51.6563 99.0366 51.4073 98.9979 50.91H98.285C98.285 51.1009 98.3186 51.2734 98.3806 51.4361C98.4432 51.5988 98.5342 51.7374 98.6537 51.8524C98.7732 51.9674 98.9268 52.0582 99.1031 52.1295C99.2806 52.2014 99.4866 52.2348 99.721 52.2348C99.9192 52.2387 100.116 52.203 100.301 52.1295C100.473 52.0628 100.617 51.9674 100.741 51.8524C100.863 51.7353 100.959 51.5934 101.023 51.4361C101.09 51.2734 101.124 51.1009 101.124 50.91H100.416C100.382 51.4073 100.147 51.6563 99.7261 51.6563ZM97.6814 53.0863V57.3448H98.4381L100.899 54.1725V57.3448H101.655V53.0863H100.899L98.4381 56.2586V53.0863H97.6814Z" fill="black"/>
</g>
<defs>
<clipPath id="clip0_3607_10916">
<rect width="136" height="69" fill="white"/>
</clipPath>
</defs>
</svg>
