<svg width="53" height="8" viewBox="0 0 53 8" fill="none" xmlns="http://www.w3.org/2000/svg">
<g clip-path="url(#clip0_846_4884)">
<path d="M9.62976 0H8.45172V6.64151H9.62976V0Z" fill="#393939"/>
<path d="M1.67804 1.35852H0.5V8.00003H1.67804V1.35852Z" fill="#393939"/>
<path d="M4.32861 0.90564H3.15057V7.54715H4.32861V0.90564Z" fill="#393939"/>
<path d="M6.97918 0.452881H5.80115V7.09439H6.97918V0.452881Z" fill="#393939"/>
<path d="M42.4408 3.81874L40.4397 1.57324H39.2698V6.77236H40.4913V3.45522L42.3183 5.42051H42.544L44.3396 3.45522V6.77236H45.561V1.57324H44.3912L42.4408 3.81874Z" fill="#393939"/>
<path d="M51.381 1.57324L48.3535 4.95248V1.57324H47.132V6.77236H48.2511L51.2786 3.39312V6.77236H52.5V1.57324H51.381Z" fill="#393939"/>
<path d="M32.6906 3.47567C32.6906 4.30344 33.1391 4.95551 33.8275 5.2289L32.5366 6.77236H34.0316L35.206 5.36825H36.4768V6.77236H37.6982V1.57324H34.5885C33.4291 1.57324 32.6906 2.37375 32.6906 3.47567ZM36.4775 2.71833V4.25573H34.815C34.2604 4.25573 33.9628 3.9437 33.9628 3.48627C33.9628 3.02884 34.2708 2.71682 34.815 2.71682L36.4775 2.71833Z" fill="#393939"/>
<path d="M27.0142 2.61306C26.9395 4.40114 26.5657 5.55532 25.8339 5.55532H25.6508V6.80341L25.8459 6.81401C27.3133 6.89656 28.1243 5.59697 28.2574 2.75847H30.1875V6.77236H31.4067V1.57324H27.0554L27.0142 2.61306Z" fill="#393939"/>
<path d="M22.4159 1.50049C20.7638 1.50049 19.5753 2.65467 19.5753 4.17237C19.5753 5.74233 20.8685 6.85561 22.4159 6.85561C24.0275 6.85561 25.2796 5.68023 25.2796 4.17237C25.2796 2.66451 24.0275 1.50049 22.4159 1.50049ZM22.4159 5.60752C21.4822 5.60752 20.8461 4.99408 20.8461 4.17237C20.8461 3.33021 21.4829 2.73343 22.4159 2.73343C23.3488 2.73343 24.0066 3.35748 24.0066 4.17237C24.0066 4.98726 23.3398 5.60752 22.4159 5.60752Z" fill="#393939"/>
<path d="M18.2795 1.58301H13.9685L13.9274 2.62283C13.8661 4.12084 13.4788 5.54539 12.747 5.56584L12.4084 5.57644V7.99992H13.6403V6.77303H17.9199V7.99992H19.1623V5.56584H18.2795V1.58301ZM17.058 5.56584H14.4514C14.8924 4.8903 15.1286 3.91257 15.1698 2.769H17.058V5.56584Z" fill="#393939"/>
</g>
<defs>
<clipPath id="clip0_846_4884">
<rect width="52" height="8" fill="white" transform="translate(0.5)"/>
</clipPath>
</defs>
</svg>
