<svg width="96" height="69" viewBox="0 0 96 69" fill="none" xmlns="http://www.w3.org/2000/svg">
<g clip-path="url(#clip0_7232_2593)">
<path d="M75.0789 17.8506C74.928 17.6981 74.8397 17.5585 74.7148 17.3646C74.6498 17.2663 74.5796 17.1603 74.5016 17.0466C74.7175 16.7985 74.8995 16.5115 75.0373 16.196L75.5887 14.9474L74.2312 14.7535C74.0024 14.7199 73.6331 14.6242 73.2014 14.5106C72.3692 14.2935 71.3005 14.0141 70.1355 13.8926C70.5333 13.7194 70.8714 13.4066 71.108 12.9827L71.3316 12.582C71.3316 12.582 71.2718 12.021 71.0534 11.8453C71.1367 11.6721 71.2016 11.4807 71.2459 11.2713L71.4305 10.3768L70.5619 10.0821C70.4268 10.0356 70.2915 10.002 70.1588 9.98132C70.1095 9.81848 70.0366 9.6452 69.9378 9.46169L69.4229 8.52325L68.4945 9.06356C68.2631 9.19802 68.0681 9.35316 67.9094 9.52633C67.7716 9.5005 67.6234 9.48752 67.4673 9.48752C67.4673 9.48752 66.9369 9.42804 66.3518 9.64003L65.6028 8.86707L64.716 7.9261C63.8865 7.04462 62.7631 6.78348 61.6189 7.21779C61.182 6.78348 60.5007 6.42415 59.4423 6.42415C59.0834 6.42415 58.7687 6.46803 58.5841 6.49134C58.5841 6.49134 57.1278 6.755 56.3087 7.52796L55.3153 7.05748C54.6496 8.09927 53.5106 8.43023 53.5106 8.43023C53.4326 8.12512 53.2999 7.84077 53.1101 7.57964L53.1752 7.21262C53.1752 7.20228 53.3987 5.95884 54.0801 4.90407L55.2659 3.06854L53.586 3.25732C53.5911 3.09185 53.5835 2.89536 53.56 2.6627L53.4091 1.23564L52.0933 1.82773C51.9477 1.89227 51.8254 1.95692 51.7111 2.0164L51.451 1.46577L50.8478 1.77595C50.7879 1.62861 50.7099 1.4606 50.6033 1.26675L49.909 0L48.9234 1.05729C48.8219 1.16593 48.7361 1.26676 48.6633 1.36242L48.0652 0.770324L47.4619 1.36494C47.3865 1.26929 47.3032 1.16846 47.2018 1.05993L46.2059 0L45.5088 1.27192C45.4023 1.46577 45.327 1.63124 45.2671 1.77858L44.6664 1.4684L44.4063 2.01904C44.2919 1.95956 44.1696 1.89491 44.024 1.82773L42.703 1.23828L42.5574 2.67051C42.534 2.90053 42.5262 3.09438 42.5314 3.25985L40.8489 3.07117L42.0372 4.9066C42.7212 5.95884 42.9396 7.20228 42.9396 7.21262L43.002 7.57964C42.8123 7.84341 42.677 8.12775 42.6016 8.43275C42.6016 8.43275 41.5249 7.97524 40.8046 7.05748L39.7905 7.5383C38.6333 6.76281 37.9154 6.46033 36.6672 6.42415C35.6089 6.39568 34.9276 6.78348 34.4907 7.21779C33.3439 6.78601 32.2231 7.04714 31.3961 7.92874C31.3961 7.92874 30.8526 8.51554 30.5094 8.86971C30.1661 9.22639 29.659 9.52117 29.659 9.52117C29.659 9.52117 28.9386 9.36086 28.1976 9.52887C28.039 9.35569 27.8413 9.20055 27.6073 9.06356L26.6762 8.52325L26.1639 9.46685C26.0652 9.64783 25.9949 9.81848 25.9481 9.98132C25.8156 10.002 25.6803 10.0356 25.5451 10.0821L24.6816 10.382L24.8612 11.2713C24.9053 11.4859 24.9677 11.6772 25.0535 11.8503C25.0042 11.946 24.96 12.0469 24.9236 12.1528L24.7779 12.5846L24.999 12.9853C25.233 13.4066 25.5684 13.7221 25.969 13.8953C24.8013 14.0167 23.7351 14.296 22.9004 14.5131C22.4713 14.6242 22.102 14.7226 21.8732 14.7561L20.5105 14.9526L20.82 15.6505L21.067 16.2064C21.2075 16.5167 21.3921 16.8036 21.6054 17.0517C21.5247 17.1655 21.1814 17.7006 21.028 17.8531L20.3389 18.5485L20.9994 19.2723C21.0827 19.3603 21.8238 20.1333 23.0226 20.1358C23.3502 20.1358 23.6753 20.079 23.9978 19.9653C24.3176 20.4616 24.6973 20.9658 25.0431 21.2138C24.406 21.9583 23.6805 22.6047 22.6482 23.0933L21.7848 23.5018L22.1566 24.4815C22.3985 25.0735 22.8692 25.7224 23.7793 25.9705C23.5843 26.5497 23.4907 27.0977 23.4075 27.5863C23.2124 28.747 23.1292 29.2278 22.102 29.5872L21.1789 29.9077L21.4441 30.8436C21.6573 31.6062 21.9772 32.1104 22.323 32.4438L21.7094 33.1159C21.7094 33.1159 23.1657 34.2018 24.5933 34.3336C24.614 34.3362 25.8311 34.4137 26.3772 33.7209C26.5956 34.5067 26.9415 35.2307 27.2562 35.8873C27.9011 37.2368 28.2444 38.0355 27.8127 38.7645L26.8375 40.4087L28.7541 40.3286C29.5914 40.2949 30.3689 40.2432 31.0425 40.0777C31.0425 40.1141 31.0399 40.1475 31.0373 40.1812L30.8812 41.5927L32.5611 41.2412C32.738 41.1894 32.9044 41.1196 33.0553 41.0395C34.0954 42.2493 35.8637 43.1929 38.2458 43.1929H38.3836L35.6452 44.3097L37.6398 45.3412C38.9531 46.0211 40.4121 46.5899 42.0763 47.0732L41.8448 47.867L42.8461 48.1591C43.4234 48.3271 45.5115 48.8778 48.0548 48.8778C50.5981 48.8778 52.6836 48.3271 53.2635 48.1591L54.2621 47.867L54.0306 47.0759C55.6976 46.5925 57.1565 46.0237 58.4697 45.3439L60.4642 44.3123L57.7233 43.1955H57.8612C60.2432 43.1955 62.0089 42.2519 63.0492 41.042C63.2 41.1222 63.3665 41.192 63.5432 41.2437L65.2231 41.5953L65.0697 40.1864C65.067 40.1527 65.0646 40.1166 65.0646 40.0804C65.7354 40.2459 66.5156 40.2949 67.3503 40.3312L69.2668 40.4113L68.2969 38.7697C67.8625 38.0407 68.2085 37.2419 68.8508 35.8925C69.1655 35.2359 69.5113 34.5119 69.7297 33.7261C70.099 34.0052 70.4969 34.1733 70.8922 34.2612C70.8922 34.2612 71.1991 34.3518 71.4929 34.3594C72.3406 34.3852 72.7646 34.1449 73.347 33.7804L74.4054 33.1186L73.7865 32.4464C74.1324 32.1155 74.4522 31.6113 74.6655 30.8514L74.9333 29.9129L74.0076 29.5925C72.9777 29.233 72.8971 28.7522 72.7022 27.5914C72.6189 27.1029 72.5278 26.5523 72.3302 25.9757C73.2404 25.725 73.7084 25.076 73.9504 24.4867L74.3197 23.5043L73.4563 23.0958C72.4239 22.6073 71.6982 21.961 71.0586 21.2164C71.407 20.9683 71.7867 20.4641 72.1092 19.9678C72.429 20.0816 72.7542 20.1358 73.0844 20.1385C74.2832 20.1385 75.0269 19.3655 75.1076 19.2775L75.768 18.5537L75.0789 17.8506Z" fill="white"/>
<path fill-rule="evenodd" clip-rule="evenodd" d="M39.6039 30.5903V22.7056C39.6039 21.9714 39.3907 21.2371 39.1357 20.5625H45.2912C45.8554 21.3328 46.88 21.8498 48.0555 21.8498C49.2256 21.8498 50.2502 21.3328 50.8171 20.5625H56.9724C56.7123 21.2397 56.5017 21.9714 56.5017 22.7056V30.5903H39.6039ZM48.0528 41.3652C47.1921 40.5148 46.5783 40.4216 44.2588 40.4216C41.4866 40.4216 39.6039 38.8059 39.6039 36.2234V31.053H56.4992V36.2234C56.4992 38.8059 54.619 40.4216 51.8418 40.4216C49.5247 40.4191 48.9109 40.5148 48.0528 41.3652Z" fill="#FFDD2D"/>
<path d="M40.5838 42.3398V43.9143L39.2083 44.4648C40.3706 44.9896 41.8139 45.5118 43.5094 45.897L44.2895 43.3713C42.6253 43.0327 41.4654 42.6786 40.5838 42.3398Z" fill="white"/>
<path d="M48.0521 44.4728C46.4267 44.4728 45.0589 44.3048 44.5129 44.1807L43.6885 46.8305C44.9836 47.1458 46.4995 47.3785 48.0521 47.3785C49.5993 47.3785 51.1154 47.1485 52.4157 46.8305L51.5888 44.1807C51.0426 44.3073 49.68 44.4728 48.0521 44.4728Z" fill="white"/>
<path d="M55.5209 42.3398C54.6368 42.6786 53.4796 43.0301 51.8152 43.3739L52.598 45.8996C54.2962 45.5144 55.7341 44.9922 56.8965 44.4675L55.5235 43.9168V42.3398H55.5209Z" fill="white"/>
<path d="M37.7022 16.9405C39.8554 15.7849 45.1187 13.2411 41.5508 10.4982C41.0646 10.126 40.5289 9.78986 40.0789 9.37369C39.5226 9.80019 40.2871 10.8601 40.4795 11.248C40.4795 11.248 39.291 11.3668 39.0076 11.3668C37.1717 11.3591 35.2473 10.2785 36.2225 8.20776C35.4918 8.35774 35.4033 9.05571 35.1798 9.65286C34.7116 9.33752 33.8977 8.66021 33.271 8.75587C33.7806 10.3766 35.9261 11.8374 37.5903 12.1682C35.9078 13.0782 32.7872 13.7555 31.1465 11.7959C29.9943 14.0115 31.5989 14.9369 33.1722 16.0976C27.1833 18.8147 28.0675 21.8626 24.1381 24.2617C24.6478 24.4994 26.9206 24.0213 27.1234 23.9928C26.2705 25.0915 25.8726 25.5568 25.623 26.092C25.3837 26.5935 25.2771 27.1597 25.0405 28.3798C24.8558 29.3441 24.5178 30.3058 23.3372 30.9443C23.8001 31.7767 24.8273 31.1252 25.2563 31.0141C25.199 31.102 25.0534 32.105 24.6686 32.5884C26.6865 32.4592 25.753 28.2299 27.771 29.2484C28.3405 29.5329 28.5122 30.1998 28.2494 30.7452C26.9232 33.4648 29.9372 35.8613 29.7732 38.2448C30.5145 38.2396 31.2817 38.219 31.7652 37.2237C32.0176 37.72 32.4076 38.418 32.6261 39.0902L33.2293 38.0691C33.6012 39.7598 35.1875 41.3212 37.3304 41.4608C36.3084 39.8528 37.5332 37.658 35.0498 35.3236C35.3591 35.0754 36.0743 34.5971 36.3291 34.2714C33.2814 34.6282 30.101 32.2317 31.5442 31.0943C32.4882 30.3523 32.9017 31.8931 34.358 31.6345L33.7885 31.1459C33.9887 30.9494 34.2175 30.6936 34.4542 30.4997C33.8353 30.4248 33.1591 30.0318 33.1591 30.0318L33.5284 29.4242C29.958 29.419 29.8669 26.7047 31.3179 26.5961C31.9993 26.547 32.8809 27.7956 35.0783 27.5344C34.7974 27.1984 34.6857 26.6891 34.5529 26.3143C35.0835 26.2652 35.7077 26.2704 36.2095 26.0273C35.1356 25.8904 34.865 25.531 33.9705 24.8589L35.0081 24.4814C33.5024 23.7343 33.5934 22.434 33.5467 21.0792C34.3346 21.5291 35.2604 22.2272 36.2484 21.904C36.4825 21.8264 36.6334 21.7179 36.6386 21.4749C35.2291 20.9139 34.3243 18.7553 37.7022 16.9405ZM35.1304 17.1524C33.245 19.156 34.0615 20.3554 34.4412 20.7251C33.739 20.5752 32.6911 19.6858 32.9302 18.8251C32.7068 19.0913 32.4779 19.3808 32.2438 19.6781C31.7757 20.2986 31.357 20.9061 30.9852 21.4956C30.4131 23.1862 31.461 24.9313 33.245 25.7042C31.2634 25.4147 30.3741 23.662 30.3793 22.5452C29.4326 24.3238 28.9801 25.9472 29.0218 27.3096C29.04 27.8163 29.0842 28.2893 29.1518 28.7365C29.607 29.5948 30.3377 29.9103 31.6404 30.0679C30.4573 30.1429 29.8305 30.0886 29.3157 29.5509C30.1218 32.997 33.8925 35.9802 35.4268 38.5343C33.8898 36.5489 30.7096 33.5916 29.5966 31.4536C29.5107 32.2265 29.7187 34.2068 30.6861 35.4243C29.261 34.031 29.1492 31.9215 29.2429 30.6858C28.8814 29.7965 28.6526 28.8038 28.6213 27.6741C28.5926 26.6348 28.6655 25.7327 28.8242 24.9234C27.9243 26.1954 26.6241 26.6865 25.9844 28.6229C26.1092 26.1255 27.9843 26.0868 29.3885 23.0544C29.9319 21.7282 30.7224 20.5829 31.5963 19.2852C30.4859 19.6472 29.6538 19.9056 28.369 21.3042C29.2818 19.1585 34.5556 16.7466 36.9715 14.4121C36.2459 14.5647 33.284 14.6396 32.054 13.8228C34.2826 14.4225 39.2417 13.7374 41.114 12.4655C39.8216 14.3139 37.0079 14.4199 33.5831 18.0961C34.0199 17.7496 34.6025 17.4006 35.1304 17.1524Z" fill="white"/>
<path d="M71.0614 28.3802C70.8249 27.16 70.7208 26.5938 70.4815 26.0924C70.2346 25.5572 69.834 25.092 68.9785 23.9931C69.1813 24.0216 71.4594 24.5 71.9665 24.2621C68.0371 21.8631 68.9212 18.8151 62.9298 16.0981C64.5031 14.9374 66.1076 14.0119 64.9555 11.7938C63.3147 13.756 60.1941 13.0786 58.5116 12.1661C60.1785 11.8351 62.3212 10.3772 62.8309 8.75362C62.2016 8.65796 61.3877 9.33526 60.9196 9.64807C60.696 9.05092 60.6101 8.35295 59.8794 8.20044C60.8546 10.2737 58.9276 11.3543 57.0891 11.3621C56.8083 11.3621 55.6225 11.2431 55.6225 11.2431C55.8123 10.8553 56.5769 9.79552 56.0177 9.3689C55.5678 9.78771 55.0374 10.1212 54.5485 10.4935C50.978 13.2363 56.2466 15.7827 58.3997 16.9356C61.7726 18.7504 60.8754 20.9091 59.4634 21.4623C59.4686 21.7053 59.6194 21.8139 59.8561 21.8915C60.839 22.2172 61.77 21.5193 62.5528 21.0668C62.5085 22.4215 62.6021 23.7243 61.0965 24.4689L62.1315 24.8463C61.2369 25.5184 60.969 25.8778 59.895 26.0148C60.3943 26.2579 61.0237 26.2527 61.5516 26.3018C61.4163 26.6766 61.2993 27.1859 61.0237 27.522C63.2236 27.7804 64.1078 26.5345 64.7839 26.5835C66.2298 26.6921 66.144 29.4065 62.5709 29.4117L62.9402 30.0192C62.9402 30.0192 62.264 30.4122 61.6425 30.4871C61.8792 30.6784 62.1106 30.937 62.3108 31.1334L61.7413 31.6221C63.195 31.8805 63.6112 30.3398 64.5551 31.0818C65.9983 32.2192 62.8205 34.6156 59.7703 34.2589C60.0276 34.5846 60.7428 35.0655 61.0522 35.3137C58.5662 37.6455 59.7885 39.8428 58.7716 41.4534C60.9092 41.3112 62.4956 39.7498 62.8726 38.0591L63.4759 39.0802C63.6917 38.408 64.087 37.7101 64.3341 37.2137C64.8151 38.2091 65.5875 38.2298 66.3313 38.2349C66.1621 35.8514 69.1736 33.455 67.8525 30.7353C67.5873 30.1925 67.7588 29.5255 68.3285 29.2386C70.3515 28.2199 69.4128 32.4494 71.4334 32.5786C71.0459 32.095 70.9029 31.0921 70.8482 31.0042C71.2747 31.1155 72.2994 31.7668 72.7621 30.9318C71.5894 30.3061 71.2514 29.3445 71.0614 28.3802ZM67.283 24.9213C67.4417 25.733 67.5222 26.6327 67.4858 27.6719C67.452 28.8016 67.2257 29.7943 66.8643 30.6836C66.9553 31.9194 66.8462 34.0288 65.421 35.4223C66.3858 34.2021 66.5965 32.2244 66.5106 31.4514C65.3924 33.5893 62.2147 36.5468 60.6751 38.5322C62.2121 35.978 65.9827 32.9922 66.7915 29.5487C66.2713 30.0838 65.6499 30.1408 64.4641 30.0658C65.7643 29.9081 66.495 29.5927 66.9501 28.7344C67.0177 28.2898 67.062 27.8141 67.0801 27.3075C67.1244 25.945 66.6693 24.3215 65.7227 22.5429C65.7306 23.6597 64.8411 25.4124 62.857 25.702C64.6357 24.9265 65.6862 23.1815 65.1168 21.4934C64.7475 20.904 64.3315 20.2938 63.8581 19.676C63.6241 19.3787 63.3953 19.0892 63.1691 18.8229C63.4083 19.6837 62.3603 20.573 61.6581 20.7229C62.0405 20.3533 62.8544 19.1537 60.9716 17.1503C61.4995 17.3985 62.082 17.7474 62.5215 18.0887C59.0967 14.4126 56.2856 14.3092 54.988 12.4583C56.8628 13.7302 61.822 14.4178 64.048 13.8153C62.8205 14.6323 59.8561 14.5573 59.1305 14.4048C61.5464 16.7392 66.8254 19.1513 67.7355 21.297C66.4509 19.8983 65.6161 19.6398 64.5108 19.2779C65.3872 20.5781 66.1726 21.7209 66.7161 23.047C68.1229 26.0794 70.0005 26.1157 70.1227 28.6155C69.483 26.6843 68.1853 26.1932 67.283 24.9213Z" fill="white"/>
<path d="M50.8139 20.5596C50.2494 21.3299 49.2223 21.8469 48.0547 21.8469C47.7816 21.8469 47.5189 21.816 47.2693 21.7694C47.3396 22.0874 47.5034 22.4158 47.844 22.6975C47.7062 23.6203 48.1067 24.4838 49.1027 24.7088C49.2092 25.1793 49.5006 25.5335 49.9947 25.7014L49.3002 26.4977C49.0324 26.8028 48.684 26.901 48.4031 26.8649L45.3035 26.5158C45.4386 26.1745 45.0797 25.779 44.0967 25.947L45.3138 22.5605L44.5725 20.9913L43.1658 22.1856L43.0617 25.7376L42.4558 25.4456C41.6757 25.1094 41.4443 26.5235 42.188 26.5287L42.4871 26.5313C42.4662 26.676 42.513 26.8363 42.6301 26.8881C42.4896 26.9449 42.448 27.206 42.6223 27.2991C42.4454 27.3844 42.4195 27.6533 42.5624 27.7697C42.409 28.0306 42.3804 28.5969 42.924 28.7391C43.3712 28.8554 43.652 28.3796 43.7431 28.1031L48.5669 29.587C49.2457 29.7809 49.7346 29.6722 50.3015 29.1786L51.5602 28.0849C51.4015 28.8011 51.6589 29.4447 52.2077 29.6593C52.2077 29.6593 52.1218 30.316 52.1556 30.5875L53.8433 30.59H56.5009V22.7053C56.5009 21.9711 56.7117 21.2369 56.9717 20.5596H53.8433H50.8139Z" fill="white"/>
<path d="M43.5899 33.827L43.6836 33.9434C43.8136 34.1037 43.8916 34.0649 44.0398 33.9796L44.2582 33.8634C44.3961 33.7599 45.2933 34.1012 45.3426 33.3593C45.4415 33.9124 44.7784 35.0783 45.1788 35.7298L45.7171 36.6062L43.9592 36.6321C43.7668 36.6321 43.6654 36.7484 43.6134 36.8518L43.153 37.8005C43.0333 38.0513 43.0412 38.3098 43.192 38.483L43.5041 38.832C43.5041 38.832 43.759 38.6175 43.8421 38.3357L43.7043 38.1934C43.5899 38.0848 43.5899 37.9814 43.6523 37.847L43.9357 37.2628C44.045 37.0327 44.1568 36.9836 44.4065 37.043L45.829 37.3481C45.9329 37.374 46.1021 37.4231 46.2034 37.2498C46.3776 36.9422 46.6845 36.9216 46.9966 36.9707C47.7766 37.087 49.5789 37.2732 50.2212 36.5261C50.9753 37.5214 52.4498 37.5214 52.3536 38.0434L52.0415 39.7548H52.5095L52.7956 38.0048C52.8268 37.8005 52.9543 37.5214 52.7332 37.3637C52.6422 37.2939 52.6006 37.2577 52.3951 36.9061C52.1273 36.4407 52.1404 35.7427 51.8828 35.1404C52.1273 34.8534 52.3925 34.7552 52.6239 34.8095C53.1441 34.9361 53.2845 35.828 54.023 36.5544C53.9398 36.2313 53.9035 35.8771 53.7292 35.5695C53.7292 35.5695 54.2414 35.965 54.3741 36.4277C54.4573 36.7173 54.5431 36.9293 54.8058 37.0637C54.98 37.1257 55.1881 37.043 55.3962 36.7948C55.3962 36.7948 54.9098 36.1073 54.5535 35.6575C54.0646 35.0395 53.4118 34.4191 52.5226 34.4915C52.2417 34.5148 51.9712 34.6414 51.7139 34.794C50.7022 34.2304 49.9169 34.8275 49.6048 34.8275L47.7117 34.7163C47.3398 34.6932 47.0459 34.264 47.0459 34.264C46.9991 32.6716 45.7119 32.0381 45.2673 32.0381C45.2673 32.0381 45.3089 31.7512 45.1918 31.6504L44.7966 32.1441L43.6991 31.746L44.5599 32.4466L43.6263 33.5247C43.5302 33.6307 43.5431 33.7702 43.5899 33.827Z" fill="white"/>
<path d="M42.3498 36.0628C42.0846 36.267 42.0975 36.5514 42.2562 36.8694L42.4148 37.1641L42.8282 36.8513L42.7347 36.6496C42.6671 36.5075 42.6697 36.3627 42.7867 36.2722L43.3796 35.8275C43.5461 35.7061 43.5981 35.6932 43.775 35.7189L45.0256 35.9801C45.0256 35.9801 44.8359 35.7061 44.7735 35.4268L43.5954 35.2717C43.429 35.2511 43.3277 35.3209 43.182 35.432L42.3498 36.0628Z" fill="white"/>
<path d="M50.3484 39.7546H50.8218L51.581 37.8958C51.607 37.8312 51.6434 37.8028 51.6721 37.7485C51.3314 37.6141 51.1311 37.521 50.8477 37.3582C51.0375 37.6115 51.1857 37.7201 51.1077 37.9553L50.3484 39.7546Z" fill="white"/>
<path d="M50.7513 14.6141L51.6277 9.60669L48.3069 10.7287V15.8912L50.7513 14.6141ZM48.8685 11.2353L51.0711 10.4288C51.0711 10.4288 50.642 10.7751 50.1298 11.1241C49.6747 11.4369 48.8685 11.7705 48.8685 11.7705V11.2353ZM48.8685 12.4478L50.8839 11.7316C50.8839 11.7316 50.642 11.9851 50.1323 12.334C49.6772 12.6442 48.8711 12.9777 48.8711 12.9777V12.4478H48.8685ZM48.8685 13.7351L50.642 13.0578C50.642 13.0578 50.642 13.2724 50.1298 13.6189C49.6747 13.9317 48.8685 14.2651 48.8685 14.2651V13.7351Z" fill="white"/>
<path d="M44.8433 19.0422L44.9161 19.1586H45.6001L45.6078 19.2775C45.6157 19.3913 45.6417 19.5076 45.6807 19.6265C45.7874 19.9496 45.998 20.2883 46.336 20.5623C46.7287 20.8778 47.2956 21.1053 48.0497 21.1053C49.6855 21.1053 50.424 20.0531 50.4942 19.2775L50.4994 19.1586H51.1858L51.2587 19.0422C51.9037 18.0392 52.6916 16.925 53.6069 16.7648L51.1105 15.3247L48.0497 16.9793L44.9863 15.3247L42.4924 16.7648C43.4079 16.9225 44.1958 18.0392 44.8433 19.0422Z" fill="white"/>
<path d="M47.7924 15.8912V10.7287L44.4768 9.60669L45.3479 14.6141L47.7924 15.8912ZM47.2332 14.2703C47.2332 14.2703 46.427 13.9343 45.9721 13.624C45.4598 13.2776 45.4598 13.0605 45.4598 13.0605L47.2358 13.7378V14.2703H47.2332ZM47.2332 11.2353V11.7705C47.2332 11.7705 46.427 11.4369 45.9721 11.1241C45.4571 10.7751 45.0254 10.4288 45.0254 10.4288L47.2332 11.2353ZM47.2332 12.4478V12.9803C47.2332 12.9803 46.427 12.6469 45.9721 12.3366C45.4571 11.9876 45.2179 11.7342 45.2179 11.7342L47.2332 12.4478Z" fill="white"/>
<path d="M48.0519 7.39868C46.1561 7.39868 44.7336 8.01651 44.4241 8.74043L48.0519 10.1648L51.6743 8.74043C51.3674 8.01651 49.9475 7.39868 48.0519 7.39868Z" fill="white"/>
<path d="M48.0523 5.33033C49.4488 5.33033 50.8479 5.75177 51.7892 6.29724C51.9427 5.79312 52.1065 5.43379 52.3301 5.02279L51.4721 5.15462L50.7776 3.68105L49.4801 4.36616L48.0523 2.9624L46.622 4.36616L45.327 3.68105L44.6276 5.15462L43.7693 5.02279C43.9929 5.43379 44.1542 5.79312 44.3129 6.29724C45.2569 5.75177 46.6507 5.33033 48.0523 5.33033Z" fill="white"/>
<path d="M71.7163 16.6792C72.1844 16.6199 72.5615 16.4647 73.0218 16.1234C72.031 15.8624 69.9557 15.1152 68.1848 15.4513C67.5998 15.5288 67.2748 15.7641 67.4827 15.8985C68.4346 16.5267 69.6099 17.9821 70.4655 19.6807C71.217 18.7526 70.9024 17.5349 70.7437 17.186C72.2416 18.083 72.6344 18.5199 73.3286 18.3492C72.9567 17.7831 72.434 17.2738 71.7163 16.6792Z" fill="white"/>
<path d="M25.6385 19.6784C26.4941 17.98 27.6695 16.5246 28.6238 15.8963C28.8371 15.762 28.5068 15.5267 27.9269 15.4491C26.1534 15.1157 24.073 15.8602 23.0823 16.1213C23.5477 16.4626 23.917 16.6177 24.3903 16.6771C23.67 17.2743 23.1472 17.781 22.7754 18.3471C23.4749 18.5177 23.865 18.0809 25.3602 17.1838C25.2068 17.5354 24.8895 18.7504 25.6385 19.6784Z" fill="white"/>
<path fill-rule="evenodd" clip-rule="evenodd" d="M36.0223 35.4426C36.7114 34.8997 37.2834 34.6281 37.2549 33.3124C36.2199 33.8397 33.284 33.8113 32.0565 32.131C31.7106 31.6527 32.0799 31.4123 32.4153 31.7897C33.2553 32.7359 34.8104 32.3068 35.3773 32.0353C35.2863 31.7096 35.0341 31.2856 34.8235 31.1047C35.0367 30.8979 35.6374 30.5876 35.7596 30.0551C35.4397 29.8819 34.1941 29.7578 34.1941 29.7578C34.3944 29.5665 34.6439 29.3002 34.4932 28.5893C33.2215 28.9771 31.6482 28.4497 31.292 27.9818C30.9409 27.5216 31.2999 27.0899 31.5962 27.3949C32.2308 28.0567 35.3565 28.8142 36.519 27.6638C36.0873 27.5449 35.6114 27.1622 35.5255 26.9244C36.6022 26.8159 37.4603 26.1851 37.5306 25.3992C36.935 25.3992 35.8116 25.3553 35.4266 25.0708C35.9416 24.8822 36.2693 24.696 36.4331 24.1221C34.4646 24.0033 34.3086 22.5503 34.2981 22.3099C35.5801 23.0441 37.8374 22.7183 37.2523 20.9087C36.1861 20.8519 35.1121 19.138 38.0429 17.5635C40.7084 16.1288 43.7379 14.5828 43.47 12.0365C43.2958 10.4078 40.5991 9.29618 40.2559 8.47154C39.1298 9.00403 38.9036 9.62196 39.4106 10.6586C39.4106 10.6586 36.9012 10.9068 36.7035 9.37116C36.6178 8.68352 37.0806 8.03976 37.5774 7.54607C37.2965 7.54607 35.4059 7.04194 34.8364 8.57236C33.778 7.85371 32.8705 7.87956 32.1579 8.63954C33.2969 9.31168 34.0017 11.6177 35.8844 12.2975C34.5451 13.0188 32.379 12.7164 31.1151 10.4982C29.9189 12.2898 29.2298 14.0632 31.7965 15.9582C27.1286 18.0702 27.1625 22.1083 23.1005 24.0316C23.5113 25.1303 24.3799 25.1303 25.4878 24.9597C23.7323 27.2269 25.2277 29.6001 22.4478 30.5695C22.7078 31.495 23.2305 32.2344 24.2551 31.9629C23.9638 32.4153 23.7714 32.4049 23.3189 32.9013C24.8375 33.8527 26.6398 33.165 27.048 30.1119C27.1208 29.5665 27.8749 29.9077 27.6149 30.4429C25.8829 34.0027 30.2623 36.6809 28.7124 39.2919C30.0775 39.2349 31.1203 39.129 31.6872 38.6714C31.9655 39.2195 32.1346 39.7624 32.0722 40.2975C32.8263 40.145 33.1019 39.7029 33.1539 39.1911C33.6481 40.6259 35.4163 42.1588 38.2457 42.1588C36.7452 40.0287 38.1417 37.87 36.0223 35.4426ZM33.2293 38.0665L32.6261 39.0876C32.4101 38.4154 32.0175 37.7175 31.7653 37.2212C31.279 38.2164 30.5119 38.2372 29.7733 38.2423C29.9371 35.8588 26.9232 33.4623 28.2494 30.7427C28.5146 30.1999 28.3404 29.5329 27.7709 29.2459C25.7504 28.2274 26.6865 32.4567 24.6686 32.5859C25.0534 32.1024 25.199 31.0995 25.2563 31.0115C24.8271 31.1227 23.7999 31.7742 23.3372 30.9418C24.5178 30.3033 24.8558 29.3416 25.0405 28.3774C25.2744 27.1571 25.3837 26.591 25.6203 26.0894C25.8699 25.5543 26.2678 25.089 27.1208 23.9903C26.918 24.0187 24.6478 24.497 24.1355 24.2592C28.0649 21.8601 27.1807 18.8121 33.1695 16.0952C31.5988 14.9344 29.9943 14.0089 31.1438 11.7935C32.7846 13.753 35.9027 13.0757 37.5878 12.1657C35.9235 11.8348 33.778 10.3768 33.2709 8.75334C33.8976 8.65768 34.7115 9.33499 35.1771 9.65033C35.4034 9.05055 35.4918 8.35521 36.2225 8.20524C35.2473 10.2759 37.1717 11.3566 39.0077 11.3644C39.2936 11.3644 40.4795 11.2454 40.4795 11.2454C40.2896 10.8576 39.5225 9.79767 40.079 9.37116C40.5288 9.78996 41.0646 10.1234 41.5508 10.4957C45.1213 13.2411 39.8553 15.785 37.7022 16.9406C34.3241 18.7553 35.2291 20.9165 36.6386 21.4672C36.6334 21.7101 36.4825 21.8187 36.2485 21.8963C35.2604 22.222 34.3345 21.5214 33.5466 21.0716C33.5934 22.4263 33.4998 23.7292 35.008 24.4737L33.9704 24.8485C34.8624 25.5233 35.1355 25.88 36.2095 26.0196C35.7076 26.2626 35.0861 26.2574 34.5529 26.3066C34.6883 26.6814 34.7974 27.1908 35.0783 27.5267C32.8809 27.7854 31.9993 26.5392 31.3179 26.5884C29.8669 26.6969 29.9579 29.4114 33.5284 29.4166L33.1591 30.024C33.1591 30.024 33.8352 30.417 34.4568 30.4919C34.2201 30.6833 33.9912 30.9418 33.7911 31.1382L34.3605 31.6268C32.9017 31.8853 32.4908 30.3446 31.5442 31.0865C30.101 32.224 33.2814 34.6205 36.329 34.2637C36.0743 34.5895 35.3565 35.0704 35.0497 35.3185C37.5331 37.6503 36.3083 39.8477 37.3303 41.4583C35.1876 41.3186 33.6012 39.7545 33.2293 38.0665Z" fill="black"/>
<path fill-rule="evenodd" clip-rule="evenodd" d="M29.3106 29.5511C29.8281 30.0861 30.4522 30.1431 31.6353 30.0681C30.3326 29.9104 29.6018 29.5949 29.1468 28.7368C29.0817 28.2921 29.0376 27.8163 29.0193 27.3097C28.9777 25.9473 29.4302 24.3238 30.3768 22.5453C30.3716 23.6594 31.2584 25.4121 33.2425 25.7042C31.4586 24.9288 30.4106 23.1837 30.9826 21.4956C31.3546 20.9062 31.7733 20.2961 32.2413 19.6783C32.4753 19.381 32.7042 19.0914 32.9278 18.8251C32.6886 19.686 33.7366 20.5753 34.4387 20.7252C34.059 20.3555 33.2425 19.1587 35.1279 17.1552C34.6025 17.4033 34.02 17.7523 33.578 18.0935C37.0003 14.4175 39.8165 14.3141 41.109 12.4631C39.2366 13.7351 34.2776 14.4226 32.0489 13.8202C33.2789 14.6371 36.2409 14.5622 36.9664 14.4096C34.5532 16.7441 29.2793 19.1561 28.3641 21.3018C29.6486 19.9006 30.4808 19.6447 31.5937 19.2853C30.7175 20.5857 29.9296 21.7283 29.386 23.0545C27.9817 26.0842 26.1042 26.1231 25.9819 28.6204C26.6218 26.684 27.922 26.1929 28.8217 24.921C28.6631 25.7327 28.5876 26.6324 28.6162 27.6716C28.6475 28.8013 28.8763 29.794 29.2378 30.6833C29.1468 31.9191 29.2559 34.0285 30.681 35.422C29.7137 34.2043 29.5055 32.2241 29.5914 31.4511C30.7071 33.589 33.8874 36.5465 35.4244 38.5319C33.8874 35.9804 30.1193 32.997 29.3106 29.5511Z" fill="black"/>
<path fill-rule="evenodd" clip-rule="evenodd" d="M64.5132 19.2852C65.6185 19.6472 66.4532 19.9032 67.7378 21.3043C66.8278 19.1586 61.5461 16.7466 59.1328 14.4123C59.8584 14.5622 62.8229 14.6398 64.0504 13.8228C61.8244 14.4252 56.8653 13.7375 54.9902 12.4656C56.2854 14.3166 59.0991 14.42 62.5239 18.0961C62.0844 17.7548 61.5019 17.4059 60.974 17.1577C62.8568 19.1612 62.0429 20.3607 61.6606 20.7304C62.3626 20.5805 63.4107 19.6912 63.1714 18.8302C63.3977 19.0966 63.6265 19.3861 63.8605 19.6834C64.3311 20.3039 64.7473 20.9113 65.1192 21.5007C65.6913 23.1915 64.6407 24.9364 62.8619 25.7094C64.8462 25.4199 65.7355 23.6645 65.7252 22.5503C66.6743 24.3289 67.1268 25.9524 67.0851 27.3148C67.0669 27.8214 67.0227 28.2946 66.9551 28.7419C66.4975 29.6 65.7667 29.9155 64.4665 30.0732C65.6524 30.1455 66.2738 30.0913 66.7938 29.5562C65.9851 33.0022 62.217 35.9854 60.6775 38.5396C62.217 36.5542 65.3922 33.5968 66.5131 31.4587C66.5989 32.2317 66.3908 34.2119 65.4235 35.4297C66.8485 34.0363 66.9578 31.9267 66.8667 30.691C67.2255 29.8017 67.4518 28.809 67.4882 27.6793C67.522 26.64 67.4413 25.7378 67.2854 24.9287C68.1877 26.2005 69.4853 26.6919 70.1277 28.6281C70.0055 26.1282 68.1279 26.0894 66.721 23.0596C66.175 21.7256 65.3896 20.583 64.5132 19.2852Z" fill="black"/>
<path fill-rule="evenodd" clip-rule="evenodd" d="M70.6193 24.9544C71.7245 25.1278 72.5932 25.1278 73.0066 24.029C68.9446 22.1057 68.9785 18.0702 64.3106 15.9556C66.8772 14.0632 66.1856 12.2872 64.992 10.4957C63.7307 12.7137 61.5568 13.0162 60.2227 12.295C62.1002 11.615 62.8102 9.30911 63.9492 8.63696C63.2366 7.87687 62.3264 7.85103 61.2681 8.56968C60.696 7.03926 58.808 7.54338 58.5245 7.54338C59.0186 8.03454 59.4868 8.6783 59.3983 9.36859C59.2034 10.9042 56.6939 10.6559 56.6939 10.6559C57.201 9.61928 56.9746 9.00146 55.8487 8.46886C55.5054 9.2936 52.8114 10.4052 52.6345 12.0338C52.3641 14.5802 55.3987 16.1261 58.0617 17.561C60.9924 19.1353 59.9185 20.8519 58.8548 20.9062C58.2645 22.7158 60.5217 23.0415 61.8063 22.3073C61.8011 22.5478 61.6374 24.0005 59.6688 24.1195C59.8352 24.6935 60.1603 24.8795 60.6752 25.0683C60.2903 25.3552 59.1669 25.3965 58.574 25.3965C58.6441 26.1824 59.505 26.8158 60.5816 26.9219C60.4957 27.1597 60.0173 27.5423 59.5881 27.6612C60.7506 28.8115 63.8763 28.0542 64.511 27.3924C64.8021 27.0874 65.1584 27.519 64.8099 27.9792C64.451 28.4496 62.8804 28.977 61.6061 28.5866C61.4605 29.295 61.705 29.5638 61.9052 29.7552C61.9052 29.7552 60.6596 29.8792 60.3371 30.0525C60.4593 30.585 61.0626 30.8926 61.2733 31.102C61.06 31.283 60.8078 31.7069 60.7168 32.0327C61.2888 32.3067 62.8439 32.7333 63.6787 31.7871C64.0168 31.4122 64.3861 31.6501 64.0401 32.1284C62.8128 33.8087 59.8769 33.8345 58.8393 33.3097C58.8106 34.6256 59.3827 34.8971 60.0719 35.4399C57.9499 37.8675 59.3516 40.0261 57.851 42.1511C60.6778 42.1511 62.4461 40.618 62.9402 39.1833C62.9974 39.6925 63.2678 40.1372 64.0193 40.2897C63.9622 39.7545 64.1286 39.2117 64.4042 38.6636C64.9764 39.1213 66.0192 39.2272 67.3843 39.284C65.8371 36.6731 70.2163 33.9949 68.4792 30.4351C68.2218 29.8999 68.9759 29.5587 69.0487 30.1042C69.4543 33.1572 71.2591 33.8449 72.7803 32.8936C72.3227 32.3972 72.1328 32.4076 71.8416 31.9551C72.8662 32.2265 73.3864 31.4872 73.6489 30.5617C70.8821 29.5949 72.3773 27.2217 70.6193 24.9544ZM70.8534 31.0142C70.9081 31.102 71.0511 32.1051 71.4385 32.5886C69.418 32.4592 70.3541 28.2299 68.3336 29.2485C67.764 29.5329 67.5951 30.1999 67.8577 30.7453C69.1787 33.4649 66.1674 35.8614 66.3365 38.2449C65.5927 38.2398 64.8203 38.219 64.3393 37.2237C64.0921 37.7201 63.6943 38.4181 63.4785 39.0902L62.8752 38.0691C62.5007 39.7597 60.9143 41.3212 58.7768 41.4634C59.7937 39.8554 58.5713 37.6579 61.0574 35.3236C60.7454 35.0754 60.0302 34.5947 59.7728 34.2688C62.8231 34.6256 66.0009 32.2293 64.5577 31.0917C63.6138 30.3497 63.1976 31.8906 61.7439 31.6319L62.3135 31.1434C62.1132 30.947 61.8818 30.691 61.645 30.4972C62.2667 30.4222 62.9428 30.0292 62.9428 30.0292L62.5735 29.4217C66.144 29.4165 66.2298 26.7021 64.7865 26.5935C64.1078 26.5444 63.2236 27.793 61.0263 27.532C61.3045 27.1958 61.4189 26.6865 61.5542 26.3117C61.0236 26.2626 60.3968 26.2678 59.8976 26.0248C60.9716 25.8878 61.2421 25.5285 62.134 24.8563L61.0991 24.4788C62.6046 23.7317 62.5085 22.4314 62.5553 21.0768C61.77 21.5267 60.839 22.2246 59.8586 21.9015C59.6246 21.8239 59.4712 21.7153 59.466 21.4723C60.878 20.9191 61.7778 18.7605 58.4024 16.9457C56.2518 15.7901 50.9831 13.2463 54.5511 10.5034C55.0399 10.1312 55.5704 9.79509 56.0177 9.37892C56.5768 9.80543 55.8123 10.8653 55.6224 11.2532C55.6224 11.2532 56.8083 11.372 57.089 11.372C58.9276 11.3643 60.8546 10.2837 59.8794 8.21035C60.6102 8.36033 60.696 9.06094 60.9195 9.65809C61.3877 9.34264 62.1991 8.66797 62.831 8.76363C62.3187 10.3846 60.1784 11.8451 58.5116 12.1759C60.194 13.086 63.3146 13.7633 64.9555 11.8037C66.105 14.0193 64.5031 14.9448 62.9298 16.1055C68.9213 18.8199 68.0346 21.8704 71.9664 24.2695C71.4593 24.5073 69.1814 24.029 68.9785 24.0005C69.8366 25.0992 70.2371 25.5646 70.4815 26.0997C70.7208 26.6012 70.8249 27.1649 71.0615 28.3876C71.2487 29.3519 71.5893 30.3135 72.7647 30.9522C72.3045 31.7768 71.28 31.1253 70.8534 31.0142Z" fill="black"/>
<path fill-rule="evenodd" clip-rule="evenodd" d="M42.3231 37.6866L43.1787 36.9653L43.0486 36.7068C42.955 36.5207 43.0045 36.5103 43.1033 36.438L43.5558 36.1045C43.6597 36.0191 43.769 36.0295 43.8964 36.0605L45.2512 36.3759H43.821C43.4907 36.3965 43.3946 36.5232 43.2749 36.7662L43.1761 36.9653L42.8095 37.715C42.6846 37.9735 42.6195 38.3173 42.9473 38.705L43.2073 39.0127L42.6819 40.0701H43.124L43.4881 39.3359C43.5167 39.31 44.055 38.8214 44.1694 38.3173C44.0134 38.1907 43.9042 38.1027 43.9901 37.927L44.1538 37.5754C44.2085 37.4591 44.2266 37.4126 44.3827 37.4409L45.8026 37.746C45.9794 37.7951 46.2395 37.8727 46.4292 37.5883C46.6244 37.2936 46.6503 37.3246 47.1027 37.3686L47.8283 37.4461C48.8191 37.5393 49.8098 37.2936 50.1948 36.9886C50.33 37.2936 50.5979 37.5289 50.7227 37.7668C50.7694 37.8546 50.6914 37.9787 50.6317 38.1338L49.8177 40.0675H51.0737L51.7837 38.3044C51.8487 38.1364 51.9448 38.002 52.0176 37.9348L51.6094 40.0701H52.829L53.1515 37.958C53.2217 37.4875 53.1802 37.3376 52.9539 37.1436C52.4468 36.7171 52.4571 35.8227 52.2934 35.2797C52.3792 35.2307 52.4806 35.2047 52.6003 35.2203C52.8655 35.2436 53.0657 35.9184 53.3778 36.3527C54.0018 37.2238 54.8522 38.1855 55.8274 36.8308C55.7337 36.6758 55.6323 36.5361 55.5127 36.4017L55.2398 36.0838C55.0811 35.908 54.3269 35.0497 54.0122 34.7421C53.2971 34.0259 52.1997 34.1346 51.7628 34.4836C50.772 33.9665 49.7267 34.5094 49.4797 34.4887L47.7737 34.3852C47.6957 34.3801 47.5788 34.3543 47.4955 34.2225L47.8127 34.1191C47.5164 32.8911 46.77 31.8647 45.4672 31.6864C45.4672 31.6864 45.3917 31.2986 45.1914 31.2236L44.8014 31.6786C44.6921 31.6941 44.5725 31.7277 44.4737 31.7691L42.8095 31.1538L44.0577 32.4077C44.0577 32.4077 43.4101 33.3202 43.2255 33.5063C43.1033 33.677 43.1137 33.8088 43.2515 33.9716L43.4933 34.2871C43.6182 34.45 43.756 34.4448 43.9562 34.3439L44.2293 34.2018C44.349 34.1035 44.7493 34.2975 44.921 34.1423C44.8117 34.4991 44.7572 34.8429 44.7312 35.1144L43.6104 34.9799C43.3659 34.9463 43.2542 34.9799 43.1059 35.0962L42.1489 35.8279C41.8368 36.0657 41.7406 36.4767 41.9331 36.8775L42.3231 37.6866ZM51.5807 37.8959L50.8215 39.7573H50.3482L51.1076 37.9554C51.1856 37.7227 51.0373 37.6141 50.8475 37.3608C51.1284 37.5186 51.3312 37.622 51.6718 37.7512C51.6432 37.8029 51.6068 37.8313 51.5807 37.8959ZM44.2579 33.8656L44.0421 33.9795C43.8912 34.0648 43.8158 34.1035 43.6858 33.9432L43.5922 33.8243C43.5454 33.7675 43.5298 33.6305 43.626 33.5218L44.5569 32.4439L43.6988 31.7433L44.791 32.144L45.1914 31.6476C45.3085 31.7459 45.2668 32.0327 45.2668 32.0327C45.7089 32.0327 46.9962 32.6688 47.0455 34.2612C47.0455 34.2612 47.3368 34.6877 47.7087 34.7111L49.6045 34.8247C49.9191 34.8247 50.7045 34.2303 51.7135 34.7912C51.9683 34.6386 52.2413 34.5172 52.5222 34.4861C53.4115 34.4215 54.0669 35.0368 54.5532 35.6572C54.9094 36.107 55.3984 36.7947 55.3984 36.7947C55.1877 37.0429 54.9822 37.1256 54.8081 37.0635C54.5454 36.9291 54.4595 36.7197 54.3763 36.4276C54.2437 35.9648 53.7314 35.5693 53.7314 35.5693C53.9057 35.8795 53.942 36.2312 54.0253 36.5543C53.2841 35.8252 53.1437 34.9359 52.6262 34.8119C52.3973 34.7549 52.1296 34.8532 51.8824 35.1375C52.1425 35.7399 52.1296 36.438 52.3973 36.9058C52.6003 37.2548 52.6444 37.2858 52.7355 37.3634C52.9539 37.5186 52.8316 37.8002 52.7979 38.0046L52.517 39.7547H52.0437L52.3558 38.0433C52.452 37.5211 50.9776 37.5211 50.2234 36.5259C49.5811 37.2729 47.7789 37.0868 46.9988 36.9705C46.6841 36.9239 46.3772 36.9446 46.2055 37.2523C46.1042 37.4254 45.9352 37.3738 45.8313 37.348L44.4087 37.0429C44.159 36.9859 44.0498 37.0351 43.9406 37.2626L43.6572 37.8469C43.5948 37.9839 43.5974 38.0848 43.7117 38.1959L43.847 38.338C43.7664 38.6172 43.509 38.8318 43.509 38.8318L43.1994 38.4854C43.0486 38.3095 43.0409 38.0562 43.1605 37.808L43.6208 36.8515C43.6753 36.7456 43.7742 36.6318 43.9666 36.6318L45.7245 36.6059L45.1862 35.7347C44.7858 35.0807 45.4515 33.9148 45.35 33.3641C45.2955 34.1009 44.3983 33.7649 44.2579 33.8656ZM42.3491 36.0631L43.1813 35.4322C43.3295 35.3211 43.4283 35.2488 43.5974 35.2694L44.7728 35.4245C44.8378 35.7038 45.0251 35.9777 45.0251 35.9777L43.7742 35.7166C43.5974 35.696 43.5454 35.7038 43.379 35.8227L42.786 36.2673C42.6691 36.3578 42.6639 36.5025 42.7315 36.6448L42.8276 36.8489L42.4142 37.1591L42.2555 36.8645C42.0942 36.5516 42.084 36.2647 42.3491 36.0631Z" fill="black"/>
<path fill-rule="evenodd" clip-rule="evenodd" d="M45.9746 13.6213C46.4297 13.9342 47.2359 14.2676 47.2359 14.2676V13.735L45.4597 13.0603C45.4597 13.0603 45.4597 13.2776 45.9746 13.6213Z" fill="black"/>
<path fill-rule="evenodd" clip-rule="evenodd" d="M47.2328 12.98V12.4476L45.2175 11.7314C45.2175 11.7314 45.4568 11.9848 45.9717 12.3338C46.4267 12.6441 47.2328 12.98 47.2328 12.98Z" fill="black"/>
<path fill-rule="evenodd" clip-rule="evenodd" d="M47.2335 11.7704V11.2353L45.0256 10.4287C45.0256 10.4287 45.4573 10.7751 45.9723 11.1241C46.4273 11.4369 47.2335 11.7704 47.2335 11.7704Z" fill="black"/>
<path fill-rule="evenodd" clip-rule="evenodd" d="M53.4351 19.0423H55.6923C55.5986 18.7164 55.2475 18.3882 54.5896 18.3882C53.9656 18.3882 53.5911 18.745 53.4351 19.0423Z" fill="black"/>
<path fill-rule="evenodd" clip-rule="evenodd" d="M51.0747 10.4287L48.8721 11.2353V11.7704C48.8721 11.7704 49.6782 11.4369 50.1333 11.1241C50.6456 10.7751 51.0747 10.4287 51.0747 10.4287Z" fill="black"/>
<path fill-rule="evenodd" clip-rule="evenodd" d="M50.6456 13.0603L48.8721 13.7376V14.2701C48.8721 14.2701 49.6782 13.9342 50.1333 13.6239C50.6456 13.2776 50.6456 13.0603 50.6456 13.0603Z" fill="black"/>
<path fill-rule="evenodd" clip-rule="evenodd" d="M50.8837 11.7314L48.8684 12.4476V12.98C48.8684 12.98 49.6771 12.6466 50.1296 12.3364C50.6445 11.9848 50.8837 11.7314 50.8837 11.7314Z" fill="black"/>
<path fill-rule="evenodd" clip-rule="evenodd" d="M41.5096 18.3882C40.8516 18.3882 40.5006 18.7164 40.407 19.0423H42.6669C42.5056 18.745 42.1363 18.3882 41.5096 18.3882Z" fill="black"/>
<path fill-rule="evenodd" clip-rule="evenodd" d="M52.5357 8.99109C52.5357 7.72961 50.4033 6.59985 48.0498 6.59985C45.6964 6.59985 43.5641 7.72961 43.5641 8.99109L43.6134 9.30137L44.5495 14.6604L40.1028 17.2378C39.6295 17.5145 39.0366 18.2744 38.9612 19.0397H39.7725C39.9077 18.2744 40.5136 17.4265 41.6501 17.4783C42.6773 17.5324 43.2857 18.1529 43.8891 19.0397L44.0451 19.2724L44.2688 19.6213H37.7285C38.2096 20.5804 38.6647 21.599 38.6647 22.7029V36.2207C38.6647 39.6978 41.3511 41.3549 44.2609 41.3549C46.5078 41.3549 46.812 41.254 48.0525 42.4871C49.2876 41.254 49.592 41.3549 51.8439 41.3549C54.7513 41.3549 57.4402 39.6978 57.4402 36.2207V22.7055C57.4402 21.6016 57.8953 20.583 58.3763 19.6239H51.8309L52.0571 19.2749L52.2132 19.0422C52.8139 18.1556 53.425 17.5351 54.4522 17.4808C55.5834 17.4291 56.1945 18.277 56.3271 19.0422H57.1358C57.0631 18.277 56.4675 17.5145 55.9969 17.2404L51.5501 14.663L52.4888 9.3039L52.5357 8.99109ZM44.4741 9.60638L47.7924 10.7283V15.8909L45.3479 14.6139L44.4741 9.60638ZM45.2908 20.5598C45.7276 21.1543 46.435 21.5938 47.2722 21.7644C47.3425 22.0772 47.5142 22.421 47.8469 22.6977C47.7091 23.6206 48.107 24.4815 49.1056 24.709C49.2096 25.1794 49.5035 25.5336 49.995 25.7016L49.3007 26.4979C49.0354 26.8029 48.6896 26.9011 48.4035 26.865L45.3037 26.5159C45.4389 26.1747 45.0801 25.7792 44.0996 25.9472L45.3194 22.5607L44.5756 20.9915L43.1661 22.1859L43.062 25.7379L42.4641 25.4457C41.6761 25.1097 41.4472 26.5237 42.1961 26.5288L42.4926 26.5315C42.4744 26.6763 42.5186 26.8365 42.633 26.8856C42.4926 26.9452 42.451 27.2088 42.6278 27.3019C42.4484 27.3846 42.425 27.6534 42.568 27.7697C42.412 28.0309 42.3886 28.597 42.932 28.7392C43.3768 28.8555 43.655 28.3799 43.746 28.1032L48.5673 29.5872C49.2512 29.781 49.7349 29.6725 50.3019 29.1787L51.5605 28.0852C51.4019 28.8013 51.6619 29.445 52.2106 29.6595C52.2106 29.6595 52.1326 30.3032 52.156 30.5903H39.6035V22.7055C39.6035 21.9713 39.3902 21.237 39.1354 20.5598H45.2908ZM50.4761 23.5508C50.2108 24.055 50.2368 24.634 50.5489 25.1588L50.3409 25.3604C49.4359 25.2492 49.0797 23.9075 49.0797 23.9075C49.0614 24.0291 49.051 24.1454 49.0537 24.2643C48.5257 24.0704 48.1929 23.6052 48.2189 22.9665C48.4191 23.0777 48.6428 23.1553 48.882 23.1966L48.9445 22.8036C48.3125 22.6951 47.9432 22.3022 47.8028 21.8368C47.7715 21.8342 47.7456 21.8265 47.7169 21.8239C47.8288 21.8317 47.9406 21.842 48.0551 21.842C48.4296 21.842 48.7858 21.7851 49.1186 21.6869C49.3813 22.0592 49.8468 22.3254 50.3148 22.3772C50.2395 22.6874 50.2758 23.0725 50.4761 23.5508ZM51.8154 27.0976C51.7243 27.2191 51.6515 27.3588 51.6046 27.5113L51.1002 27.9714C51.2016 27.2373 50.705 26.3711 50.2524 26.017L50.7882 25.4948L50.8947 25.6034C50.7153 26.0713 51.0664 26.9891 51.8154 27.0976ZM49.3787 26.8676L49.7948 26.4617C50.216 26.8288 50.7726 27.6483 50.5983 28.4291L50.1458 28.8427C50.0522 28.9331 49.9561 28.9977 49.8572 29.0572C50.1406 28.3617 49.7792 27.2916 49.3787 26.8676ZM48.4841 27.2114H48.4972C48.648 27.2347 48.8092 27.2088 48.9548 27.1493C49.272 27.5991 49.5192 28.6229 49.1394 29.2614C48.9236 29.2666 48.713 29.2278 48.5152 29.171L48.3593 29.1243C48.6792 28.6307 48.6349 27.7569 48.4841 27.2114ZM47.4362 27.0821L48.0212 27.1545C48.1149 27.6379 48.0525 28.4729 47.7429 28.9487L47.0617 28.7522C47.3607 28.3489 47.5011 27.5191 47.4362 27.0821ZM46.2165 26.9348L46.9264 27.0175C46.9966 27.4052 46.864 28.2299 46.5962 28.6229L45.8732 28.4161C46.1618 28.0361 46.2659 27.3665 46.2165 26.9348ZM43.343 26.746C43.0127 26.852 42.8671 26.6142 42.8801 26.4125C43.5276 26.1773 43.8162 26.3298 44.0061 26.4488C44.1803 26.5573 44.326 26.8676 44.5599 27.0614C44.521 27.3251 44.4404 27.7077 44.3441 27.9637C43.681 27.7956 43.6472 27.214 43.8943 26.8598C43.7564 26.6995 43.6109 26.6581 43.343 26.746ZM42.8801 28.0309C42.8801 28.0309 43.0777 28.1136 43.3274 28.1318C43.2988 28.2687 43.1921 28.398 43.0231 28.3617C42.8827 28.3307 42.8203 28.1601 42.8801 28.0309ZM42.2273 26.1436C42.0635 26.0352 42.1363 25.7973 42.3184 25.7973C42.5186 25.8025 42.7838 26.0274 43.0465 26.1385C43.0465 26.1385 42.3573 26.2316 42.2273 26.1436ZM42.901 27.5139C43.044 27.6509 43.473 27.5991 43.473 27.5991L43.4886 27.6845C43.3013 27.9326 42.7813 27.8215 42.901 27.5139ZM43.4782 27.2321C43.1713 27.3536 42.8567 27.1881 42.9529 26.9916C43.0959 27.1209 43.4938 27.0563 43.4938 27.0563L43.4782 27.2321ZM43.9307 23.6827L43.343 25.8102L43.5433 22.3772L44.4533 21.6043L44.9163 22.615L43.746 25.9498L44.0555 23.7059C44.0841 23.5456 43.9567 23.5275 43.9307 23.6827ZM43.9723 26.2627C43.9723 26.2627 44.6275 26.2316 44.8123 26.3013C44.9475 26.3583 44.8564 26.5858 44.6795 26.56C44.495 26.5366 43.9723 26.2627 43.9723 26.2627ZM44.9995 26.7797L45.7119 26.8676C45.7667 27.2553 45.6652 27.912 45.4103 28.2791L44.7212 28.08C44.9032 27.6483 44.9475 27.2425 44.9995 26.7797ZM56.5014 36.2233C56.5014 37.8674 55.7368 39.1162 54.4653 39.8089L54.9203 38.8886H54.4782L53.8931 40.0674C53.2873 40.2949 52.6007 40.4216 51.8413 40.4216C49.5217 40.4216 48.908 40.5146 48.0498 41.3652C47.189 40.5146 46.5754 40.4216 44.2584 40.4216C43.5041 40.4216 42.8177 40.3001 42.2144 40.0726H42.23L42.8151 38.8886H42.3756L41.8634 39.9253C41.741 39.8684 41.6214 39.8063 41.507 39.7391L41.9283 38.8886H41.4914L41.1794 39.5219C40.1859 38.7955 39.6008 37.658 39.6008 36.2233V31.0529H56.4962V36.2233H56.5014ZM56.972 20.5598C56.7094 21.237 56.4988 21.9713 56.4988 22.7055V30.5903H55.5755C55.1569 30.1869 54.8032 28.8427 54.8032 28.8427C54.5745 29.3261 54.837 30.3058 55.0815 30.5903H53.8931C53.5993 30.1947 53.3444 28.7936 53.3444 28.7936C52.9882 29.1968 53.2144 30.2852 53.4354 30.5903H52.6449C52.5954 30.0293 52.7567 29.4191 52.7567 29.4191C52.3432 29.3441 51.9037 29.127 51.9063 28.672C52.1143 28.8659 52.2002 28.8634 52.4888 28.8582L52.8243 28.5944C51.7113 28.6307 51.6593 27.4156 52.5435 26.8468C51.6619 26.8752 51.004 26.3532 51.3239 25.4224C50.6972 25.0992 50.4761 24.0446 50.9389 23.5818C50.6035 23.2199 50.5489 22.509 50.7622 22.0256C50.3175 22.0256 49.8182 21.8497 49.5399 21.5472C49.5192 21.5576 49.4931 21.5654 49.4696 21.5731C50.0262 21.3482 50.4968 20.9967 50.8141 20.5624H56.972V20.5598ZM53.607 16.7647C52.6917 16.9225 51.9037 18.0366 51.2588 19.0422L51.186 19.1585H50.4968L50.4944 19.2775C50.424 20.053 49.683 21.1052 48.0498 21.1052C47.2957 21.1052 46.7263 20.8751 46.3361 20.5624C45.9981 20.2883 45.7848 19.9497 45.6808 19.6265C45.6418 19.5102 45.6184 19.3912 45.608 19.2775L45.6028 19.1585H44.9188L44.846 19.0422C44.1985 18.0392 43.4106 16.9249 42.4978 16.7647L44.9916 15.3247L48.0551 16.9793L51.1132 15.3247L53.607 16.7647ZM50.7517 14.6139L48.3099 15.8909V10.7283L51.6281 9.60638L50.7517 14.6139ZM48.0525 10.1648L44.4248 8.7404C44.7316 8.01647 46.154 7.39865 48.0525 7.39865C49.9482 7.39865 51.3681 8.01647 51.6749 8.7404L48.0525 10.1648Z" fill="black"/>
<path fill-rule="evenodd" clip-rule="evenodd" d="M56.1137 25.6552L56.1214 25.2595C54.9018 25.2311 54.6211 23.8015 54.6211 23.8015C54.2647 24.8537 55.1958 25.6396 56.1137 25.6552Z" fill="black"/>
<path fill-rule="evenodd" clip-rule="evenodd" d="M54.5742 28.0772L54.452 27.7025C53.4118 27.9661 52.8736 26.3271 52.8736 26.3271C52.5407 27.5189 53.7005 28.3617 54.5742 28.0772Z" fill="black"/>
<path fill-rule="evenodd" clip-rule="evenodd" d="M55.2973 26.5572C54.0543 26.7536 53.5447 25.3164 53.5447 25.3164C53.4068 26.0997 53.9165 26.8933 54.7409 26.976C54.5536 27.9973 55.508 28.5219 56.3349 28.1574L56.2153 27.8007C55.4975 28.0411 54.8241 27.3353 55.2973 26.5572Z" fill="black"/>
<path fill-rule="evenodd" clip-rule="evenodd" d="M54.5534 22.4546L54.5638 22.0591C52.9229 21.723 53.0607 20.6011 53.0607 20.6011C52.7071 21.6584 53.6379 22.4392 54.5534 22.4546Z" fill="black"/>
<path fill-rule="evenodd" clip-rule="evenodd" d="M44.1567 38.8887L43.5691 40.0727H44.0111L44.5963 38.8887H44.1567Z" fill="black"/>
<path fill-rule="evenodd" clip-rule="evenodd" d="M45.0436 38.8887L44.4585 40.0727H44.9032L45.483 38.8887H45.0436Z" fill="black"/>
<path fill-rule="evenodd" clip-rule="evenodd" d="M48.5959 38.8887L48.0107 40.0727H48.4503L49.0379 38.8887H48.5959Z" fill="black"/>
<path fill-rule="evenodd" clip-rule="evenodd" d="M49.4848 38.8887L48.8945 40.0727H49.3392L49.9216 38.8887H49.4848Z" fill="black"/>
<path fill-rule="evenodd" clip-rule="evenodd" d="M47.7089 38.8887L47.1213 40.0727H47.5632L48.1483 38.8887H47.7089Z" fill="black"/>
<path fill-rule="evenodd" clip-rule="evenodd" d="M52.8967 40.0727H53.3387L53.9239 38.8887H53.4818L52.8967 40.0727Z" fill="black"/>
<path fill-rule="evenodd" clip-rule="evenodd" d="M45.933 38.8887L45.3479 40.0727H45.7899L46.375 38.8887H45.933Z" fill="black"/>
<path fill-rule="evenodd" clip-rule="evenodd" d="M46.817 38.8887L46.2319 40.0727H46.6766L47.2617 38.8887H46.817Z" fill="black"/>
<path fill-rule="evenodd" clip-rule="evenodd" d="M44.8095 32.5242C44.729 32.5242 44.6587 32.6017 44.6587 32.7026C44.6587 32.8008 44.729 32.8809 44.8095 32.8809C44.8928 32.8809 44.9656 32.8008 44.9656 32.7026C44.963 32.6017 44.8928 32.5242 44.8095 32.5242Z" fill="black"/>
<path fill-rule="evenodd" clip-rule="evenodd" d="M48.0523 5.80105C49.8726 5.80105 51.3314 6.40073 52.135 7.0445C52.135 7.0445 52.3769 5.6071 53.1909 4.34562L51.7241 4.50846L50.9569 2.88492L49.4825 3.64754L48.0523 2.23608L46.622 3.64754L45.1423 2.88492L44.3752 4.50846L42.9084 4.34562C43.7251 5.6071 43.9642 7.0445 43.9642 7.0445C44.7704 6.40073 46.2319 5.80105 48.0523 5.80105ZM44.6274 5.15475L45.327 3.68118L46.622 4.36629L48.0523 2.96253L49.4825 4.36629L50.7776 3.68118L51.4693 5.15475L52.3301 5.02292C52.109 5.43392 51.9426 5.79325 51.7892 6.29737C50.8479 5.75191 49.4487 5.33057 48.0523 5.33057C46.6506 5.33057 45.2542 5.75191 44.3127 6.29737C44.1568 5.79325 43.9929 5.43392 43.7693 5.02292L44.6274 5.15475Z" fill="black"/>
<path fill-rule="evenodd" clip-rule="evenodd" d="M49.55 2.89787C49.7632 2.91601 49.953 2.7557 49.9712 2.54624C49.992 2.33426 49.6799 1.77075 49.6799 1.77075C49.6799 1.77075 49.2144 2.26971 49.1988 2.4817C49.1781 2.68851 49.3392 2.8772 49.55 2.89787Z" fill="black"/>
<path fill-rule="evenodd" clip-rule="evenodd" d="M51.9525 3.76419C52.1425 3.86491 52.3739 3.79003 52.4753 3.60124C52.5793 3.4151 52.5117 2.77661 52.5117 2.77661C52.5117 2.77661 51.8928 3.05325 51.7915 3.24192C51.6926 3.42807 51.7654 3.66073 51.9525 3.76419Z" fill="black"/>
<path fill-rule="evenodd" clip-rule="evenodd" d="M46.5521 2.89787C46.7679 2.8772 46.9265 2.69105 46.9083 2.4817C46.8876 2.26971 46.4273 1.77075 46.4273 1.77075C46.4273 1.77075 46.1178 2.33689 46.136 2.54624C46.1517 2.7557 46.3414 2.91601 46.5521 2.89787Z" fill="black"/>
<path fill-rule="evenodd" clip-rule="evenodd" d="M44.1516 3.76419C44.3415 3.66073 44.4117 3.42807 44.3129 3.24192C44.214 3.05325 43.5925 2.77661 43.5925 2.77661C43.5925 2.77661 43.5276 3.4151 43.6316 3.60124C43.7278 3.79003 43.9618 3.86491 44.1516 3.76419Z" fill="black"/>
<path fill-rule="evenodd" clip-rule="evenodd" d="M72.9781 16.8967C73.4904 16.7157 73.8856 16.2297 74.0832 15.7799C72.7805 15.5938 69.3191 14.1487 66.4742 15.3249C67.5405 14.3194 68.4974 14.1901 68.5883 12.7424C69.0305 13.0578 69.7768 13.2362 70.1982 12.484C69.9044 11.623 69.1631 12.321 69.0591 12.0832C68.9135 11.7523 69.9926 12.184 70.2241 11.0647C69.3842 10.7776 69.1345 11.4601 68.9837 11.3024C68.8459 11.1525 69.5168 10.8655 69.0228 9.96338C68.1489 10.4726 68.604 11.044 68.4194 11.1085C68.1958 11.1965 68.3725 10.4958 67.4052 10.5295C67.309 11.561 68.3128 11.5946 68.1489 11.7574C67.9487 11.9565 67.6887 11.1655 66.958 11.5662C66.9708 12.3986 67.6496 12.8561 68.3493 12.6596C68.2348 14.2418 66.7733 13.9471 65.6863 15.7308C67.9904 16.9045 69.0331 18.9519 70.4503 20.3686C70.9185 20.0377 71.7194 18.5694 71.7194 18.5694C73.2536 19.7508 74.3328 18.5744 74.3328 18.5744C73.805 18.0368 73.7842 17.6283 72.9781 16.8967ZM70.7416 17.1837C70.9002 17.5327 71.215 18.7503 70.4634 19.6784C69.6079 17.9799 68.4324 16.5245 67.4806 15.8963C67.2725 15.7619 67.595 15.5267 68.1828 15.4491C69.9537 15.1156 72.0315 15.8601 73.0197 16.1213C72.5593 16.4624 72.185 16.6176 71.7142 16.6744C72.4319 17.2742 72.9573 17.7808 73.3264 18.3445C72.6322 18.5176 72.2395 18.0808 70.7416 17.1837Z" fill="black"/>
<path fill-rule="evenodd" clip-rule="evenodd" d="M55.9476 43.5885V41.6548C54.4445 42.3398 52.5331 42.8956 50.0731 43.1155L49.9613 43.8057C50.1692 43.8341 50.4345 43.8599 50.7882 43.8832C49.878 44.0074 48.7 44.0667 48.0551 44.0667C47.4076 44.0667 46.2322 44.0074 45.3194 43.8832C45.6704 43.8599 45.9357 43.8341 46.1437 43.8057L46.032 43.1155C43.5719 42.8956 41.6579 42.3398 40.1574 41.6548V43.5885L38.1187 44.4209C39.6296 45.2016 41.3667 45.8376 43.3742 46.3521L43.135 47.1612C44.2844 47.4974 46.1229 47.8385 48.0499 47.8385C49.9769 47.8385 51.8127 47.4947 52.9647 47.1612L52.7282 46.3521C54.7331 45.8376 56.4755 45.2016 57.9863 44.4209L55.9476 43.5885ZM39.2083 44.4648L40.584 43.9142V42.3398C41.4681 42.6784 42.6279 43.0301 44.2922 43.3739L43.5121 45.8996C41.8139 45.5118 40.3708 44.9896 39.2083 44.4648ZM48.0525 47.3757C46.5 47.3757 44.984 47.1457 43.6889 46.8278L44.5133 44.1779C45.0594 44.3046 46.4271 44.47 48.0525 44.47C49.6804 44.47 51.0404 44.3021 51.5891 44.1779L52.4161 46.8278C51.1158 47.1457 49.6024 47.3757 48.0525 47.3757ZM52.5955 45.8996L51.8154 43.3739C53.4797 43.0328 54.6395 42.6784 55.5238 42.3398V43.9142L56.8968 44.4648C55.7343 44.9896 54.2962 45.5118 52.5955 45.8996Z" fill="black"/>
<path fill-rule="evenodd" clip-rule="evenodd" d="M24.3849 18.5694C24.3849 18.5694 25.1858 20.0377 25.6514 20.3686C27.0713 18.9545 28.1166 16.9071 30.418 15.7308C29.3284 13.9471 27.867 14.247 27.7577 12.6596C28.4573 12.8561 29.1335 12.396 29.149 11.5662C28.4156 11.1655 28.1557 11.9617 27.9581 11.7574C27.7942 11.5895 28.7953 11.561 28.7018 10.5295C27.7344 10.4985 27.9112 11.1965 27.6849 11.1085C27.5029 11.044 27.9581 10.4701 27.0817 9.96338C26.5902 10.8681 27.2637 11.1525 27.1233 11.3024C26.975 11.4601 26.7201 10.7802 25.8828 11.0647C26.1091 12.184 27.1934 11.7523 27.0478 12.0832C26.9437 12.321 26.2053 11.623 25.914 12.484C26.3302 13.2387 27.0791 13.0604 27.5185 12.7449C27.6121 14.1952 28.5664 14.3167 29.6353 15.3249C26.7878 14.1487 23.3266 15.5938 22.0184 15.7826C22.2188 16.2297 22.614 16.7158 23.1263 16.8915C22.3201 17.631 22.2994 18.0394 21.7715 18.5744C21.7715 18.5744 22.848 19.7508 24.3849 18.5694ZM22.7726 18.347C23.1445 17.7835 23.6672 17.2742 24.3901 16.677C23.9169 16.6176 23.545 16.4624 23.0821 16.1213C24.0728 15.8601 26.1533 15.113 27.9268 15.4491C28.5093 15.5267 28.837 15.7619 28.6237 15.8963C27.672 16.5245 26.494 17.9799 25.6383 19.6784C24.8894 18.7503 25.2067 17.5353 25.3601 17.1863C23.8648 18.0808 23.4749 18.5176 22.7726 18.347Z" fill="black"/>
<path fill-rule="evenodd" clip-rule="evenodd" d="M46.8064 17.4912V18.3418C47.1002 17.9876 47.6724 18.0574 47.6724 18.0574V19.2854C47.6724 19.2854 47.6516 19.8903 47.4384 20.1488H48.0547H48.6709C48.4551 19.8903 48.4369 19.2854 48.4369 19.2854V18.06C48.4369 18.06 49.0064 17.9901 49.3004 18.3443V17.4938H48.0547H46.8064V17.4912Z" fill="black"/>
<path d="M6.59261 68.6137V62.1922H10.4075V59.8554H0V62.1922H3.81478V68.6137H6.59261ZM14.2043 64.9522V59.8554H11.5192V68.6137H13.8896L18.5192 63.517V68.6137H21.2045V59.8554H18.8341L14.2043 64.9522ZM30.2382 65.357V68.6137H32.9233V59.8554H30.2382V63.0569H25.9232V59.8554H23.238V68.6137H25.9232V65.357H30.2382ZM40.4014 68.6137C41.0125 68.6137 41.5681 68.5585 42.0866 68.4112C43.4755 68.0248 44.3829 66.9025 44.3829 65.3753C44.3829 63.9218 43.6051 62.9098 42.3644 62.4497C41.7718 62.229 41.0682 62.2106 40.4014 62.2106H37.6422V59.8554H34.957V68.6137H40.4014ZM39.9384 64.2714C40.3089 64.2714 40.6606 64.2714 40.9755 64.3817C41.4199 64.529 41.6792 64.8969 41.6792 65.3385C41.6792 65.7986 41.4199 66.1849 40.994 66.3689C40.6977 66.4977 40.4014 66.4977 39.9384 66.4977H37.6422V64.2714H39.9384ZM49.1974 65.3017L52.4013 68.6137H55.9753L51.5124 64.0505L55.8087 59.8554H52.4383L49.1974 63.1491H48.4567V59.8554H45.7715V68.6137H48.4567V65.3017H49.1974ZM61.5006 59.6163C57.8895 59.6163 55.7228 61.6402 55.7228 64.253C55.7228 66.8656 57.8895 68.8897 61.5006 68.8897C65.0932 68.8897 67.2599 66.8656 67.2599 64.253C67.2599 61.6402 65.0932 59.6163 61.5006 59.6163ZM61.5006 66.7553C59.7043 66.7553 58.5561 65.6881 58.5561 64.253C58.5561 62.8178 59.7043 61.769 61.5006 61.769C63.2784 61.769 64.445 62.8178 64.445 64.253C64.445 65.6881 63.2784 66.7553 61.5006 66.7553ZM76.2026 59.3586H73.5174V60.2418C70.147 60.3155 68.1284 61.7322 68.1284 64.2346C68.1284 66.7369 70.147 68.0433 73.5174 68.1169V69.0001H76.2026V68.1169C79.5915 68.0433 81.61 66.7369 81.61 64.2346C81.61 61.7322 79.5915 60.3155 76.2026 60.2418V59.3586ZM73.5174 66.2402C71.6655 66.1665 70.8506 65.4121 70.8506 64.2346C70.8506 63.0569 71.6655 62.2106 73.5174 62.137V66.2402ZM76.2026 62.137C78.073 62.2106 78.8692 63.0569 78.8692 64.2346C78.8692 65.4121 78.073 66.1665 76.2026 66.2402V62.137ZM90.5437 59.3586H87.8585V60.2418C84.4881 60.3155 82.4696 61.7322 82.4696 64.2346C82.4696 66.7369 84.4881 68.0433 87.8585 68.1169V69.0001H90.5437V68.1169C93.9322 68.0433 95.9512 66.7369 95.9512 64.2346C95.9512 61.7322 93.9322 60.3155 90.5437 60.2418V59.3586ZM87.8585 66.2402C86.0066 66.1665 85.1917 65.4121 85.1917 64.2346C85.1917 63.0569 86.0066 62.2106 87.8585 62.137V66.2402ZM90.5437 62.137C92.4143 62.2106 93.2104 63.0569 93.2104 64.2346C93.2104 65.4121 92.4143 66.1665 90.5437 66.2402V62.137Z" fill="black"/>
</g>
<defs>
<clipPath id="clip0_7232_2593">
<rect width="96" height="69" fill="white"/>
</clipPath>
</defs>
</svg>
