<svg width="128" height="64" viewBox="0 0 128 64" fill="none" xmlns="http://www.w3.org/2000/svg">
<g clip-path="url(#clip0_3088_176482)">
<path d="M112.201 18.2686V33.9156H106.592V22.9396H101.191V33.9156H95.5811V18.2676H112.201V18.2686Z" fill="black"/>
<path fill-rule="evenodd" clip-rule="evenodd" d="M84.0601 34.4747C89.0822 34.4747 92.8112 31.408 92.8112 26.7595C92.8112 22.2598 90.06 19.3382 85.462 19.3382C83.3399 19.3382 81.5889 20.0822 80.2701 21.3659C80.5849 18.7126 82.8376 16.7755 85.3179 16.7755C85.8903 16.7755 90.1998 16.7664 90.1998 16.7664L92.6361 12.1211C92.6361 12.1211 87.2263 12.2438 84.7112 12.2438C78.9646 12.344 75.083 17.5467 75.083 23.8651C75.083 31.2272 78.8688 34.4752 84.0606 34.4752L84.0601 34.4747ZM84.0912 23.4523C85.9557 23.4523 87.2483 24.6726 87.2483 26.759C87.2483 28.6363 86.0997 30.184 84.0912 30.1883C82.1699 30.1883 80.8773 28.7547 80.8773 26.791C80.8773 24.704 82.1699 23.4523 84.0912 23.4523Z" fill="black"/>
<path d="M70.5166 28.6773C70.5166 28.6773 69.1918 29.4379 67.2128 29.5819C64.9386 29.6491 62.9119 28.2181 62.9119 25.6757C62.9119 23.1957 64.7004 21.7744 67.156 21.7744C68.6617 21.7744 70.6537 22.8139 70.6537 22.8139C70.6537 22.8139 72.1112 20.1499 72.8662 18.8176C71.4836 17.7739 69.6422 17.2016 67.5003 17.2016C62.0948 17.2016 57.908 20.712 57.908 25.6443C57.908 30.6395 61.8431 34.0683 67.5003 33.9643C69.0815 33.9056 71.263 33.3531 72.5926 32.5024L70.5166 28.6773Z" fill="black"/>
<path d="M1.53882 13.9307L9.32022 27.784V36.2341L1.54792 50.0603L1.53882 13.9307Z" fill="#5B57A2"/>
<path d="M31.416 22.7429L38.7075 18.2917L53.6298 18.2778L31.416 31.832V22.7429Z" fill="#D90751"/>
<path d="M31.3756 13.8491L31.4168 32.1904L23.6172 27.4171V0L31.3756 13.8491Z" fill="#FAB718"/>
<path d="M53.6306 18.2779L38.7077 18.2917L31.3756 13.8491L23.6172 0L53.6306 18.2779Z" fill="#ED6F26"/>
<path d="M31.4168 50.137V41.2383L23.6172 36.5557L23.6215 63.9999L31.4168 50.137Z" fill="#63B22F"/>
<path d="M38.6895 45.7264L9.31968 27.784L1.53882 13.9307L53.5985 45.7083L38.6895 45.7264Z" fill="#1487C9"/>
<path d="M23.6211 64.0002L31.4153 50.1373L38.6886 45.7266L53.5976 45.7085L23.6211 64.0002Z" fill="#017F36"/>
<path d="M1.5481 50.0603L23.6805 36.5563L16.2397 32.0091L9.32039 36.2341L1.5481 50.0603Z" fill="#984995"/>
<path d="M62.9132 44.4465C62.7419 44.6641 62.5165 44.8283 62.2461 44.9393C61.9686 45.0518 61.6717 45.109 61.3722 45.1078C61.0742 45.1118 60.778 45.0623 60.4978 44.9617C60.246 44.8706 60.0159 44.7286 59.822 44.5446C59.6305 44.3603 59.4802 44.1379 59.3808 43.8918C59.2731 43.6221 59.2194 43.334 59.2228 43.0438C59.2228 42.7558 59.2726 42.4891 59.376 42.2369C59.4705 41.9927 59.6145 41.7705 59.799 41.5841C59.9828 41.3989 60.2001 41.25 60.4394 41.1451C60.6873 41.0385 60.9577 40.9809 61.2549 40.9809C61.5751 40.9809 61.8723 41.0209 62.1427 41.1003C62.4131 41.1803 62.6428 41.3137 62.8319 41.5003L62.5031 42.055C62.3441 41.9115 62.1568 41.8025 61.9531 41.735C61.7594 41.6728 61.557 41.6415 61.3534 41.6422C61.174 41.6422 61.0027 41.6774 60.8362 41.7435C60.672 41.8095 60.5221 41.9062 60.3944 42.0283C60.2639 42.1537 60.161 42.3049 60.0924 42.4721C60.0147 42.6541 59.9764 42.8503 59.98 43.0481C59.98 43.2662 60.0201 43.4614 60.0967 43.6294C60.1738 43.8033 60.2771 43.9494 60.4073 44.0737C60.5384 44.1985 60.6911 44.2913 60.8672 44.3537C61.046 44.4201 61.2355 44.4532 61.4263 44.4513C61.6694 44.4513 61.8905 44.4022 62.0795 44.3089C62.2668 44.2188 62.4351 44.0939 62.5754 43.9409L62.9132 44.4465ZM63.8412 45.0145V41.0651H64.5534V44.0075L66.8693 41.0651H67.5814V45.015H66.8693V42.0726L64.5534 45.015L63.8412 45.0145ZM72.2989 44.4465C72.1237 44.6659 71.8939 44.8358 71.6322 44.9393C71.3546 45.0517 71.0575 45.109 70.7578 45.1078C70.4601 45.1118 70.1641 45.0623 69.8839 44.9617C69.632 44.8706 69.4018 44.7286 69.2077 44.5446C69.0162 44.3603 68.8658 44.1379 68.7664 43.8918C68.6588 43.6221 68.6051 43.334 68.6085 43.0438C68.6085 42.7558 68.6583 42.4891 68.7616 42.2369C68.8612 41.9835 69.0052 41.7665 69.1846 41.5841C69.3685 41.3989 69.5857 41.25 69.825 41.1451C70.0818 41.0325 70.36 40.9765 70.6406 40.9809C70.9608 40.9809 71.258 41.0209 71.5284 41.1003C71.7988 41.1803 72.0285 41.3137 72.218 41.5003L71.8887 42.055C71.73 41.9114 71.5429 41.8024 71.3393 41.735C71.1456 41.6729 70.9432 41.6415 70.7396 41.6422C70.3819 41.6435 70.0383 41.7817 69.7801 42.0283C69.6507 42.1547 69.548 42.3056 69.4781 42.4721C69.4004 42.6541 69.3621 42.8503 69.3656 43.0481C69.3656 43.2662 69.4063 43.4614 69.4829 43.6294C69.5595 43.8033 69.6628 43.9494 69.7935 44.0737C69.9241 44.1985 70.0772 44.2913 70.2534 44.3537C70.4291 44.4155 70.6138 44.4513 70.8119 44.4513C71.0555 44.4513 71.2719 44.4022 71.4652 44.3089C71.6525 44.2188 71.8208 44.0939 71.961 43.9409L72.2989 44.4465ZM72.6641 41.0651H76.3181V41.7665H74.8493V45.0145H74.1372V41.7665H72.6684V41.0651H72.6641Z" fill="black"/>
<path fill-rule="evenodd" clip-rule="evenodd" d="M79.6444 44.975C79.9148 44.8907 80.1445 44.7617 80.3426 44.5846L80.1263 44.0342C79.9956 44.1499 79.82 44.2475 79.6085 44.3275C79.3964 44.4075 79.1576 44.447 78.8963 44.447C78.5044 44.447 78.1799 44.3451 77.9228 44.1366C77.6658 43.9275 77.5266 43.6353 77.4945 43.2619H80.5772C80.6099 43.1059 80.625 42.9467 80.6221 42.7873C80.6255 42.534 80.5747 42.283 80.4733 42.0507C80.3811 41.8353 80.2463 41.6405 80.077 41.4779C79.9054 41.3169 79.7031 41.1918 79.4821 41.1099C79.2508 41.0205 79.0047 40.9753 78.7566 40.9766C78.423 40.9766 78.1301 41.0342 77.873 41.1409C77.6307 41.2425 77.4116 41.392 77.2289 41.5803C77.0513 41.7677 76.9149 41.9898 76.8284 42.2326C76.7332 42.4911 76.6858 42.7647 76.6886 43.0401C76.6886 43.351 76.7421 43.6347 76.8417 43.8881C76.9381 44.1335 77.0856 44.3558 77.2744 44.5403C77.4591 44.7217 77.684 44.8598 77.9502 44.9574C78.2351 45.058 78.5357 45.1075 78.838 45.1035C79.1117 45.1018 79.3836 45.0581 79.6444 44.975ZM77.842 41.935C78.0626 41.7355 78.3555 41.6379 78.725 41.6379C79.072 41.6379 79.3515 41.7313 79.5544 41.9179C79.7574 42.1041 79.865 42.3617 79.8832 42.6897H77.45C77.4845 42.3992 77.6238 42.1307 77.842 41.935Z" fill="black"/>
<path d="M81.5898 41.0649H82.2388L83.7799 43.0223L85.2396 41.0649H85.8704V45.0148H85.1582V42.1348L83.7708 43.9673H83.7435L82.302 42.1343V45.0143H81.5898V41.0649Z" fill="black"/>
<path fill-rule="evenodd" clip-rule="evenodd" d="M87.808 41.0785C87.5921 41.1347 87.3858 41.2228 87.196 41.3398L87.385 41.8998C87.5472 41.8198 87.7095 41.7531 87.8717 41.6955C88.034 41.6369 88.2412 41.6102 88.4891 41.6102C88.6872 41.6102 88.8452 41.6422 88.9668 41.7041C89.0883 41.7617 89.1783 41.8507 89.2415 41.9574C89.3046 42.0641 89.3453 42.1969 89.3678 42.3521C89.3903 42.5073 89.3994 42.6758 89.3994 42.8582C89.2535 42.757 89.0872 42.6887 88.9121 42.6582C88.7432 42.6247 88.5714 42.6069 88.3992 42.6049C88.1871 42.6049 87.989 42.6363 87.7994 42.6891C87.6104 42.7425 87.4482 42.8225 87.3175 42.9291C87.184 43.0355 87.076 43.1704 87.0016 43.3238C86.9224 43.4917 86.8825 43.6753 86.8849 43.8609C86.8849 44.247 86.9973 44.5489 87.2222 44.7622C87.4482 44.975 87.7454 45.0811 88.1148 45.0811C88.4484 45.0811 88.7146 45.0235 88.917 44.9083C89.1199 44.7926 89.2821 44.6598 89.3989 44.5083V45.0193H90.0661V42.5963C90.0661 42.0811 89.9536 41.6822 89.7234 41.4017C89.4985 41.1227 89.0969 40.9803 88.5293 40.9803C88.2771 40.9803 88.0377 41.0161 87.808 41.0785ZM88.9989 44.2785C88.8366 44.3937 88.6241 44.4465 88.3633 44.4465C88.133 44.4465 87.9531 44.3889 87.8273 44.2779C87.7009 44.1627 87.6377 44.0113 87.6377 43.8246C87.6377 43.7147 87.6602 43.6214 87.71 43.5366C87.7598 43.4518 87.8273 43.3862 87.9039 43.3329C87.9876 43.2771 88.0806 43.2365 88.1786 43.2129C88.2824 43.1862 88.3858 43.1729 88.4939 43.1729C88.8457 43.1729 89.1472 43.2571 89.3951 43.4342V43.9355C89.2783 44.0661 89.1452 44.1817 88.9989 44.2785ZM96.3525 39.6758C96.4965 39.6097 96.6309 39.4987 96.7578 39.3345L96.3701 38.7798C96.2711 38.9131 96.1586 39.0059 96.0322 39.055C95.8983 39.1071 95.7595 39.1457 95.6178 39.1702L95.4828 39.1942C95.365 39.2145 95.2397 39.2369 95.1043 39.2593C94.887 39.2993 94.6753 39.3648 94.4735 39.4545C94.1533 39.5921 93.8968 39.7782 93.7024 40.0134C93.508 40.2486 93.356 40.5147 93.2521 40.8081C93.1469 41.1052 93.0759 41.4133 93.0406 41.7265C93.0042 42.0465 92.9865 42.3521 92.9865 42.6449C92.9865 43.0225 93.0358 43.3638 93.1348 43.6699C93.2344 43.9766 93.3737 44.2337 93.5579 44.4422C93.7431 44.6555 93.9643 44.8155 94.2256 44.9307C94.4869 45.0459 94.7798 45.1035 95.1086 45.1035C95.4106 45.1035 95.6901 45.0459 95.9423 44.9393C96.1854 44.8368 96.4059 44.6876 96.5913 44.5003C96.7712 44.3179 96.9158 44.1003 97.0143 43.8566C97.1177 43.6091 97.17 43.3433 97.168 43.0753C97.168 42.7782 97.123 42.5078 97.0373 42.2678C96.9584 42.039 96.8326 41.829 96.6678 41.6513C96.5028 41.4764 96.3011 41.3399 96.0772 41.2513C95.8306 41.1545 95.5675 41.1063 95.3024 41.1094C95.1311 41.1094 94.9645 41.1318 94.8023 41.1761C94.6445 41.2204 94.4929 41.2845 94.3514 41.367C94.2141 41.4453 94.0883 41.5423 93.9777 41.655C93.8695 41.7665 93.7795 41.8907 93.7163 42.0326H93.6981C93.7114 41.8448 93.7369 41.6581 93.7747 41.4737C93.8154 41.2827 93.8738 41.1003 93.9509 40.9275C94.0275 40.7547 94.1265 40.599 94.2481 40.4571C94.3784 40.3139 94.5382 40.2004 94.7166 40.1243C94.9128 40.0313 95.1203 39.9642 95.334 39.9249L95.4754 39.8993C95.6162 39.8737 95.7506 39.8491 95.8791 39.8225C96.0504 39.7873 96.2079 39.7419 96.3525 39.6758ZM93.8465 43.4705C93.777 43.2464 93.7437 43.0127 93.7479 42.7782C93.7781 42.6436 93.8331 42.5157 93.9102 42.4011C93.9895 42.2792 94.0885 42.171 94.2031 42.0811C94.4677 41.8746 94.7949 41.7637 95.131 41.7665C95.5503 41.7665 95.8657 41.8945 96.0863 42.1483C96.3075 42.4054 96.4156 42.7243 96.4156 43.111C96.4156 43.3019 96.3792 43.4753 96.3166 43.6347C96.2556 43.7921 96.1635 43.9356 96.0458 44.0568C95.9281 44.178 95.7871 44.2744 95.6312 44.3403C95.4695 44.4113 95.2933 44.447 95.0952 44.447C94.897 44.447 94.7166 44.407 94.5501 44.327C94.3846 44.2486 94.2383 44.135 94.1217 43.9942C93.9996 43.8373 93.9066 43.6599 93.847 43.4705H93.8465ZM102.629 41.0651H101.917V45.015H102.629V41.0651ZM98.195 41.0651H98.9072V42.2502H99.5653C99.8758 42.2502 100.127 42.2902 100.331 42.3654C100.534 42.4411 100.696 42.543 100.818 42.6673C100.939 42.7915 101.025 42.9382 101.075 43.1019C101.124 43.2662 101.151 43.4347 101.151 43.6123C101.151 43.7899 101.124 43.959 101.066 44.1275C101.012 44.2961 100.917 44.4422 100.79 44.5755C100.665 44.7089 100.493 44.8155 100.276 44.8955C100.061 44.975 99.7992 45.0193 99.4839 45.0193H98.1907V41.0651H98.195ZM98.9072 42.9105V44.3579H99.4255C99.7816 44.3579 100.034 44.2961 100.178 44.1713C100.322 44.047 100.394 43.8699 100.394 43.6347C100.394 43.3947 100.318 43.2134 100.174 43.0886C100.025 42.9643 99.7768 42.9019 99.4346 42.9019H98.9072V42.9105Z" fill="black"/>
<path d="M107.338 44.4463C107.167 44.6639 106.941 44.8282 106.671 44.9391C106.393 45.0516 106.097 45.1088 105.797 45.1077C105.499 45.1117 105.203 45.0622 104.923 44.9615C104.671 44.8706 104.441 44.7286 104.247 44.5445C104.055 44.36 103.905 44.1376 103.805 43.8916C103.698 43.6218 103.644 43.3338 103.648 43.0436C103.648 42.7556 103.697 42.489 103.801 42.2367C103.895 41.9925 104.039 41.7703 104.224 41.5839C104.405 41.3972 104.62 41.2559 104.864 41.145C105.121 41.0323 105.399 40.9763 105.68 40.9807C105.999 40.9807 106.297 41.0207 106.568 41.1002C106.838 41.1802 107.068 41.3135 107.257 41.5002L106.928 42.0548C106.769 41.9113 106.582 41.8023 106.378 41.7348C106.184 41.6727 105.982 41.6414 105.778 41.6421C105.599 41.6421 105.427 41.6772 105.26 41.7434C105.096 41.8094 104.947 41.9061 104.819 42.0282C104.69 42.1544 104.587 42.3053 104.517 42.4719C104.44 42.6539 104.401 42.8502 104.405 43.0479C104.405 43.266 104.445 43.4612 104.521 43.6292C104.598 43.8031 104.702 43.9492 104.832 44.0735C104.963 44.1983 105.116 44.2911 105.292 44.3535C105.468 44.4154 105.653 44.4511 105.851 44.4511C106.077 44.454 106.3 44.4053 106.504 44.3087C106.692 44.2186 106.86 44.0937 107 43.9407L107.338 44.4463ZM107.702 41.065H111.357V41.7663H109.888V45.0143H109.176V41.7663H107.708V41.065H107.702Z" fill="black"/>
<path fill-rule="evenodd" clip-rule="evenodd" d="M112.844 41.0656H112.132V46.7723H112.844V44.8331C112.988 44.9264 113.159 44.9931 113.358 45.0374C113.556 45.0816 113.763 45.1035 113.975 45.1035C114.29 45.1035 114.574 45.0459 114.831 44.9398C115.078 44.8348 115.301 44.6825 115.489 44.4918C115.675 44.2981 115.819 44.0683 115.912 43.8166C116.011 43.5552 116.061 43.2752 116.061 42.9782C116.061 42.6848 116.016 42.4144 115.93 42.1702C115.85 41.9382 115.724 41.7242 115.561 41.5403C115.401 41.3609 115.202 41.2199 114.979 41.1275C114.736 41.0233 114.473 40.9719 114.208 40.9766C113.93 40.9766 113.669 41.0299 113.421 41.1366C113.173 41.2432 112.979 41.3712 112.844 41.5312V41.0656ZM113.34 41.7979C113.543 41.6912 113.763 41.6379 114.002 41.6379C114.209 41.6379 114.394 41.6688 114.561 41.7355C114.723 41.8022 114.858 41.8955 114.971 42.0198C115.084 42.144 115.17 42.2864 115.223 42.4544C115.282 42.623 115.309 42.8054 115.309 43.0048C115.309 43.2182 115.273 43.4086 115.21 43.5862C115.151 43.7546 115.057 43.9088 114.935 44.039C114.812 44.1676 114.663 44.2688 114.498 44.336C114.314 44.4128 114.116 44.4506 113.917 44.447C113.723 44.447 113.543 44.4251 113.371 44.3808C113.184 44.33 113.006 44.2489 112.845 44.1408V42.1835C112.97 42.0331 113.137 41.9046 113.34 41.7979ZM121.522 41.0651H120.81V45.015H121.522V41.0651ZM117.084 41.0651H117.796V42.2502H118.454C118.764 42.2502 119.017 42.2902 119.219 42.3654C119.423 42.4411 119.585 42.543 119.707 42.6672C119.828 42.7915 119.914 42.9382 119.963 43.1019C120.013 43.2662 120.04 43.4347 120.04 43.6123C120.04 43.7899 120.013 43.959 119.954 44.1275C119.9 44.296 119.806 44.4422 119.679 44.5755C119.553 44.7088 119.382 44.8155 119.165 44.8955C118.949 44.975 118.688 45.0192 118.373 45.0192H117.08V41.0651H117.084ZM117.801 42.9104V44.3579H118.319C118.675 44.3579 118.927 44.296 119.071 44.1712C119.216 44.047 119.288 43.8699 119.288 43.6347C119.288 43.3947 119.211 43.2134 119.067 43.0886C118.918 42.9643 118.67 42.9019 118.328 42.9019H117.801V42.9104Z" fill="black"/>
<path d="M124.938 42.9689L126.461 45.0148H125.587L124.411 43.4169L123.217 45.0148H122.388L123.902 43.0041L122.477 41.0649H123.352L124.438 42.5561L125.541 41.0649H126.371L124.938 42.9689ZM62.3867 49.8964H60.2014V53.1892H59.4893V49.2399H63.0983V53.1892H62.3861L62.3867 49.8964ZM67.14 49.9407H65.7344L65.6889 50.6063C65.6396 51.17 65.5722 51.6228 65.4774 51.9684C65.3826 52.3151 65.2653 52.5812 65.1304 52.7673C64.9955 52.954 64.8375 53.082 64.657 53.1449C64.4709 53.2122 64.2741 53.2452 64.0761 53.2425L64.022 52.5588C64.1139 52.5609 64.2049 52.5412 64.2876 52.5012C64.3872 52.4569 64.4857 52.3593 64.5805 52.2132C64.6753 52.0617 64.7609 51.8489 64.8375 51.5732C64.9141 51.2943 64.9639 50.9305 64.9906 50.4729L65.0629 49.2436H67.8522V53.1935H67.14V49.9407Z" fill="black"/>
<path fill-rule="evenodd" clip-rule="evenodd" d="M69.7714 49.2491C69.5412 49.311 69.334 49.3995 69.1583 49.5105L69.3479 50.0699C69.5101 49.9899 69.6724 49.9233 69.8341 49.8657C69.9963 49.8081 70.2036 49.7814 70.4515 49.7814C70.6496 49.7814 70.8076 49.8123 70.9291 49.8742C71.0512 49.9323 71.1412 50.0209 71.2044 50.1275C71.267 50.2342 71.3077 50.3675 71.3302 50.5222C71.3527 50.6779 71.3618 50.8465 71.3618 51.0283C71.2159 50.9273 71.0496 50.8592 70.8745 50.8289C70.7055 50.7954 70.5338 50.7775 70.3615 50.7755C70.15 50.7755 69.9514 50.8065 69.7618 50.8598C69.5728 50.9131 69.4105 50.9931 69.2799 51.0998C69.1463 51.2062 69.0384 51.3411 68.964 51.4945C68.885 51.6624 68.8452 51.8461 68.8478 52.0315C68.8478 52.4171 68.9602 52.7195 69.1851 52.9323C69.41 53.1451 69.7083 53.2518 70.0777 53.2518C70.4113 53.2518 70.6769 53.1942 70.8799 53.0785C71.0823 52.9633 71.244 52.8299 71.3618 52.6785V53.1894H72.029V50.7665C72.029 50.2518 71.916 49.8523 71.6863 49.5729C71.4608 49.2929 71.0598 49.1515 70.4922 49.1515C70.2487 49.1517 70.0063 49.1849 69.7714 49.2491ZM70.9655 52.4481C70.8038 52.5638 70.5918 52.6171 70.3305 52.6171C70.0959 52.6171 69.9203 52.5595 69.7945 52.4481C69.6681 52.3329 69.6049 52.1814 69.6049 51.9958C69.6049 51.8849 69.6274 51.7915 69.6772 51.7073C69.7265 51.623 69.7945 51.5563 69.871 51.503C69.9476 51.4497 70.0419 51.4097 70.1457 51.383C70.2488 51.3565 70.3547 51.3432 70.4611 51.3435C70.8124 51.3435 71.1144 51.4278 71.3623 51.6049V52.1062C71.2453 52.2364 71.1119 52.3517 70.9655 52.4481Z" fill="black"/>
<path d="M72.7268 49.2401H76.3814V49.9409H74.912V53.1889H74.1999V49.9409H72.7316V49.2401H72.7268Z" fill="black"/>
<path fill-rule="evenodd" clip-rule="evenodd" d="M79.7074 53.1492C79.9778 53.065 80.2075 52.9359 80.4056 52.7588L80.1893 52.2084C80.0587 52.3242 79.883 52.4218 79.671 52.5018C79.4595 52.5818 79.2207 52.6212 78.9588 52.6212C78.5674 52.6212 78.2429 52.5194 77.9859 52.3108C77.7288 52.1023 77.5896 51.8095 77.5575 51.4362H80.6402C80.6712 51.2991 80.6852 51.1428 80.6852 50.9615C80.6852 50.6911 80.6354 50.4468 80.5363 50.225C80.444 50.0096 80.3091 49.8149 80.1395 49.6527C79.9682 49.4914 79.7661 49.366 79.5452 49.2842C79.3138 49.1948 79.0677 49.1496 78.8196 49.1508C78.486 49.1508 78.1931 49.2084 77.9361 49.3151C77.6936 49.4165 77.4745 49.5661 77.2919 49.7546C77.1142 49.942 76.9774 50.1641 76.8903 50.4068C76.7955 50.6655 76.7484 50.939 76.7511 51.2143C76.7511 51.5252 76.8046 51.809 76.9042 52.0623C77.0038 52.3151 77.1521 52.5327 77.3369 52.7146C77.5216 52.8964 77.7471 53.034 78.0132 53.1316C78.2979 53.2325 78.5983 53.2821 78.9005 53.2783C79.1666 53.2783 79.437 53.2335 79.7074 53.1492ZM77.9007 50.105C78.1213 49.9055 78.4142 49.8079 78.7837 49.8079C79.1355 49.8079 79.4102 49.9055 79.6132 50.0874C79.8156 50.274 79.9237 50.5311 79.9419 50.8596H77.5088C77.5431 50.569 77.6824 50.3008 77.9007 50.105ZM81.0321 49.2399H81.9333L83.3073 51.1439L81.8386 53.1892H80.9647L82.5052 51.1434L81.0321 49.2399ZM83.483 49.2399H84.1951V53.1892H83.483V49.2399ZM86.7408 53.1892L85.1729 51.1434L86.6374 49.2394H85.7539L84.3708 51.1434L85.8578 53.1892H86.7408ZM89.9942 53.1492C90.2647 53.065 90.4944 52.9359 90.6925 52.7588L90.4762 52.2084C90.3455 52.3242 90.1699 52.4218 89.9584 52.5018C89.7463 52.5818 89.5075 52.6212 89.2462 52.6212C88.8542 52.6212 88.5297 52.5194 88.2727 52.3108C88.0157 52.1023 87.8765 51.8095 87.8443 51.4362H90.927C90.9586 51.2991 90.972 51.1428 90.972 50.9615C90.972 50.6911 90.9227 50.4468 90.8231 50.225C90.7309 50.0097 90.5961 49.8151 90.4269 49.6527C90.2554 49.4914 90.0531 49.366 89.832 49.2842C89.6007 49.1948 89.3546 49.1495 89.1064 49.1508C88.7734 49.1508 88.4799 49.2084 88.2229 49.3151C87.9807 49.4167 87.7617 49.5662 87.5793 49.7546C87.4012 49.9417 87.2644 50.1639 87.1777 50.4068C87.0827 50.6654 87.0355 50.939 87.0385 51.2143C87.0385 51.5252 87.092 51.809 87.1916 52.0623C87.2907 52.3151 87.4395 52.5327 87.6243 52.7146C87.809 52.8964 88.0339 53.034 88.3 53.1316C88.5849 53.2325 88.8855 53.2821 89.1878 53.2783C89.4617 53.2763 89.7336 53.2328 89.9942 53.1492ZM88.1876 50.105C88.4087 49.9055 88.7016 49.8079 89.0711 49.8079C89.4181 49.8079 89.6971 49.9055 89.9 50.0874C90.1029 50.274 90.2106 50.5311 90.2288 50.8596H87.7956C87.83 50.569 87.9693 50.3008 88.1876 50.105ZM93.8609 47.913C93.4416 47.913 93.2119 47.682 93.1755 47.2207H92.5045C92.5045 47.3978 92.5361 47.5578 92.5945 47.7087C92.6534 47.8596 92.7391 47.9882 92.8515 48.0948C92.9639 48.2015 93.1085 48.2858 93.2745 48.3519C93.4416 48.4186 93.6354 48.4495 93.856 48.4495C94.0426 48.4532 94.228 48.42 94.4017 48.3519C94.5639 48.29 94.6989 48.2015 94.8161 48.0948C94.931 47.9862 95.0215 47.8546 95.0817 47.7087C95.1449 47.5578 95.1765 47.3978 95.1765 47.2207H94.5098C94.4777 47.682 94.2571 47.913 93.8609 47.913ZM91.9364 49.2394V53.1892H92.6486L94.9645 50.2468V53.1892H95.6766V49.2394H94.9645L92.6486 52.1818V49.2394H91.9364Z" fill="black"/>
</g>
<defs>
<clipPath id="clip0_3088_176482">
<rect width="128" height="64" fill="white"/>
</clipPath>
</defs>
</svg>
