<svg width="120" height="22" viewBox="0 0 120 22" fill="none" xmlns="http://www.w3.org/2000/svg">
<path fill-rule="evenodd" clip-rule="evenodd" d="M35.2762 16.3296C34.2171 16.3296 33.1817 16.0172 32.3008 15.4319C31.42 14.8466 30.7331 14.0146 30.327 13.0411C29.9209 12.0675 29.8138 10.996 30.0192 9.96185C30.2246 8.92775 30.7334 7.97736 31.4811 7.23085C32.2288 6.48427 33.1821 5.97498 34.2204 5.76732C35.2588 5.55959 36.3357 5.66281 37.3152 6.06389C38.2947 6.46503 39.1328 7.146 39.7236 8.02081C40.3145 8.8957 40.6316 9.92517 40.6349 10.9794C40.6383 11.6804 40.5025 12.3752 40.2354 13.0239C39.9683 13.6726 39.5751 14.2624 39.0784 14.7595C38.5817 15.2566 37.9912 15.6512 37.341 15.9206C36.6906 16.19 35.9933 16.329 35.2889 16.3296H35.2762ZM35.2762 0.000724248C33.4165 -0.00451892 31.5855 0.457386 29.9529 1.34366C28.3203 2.22993 26.9387 3.5119 25.9363 5.07089C24.9338 6.62988 24.3427 8.4154 24.2179 10.2621C24.0931 12.1088 24.4385 13.9571 25.2222 15.6357C26.0059 17.3142 27.2025 18.7687 28.7012 19.8647C30.1999 20.9605 31.9522 21.6624 33.7958 21.905C35.6394 22.1477 37.5148 21.9235 39.2482 21.253C40.9817 20.5825 42.517 19.4875 43.7122 18.0695C43.0233 19.3879 41.9837 20.4925 40.7069 21.2628V21.8315H46.2984V10.9541C46.2884 8.05209 45.1257 5.27192 43.064 3.21989C41.0022 1.16793 38.2089 0.010719 35.2932 0.000724248H35.2762ZM88.3261 16.4307H81.0326V12.8667H88.1696C89.0622 12.8667 90.1034 13.7092 90.1034 14.6529C90.0984 15.1242 89.9071 15.5744 89.5714 15.9069C89.2357 16.2393 88.7827 16.4274 88.309 16.4307H88.3261ZM81.0326 5.57006H87.1448C87.6035 5.60383 88.0338 5.80166 88.3567 6.12693C88.6796 6.45228 88.873 6.88299 88.9015 7.33949C88.8958 7.5827 88.8417 7.82241 88.7421 8.04475C88.6426 8.26716 88.5003 8.46783 88.3232 8.63532C88.1454 8.8028 87.9371 8.93388 87.7088 9.02086C87.4805 9.10791 87.2372 9.14923 86.9926 9.14254H81.0326V5.57006ZM93.2783 10.339C93.9354 9.33417 94.3046 8.17006 94.3458 6.97204C94.3878 5.77394 94.1004 4.58725 93.5151 3.53947C92.9163 2.52242 92.0621 1.67731 91.0372 1.08663C90.0117 0.495954 88.8503 0.179876 87.6654 0.16924H75.441V21.8315H89.1177C90.8673 21.854 92.555 21.1842 93.8088 19.9694C95.0627 18.7545 95.781 17.0938 95.8052 15.3522C95.8159 14.3765 95.5904 13.4127 95.1488 12.5417C94.7064 11.6707 94.0606 10.9182 93.2655 10.3474L93.2783 10.339ZM69.9135 8.16094C71.7505 13.0899 71.8437 17.5597 71.8437 21.8315H66.163C66.163 18.3686 66.0402 15.2132 65.3164 12.3569C64.3386 8.53587 62.5186 5.75542 60.8296 5.75542C59.1408 5.75542 57.3207 8.53587 56.3429 12.3569C55.6148 15.2132 55.4963 18.2843 55.4963 21.8315H49.8117C49.8117 17.9431 49.9048 13.0899 51.7418 8.16094C53.4349 3.56896 56.6476 0.000724248 60.8254 0.000724248C65.0032 0.000724248 68.2201 3.56896 69.9135 8.16094ZM16.3683 0.181877H22.0445V2.46101C22.0462 4.09862 21.6802 5.71588 20.9736 7.19473C20.2668 8.67364 19.2372 9.97667 17.9598 11.0088C19.2372 12.0401 20.2668 13.3424 20.9735 14.8205C21.6802 16.2987 22.0461 17.9154 22.0445 19.5524V21.8315H16.3683V18.9795C16.3291 17.5948 15.7489 16.2799 14.751 15.3142C13.7531 14.3486 12.4162 13.8084 11.0243 13.8084C9.63257 13.8084 8.29563 14.3486 7.29765 15.3142C6.29975 16.2799 5.71961 17.5948 5.68042 18.9795V21.8315H0V19.5524C3.55607e-05 17.9147 0.3671 16.2975 1.07444 14.8188C1.78178 13.3401 2.81161 12.0371 4.08887 11.0046C2.8117 9.97297 1.7819 8.67065 1.07453 7.19259C0.367164 5.7146 7.11214e-05 4.09812 0 2.46101V0.181877H5.68042V3.02976C5.6598 3.72875 5.77779 4.4249 6.02771 5.07851C6.27763 5.73206 6.65457 6.33018 7.13685 6.83868C7.61919 7.34711 8.19755 7.75602 8.83878 8.0419C9.48001 8.32771 10.1715 8.485 10.8739 8.50467C11.5762 8.52433 12.2756 8.40593 12.9319 8.15638C13.5883 7.9069 14.1887 7.53097 14.699 7.05033C15.2093 6.56961 15.6194 5.9935 15.9058 5.35492C16.1922 4.71641 16.3494 4.02788 16.3683 3.32882C16.3683 3.22773 16.3683 3.13085 16.3683 3.02976V0.181877ZM108.965 16.3296C107.905 16.3329 106.868 16.0234 105.985 15.4401C105.102 14.8568 104.412 14.026 104.004 13.0528C103.595 12.0795 103.486 11.0074 103.689 9.97225C103.892 8.93701 104.4 7.98505 105.147 7.23683C105.894 6.48861 106.848 5.97762 107.886 5.7686C108.925 5.55952 110.002 5.66174 110.983 6.06232C111.964 6.46289 112.803 7.14386 113.394 8.0191C113.986 8.89434 114.304 9.92445 114.307 10.9794C114.31 11.6786 114.174 12.3716 113.908 13.0187C113.642 13.6658 113.25 14.2544 112.755 14.7509C112.26 15.2473 111.672 15.6419 111.024 15.912C110.376 16.1821 109.68 16.3226 108.978 16.3254L108.965 16.3296ZM119.983 10.9372C119.969 8.35478 119.043 5.85957 117.366 3.88904C115.689 1.91841 113.369 0.598161 110.811 0.159679C108.254 -0.278802 105.624 0.19247 103.381 1.49089C101.138 2.78933 99.426 4.83203 98.5448 7.26091C97.6636 9.68986 97.6693 12.35 98.5612 14.7751C99.453 17.2001 101.174 19.2354 103.423 20.5241C105.671 21.8128 108.304 22.2726 110.859 21.823C113.414 21.3734 115.728 20.0431 117.397 18.0653C116.706 19.3832 115.667 20.4887 114.391 21.2628V21.8273H120V10.9541L119.983 10.9372Z" fill="#FF4E50"/>
</svg>
