<svg width="17" height="16" viewBox="0 0 17 16" fill="none" xmlns="http://www.w3.org/2000/svg">
<circle cx="8.5" cy="8" r="8" fill="white"/>
<circle cx="8.5" cy="8" r="4" fill="#83C150"/>
<mask id="path-3-inside-1_846_5879" fill="white">
<path d="M16.5 8C16.5 12.4183 12.9183 16 8.5 16C4.08172 16 0.5 12.4183 0.5 8C0.5 3.58172 4.08172 0 8.5 0C12.9183 0 16.5 3.58172 16.5 8ZM1.51409 8C1.51409 11.8582 4.64179 14.9859 8.5 14.9859C12.3582 14.9859 15.4859 11.8582 15.4859 8C15.4859 4.14179 12.3582 1.01409 8.5 1.01409C4.64179 1.01409 1.51409 4.14179 1.51409 8Z"/>
</mask>
<path d="M16.5 8C16.5 12.4183 12.9183 16 8.5 16C4.08172 16 0.5 12.4183 0.5 8C0.5 3.58172 4.08172 0 8.5 0C12.9183 0 16.5 3.58172 16.5 8ZM1.51409 8C1.51409 11.8582 4.64179 14.9859 8.5 14.9859C12.3582 14.9859 15.4859 11.8582 15.4859 8C15.4859 4.14179 12.3582 1.01409 8.5 1.01409C4.64179 1.01409 1.51409 4.14179 1.51409 8Z" fill="white" stroke="#83C150" stroke-width="2" mask="url(#path-3-inside-1_846_5879)"/>
</svg>
