<svg width="42" height="6" viewBox="0 0 42 6" fill="none" xmlns="http://www.w3.org/2000/svg">
<path d="M33.844 2.72831L32.2238 0.969057H31.2749V5.04451H32.2655V2.44303L33.7467 3.98263H33.9295L35.3853 2.44303V5.04H36.3758V0.964515H35.427L33.8464 2.72377L33.844 2.72831ZM41.0929 0.969057L38.637 3.61586V0.969057H37.6465V5.04451H38.556L41.0094 2.4V5.04H42V0.964515L41.0929 0.969057ZM25.9356 2.45886C25.9258 2.75314 26.0098 3.04306 26.1755 3.28877C26.3414 3.53449 26.581 3.72391 26.8614 3.83094L25.8152 5.04H27.0255L27.9791 3.94189H29.009V5.04H29.9995V0.964515H27.4769C27.2728 0.952543 27.0687 0.982714 26.8773 1.05309C26.686 1.12349 26.5118 1.23249 26.3665 1.37303C26.221 1.51357 26.1074 1.68249 26.0332 1.8688C25.959 2.05509 25.9258 2.2546 25.9356 2.45434V2.45886ZM29.0069 1.86566V3.0702H27.6597C27.1968 3.0702 26.9655 2.82566 26.9655 2.46791C26.9655 2.1102 27.2154 1.86566 27.6597 1.86566H29.0069ZM21.3344 1.78414C21.2719 3.1834 20.9688 4.0868 20.367 4.0868H20.2281V5.06491H20.3855C21.5751 5.12831 22.237 4.11169 22.3412 1.89509H23.9058V5.04H24.8962V0.964515H21.3668L21.3344 1.78414ZM17.6059 0.912457C16.2658 0.912457 15.2915 1.81811 15.2915 3.00451C15.2915 4.23397 16.3399 5.10566 17.6059 5.10566C18.9112 5.10566 19.9203 4.18643 19.9203 3.00451C19.9203 1.82263 18.9043 0.912457 17.6059 0.912457ZM17.6059 4.1298C16.8468 4.1298 16.3329 3.64754 16.3329 2.99774C16.3329 2.34791 16.8491 1.86566 17.6059 1.86566C18.3627 1.86566 18.895 2.35471 18.895 2.99774C18.895 3.64074 18.3534 4.1298 17.6059 4.1298ZM14.2499 0.978115H10.7552L10.7204 1.79094C10.6718 2.96377 10.3571 4.08 9.76459 4.09586H9.48916V6H10.489V5.04H13.9607V6H14.9697V4.09586H14.2523L14.2499 0.978115ZM13.2594 4.09586H11.1463C11.5027 3.56603 11.6948 2.80074 11.7295 1.90643H13.2594V4.09586ZM7.17475 0H6.24898V4.98114H7.17475V0ZM0.925774 1.01886H0V6H0.925774V1.01886ZM3.00877 0.679257H2.08299V5.66037H3.00877V0.679257ZM5.09176 0.339629H4.16599V5.32074H5.09176V0.339629Z" fill="black"/>
</svg>
