<svg width="19" height="17" viewBox="0 0 19 17" fill="none" xmlns="http://www.w3.org/2000/svg">
<path d="M18.2663 8.15823L18.5 7.42124L17.727 7.44512C17.6617 7.44512 17.187 7.43184 16.7264 7.10283C16.7607 7.10614 16.795 7.1108 16.8301 7.1108C17.3041 7.1108 17.7627 6.82951 17.9465 6.42757L18.2791 5.70121C17.8623 5.70649 17.4812 5.65473 17.4812 5.65473C17.4778 5.65411 17.1775 5.61626 16.8301 5.2667C16.5809 5.01597 16.2726 4.88331 15.9386 4.88331C15.7924 4.88331 15.6618 4.90916 15.5494 4.94431C15.5669 4.88528 15.5837 4.82559 15.5931 4.7639C15.6995 4.08398 15.2551 3.56525 15.2551 3.5659L14.674 2.85679L14.3138 3.68994C14.3124 3.6926 14.2215 3.88761 14.0586 3.98314C14.0094 3.73837 13.8889 3.46307 13.631 3.19975C13.1448 2.70356 12.5529 2.62993 12.2432 2.62993C12.0998 2.62993 11.9975 2.64517 11.9725 2.64916L11.2709 2.78514C11.3113 2.63057 11.3975 2.36193 11.5551 2.11982L11.9423 1.52547L10.9679 1.63492L10.6575 0.985494L10.0568 1.29063L9.50135 0.75L8.9472 1.29063L8.34452 0.985494L8.03478 1.63492L7.06112 1.52547L7.44897 2.11982C7.60654 2.36193 7.69272 2.62993 7.73245 2.78449L7.06318 2.65448L7.04025 2.65049C7.00657 2.64517 6.90491 2.62993 6.76081 2.62993C6.4511 2.62993 5.85921 2.70421 5.37437 3.19975C5.1158 3.46242 4.99529 3.73837 4.94547 3.98314C4.78386 3.88894 4.69362 3.69659 4.69362 3.69659L4.33273 2.85877L3.74216 3.57252C3.67014 3.66473 3.31395 4.1523 3.41088 4.76522C3.42101 4.82625 3.43718 4.88597 3.45468 4.945C3.3429 4.90984 3.21226 4.88394 3.06614 4.88394C2.73218 4.88394 2.42377 5.01663 2.17397 5.26735C1.82784 5.61564 1.52888 5.65473 1.53159 5.65473C1.53159 5.65473 1.21577 5.71049 0.726916 5.70186L1.05755 6.42822C1.24136 6.83086 1.70061 7.11146 2.17397 7.11146C2.20963 7.11146 2.24397 7.10683 2.279 7.10349C1.81976 7.43253 1.34508 7.44581 1.28784 7.44643L0.5 7.42124L0.738368 8.15757C0.858226 8.53699 1.25887 9.16585 2.02649 9.2335C1.94299 9.57845 1.75784 9.96452 1.35114 10.131L0.764655 10.3691L1.08449 10.9177C1.26493 11.2135 1.6885 11.5598 2.2918 11.5598C2.42241 11.5592 2.54832 11.5466 2.66956 11.5214C2.70053 11.6567 2.73956 11.792 2.78535 11.926C2.96514 12.4527 2.81026 12.8202 2.80827 12.8242L2.51871 13.4218L3.16512 13.5896C3.17319 13.5923 3.36847 13.6447 3.61288 13.6447C3.724 13.6447 3.82973 13.6334 3.9294 13.6102C4.0048 13.593 4.07685 13.5698 4.14619 13.5419C4.22968 13.6898 4.33138 13.8245 4.44991 13.9452C4.86399 14.3638 5.45049 14.5761 6.19386 14.5761H6.19654L6.72717 14.5694L5.63095 15.0178L6.46321 15.4138C6.76551 15.5591 7.12444 15.7309 7.48936 15.8622L7.38569 16.1422L7.67254 16.2709C7.69811 16.2822 8.24958 16.5256 9.16669 16.5774C9.16669 16.5774 9.38821 16.5873 9.51011 16.5873C9.63198 16.5873 9.85082 16.5767 9.85082 16.5767C10.7618 16.5236 11.3093 16.2828 11.3349 16.2709L11.6224 16.1415L11.5174 15.8609C11.8931 15.7256 12.2648 15.5472 12.5543 15.4079L13.3711 15.0172L12.2782 14.5681L12.8109 14.5747C13.5549 14.5747 14.1421 14.3625 14.5555 13.9432C14.6734 13.8232 14.775 13.6885 14.8592 13.5406C14.9286 13.5684 15.0013 13.5917 15.0767 13.6089C15.1756 13.6321 15.2814 13.6434 15.3925 13.6434C15.6329 13.6434 15.8302 13.591 15.8356 13.5896L16.4846 13.4205L16.2018 12.8341C16.1951 12.8188 16.0403 12.452 16.22 11.9247C16.2658 11.79 16.3042 11.6547 16.3352 11.52C16.4571 11.5452 16.5843 11.5585 16.7156 11.5585C17.4839 11.5585 17.8522 11.0259 17.9236 10.9104L18.2401 10.3678L17.6536 10.1303C17.2462 9.96383 17.0617 9.57711 16.9789 9.23282C17.7358 9.16916 18.1425 8.5403 18.2663 8.15823ZM7.78366 3.03854L7.77555 3.04055L7.78227 3.03192L7.78366 3.03854Z" fill="white"/>
<path d="M9.50228 3.0061C8.8814 3.00675 8.41611 3.20708 8.31445 3.44258L9.50228 3.90425L10.6901 3.44258C10.5891 3.20708 10.1238 3.00675 9.50228 3.0061Z" fill="white"/>
<path d="M9.51403 15.228H9.51271H9.50259H9.49117H9.49048C9.11408 15.2307 8.59625 15.1544 8.34642 15.0828L8.04614 15.8834C8.2441 15.9531 8.91476 16.0858 9.50259 16.0858C10.0891 16.0858 10.7604 15.9524 10.9577 15.8834L10.6581 15.0828C10.4076 15.155 9.89043 15.2307 9.51403 15.228Z" fill="white"/>
<path d="M11.7871 14.4324C11.5636 14.5571 11.0646 14.7442 10.7744 14.8311L11.0182 15.4924C11.4673 15.3717 11.8377 15.2304 12.144 15.0791L11.6383 14.9133L11.7871 14.4324Z" fill="white"/>
<path d="M7.21818 14.4324L7.36767 14.9133L6.86133 15.0791C7.167 15.2304 7.53937 15.3717 7.98646 15.4924L8.23024 14.8311C7.94137 14.7442 7.44174 14.5564 7.21818 14.4324Z" fill="white"/>
<path d="M9.50241 2.24063C9.97038 2.24063 10.4296 2.35076 10.7825 2.54448C10.8148 2.43766 10.8599 2.3083 10.9212 2.173L10.7879 2.1889L10.6478 2.20349L10.5885 2.07812L10.4101 1.70666L10.0849 1.87383L9.95827 1.93751L9.85727 1.83932L9.50376 1.49438L9.15095 1.83932L9.04992 1.93751L8.92332 1.87383L8.59611 1.70666L8.41968 2.07812L8.35908 2.20349L8.21901 2.1889L8.08569 2.173C8.14699 2.30898 8.19142 2.43766 8.2244 2.54448C8.57791 2.35076 9.03579 2.24063 9.50241 2.24063Z" fill="white"/>
<path d="M16.6466 6.53365C16.7072 6.55421 16.7691 6.56349 16.8304 6.56349C17.0951 6.56349 17.3509 6.39499 17.4391 6.20195C17.4391 6.20195 16.9536 6.17276 16.4318 5.65072C16.2655 5.48156 16.0897 5.43115 15.9389 5.43115C15.7046 5.43115 15.5288 5.55319 15.5288 5.55319C16.1591 5.88357 16.2877 6.41424 16.6466 6.53365Z" fill="white"/>
<path d="M2.17322 6.56349C2.23449 6.56349 2.29645 6.55421 2.3557 6.53365C2.71596 6.41424 2.84524 5.88357 3.47547 5.55319C3.47547 5.55319 3.29905 5.43115 3.06606 5.43115C2.91458 5.43115 2.73882 5.48156 2.57185 5.65072C2.05066 6.17276 1.56519 6.20195 1.56519 6.20195C1.65202 6.39499 1.90857 6.56349 2.17322 6.56349Z" fill="white"/>
<path d="M16.8178 8.69014C16.8286 8.69076 16.838 8.69076 16.8494 8.69076C17.51 8.69076 17.7342 7.99362 17.7342 7.99362H17.7214C17.6002 7.99362 16.6178 7.96574 15.9236 7.0961C15.4663 6.52431 15.092 6.02148 14.352 5.82382L14.2793 5.8112L14.2631 5.73826C14.2429 5.62679 14.3203 5.52266 14.4961 5.40991C15.5169 4.75121 14.824 3.91139 14.824 3.91139C14.824 3.91139 14.5325 4.58336 13.8799 4.58336C13.8645 4.58336 13.8476 4.5827 13.8315 4.5827C13.7574 4.57873 13.686 4.57608 13.614 4.56083L13.4934 4.53761C13.4934 4.53761 13.6793 4.03944 13.2308 3.58171C12.8928 3.23612 12.4814 3.17773 12.2437 3.17773C12.1239 3.17773 12.0478 3.19301 12.0478 3.19301C12.2733 3.48355 12.4363 3.96514 12.1757 4.26229C11.9508 4.5177 11.4014 4.53029 11.4014 4.91105C11.4014 5.07224 11.5542 5.26065 11.8289 5.42978C12.6551 5.94254 13.4753 6.6225 13.816 7.53389C14.2422 8.67089 13.7621 9.42509 13.0766 9.8576C13.0766 9.8576 13.2915 10.0526 13.6032 10.0772C13.6665 10.0831 13.7284 10.0858 13.7864 10.0858C14.4442 10.0858 14.7843 9.78197 14.7843 9.78197C14.7843 9.78197 14.7284 10.2019 14.3856 10.5919C14.0698 10.9521 13.6551 11.1637 13.0228 11.173C13.0228 11.173 13.0026 11.4622 13.2827 11.7123C13.4618 11.8702 13.8759 11.9219 13.8759 11.9219C13.8759 11.9219 13.1009 12.0765 13.0154 13.2042C12.9689 13.8151 12.8107 14.0273 12.8107 14.0273H12.8248C14.6233 14.0273 14.5769 12.5077 14.5769 12.5077C14.5769 12.5077 14.7021 12.9574 15.2038 13.0748C15.2644 13.0907 15.329 13.0967 15.391 13.0967C15.5526 13.0967 15.6926 13.0595 15.6926 13.0595C15.6926 13.0595 15.43 12.5136 15.6906 11.7501C15.9067 11.1166 15.8717 10.647 15.8717 10.647C15.8717 10.647 16.1142 11.0078 16.7148 11.0112H16.7208C17.2211 11.0112 17.4393 10.6377 17.4393 10.6377C16.2401 10.1475 16.3586 8.56476 16.3586 8.56476C16.3586 8.56476 16.5141 8.67885 16.8178 8.69014ZM16.4568 10.3431C15.9694 10.1064 15.661 9.4775 15.5862 9.25065C15.5055 10.4977 14.8873 11.3634 14.1648 12.1966C13.7897 12.6284 13.6591 13.0483 13.6591 13.0483C13.6591 13.0483 13.7312 12.5727 14.0557 12.1852C14.7298 11.3873 15.37 10.3942 15.4179 9.24599C15.4509 8.44466 15.2415 7.79462 14.9149 7.25929C15.0974 7.81715 15.0718 8.50041 14.4516 9.13786C14.4516 9.13786 15.6859 7.68052 13.9601 6.18667C13.2692 5.61816 12.5137 5.26728 12.1246 5.01849C13.5305 5.47025 14.2166 4.97274 14.2166 4.97274C13.7675 5.35616 13.1864 5.34953 12.8262 5.29447C12.9238 5.34159 13.0255 5.39066 13.1352 5.44838C14.3203 6.08252 15.3856 7.12594 15.5673 8.57138V8.5601C15.8434 9.97898 16.4568 10.3431 16.4568 10.3431Z" fill="white"/>
<path d="M5.12834 11.9219C5.12834 11.9219 5.54242 11.8708 5.72156 11.7123C6.00096 11.4622 5.98148 11.173 5.98148 11.173C5.3485 11.1644 4.93442 10.9521 4.61657 10.5926C4.27656 10.2025 4.21999 9.78263 4.21999 9.78263C4.21999 9.78263 4.56 10.0864 5.2172 10.0864C5.27648 10.0864 5.33775 10.0838 5.40103 10.0778C5.71279 10.0533 5.92825 9.85826 5.92825 9.85826C5.2428 9.42578 4.76203 8.67089 5.18759 7.53389C5.52899 6.62315 6.34845 5.94254 7.17463 5.42978C7.44937 5.26065 7.6022 5.0729 7.6022 4.91105C7.6022 4.53029 7.05345 4.5177 6.82856 4.26229C6.56795 3.96514 6.73157 3.48287 6.95645 3.19301C6.95645 3.19301 6.88172 3.17773 6.76117 3.17773C6.52418 3.17773 6.11275 3.23612 5.77475 3.58171C5.32494 4.03944 5.51146 4.53761 5.51146 4.53761L5.39094 4.56083C5.31889 4.57608 5.24684 4.57873 5.17343 4.5827C5.15662 4.5827 5.14177 4.58336 5.12563 4.58336C4.47181 4.58336 4.18158 3.91208 4.18158 3.91208C4.18158 3.91208 3.48869 4.75183 4.50886 5.41053C4.68459 5.52332 4.76133 5.62747 4.74115 5.73891L4.72498 5.81189L4.65091 5.82448C3.91227 6.02214 3.53722 6.525 3.08 7.09679C2.38711 7.96509 1.40605 7.99362 1.28351 7.99362H1.27002C1.27002 7.99362 1.49424 8.69076 2.15481 8.69076C2.16556 8.69076 2.17499 8.69076 2.18644 8.69014C2.49016 8.67948 2.64637 8.56476 2.64637 8.56476C2.64637 8.56476 2.76351 10.1468 1.56563 10.6377C1.56563 10.6377 1.7838 11.0112 2.2841 11.0112H2.29015C2.89144 11.0078 3.1332 10.647 3.1332 10.647C3.1332 10.647 3.09816 11.1166 3.31362 11.7501C3.57424 12.5136 3.31299 13.0595 3.31299 13.0595C3.31299 13.0595 3.45303 13.0967 3.61397 13.0967C3.67656 13.0967 3.74057 13.0907 3.80048 13.0748C4.30144 12.9574 4.42738 12.5077 4.42738 12.5077C4.42738 12.5077 4.38156 14.0273 6.1801 14.0273H6.1929C6.1929 14.0273 6.03533 13.8151 5.98955 13.2042C5.90334 12.0765 5.12834 11.9219 5.12834 11.9219ZM4.83947 12.1966C4.11694 11.3634 3.49951 10.4977 3.418 9.25065C3.3433 9.47681 3.0362 10.1064 2.54875 10.3431C2.54875 10.3431 3.16148 9.97898 3.43685 8.5601V8.57138C3.61936 7.12663 4.68392 6.08252 5.8697 5.44838C5.9781 5.38997 6.08109 5.34091 6.17808 5.29447C5.81782 5.34953 5.23675 5.35616 4.78763 4.97274C4.78763 4.97274 5.47378 5.47025 6.87901 5.01849C6.48984 5.26728 5.73502 5.61816 5.04415 6.18667C3.31769 7.68052 4.55262 9.13786 4.55262 9.13786C3.93178 8.49972 3.90687 7.81715 4.08935 7.25929C3.76211 7.79524 3.55333 8.44466 3.58704 9.24599C3.63415 10.3942 4.27451 11.3873 4.94722 12.1852C5.27241 12.572 5.34582 13.0483 5.34582 13.0483C5.34582 13.0483 5.21382 12.6284 4.83947 12.1966Z" fill="white"/>
<path d="M8.17262 6.36617C8.20223 6.39733 8.23118 6.43117 8.2588 6.46502C8.26555 6.47299 8.2716 6.48027 8.27828 6.48955C8.30389 6.52339 8.33019 6.55921 8.35507 6.59571C8.36046 6.60299 8.36585 6.61161 8.3719 6.62024C8.40221 6.66533 8.43049 6.71177 8.45878 6.75952C8.71803 7.20069 9.13347 7.46401 9.5018 7.4647C9.87079 7.46401 10.2849 7.20069 10.5455 6.75952C10.5744 6.71046 10.6034 6.66271 10.6337 6.61824C10.6384 6.61161 10.6431 6.60564 10.6471 6.59899C10.6728 6.56121 10.6997 6.52405 10.728 6.48824C10.734 6.48027 10.7394 6.47364 10.7448 6.46702C10.7738 6.43186 10.8034 6.39733 10.8337 6.36551C10.8391 6.3602 10.8431 6.35558 10.8478 6.35158C10.9798 6.21826 11.1374 6.11676 11.3434 6.06038L11.2518 6.00798H11.2464L10.8815 5.799L10.5065 5.5874L9.50448 6.12469L9.5018 6.12273L9.49978 6.12469L8.49715 5.5874L8.12277 5.79834L7.75715 6.00732H7.75312L7.66016 6.05969C7.86688 6.1161 8.02379 6.21626 8.15644 6.34961C8.1625 6.35492 8.16653 6.36089 8.17262 6.36617ZM9.09645 6.32304H9.52066H9.94417V6.60961C9.84452 6.48955 9.6506 6.51411 9.6506 6.51411V6.92737C9.6506 6.92737 9.65801 7.13034 9.73006 7.2186H9.52066H9.31056C9.38393 7.131 9.39068 6.92737 9.39068 6.92737V6.51411C9.39068 6.51411 9.19745 6.48955 9.09645 6.60961V6.32304Z" fill="white"/>
<path d="M9.41517 5.76658V4.08902L8.33105 3.72681L8.61724 5.3527L9.41517 5.76658ZM9.18217 4.50096V4.77025L9.12967 4.74637C9.12696 4.74441 9.05018 4.72712 8.91554 4.62234C8.6933 4.45252 8.68929 4.29599 8.68929 4.29599L9.18217 4.50096Z" fill="white"/>
<path d="M10.3872 5.3527L10.672 3.72681L9.58862 4.08902V5.76658L10.3872 5.3527ZM9.82158 4.50096L10.3145 4.29665C10.3145 4.29665 10.3104 4.45318 10.0876 4.623C9.95354 4.72781 9.8761 4.74503 9.87342 4.74706L9.82089 4.77094V4.50096H9.82158Z" fill="white"/>
<path d="M7.88207 9.65598C7.98776 9.69379 8.11572 9.70179 8.18106 9.70179C8.18374 9.69379 8.18711 9.68385 8.19049 9.67192C8.19654 9.65267 8.2019 9.6341 8.20597 9.61289C8.22413 9.52001 8.23088 9.41454 8.2322 9.34688C8.18777 9.31966 8.12515 9.27125 8.09012 9.19894C8.04972 9.11537 7.99249 9.0769 7.9083 9.0769C7.79927 9.0769 7.68209 9.14125 7.63227 9.17175C7.59254 9.40325 7.76559 9.61354 7.88207 9.65598Z" fill="white"/>
<path d="M10.2801 8.76587C10.0787 8.98144 9.68483 9.35691 9.66528 9.37613L9.64173 9.40001L8.39671 9.38076C8.39601 9.5022 8.37583 9.60567 8.35628 9.68126C8.35294 9.69389 8.34957 9.70717 8.34619 9.72042L9.82755 9.98246C9.98177 9.87627 10.406 9.57114 10.5703 9.45176C10.4504 9.27929 10.439 9.075 10.4659 8.93103C10.3878 8.88128 10.3279 8.82559 10.2801 8.76587Z" fill="white"/>
<path d="M10.4484 7.29054C10.1616 7.57118 9.88617 7.67465 9.64041 7.69852C9.59598 7.70315 9.55086 7.7058 9.50507 7.7058H9.5017H9.49899C9.4532 7.7058 9.40742 7.70315 9.36299 7.69852C9.31988 7.69455 9.27479 7.6879 9.22964 7.67796C9.21349 7.74099 9.19328 7.87299 9.25124 7.99768C9.30308 8.11112 9.40877 8.19534 9.56296 8.2511L9.6148 8.271L9.6155 8.32603C9.6155 8.34263 9.62761 8.69948 10.0229 8.79833C10.0875 8.73267 10.1461 8.67364 10.1892 8.62457C10.1084 8.43751 10.1508 8.24644 10.268 8.15294C10.2626 8.17281 10.2114 8.64114 10.5925 8.81492L10.6551 8.84414L10.6363 8.90977C10.6302 8.92971 10.503 9.38275 10.9642 9.55122L11.0457 9.58175L11.0093 9.66003C11.0012 9.67728 10.8201 10.0885 11.2463 10.322H12.1708V9.599C11.8423 9.55922 11.7029 9.29915 11.6672 9.11474C11.5143 9.0889 11.3958 9.02389 11.315 8.91774C11.1211 8.66636 11.2881 8.43616 11.2901 8.42354C11.2894 8.42557 11.2901 8.67098 11.4436 8.82223C11.5197 8.89517 11.6099 8.95155 11.7466 8.96417L11.814 8.97014L11.82 9.0378C11.8214 9.05239 11.8584 9.38409 12.1715 9.43647L12.1708 7.9599C12.1708 7.73102 12.2389 7.50083 12.3203 7.28857H10.4484V7.29054Z" fill="white"/>
<path d="M7.96095 7.96702L7.93604 8.90764L8.04444 8.92357L8.30972 8.02143L8.17505 7.74414L7.96095 7.96702Z" fill="white"/>
<path d="M10.8857 12.2811C10.8938 12.2811 10.9033 12.2824 10.912 12.2844C11.077 12.3309 11.1188 12.9172 11.4083 12.9697C11.4365 12.9756 11.4628 12.9769 11.4857 12.9769C11.5692 12.9769 11.619 12.9418 11.6729 12.8794C11.6729 12.8794 11.5274 12.6539 11.4184 12.502C11.2736 12.303 11.1612 12.0622 10.8918 12.0622C10.8857 12.0622 10.8777 12.0622 10.8709 12.0629C10.7821 12.0675 10.7275 12.11 10.7275 12.11C10.6184 12.0423 10.5167 12.0191 10.4245 12.0191C10.2555 12.0191 10.1242 12.0954 10.0589 12.0954H10.0562L9.4542 12.037C9.35995 12.0284 9.28588 11.9349 9.25895 11.8983C9.2522 11.8884 9.24883 11.8824 9.24883 11.8824C9.24883 11.8665 9.24883 11.8499 9.2475 11.8353C9.22729 11.3504 8.84619 11.1428 8.71082 11.1395C8.71082 11.1395 8.727 11.0473 8.68998 11.0121L8.55732 11.1706L8.12164 10.9551L8.43204 11.3126L8.16878 11.6038C8.1358 11.637 8.13984 11.6821 8.1533 11.7007L8.2671 11.7995L8.41117 11.7132C8.41861 11.708 8.43142 11.7066 8.44753 11.7066C8.48726 11.7066 8.5472 11.7166 8.60106 11.7166C8.65965 11.7166 8.71082 11.704 8.71691 11.6496C8.69871 11.8293 8.5297 12.1418 8.64082 12.3872L8.72296 12.5723L8.19101 12.4967L7.94188 12.9112C7.86513 13.0493 7.85295 13.1985 7.92702 13.2794L8.01998 13.3942C8.01998 13.3942 8.15062 13.2575 8.18023 13.168L8.13782 13.1222C8.10212 13.0837 8.10414 13.0493 8.12571 13.0075L8.28189 12.7521L8.91014 12.898L8.94312 12.8423C8.98556 12.7726 9.04683 12.7514 9.11418 12.7514C9.14177 12.7514 9.17006 12.7547 9.19967 12.7594C9.31618 12.7819 9.50809 12.8124 9.69999 12.8124C9.91075 12.8124 10.1195 12.7753 10.2306 12.6526C10.4582 12.9849 10.9194 13.038 10.883 13.2065L10.7619 13.7756C10.842 13.7723 10.9194 13.767 10.9928 13.757L11.1079 13.1647C11.1207 13.1003 11.1329 13.0134 11.1329 13.0134C11.0885 12.969 10.9807 12.8748 10.9201 12.7607C10.8386 12.6068 10.883 12.5265 10.807 12.3262C10.8097 12.3275 10.8326 12.2811 10.8857 12.2811ZM8.53576 11.4492C8.50479 11.4486 8.48256 11.4227 8.48392 11.3922C8.48663 11.363 8.51154 11.3398 8.54184 11.3425C8.57281 11.3438 8.595 11.3703 8.59368 11.3995C8.59097 11.4287 8.5654 11.4513 8.53576 11.4492Z" fill="white"/>
<path d="M7.67831 12.8193C7.67831 12.8193 7.88639 12.735 7.90525 12.6746L7.87766 12.6063C7.85811 12.5619 7.86082 12.5135 7.89853 12.4869L8.12342 12.3337L8.49916 12.4047C8.49916 12.4047 8.43114 12.3211 8.43789 12.209L8.07965 12.134L7.74163 12.337C7.59686 12.4438 7.58608 12.6183 7.63388 12.7217L7.67831 12.8193Z" fill="white"/>
<path d="M10.3337 13.7839C10.4011 13.7813 10.4751 13.78 10.5566 13.78C10.5566 13.78 10.7499 13.2234 10.7607 13.2055C10.6522 13.1584 10.4274 13.041 10.3405 12.9873C10.3978 13.0715 10.5371 13.1684 10.5095 13.2427L10.3337 13.7839Z" fill="white"/>
<path d="M12.1732 10.4832H6.83154V12.4626C6.83154 13.2718 7.42612 13.7786 8.3035 13.7786C9.03679 13.7786 9.23001 13.8065 9.50274 14.0732C9.69057 13.8888 9.84616 13.8198 10.1653 13.7939L10.1727 13.7634L10.3411 13.2506C10.3316 13.2393 10.0563 12.9309 10.0563 12.9309C9.94715 12.9667 9.85559 12.9727 9.70139 12.9727C9.54313 12.9727 9.36469 12.9548 9.17146 12.919C9.15191 12.9143 9.13375 12.913 9.11555 12.913C9.092 12.913 9.08995 12.915 9.08389 12.9263L9.05022 12.9806L8.98895 13.0802L8.87383 13.0543L8.36139 12.9356L8.29139 13.0496L8.30215 13.0616L8.36477 13.1292L8.33718 13.2175C8.29947 13.3329 8.1769 13.4675 8.13988 13.5047L8.01196 13.64L7.89544 13.4947L7.80791 13.3866C7.71568 13.2851 7.69411 13.1292 7.74598 12.9661C7.74459 12.9674 7.74261 12.9681 7.74059 12.9681L7.59582 13.0271L7.53049 12.8878L7.4847 12.7889C7.4059 12.6152 7.43488 12.3611 7.64697 12.2078L8.05976 11.9783L8.45234 12.0546C8.46176 12.0175 8.47589 11.8848 8.4873 11.851C8.47993 11.8503 8.47252 11.8483 8.46511 11.8483L8.23886 11.9312L8.02069 11.7827C8.02069 11.7827 7.93521 11.7017 8.01258 11.6208L8.22404 11.3057L7.68875 10.6437L8.51155 10.9767L8.5661 10.9097L8.67722 10.779L8.80313 10.8971C8.83883 10.9309 8.85901 10.9727 8.8691 11.0145C9.096 11.1014 9.50208 11.3581 9.53774 11.7754L9.41047 11.8258V11.8291C9.43945 11.8629 9.46367 11.8769 9.47111 11.8782L10.0582 11.9352C10.0731 11.9326 10.0919 11.9259 10.1128 11.92C10.1855 11.8954 10.2953 11.8602 10.4252 11.8602C10.5309 11.8602 10.6333 11.8842 10.7316 11.9292C10.7679 11.916 10.8124 11.906 10.8636 11.9027L10.8919 11.9021C11.2063 11.9021 11.3625 12.1336 11.4878 12.318C11.5087 12.3498 11.5295 12.3803 11.5511 12.4102C11.6608 12.5627 11.8042 12.7863 11.8103 12.7956L11.8749 12.8951L11.7955 12.986C11.7342 13.0556 11.6426 13.1372 11.4851 13.1372C11.4528 13.1372 11.4171 13.1339 11.3787 13.1266C11.345 13.1206 11.3147 13.1107 11.2851 13.0987C11.2804 13.1292 11.2743 13.1657 11.2683 13.1969L11.1652 13.7262C11.7814 13.577 12.1726 13.1186 12.1726 12.4632L12.1732 10.4832Z" fill="#FFDD2D"/>
<path d="M6.83198 10.3241H10.9859C10.7785 10.1132 10.7812 9.84583 10.8344 9.67202C10.7738 9.64348 10.7239 9.60901 10.6795 9.57186C10.5172 9.68992 10.0216 10.0455 9.89234 10.1344L9.86475 10.1529L8.23456 9.86239H8.20155C8.16251 9.86239 8.10528 9.86108 8.04266 9.85377C8.02516 9.92608 7.96184 9.97584 7.88913 9.97584C7.88106 9.97584 7.87163 9.97518 7.86286 9.97318C7.82045 9.96586 7.7834 9.94465 7.75849 9.90949C7.73292 9.87502 7.72283 9.8339 7.73024 9.79142L7.73629 9.75692C7.56794 9.64017 7.41309 9.37948 7.48176 9.10485L7.48848 9.07566L7.51203 9.0591C7.51541 9.05644 7.54369 9.03788 7.58547 9.01397L7.46694 8.99606C7.42251 8.98813 7.39287 8.94762 7.39962 8.90453C7.40703 8.86075 7.44878 8.82956 7.49255 8.83818L7.77467 8.882L7.80027 7.90288L8.22041 7.46506L8.48234 8.00835L8.20562 8.95031L8.45475 8.98878C8.49852 8.99541 8.52882 9.03588 8.52207 9.08031C8.51536 9.11947 8.48168 9.14663 8.44195 9.14663C8.43792 9.14663 8.43319 9.14663 8.42918 9.146L8.22646 9.1135C8.22917 9.11947 8.23321 9.12275 8.23589 9.12941C8.25746 9.17316 8.30526 9.20504 8.33358 9.21829L9.57655 9.23754C9.62908 9.18713 9.75969 9.06106 9.8937 8.92775C9.58799 8.81365 9.4769 8.55362 9.45801 8.38114C9.28702 8.30952 9.16918 8.20204 9.10385 8.06207C9.02438 7.88894 9.0527 7.71581 9.07354 7.63156C8.9079 7.57187 8.73353 7.46309 8.55575 7.28931H6.68384C6.76396 7.50156 6.83198 7.73172 6.83198 7.9606V10.3241Z" fill="#FFDD2D"/>
<path d="M8.5424 11.3423C8.51209 11.3396 8.48649 11.3628 8.4845 11.392C8.48245 11.4225 8.50534 11.4483 8.53634 11.449C8.56595 11.4517 8.59222 11.4291 8.59489 11.3993C8.59489 11.3701 8.57336 11.3429 8.5424 11.3423Z" fill="black"/>
<path d="M12.166 14.9314L11.8582 14.8154L11.9431 14.5023L12.0367 14.1606C12.0367 14.1606 11.4913 14.4519 10.723 14.6707C10.5048 14.7325 10.3398 14.7603 10.3398 14.7603V14.9925C10.3398 14.9925 9.92907 15.0628 9.51363 15.0628H9.50893H9.50288H9.49478H9.49008C9.07461 15.0628 8.66387 14.9925 8.66387 14.9925V14.7603C8.66387 14.7603 8.49823 14.7325 8.28075 14.6707C7.51244 14.4519 6.96768 14.1606 6.96768 14.1606L7.05995 14.5023L7.14682 14.8154L6.8384 14.9314L6.49634 15.0575C6.88892 15.2439 7.43231 15.5159 7.92992 15.6498L7.81278 15.9656C7.81278 15.9656 8.44368 16.2488 9.49478 16.2515V16.2522H9.49815H9.50288H9.50692H9.50963V16.2515C10.562 16.2488 11.1923 15.9656 11.1923 15.9656L11.0744 15.6498C11.5721 15.5159 12.1168 15.2439 12.5074 15.0575L12.166 14.9314ZM6.86133 15.0787L7.36767 14.9129L7.21821 14.432C7.44108 14.5567 7.94137 14.7438 8.2309 14.8306L7.98646 15.492C7.5394 15.3706 7.16703 15.2293 6.86133 15.0787ZM9.50288 16.0857C8.91506 16.0857 8.2437 15.9523 8.0464 15.8834L8.34672 15.0827C8.59585 15.1543 9.11434 15.2306 9.49074 15.228H9.49143H9.50288H9.51297H9.51433C9.89073 15.2306 10.4079 15.1543 10.6583 15.0827L10.958 15.8834C10.7607 15.953 10.09 16.0857 9.50288 16.0857ZM11.0179 15.492L10.7742 14.8306C11.0644 14.7438 11.5633 14.5567 11.7869 14.432L11.6381 14.9129L12.1437 15.0787C11.8374 15.2293 11.467 15.3706 11.0179 15.492Z" fill="black"/>
<path d="M9.50158 2.43443C10.1278 2.43443 10.6288 2.63875 10.9055 2.85699C10.9055 2.85699 10.9877 2.36943 11.2685 1.93893L10.7641 1.9953L10.5002 1.44274L9.99313 1.70012L9.50158 1.22119L9.01137 1.70012L8.50367 1.44274L8.24041 1.9953L7.73608 1.93893C8.01685 2.36943 8.09902 2.85699 8.09902 2.85699C8.37644 2.63875 8.87604 2.43443 9.50158 2.43443ZM8.21752 2.18902L8.35759 2.20361L8.41816 2.07821L8.59461 1.70674L8.92182 1.87324L9.04843 1.93695L9.14946 1.83876L9.50227 1.49382L9.85578 1.83876L9.95678 1.93695L10.0833 1.87324L10.4086 1.70674L10.587 2.07821L10.6463 2.20361L10.7864 2.18902L10.9196 2.17309C10.8584 2.30907 10.8133 2.43774 10.781 2.54456C10.4281 2.35084 9.96888 2.24075 9.50091 2.24075C9.03496 2.24075 8.57642 2.35084 8.22225 2.54456C8.18923 2.43774 8.14481 2.30842 8.08354 2.17309L8.21752 2.18902Z" fill="black"/>
<path d="M16.8493 8.90404C17.6594 8.90404 17.9301 8.09212 17.9415 8.05762L18.0318 7.77174L17.728 7.78102H17.7267C17.6196 7.78102 16.7261 7.7578 16.0925 6.96444L16.0326 6.89081C15.6184 6.37208 15.2259 5.87923 14.5243 5.65435C14.5445 5.63644 14.5734 5.61388 14.6132 5.58866C14.9855 5.34721 15.2023 5.05402 15.2569 4.71373C15.3363 4.20159 15.005 3.79364 14.9902 3.77707L14.7646 3.50246L14.6239 3.82816C14.6145 3.84872 14.3775 4.37013 13.8792 4.37013H13.8422C13.8078 4.3681 13.7755 4.36679 13.7432 4.36416C13.7607 4.13131 13.7176 3.7711 13.3863 3.43346C12.9884 3.02683 12.4995 2.96582 12.2436 2.96582C12.1069 2.96582 12.016 2.98239 12.0066 2.98372L11.6659 3.05006L11.876 3.32269C12.041 3.53298 12.1904 3.92103 12.0134 4.12403C11.9568 4.18834 11.8403 4.24075 11.7285 4.29316C11.4989 4.39729 11.1858 4.54191 11.1858 4.9107C11.1858 5.14952 11.3737 5.39897 11.7144 5.61122C12.7231 6.23611 13.3452 6.88815 13.6139 7.60789C14.0294 8.71501 13.4873 9.34649 12.9607 9.67884L12.7244 9.82872L12.9311 10.0158C12.9587 10.0397 13.2119 10.2593 13.5856 10.2911C13.6563 10.2957 13.7243 10.2997 13.7876 10.2997C14.0273 10.2997 14.2314 10.2626 14.397 10.2128C14.3512 10.2918 14.2953 10.372 14.2246 10.453C13.9236 10.7966 13.5533 10.9531 13.0207 10.9611L12.8227 10.9644L12.8072 11.1601C12.8052 11.1992 12.7904 11.5621 13.1392 11.8705C13.1924 11.9183 13.257 11.9574 13.3244 11.9899C13.088 12.1995 12.8476 12.5644 12.8012 13.1899C12.7621 13.7119 12.6356 13.905 12.6342 13.907L12.4153 14.236L12.8106 14.2413C13.4637 14.2413 13.964 14.0635 14.3108 13.7119C14.5155 13.5037 14.6327 13.2689 14.702 13.0605C14.8158 13.1561 14.9626 13.2397 15.1538 13.2841C15.2266 13.3007 15.306 13.31 15.3915 13.31C15.576 13.31 15.7302 13.2715 15.7477 13.2675L16.0002 13.2012L15.8885 12.969C15.8804 12.9504 15.6697 12.4848 15.8966 11.8201C15.9942 11.5329 16.044 11.2755 16.0683 11.0752C16.2272 11.1568 16.44 11.2244 16.7153 11.2251C17.3402 11.2251 17.6156 10.7654 17.6284 10.7461L17.7516 10.5352L17.5234 10.4424C16.7786 10.1379 16.6137 9.31996 16.5807 8.87686C16.648 8.88945 16.7248 8.90139 16.8116 8.90404H16.8493ZM17.4399 10.6381C17.4399 10.6381 17.2217 11.0115 16.7214 11.0115H16.7153C16.1147 11.0082 15.8723 10.6473 15.8723 10.6473C15.8723 10.6473 15.9073 11.117 15.6905 11.7505C15.4299 12.5139 15.6925 13.0599 15.6925 13.0599C15.6925 13.0599 15.5525 13.097 15.3908 13.097C15.3289 13.097 15.2643 13.0911 15.2037 13.0751C14.702 12.9578 14.5768 12.508 14.5768 12.508C14.5768 12.508 14.6233 14.0277 12.8247 14.0277H12.8106C12.8106 14.0277 12.9688 13.8154 13.016 13.2045C13.1015 12.0768 13.8765 11.9223 13.8765 11.9223C13.8765 11.9223 13.4631 11.8712 13.2839 11.7126C13.0038 11.4626 13.0234 11.1733 13.0234 11.1733C13.6563 11.1647 14.0704 10.9525 14.3862 10.5922C14.7283 10.2022 14.7849 9.78231 14.7849 9.78231C14.7849 9.78231 14.4448 10.0861 13.7869 10.0861C13.729 10.0861 13.6671 10.0835 13.6038 10.0775C13.2927 10.053 13.0773 9.85794 13.0773 9.85794C13.762 9.42543 14.2428 8.67057 13.8166 7.53357C13.4752 6.6228 12.655 5.94223 11.8295 5.42943C11.5548 5.26034 11.4019 5.07258 11.4019 4.9107C11.4019 4.52998 11.9514 4.51804 12.1769 4.26197C12.4369 3.96482 12.2739 3.48254 12.0484 3.19268C12.0484 3.19268 12.1244 3.17741 12.2443 3.17741C12.482 3.17741 12.8934 3.23644 13.2314 3.58138C13.6806 4.03909 13.494 4.53726 13.494 4.53726L13.6146 4.56048C13.6866 4.57573 13.758 4.57838 13.8321 4.5817C13.8483 4.5817 13.8644 4.58238 13.8805 4.58238C14.533 4.58238 14.8246 3.91042 14.8246 3.91042C14.8246 3.91042 15.5181 4.75086 14.4973 5.40887C14.3216 5.52165 14.2442 5.62581 14.2644 5.73725L14.2805 5.81022L14.3532 5.82282C15.0932 6.02048 15.4677 6.52333 15.9248 7.09513C16.6191 7.96477 17.6015 7.99262 17.7227 7.99262H17.7355C17.7355 7.99262 17.5113 8.68979 16.8507 8.68979C16.8399 8.68979 16.8305 8.68979 16.819 8.68913C16.5153 8.67851 16.3598 8.56375 16.3598 8.56375C16.3598 8.56375 16.2406 10.1471 17.4399 10.6381Z" fill="black"/>
<path d="M15.4258 5.74182C15.7281 5.90038 15.9039 6.11264 16.0581 6.30102C16.2096 6.48477 16.3537 6.66187 16.5786 6.73549C16.6587 6.76272 16.7436 6.77531 16.8298 6.77531C17.1678 6.77531 17.5071 6.57165 17.6358 6.28974L17.7651 6.00717L17.4519 5.98857C17.4371 5.98792 17.0345 5.9521 16.586 5.50037C16.4015 5.31531 16.1786 5.21777 15.9382 5.21777C15.6446 5.21777 15.4272 5.3624 15.403 5.37696L15.1147 5.57666L15.4258 5.74182ZM15.9389 5.43137C16.0898 5.43137 16.2655 5.48181 16.4318 5.65094C16.9536 6.17302 17.4391 6.20217 17.4391 6.20217C17.3509 6.39455 17.0951 6.56371 16.8304 6.56371C16.7691 6.56371 16.7079 6.5544 16.6466 6.53383C16.2877 6.41442 16.1591 5.88376 15.5282 5.55344C15.5282 5.55344 15.7046 5.43137 15.9389 5.43137Z" fill="black"/>
<path d="M15.5673 8.56019V8.57078C15.3856 7.12603 14.3203 6.0826 13.1352 5.44777C13.0254 5.39005 12.9244 5.34099 12.8261 5.29389C13.1871 5.34893 13.7681 5.35558 14.2166 4.97217C14.2166 4.97217 13.5304 5.46968 12.1245 5.01795C12.5137 5.26667 13.2699 5.61762 13.9601 6.18607C15.6858 7.67995 14.4509 9.13729 14.4509 9.13729C15.0711 8.49981 15.0966 7.81658 14.9142 7.25872C15.2408 7.79401 15.4495 8.44409 15.4171 9.24542C15.3694 10.3937 14.729 11.3867 14.055 12.1847C13.7311 12.5721 13.6584 13.0477 13.6584 13.0477C13.6584 13.0477 13.789 12.6278 14.1641 12.196C14.8866 11.3628 15.504 10.4971 15.5848 9.25005C15.6596 9.47627 15.9673 10.1058 16.4555 10.3426C16.4568 10.3433 15.8434 9.97906 15.5673 8.56019Z" fill="black"/>
<path d="M6.37029 13.9062C6.3696 13.9042 6.24438 13.7112 6.20399 13.1892C6.15682 12.5636 5.91711 12.1988 5.68011 11.9892C5.74879 11.9573 5.81207 11.9182 5.86527 11.8698C6.21342 11.5613 6.1986 11.1985 6.19658 11.1594L6.18312 10.9637L5.9838 10.9604C5.45251 10.9517 5.0815 10.7952 4.7805 10.4522C4.7105 10.3713 4.65393 10.291 4.60811 10.2121C4.77378 10.2618 4.97647 10.299 5.21684 10.299C5.28148 10.299 5.34814 10.295 5.41884 10.2904C5.79256 10.2585 6.04576 10.0396 6.07401 10.0151L6.28074 9.82798L6.04441 9.67811C5.51583 9.3451 4.97578 8.71358 5.39055 7.60712C5.65924 6.88742 6.28074 6.23537 7.29075 5.61048C7.63146 5.39823 7.818 5.14879 7.818 4.90997C7.818 4.54118 7.50555 4.39593 7.27596 4.29242C7.16418 4.24002 7.0477 4.18761 6.9911 4.1233C6.81335 3.92094 6.96351 3.53225 7.12782 3.32196L7.33925 3.04933L6.99718 2.98299C6.98709 2.98166 6.89754 2.96509 6.76016 2.96509C6.5043 2.96509 6.01678 3.0261 5.61815 3.43273C5.28621 3.77105 5.24241 4.13123 5.25928 4.36343C5.22693 4.36605 5.19464 4.36736 5.16097 4.3694H5.12461C4.62498 4.3694 4.38865 3.84799 4.37922 3.82743L4.23849 3.50172L4.01086 3.77634C3.99809 3.79291 3.66545 4.20155 3.74624 4.713C3.80013 5.05328 4.01694 5.34648 4.38931 5.58792C4.4297 5.61311 4.45798 5.6357 4.4782 5.65361C3.7772 5.87849 3.38535 6.372 2.9712 6.89073L2.91129 6.96436C2.27835 7.75772 1.38281 7.78094 1.27575 7.78094L0.970703 7.77166L1.06363 8.05754C1.07439 8.09204 1.34441 8.90396 2.15512 8.90396L2.19419 8.90262C2.2797 8.9 2.35645 8.88871 2.42516 8.87546C2.39149 9.31788 2.22651 10.1358 1.48109 10.4409L1.25352 10.5338L1.37675 10.7447C1.38886 10.764 1.66495 11.2237 2.29115 11.2237C2.5645 11.223 2.77728 11.1554 2.93687 11.0738C2.96112 11.2741 3.01094 11.5315 3.10859 11.8187C3.3355 12.4834 3.12411 12.949 3.116 12.9676L3.00425 13.1998L3.25739 13.2661C3.27423 13.2701 3.42978 13.3086 3.61361 13.3086C3.69979 13.3086 3.77925 13.2993 3.85064 13.2827C4.04251 13.2382 4.19065 13.1547 4.30313 13.0592C4.37177 13.2674 4.48964 13.5023 4.69366 13.7106C5.04111 14.0621 5.54074 14.2399 6.19387 14.2399L6.58982 14.2346L6.37029 13.9062ZM6.17905 14.0276C4.38054 14.0276 4.42636 12.5079 4.42636 12.5079C4.42636 12.5079 4.30108 12.9576 3.79943 13.0751C3.73952 13.091 3.67554 13.0969 3.61295 13.0969C3.45132 13.0969 3.31194 13.0598 3.31194 13.0598C3.31194 13.0598 3.57322 12.5139 3.31261 11.7504C3.09715 11.1169 3.13215 10.6472 3.13215 10.6472C3.13215 10.6472 2.89042 11.0081 2.28913 11.0114H2.28308C1.78275 11.0114 1.56458 10.6379 1.56458 10.6379C2.76316 10.1477 2.64532 8.56499 2.64532 8.56499C2.64532 8.56499 2.4898 8.67912 2.18542 8.69036C2.17467 8.69105 2.16455 8.69105 2.1538 8.69105C1.49256 8.69105 1.26901 7.99388 1.26901 7.99388H1.28246C1.40434 7.99388 2.38543 7.96601 3.07965 7.09636C3.53683 6.52457 3.91191 6.0224 4.65058 5.82408L4.72465 5.81149L4.74077 5.73852C4.76101 5.62708 4.68423 5.52292 4.5085 5.41017C3.48767 4.75147 4.18123 3.91166 4.18123 3.91166C4.18123 3.91166 4.47145 4.58296 5.1253 4.58296C5.14141 4.58296 5.15624 4.5823 5.17307 4.5823C5.24648 4.5783 5.31923 4.57568 5.39055 4.5604L5.5111 4.53718C5.5111 4.53718 5.32459 4.03901 5.7744 3.58133C6.11242 3.23571 6.52382 3.17735 6.76082 3.17735C6.88137 3.17735 6.95613 3.1926 6.95613 3.1926C6.73121 3.48314 6.56828 3.96473 6.82817 4.26192C7.05306 4.5173 7.60185 4.5299 7.60185 4.91066C7.60185 5.07185 7.44901 5.26023 7.17427 5.42939C6.34806 5.94218 5.52794 6.62276 5.1872 7.5335C4.76167 8.67049 5.24178 9.4247 5.92793 9.85786C5.92793 9.85786 5.71243 10.0529 5.40067 10.0774C5.33739 10.0834 5.27612 10.086 5.21684 10.086C4.55964 10.086 4.21963 9.78223 4.21963 9.78223C4.21963 9.78223 4.27617 10.2021 4.61621 10.5922C4.93406 10.9524 5.34814 11.1646 5.98112 11.1733C5.98112 11.1733 6.0013 11.4625 5.7212 11.7126C5.5414 11.8704 5.12798 11.9222 5.12798 11.9222C5.12798 11.9222 5.90368 12.0767 5.9885 13.2044C6.03498 13.8154 6.19185 14.0276 6.19185 14.0276H6.17905Z" fill="black"/>
<path d="M2.17367 6.77587C2.2605 6.77587 2.34536 6.76328 2.42551 6.73606C2.65173 6.66243 2.79517 6.4853 2.94668 6.30158C3.10153 6.1132 3.27594 5.90092 3.57827 5.74238L3.88934 5.57785L3.6005 5.37822C3.57625 5.36297 3.35944 5.21899 3.06653 5.21899C2.82547 5.21899 2.60194 5.31587 2.41807 5.5016C1.96965 5.95267 1.56768 5.98917 1.55283 5.98983L1.23975 6.0077L1.36834 6.29096C1.49761 6.57156 1.8363 6.77587 2.17367 6.77587ZM2.5723 5.6515C2.73929 5.48238 2.91502 5.43194 3.06653 5.43194C3.29949 5.43194 3.47595 5.55397 3.47595 5.55397C2.84565 5.88501 2.71637 6.41499 2.35614 6.53443C2.29689 6.55496 2.23493 6.56428 2.17367 6.56428C1.90905 6.56428 1.65316 6.39577 1.56563 6.20274C1.56563 6.20208 2.05044 6.17289 2.5723 5.6515Z" fill="black"/>
<path d="M3.58684 9.24615C3.55313 8.44482 3.76191 7.79474 4.08912 7.25945C3.90667 7.81731 3.93158 8.50054 4.55242 9.13802C4.55242 9.13802 3.31749 7.68068 5.04395 6.1868C5.73482 5.61835 6.4903 5.26741 6.87881 5.01868C5.47358 5.47041 4.78743 4.9729 4.78743 4.9729C5.23585 5.35632 5.81696 5.34966 6.17788 5.29394C6.08026 5.34103 5.9779 5.39016 5.86946 5.44785C4.68303 6.08268 3.61847 7.12614 3.43602 8.57085V8.55957C3.16059 9.97848 2.54785 10.3426 2.54785 10.3426C3.03537 10.1058 3.3424 9.477 3.41717 9.25012C3.49861 10.4972 4.11608 11.3629 4.83858 12.196C5.21362 12.6279 5.34562 13.0477 5.34562 13.0477C5.34562 13.0477 5.27221 12.5722 4.94698 12.1847C4.27431 11.3881 3.63395 10.3944 3.58684 9.24615Z" fill="black"/>
<path d="M9.09644 6.323V6.60957C9.1968 6.48947 9.39073 6.51403 9.39073 6.51403V6.92729C9.39073 6.92729 9.38398 7.13027 9.3106 7.21852H9.52064H9.73008C9.65803 7.13092 9.65062 6.92729 9.65062 6.92729V6.51403C9.65062 6.51403 9.84454 6.48947 9.94421 6.60957V6.323H9.52064H9.09644Z" fill="black"/>
<path d="M8.91597 4.62326C9.04995 4.72807 9.1274 4.74532 9.13008 4.74729L9.18261 4.77117V4.50119L8.6897 4.29688C8.6897 4.29756 8.69443 4.45344 8.91597 4.62326Z" fill="black"/>
<path d="M10.088 4.62326C10.3109 4.45344 10.3149 4.29688 10.3149 4.29688L9.82202 4.50119V4.77117L9.87389 4.74729C9.87727 4.74532 9.95402 4.72807 10.088 4.62326Z" fill="black"/>
<path d="M10.9757 3.524C10.9757 3.11474 10.276 2.74658 9.5037 2.74658H9.50304H9.50102H9.49897C8.72665 2.74658 8.02708 3.11474 8.02708 3.524L8.04256 3.62485L8.35091 5.36877L8.0412 5.54587L7.2399 6.00691H7.24258C7.24258 6.00691 7.06216 6.09779 6.97866 6.15416C6.67362 6.36314 6.60898 6.66758 6.78609 6.79365C6.82986 6.54551 7.02914 6.28551 7.4022 6.28551C7.67086 6.28551 7.87557 6.42217 8.0412 6.62714C8.08361 6.67886 8.12401 6.73392 8.16172 6.79365C8.2082 6.86858 8.25465 6.93424 8.30113 6.99793H6.2373C6.38882 7.2984 6.53289 7.61682 6.53289 7.96245V12.4625C6.53289 13.5517 7.38335 14.0718 8.30314 14.0718C9.0142 14.0718 9.1098 14.04 9.50235 14.4247C9.89287 14.0393 9.98851 14.0718 10.7002 14.0718C11.6207 14.0718 12.4698 13.5517 12.4698 12.4625V7.96245C12.4698 7.61682 12.6139 7.2984 12.7661 6.99793H10.7016C10.7474 6.93493 10.7938 6.86858 10.8403 6.79365C10.8787 6.73392 10.9184 6.67886 10.9602 6.62714C11.1272 6.42148 11.3312 6.28551 11.5998 6.28551C11.9729 6.28551 12.1715 6.54486 12.216 6.79365C12.393 6.66758 12.3291 6.36314 12.022 6.15416C11.9399 6.09779 11.7594 6.00691 11.7594 6.00691H11.7621L10.9608 5.54587L10.6525 5.36877L10.9608 3.62485L10.9757 3.524ZM8.33073 3.72699L9.41485 4.08918V5.76678L8.61692 5.35221L8.33073 3.72699ZM8.55496 7.29047C8.73271 7.46491 8.90714 7.57307 9.07278 7.63276C9.05121 7.71698 9.02293 7.89079 9.10305 8.06392C9.16839 8.20321 9.28689 8.31068 9.45726 8.38234C9.47611 8.55481 9.58654 8.81416 9.89287 8.92894C9.75889 9.06226 9.62825 9.1876 9.57509 9.2387L8.33275 9.21948C8.3045 9.20551 8.25666 9.17435 8.23513 9.12992C8.23242 9.12395 8.22838 9.12063 8.22636 9.11398L8.42905 9.14648C8.43378 9.14717 8.43778 9.14717 8.44185 9.14717C8.48089 9.14717 8.51523 9.12063 8.52198 9.08085C8.52873 9.03638 8.49842 8.99591 8.45466 8.98929L8.20552 8.95082L8.48225 8.00955L8.22031 7.46625L7.80014 7.90404L7.77457 8.88316L7.49242 8.83938C7.44862 8.83075 7.4069 8.8626 7.39952 8.90572C7.39277 8.94882 7.42238 8.98929 7.46684 8.99726L7.58534 9.01516C7.54293 9.03904 7.51531 9.0576 7.51193 9.06026L7.48772 9.07685L7.48097 9.10604C7.41229 9.38064 7.56784 9.64137 7.7355 9.75809L7.72941 9.79262C7.72273 9.83502 7.73212 9.87615 7.7577 9.91068C7.78194 9.94584 7.81966 9.96706 7.86141 9.97434C7.87017 9.97568 7.8796 9.97634 7.88767 9.97634C7.96039 9.97634 8.0237 9.92659 8.04187 9.85431C8.10449 9.86156 8.16172 9.8629 8.20076 9.8629H8.23377L9.86396 10.1528L9.89155 10.1349C10.0215 10.0453 10.5164 9.68977 10.6787 9.57236C10.7232 9.61018 10.773 9.64465 10.8336 9.67321C10.781 9.84699 10.7777 10.1143 10.9857 10.3253H6.83118V7.96308C6.83118 7.73423 6.76317 7.50407 6.68304 7.29181H8.55496V7.29047ZM10.5696 9.45161C10.4046 9.57102 9.98044 9.87615 9.82691 9.98231L8.34555 9.7203C8.34893 9.70702 8.35227 9.69443 8.35564 9.68115C8.37519 9.60555 8.39471 9.50205 8.39607 9.38064L9.64106 9.40058L9.66464 9.37667C9.6835 9.35811 10.0781 8.98266 10.2794 8.76637C10.3272 8.82544 10.3871 8.88185 10.4653 8.93157C10.4383 9.07488 10.4498 9.27917 10.5696 9.45161ZM8.08967 9.19892C8.1247 9.2712 8.18799 9.31964 8.23175 9.34683C8.23043 9.41448 8.22368 9.51996 8.20552 9.61283C8.20145 9.6334 8.19606 9.65265 8.19 9.67186C8.18663 9.6838 8.18329 9.69377 8.18058 9.70171C8.11527 9.70171 7.98665 9.69377 7.88162 9.65596C7.76514 9.61349 7.5914 9.4032 7.63179 9.1717C7.6823 9.1412 7.79878 9.07685 7.90785 9.07685C7.99205 9.0762 8.04928 9.11532 8.08967 9.19892ZM7.93548 8.90769L7.96039 7.96773L8.17452 7.7442L8.3092 8.02149L8.04388 8.9236L7.93548 8.90769ZM10.5562 13.7806C10.4753 13.7806 10.4006 13.782 10.3333 13.7846L10.5097 13.244C10.5373 13.169 10.3979 13.0728 10.3407 12.9886C10.4275 13.0423 10.6525 13.1597 10.7609 13.2068C10.7494 13.2241 10.5562 13.7806 10.5562 13.7806ZM11.1096 13.1664L10.9945 13.7581C10.9211 13.768 10.843 13.7733 10.7629 13.7766L10.8841 13.2075C10.9204 13.0383 10.4592 12.9859 10.2316 12.6536C10.1205 12.777 9.9111 12.8134 9.701 12.8134C9.50909 12.8134 9.31722 12.7829 9.20068 12.7604C9.17107 12.7557 9.14278 12.7524 9.11519 12.7524C9.04784 12.7524 8.98657 12.773 8.94416 12.8433L8.91049 12.899L8.28227 12.7531L8.12603 13.0078C8.10383 13.0489 8.10247 13.0841 8.13817 13.1226L8.18058 13.1683C8.15163 13.2585 8.02102 13.3945 8.02102 13.3945L7.9274 13.2798C7.85333 13.1982 7.86544 13.0496 7.94289 12.9116L8.19202 12.4971L8.72397 12.5726L8.64114 12.3869C8.53005 12.1415 8.69906 11.829 8.71722 11.6493C8.71117 11.7037 8.66069 11.7156 8.60141 11.7156C8.54758 11.7156 8.48764 11.7057 8.44791 11.7057C8.43243 11.7057 8.41893 11.707 8.41155 11.7123L8.26745 11.7985L8.15361 11.6997C8.14018 11.6805 8.13545 11.636 8.16913 11.6028L8.43243 11.3123L8.12133 10.9548L8.55698 11.1704L8.68963 11.0118C8.72599 11.047 8.71051 11.1392 8.71051 11.1392C8.84651 11.1425 9.22764 11.3501 9.24785 11.8344C9.24921 11.8489 9.24921 11.8655 9.24921 11.8814C9.24921 11.8814 9.25258 11.8874 9.25926 11.8974C9.28622 11.9339 9.36029 12.0274 9.45454 12.036L10.0565 12.0944H10.0592C10.1252 12.0944 10.2565 12.0181 10.4249 12.0181C10.5164 12.0181 10.6188 12.0413 10.7278 12.109C10.7278 12.109 10.7824 12.0665 10.8713 12.0619C10.878 12.0612 10.8854 12.0612 10.8922 12.0612C11.1622 12.0612 11.274 12.3014 11.4187 12.501C11.5278 12.6529 11.6732 12.8785 11.6732 12.8785C11.6194 12.9415 11.5695 12.976 11.486 12.976C11.4632 12.976 11.4369 12.974 11.4086 12.9687C11.1191 12.9162 11.0773 12.3299 10.9123 12.2835C10.9036 12.2808 10.8942 12.2801 10.8861 12.2801C10.8329 12.2801 10.8093 12.3265 10.8093 12.3265C10.8847 12.5262 10.841 12.6072 10.9218 12.7611C10.9824 12.8751 11.0901 12.9693 11.1346 13.0138C11.1346 13.0151 11.1224 13.1013 11.1096 13.1664ZM7.87689 12.6065L7.90448 12.6748C7.88632 12.7345 7.67757 12.8194 7.67757 12.8194L7.63248 12.7226C7.58465 12.6191 7.59477 12.4446 7.74023 12.3378L8.07822 12.1349L8.43646 12.2098C8.42971 12.3219 8.49773 12.4055 8.49773 12.4055L8.12199 12.3345L7.8971 12.4877C7.85939 12.5136 7.85671 12.5621 7.87689 12.6065ZM11.1662 13.7256L11.2692 13.1962C11.2746 13.165 11.2813 13.1285 11.2861 13.098C11.315 13.11 11.346 13.1199 11.3797 13.1259C11.418 13.1332 11.4537 13.1365 11.486 13.1365C11.6436 13.1365 11.7352 13.0549 11.7964 12.9853L11.8759 12.8944L11.8113 12.7949C11.8052 12.7849 11.6625 12.5621 11.552 12.4095C11.5305 12.3796 11.5096 12.3498 11.4887 12.3173C11.3635 12.1329 11.2066 11.9014 10.8922 11.9014L10.8639 11.902C10.812 11.9053 10.7676 11.9153 10.7319 11.9285C10.6329 11.8828 10.5312 11.8596 10.4255 11.8596C10.2956 11.8596 10.1858 11.8947 10.1131 11.9193C10.0922 11.9253 10.0734 11.9319 10.0585 11.9345L9.47072 11.8775C9.46331 11.8761 9.43906 11.8622 9.41011 11.8277V11.8251L9.53738 11.7747C9.50172 11.3574 9.09498 11.1007 8.86804 11.0138C8.85799 10.972 8.83777 10.9302 8.80208 10.8964L8.67547 10.7783L8.56439 10.9097L8.50987 10.9766L7.687 10.6437L8.22232 11.3057L8.0109 11.6208C7.93346 11.7017 8.01897 11.7826 8.01897 11.7826L8.23711 11.9305L8.46339 11.8476C8.47146 11.8476 8.47821 11.8496 8.48562 11.8503C8.47484 11.8841 8.46071 12.0168 8.45128 12.0539L8.0587 11.9776L7.64591 12.2072C7.43383 12.3604 7.40488 12.6144 7.48365 12.7882L7.52943 12.8871L7.59477 13.0264L7.73884 12.9673C7.74089 12.9667 7.74291 12.966 7.74423 12.9647C7.69239 13.1279 7.7133 13.2831 7.80619 13.3852L7.89373 13.494L8.01021 13.6393L8.13817 13.504C8.17585 13.4669 8.29775 13.3322 8.33543 13.2168L8.36309 13.1285L8.30043 13.0609L8.29034 13.0489L8.36034 12.9348L8.87277 13.0536L8.9879 13.0794L9.0492 12.9799L9.08287 12.9255C9.08893 12.9143 9.09094 12.9123 9.1145 12.9123C9.13269 12.9123 9.15089 12.9143 9.17041 12.9183C9.36363 12.9541 9.54208 12.972 9.70034 12.972C9.85384 12.972 9.94541 12.966 10.0552 12.9302C10.0552 12.9302 10.3306 13.238 10.34 13.2499L10.1717 13.762L10.1642 13.7932C9.8451 13.8184 9.68955 13.8874 9.50172 14.0725C9.22896 13.8058 9.03573 13.778 8.30245 13.778C7.42506 13.778 6.83049 13.2712 6.83049 12.4619V10.4831H12.1715L12.1729 12.4619C12.1735 13.1186 11.7823 13.5763 11.1662 13.7256ZM12.321 7.29047C12.2395 7.50276 12.1715 7.73292 12.1715 7.96176L12.1722 9.43836C11.8591 9.38661 11.8221 9.05429 11.8207 9.03969L11.8146 8.97204L11.7473 8.96607C11.6113 8.95344 11.5211 8.89644 11.445 8.82344C11.2915 8.67219 11.2908 8.42677 11.2915 8.42481C11.2894 8.43737 11.1224 8.66756 11.3164 8.91897C11.3978 9.0251 11.5157 9.0901 11.6685 9.11601C11.7042 9.30039 11.8436 9.56043 12.1722 9.60021V10.3233H11.2484C10.8221 10.0897 11.0026 9.67849 11.0113 9.66127L11.0477 9.58296L10.9662 9.55249C10.505 9.38395 10.6316 8.93026 10.6383 8.91104L10.6572 8.84469L10.5946 8.8155C10.2134 8.64172 10.2653 8.17274 10.27 8.15346C10.1528 8.24702 10.1104 8.43806 10.1912 8.62512C10.1474 8.67422 10.0888 8.73387 10.0249 8.79891C9.63031 8.70006 9.6182 8.34252 9.6182 8.32596L9.6175 8.2709L9.56566 8.25099C9.41147 8.19458 9.30574 8.11036 9.2539 7.99692C9.19532 7.87154 9.21619 7.7402 9.23233 7.6772C9.27746 7.68713 9.32258 7.69445 9.36569 7.69776C9.41011 7.70238 9.4559 7.70504 9.50172 7.70504H9.5044H9.50777C9.55356 7.70504 9.59865 7.70238 9.64311 7.69776C9.88887 7.67388 10.1642 7.56972 10.4511 7.28978H12.321V7.29047ZM10.8814 5.79793L11.2463 6.00691H11.2517L11.3433 6.05932C11.1372 6.11569 10.9797 6.21719 10.8477 6.35051C10.843 6.35451 10.8383 6.35979 10.8336 6.36445C10.8033 6.39629 10.773 6.43079 10.7447 6.46592C10.7393 6.47258 10.7339 6.47986 10.7278 6.48717C10.6996 6.52298 10.6733 6.55948 10.6477 6.59795C10.6437 6.60458 10.639 6.6112 10.6343 6.61717C10.604 6.66161 10.575 6.70939 10.546 6.75846C10.2861 7.19959 9.87134 7.46294 9.50235 7.4636C9.13405 7.46294 8.71927 7.19959 8.45935 6.75846C8.43104 6.71074 8.40278 6.66427 8.37248 6.61914C8.36639 6.61055 8.36104 6.60192 8.35564 6.59464C8.33007 6.55814 8.3045 6.52233 8.2782 6.48848C8.27148 6.4792 8.26543 6.47192 8.25868 6.46395C8.23043 6.4301 8.20145 6.39629 8.17247 6.3651C8.16642 6.36048 8.16241 6.35451 8.15636 6.34916C8.0237 6.21585 7.8668 6.115 7.66007 6.05932L7.753 6.00691H7.75703L8.12199 5.79793L8.49707 5.58637L9.49897 6.12363L9.50102 6.12166L9.5037 6.12363L10.5056 5.58637L10.8814 5.79793ZM10.3871 5.35283L9.58852 5.7674V4.08918L10.6719 3.72699L10.3871 5.35283ZM9.50172 3.90478L8.31389 3.44242C8.41493 3.20693 8.88084 3.0066 9.50172 3.00595C10.1232 3.0066 10.5891 3.20693 10.6895 3.44242L9.50172 3.90478Z" fill="black"/>
</svg>
