<svg width="114" height="57" viewBox="0 0 114 57" fill="none" xmlns="http://www.w3.org/2000/svg">
<g clip-path="url(#clip0_6399_507557)">
<path d="M99.9294 16.2705V30.206H94.9334V20.4305H90.1229V30.206H85.1269V16.2695H99.9294V16.2705Z" fill="black"/>
<path fill-rule="evenodd" clip-rule="evenodd" d="M74.866 30.7041C79.3389 30.7041 82.66 27.9728 82.66 23.8327C82.66 19.8252 80.2097 17.2231 76.1145 17.2231C74.2246 17.2231 72.6651 17.8857 71.4905 19.0291C71.7709 16.6659 73.7773 14.9407 75.9863 14.9407C76.4961 14.9407 80.3342 14.9327 80.3342 14.9327L82.5041 10.7954C82.5041 10.7954 77.6859 10.9047 75.4459 10.9047C70.3278 10.994 66.8708 15.6276 66.8708 21.2549C66.8708 27.8118 70.2425 30.7046 74.8665 30.7046L74.866 30.7041ZM74.8937 20.8873C76.5542 20.8873 77.7055 21.9741 77.7055 23.8323C77.7055 25.5043 76.6825 26.8827 74.8937 26.8865C73.1826 26.8865 72.0313 25.6097 72.0313 23.8608C72.0313 22.0021 73.1826 20.8873 74.8937 20.8873Z" fill="black"/>
<path d="M62.8039 25.5406C62.8039 25.5406 61.6241 26.218 59.8614 26.3462C57.836 26.4061 56.031 25.1317 56.031 22.8673C56.031 20.6586 57.6238 19.3927 59.8109 19.3927C61.1519 19.3927 62.926 20.3185 62.926 20.3185C62.926 20.3185 64.2241 17.9459 64.8965 16.7593C63.6652 15.8297 62.0251 15.3201 60.1175 15.3201C55.3032 15.3201 51.5743 18.4465 51.5743 22.8393C51.5743 27.2882 55.0791 30.3419 60.1175 30.2493C61.5258 30.1971 63.4687 29.705 64.6528 28.9473L62.8039 25.5406Z" fill="black"/>
<path d="M1.37054 12.407L8.30085 24.7451V32.271L1.37865 44.5849L1.37054 12.407Z" fill="#5B57A2"/>
<path d="M27.9799 20.2555L34.4738 16.2912L47.7641 16.2788L27.9799 28.3505V20.2555Z" fill="#D90751"/>
<path d="M27.9439 12.3343L27.9806 28.6696L21.0341 24.4183V0L27.9439 12.3343Z" fill="#FAB718"/>
<path d="M47.7648 16.2787L34.4741 16.2911L27.9439 12.3343L21.0341 0L47.7648 16.2787Z" fill="#ED6F26"/>
<path d="M27.9806 44.6533V36.7279L21.0341 32.5574L21.0379 56.9999L27.9806 44.6533Z" fill="#63B22F"/>
<path d="M34.4579 40.7251L8.30038 24.7451L1.37054 12.407L47.7362 40.7089L34.4579 40.7251Z" fill="#1487C9"/>
<path d="M21.0375 57.0003L27.9793 44.6536L34.457 40.7254L47.7354 40.7092L21.0375 57.0003Z" fill="#017F36"/>
<path d="M1.37866 44.5849L21.0904 32.5579L14.4634 28.5081L8.30087 32.271L1.37866 44.5849Z" fill="#984995"/>
<path d="M56.0321 39.5853C55.8795 39.7791 55.6787 39.9254 55.4379 40.0242C55.1908 40.1244 54.9264 40.1754 54.6596 40.1743C54.3943 40.1779 54.1304 40.1338 53.8808 40.0442C53.6566 39.963 53.4517 39.8366 53.279 39.6727C53.1084 39.5086 52.9745 39.3104 52.886 39.0913C52.7901 38.8511 52.7423 38.5945 52.7453 38.3361C52.7453 38.0796 52.7897 37.8421 52.8817 37.6174C52.966 37.3999 53.0942 37.202 53.2585 37.036C53.4222 36.8711 53.6157 36.7385 53.8288 36.6451C54.0496 36.5501 54.2905 36.4987 54.5551 36.4987C54.8403 36.4987 55.105 36.5344 55.3458 36.6052C55.5867 36.6764 55.7913 36.7952 55.9596 36.9614L55.6668 37.4554C55.5252 37.3276 55.3584 37.2305 55.177 37.1704C55.0045 37.115 54.8242 37.0871 54.6429 37.0878C54.4831 37.0878 54.3305 37.1191 54.1822 37.178C54.036 37.2368 53.9025 37.3229 53.7888 37.4317C53.6725 37.5433 53.5809 37.6779 53.5198 37.8269C53.4506 37.9889 53.4165 38.1637 53.4196 38.3398C53.4196 38.5341 53.4554 38.708 53.5236 38.8576C53.5923 39.0125 53.6843 39.1426 53.8002 39.2533C53.9171 39.3644 54.053 39.4471 54.2099 39.5027C54.3691 39.5618 54.5378 39.5913 54.7078 39.5896C54.9243 39.5896 55.1212 39.5459 55.2896 39.4628C55.4564 39.3825 55.6063 39.2713 55.7312 39.135L56.0321 39.5853ZM56.8586 40.0912V36.5738H57.4929V39.1944L59.5554 36.5738H60.1897V40.0917H59.5554V37.4711L57.4929 40.0917L56.8586 40.0912ZM64.3912 39.5853C64.2352 39.7807 64.0305 39.9321 63.7975 40.0242C63.5502 40.1243 63.2856 40.1753 63.0187 40.1743C62.7535 40.1778 62.4899 40.1338 62.2404 40.0442C62.016 39.9631 61.811 39.8366 61.6381 39.6727C61.4675 39.5086 61.3336 39.3104 61.2451 39.0913C61.1492 38.8511 61.1014 38.5945 61.1044 38.3361C61.1044 38.0796 61.1488 37.8421 61.2408 37.6174C61.3295 37.3918 61.4578 37.1984 61.6176 37.036C61.7813 36.8711 61.9748 36.7385 62.1879 36.6451C62.4166 36.5447 62.6644 36.4948 62.9143 36.4987C63.1994 36.4987 63.4641 36.5344 63.7049 36.6052C63.9458 36.6764 64.1504 36.7952 64.3192 36.9614L64.0259 37.4554C63.8845 37.3275 63.7179 37.2304 63.5366 37.1704C63.364 37.1151 63.1838 37.0872 63.0025 37.0878C62.6839 37.0889 62.3779 37.212 62.1479 37.4317C62.0326 37.5442 61.9412 37.6786 61.8789 37.8269C61.8097 37.9889 61.7756 38.1637 61.7788 38.3398C61.7788 38.5341 61.815 38.708 61.8832 38.8576C61.9514 39.0125 62.0434 39.1426 62.1598 39.2533C62.2762 39.3644 62.4125 39.4471 62.5695 39.5027C62.7259 39.5578 62.8904 39.5896 63.0669 39.5896C63.2838 39.5896 63.4765 39.5459 63.6487 39.4628C63.8155 39.3825 63.9654 39.2713 64.0903 39.135L64.3912 39.5853ZM64.7165 36.5738H67.9708V37.1984H66.6627V40.0912H66.0284V37.1984H64.7203V36.5738H64.7165Z" fill="black"/>
<path fill-rule="evenodd" clip-rule="evenodd" d="M70.9333 40.056C71.1741 39.9809 71.3787 39.866 71.5551 39.7083L71.3625 39.2181C71.2461 39.3211 71.0897 39.4081 70.9013 39.4793C70.7124 39.5506 70.4997 39.5857 70.267 39.5857C69.9179 39.5857 69.6289 39.495 69.4 39.3093C69.1711 39.1231 69.0471 38.8628 69.0185 38.5303H71.764C71.7932 38.3913 71.8066 38.2495 71.8041 38.1075C71.8071 37.882 71.7619 37.6584 71.6715 37.4515C71.5894 37.2597 71.4694 37.0862 71.3186 36.9414C71.1657 36.798 70.9856 36.6865 70.7888 36.6136C70.5827 36.534 70.3635 36.4937 70.1426 36.4949C69.8454 36.4949 69.5846 36.5462 69.3557 36.6412C69.1399 36.7318 68.9447 36.8649 68.782 37.0326C68.6238 37.1995 68.5023 37.3973 68.4252 37.6135C68.3405 37.8438 68.2983 38.0874 68.3008 38.3327C68.3008 38.6096 68.3485 38.8623 68.4372 39.0879C68.523 39.3065 68.6543 39.5045 68.8225 39.6688C68.987 39.8303 69.1873 39.9534 69.4243 40.0403C69.6781 40.1299 69.9458 40.174 70.215 40.1704C70.4589 40.169 70.701 40.13 70.9333 40.056ZM69.328 37.3485C69.5245 37.1708 69.7854 37.0839 70.1144 37.0839C70.4234 37.0839 70.6724 37.167 70.8531 37.3333C71.0339 37.499 71.1297 37.7285 71.146 38.0206H68.9789C69.0096 37.7619 69.1337 37.5228 69.328 37.3485Z" fill="black"/>
<path d="M72.666 36.5735H73.244L74.6165 38.3167L75.9165 36.5735H76.4783V40.0913H75.844V37.5263L74.6084 39.1584H74.584L73.3002 37.5259V40.0909H72.666V36.5735Z" fill="black"/>
<path fill-rule="evenodd" clip-rule="evenodd" d="M78.204 36.5856C78.0117 36.6357 77.828 36.7142 77.6589 36.8183L77.8273 37.3171C77.9718 37.2458 78.1163 37.1865 78.2608 37.1352C78.4053 37.0829 78.5898 37.0592 78.8106 37.0592C78.9871 37.0592 79.1278 37.0877 79.236 37.1428C79.3443 37.1941 79.4244 37.2734 79.4807 37.3684C79.5369 37.4634 79.5732 37.5817 79.5932 37.7199C79.6132 37.8581 79.6214 38.0082 79.6214 38.1707C79.4914 38.0805 79.3433 38.0197 79.1874 37.9925C79.0369 37.9627 78.8839 37.9468 78.7305 37.945C78.5417 37.945 78.3652 37.9731 78.1964 38.0201C78.028 38.0676 77.8835 38.1388 77.7672 38.2338C77.6482 38.3286 77.5521 38.4487 77.4858 38.5853C77.4153 38.7349 77.3797 38.8984 77.3818 39.0637C77.3818 39.4076 77.482 39.6764 77.6823 39.8664C77.8835 40.0559 78.1482 40.1505 78.4773 40.1505C78.7744 40.1505 79.0114 40.0992 79.1917 39.9966C79.3724 39.8935 79.5169 39.7752 79.6209 39.6403V40.0954H80.2151V37.9374C80.2151 37.4786 80.1149 37.1233 79.9099 36.8734C79.7096 36.625 79.3519 36.4982 78.8464 36.4982C78.6218 36.4982 78.4086 36.53 78.204 36.5856ZM79.2646 39.4356C79.1201 39.5382 78.9308 39.5852 78.6986 39.5852C78.4935 39.5852 78.3332 39.5339 78.2212 39.4351C78.1086 39.3325 78.0524 39.1976 78.0524 39.0314C78.0524 38.9335 78.0724 38.8504 78.1167 38.7749C78.1611 38.6993 78.2212 38.6409 78.2894 38.5934C78.364 38.5437 78.4468 38.5076 78.534 38.4865C78.6265 38.4628 78.7186 38.4509 78.8149 38.4509C79.1282 38.4509 79.3967 38.526 79.6175 38.6837V39.1302C79.5135 39.2465 79.3949 39.3494 79.2646 39.4356ZM85.8139 35.3363C85.9422 35.2774 86.0619 35.1786 86.1749 35.0323L85.8296 34.5383C85.7414 34.6571 85.6413 34.7397 85.5287 34.7834C85.4094 34.8299 85.2858 34.8642 85.1596 34.886L85.0394 34.9074C84.9345 34.9255 84.8229 34.9454 84.7022 34.9654C84.5087 35.001 84.3202 35.0594 84.1405 35.1392C83.8553 35.2618 83.6268 35.4275 83.4537 35.637C83.2806 35.8465 83.1452 36.0835 83.0526 36.3448C82.9589 36.6094 82.8957 36.8838 82.8643 37.1627C82.8318 37.4477 82.8161 37.7199 82.8161 37.9807C82.8161 38.317 82.86 38.621 82.9482 38.8936C83.0369 39.1667 83.1609 39.3957 83.325 39.5814C83.49 39.7714 83.6869 39.9139 83.9197 40.0165C84.1524 40.1191 84.4132 40.1704 84.7061 40.1704C84.975 40.1704 85.224 40.1191 85.4486 40.0241C85.6651 39.9328 85.8615 39.8 86.0266 39.6332C86.1868 39.4707 86.3156 39.2769 86.4033 39.0599C86.4955 38.8394 86.542 38.6027 86.5402 38.364C86.5402 38.0994 86.5002 37.8586 86.4239 37.6448C86.3536 37.4411 86.2415 37.2541 86.0948 37.0957C85.9478 36.94 85.7682 36.8184 85.5688 36.7395C85.3491 36.6533 85.1148 36.6104 84.8787 36.6131C84.7261 36.6131 84.5778 36.6331 84.4333 36.6725C84.2927 36.712 84.1578 36.7691 84.0317 36.8426C83.9094 36.9123 83.7974 36.9987 83.6989 37.0991C83.6025 37.1983 83.5224 37.309 83.4661 37.4354H83.4499C83.4617 37.2681 83.4845 37.1018 83.5181 36.9376C83.5544 36.7675 83.6063 36.6051 83.675 36.4512C83.7432 36.2973 83.8314 36.1586 83.9397 36.0322C84.0558 35.9047 84.1981 35.8036 84.357 35.7358C84.5317 35.6529 84.7165 35.5932 84.9068 35.5582L85.0327 35.5354C85.1582 35.5126 85.2779 35.4907 85.3923 35.467C85.5449 35.4356 85.6851 35.3952 85.8139 35.3363ZM83.582 38.716C83.5201 38.5164 83.4905 38.3083 83.4943 38.0994C83.5212 37.9795 83.5701 37.8657 83.6388 37.7636C83.7094 37.655 83.7975 37.5587 83.8996 37.4786C84.1353 37.2947 84.4267 37.1959 84.7261 37.1983C85.0995 37.1983 85.3804 37.3123 85.5769 37.5384C85.7738 37.7674 85.8702 38.0514 85.8702 38.3958C85.8702 38.5659 85.8377 38.7202 85.7819 38.8623C85.7277 39.0024 85.6456 39.1302 85.5408 39.2382C85.4359 39.3461 85.3103 39.432 85.1715 39.4907C85.0275 39.5539 84.8706 39.5857 84.6941 39.5857C84.5177 39.5857 84.357 39.5501 84.2087 39.4788C84.0613 39.409 83.931 39.3078 83.8271 39.1824C83.7184 39.0427 83.6355 38.8847 83.5825 38.716H83.582ZM91.4041 36.5737H90.7698V40.0916H91.4041V36.5737ZM87.4549 36.5737H88.0892V37.6292H88.6753C88.9519 37.6292 89.176 37.6648 89.3573 37.7318C89.538 37.7992 89.6825 37.8899 89.7908 38.0006C89.899 38.1113 89.9753 38.2419 90.0197 38.3877C90.0636 38.534 90.0879 38.6841 90.0879 38.8423C90.0879 39.0005 90.0636 39.1511 90.0116 39.3012C89.9634 39.4513 89.879 39.5814 89.7664 39.7002C89.6544 39.8189 89.5018 39.9139 89.3086 39.9852C89.1164 40.0559 88.8837 40.0954 88.6028 40.0954H87.4511V36.5737H87.4549ZM88.0892 38.2172V39.5064H88.5508C88.868 39.5064 89.0926 39.4513 89.2209 39.3401C89.3496 39.2294 89.4135 39.0717 89.4135 38.8623C89.4135 38.6485 89.3453 38.487 89.2171 38.3759C89.0845 38.2652 88.8637 38.2096 88.5589 38.2096H88.0892V38.2172Z" fill="black"/>
<path d="M95.598 39.5851C95.4453 39.7789 95.2446 39.9252 95.0037 40.024C94.7566 40.1241 94.4922 40.1751 94.2254 40.1741C93.9601 40.1776 93.6963 40.1336 93.4467 40.0439C93.2224 39.9629 93.0175 39.8364 92.8448 39.6725C92.6743 39.5082 92.5402 39.3101 92.4514 39.0911C92.3559 38.8508 92.3082 38.5942 92.3112 38.3358C92.3112 38.0793 92.355 37.8418 92.4476 37.6171C92.5318 37.3997 92.66 37.2018 92.8243 37.0357C92.9855 36.8695 93.1772 36.7436 93.3947 36.6448C93.6234 36.5445 93.8711 36.4945 94.121 36.4985C94.4057 36.4985 94.6709 36.5341 94.9117 36.6049C95.1525 36.6762 95.3571 36.7949 95.5255 36.9612L95.2327 37.4552C95.091 37.3273 94.9242 37.2303 94.7429 37.1702C94.5703 37.1148 94.39 37.0869 94.2087 37.0875C94.049 37.0875 93.8964 37.1189 93.7476 37.1778C93.6015 37.2365 93.4682 37.3227 93.3546 37.4314C93.2392 37.5438 93.1478 37.6782 93.0857 37.8266C93.0165 37.9887 92.9823 38.1635 92.9855 38.3396C92.9855 38.5339 93.0213 38.7077 93.0895 38.8574C93.1577 39.0122 93.2502 39.1424 93.3661 39.253C93.4829 39.3642 93.6188 39.4468 93.7757 39.5024C93.9326 39.5575 94.0972 39.5893 94.2736 39.5893C94.4747 39.5919 94.6738 39.5485 94.8554 39.4625C95.0222 39.3823 95.1721 39.271 95.297 39.1348L95.598 39.5851ZM95.9223 36.5736H99.1776V37.1982H97.869V40.0909H97.2347V37.1982H95.927V36.5736H95.9223Z" fill="black"/>
<path fill-rule="evenodd" clip-rule="evenodd" d="M100.502 36.5742H99.8673V41.6567H100.502V39.9296C100.63 40.0127 100.782 40.0721 100.959 40.1115C101.135 40.151 101.32 40.1704 101.509 40.1704C101.79 40.1704 102.042 40.1191 102.271 40.0246C102.491 39.9311 102.69 39.7955 102.857 39.6256C103.023 39.4531 103.151 39.2484 103.234 39.0243C103.322 38.7915 103.367 38.5421 103.367 38.2776C103.367 38.0163 103.327 37.7755 103.25 37.5579C103.179 37.3513 103.067 37.1608 102.921 36.997C102.779 36.8372 102.602 36.7116 102.403 36.6293C102.187 36.5365 101.953 36.4907 101.717 36.4949C101.469 36.4949 101.236 36.5424 101.015 36.6374C100.794 36.7324 100.622 36.8464 100.502 36.9889V36.5742ZM100.943 37.2264C101.124 37.1314 101.32 37.0839 101.533 37.0839C101.718 37.0839 101.882 37.1114 102.031 37.1708C102.176 37.2302 102.296 37.3133 102.396 37.424C102.496 37.5347 102.573 37.6615 102.62 37.8111C102.673 37.9612 102.697 38.1237 102.697 38.3013C102.697 38.4913 102.665 38.6609 102.609 38.8191C102.556 38.969 102.473 39.1064 102.364 39.2223C102.254 39.3369 102.122 39.4271 101.975 39.4869C101.811 39.5553 101.634 39.5889 101.457 39.5857C101.285 39.5857 101.124 39.5662 100.971 39.5268C100.804 39.4815 100.646 39.4093 100.502 39.3131V37.5698C100.614 37.4359 100.763 37.3214 100.943 37.2264ZM108.23 36.5737H107.596V40.0916H108.23V36.5737ZM104.278 36.5737H104.912V37.6292H105.498C105.774 37.6292 105.999 37.6648 106.18 37.7318C106.361 37.7992 106.505 37.89 106.614 38.0006C106.722 38.1113 106.798 38.2419 106.842 38.3878C106.886 38.5341 106.91 38.6842 106.91 38.8423C106.91 39.0005 106.886 39.1511 106.834 39.3012C106.786 39.4513 106.702 39.5814 106.589 39.7002C106.477 39.8189 106.325 39.9139 106.131 39.9852C105.939 40.056 105.706 40.0954 105.426 40.0954H104.274V36.5737H104.278ZM104.916 38.2172V39.5064H105.378C105.695 39.5064 105.92 39.4513 106.048 39.3401C106.176 39.2295 106.241 39.0718 106.241 38.8623C106.241 38.6485 106.172 38.487 106.044 38.3759C105.912 38.2652 105.691 38.2096 105.386 38.2096H104.916V38.2172Z" fill="black"/>
<path d="M111.273 38.2692L112.629 40.0913H111.851L110.803 38.6682L109.74 40.0913H109.002L110.35 38.3006L109.081 36.5735H109.861L110.828 37.9016L111.81 36.5735H112.549L111.273 38.2692ZM55.5631 44.439H53.6169V47.3717H52.9826V43.8543H56.1969V47.3717H55.5626L55.5631 44.439ZM59.7966 44.4784H58.5447L58.5042 45.0712C58.4603 45.5733 58.4002 45.9766 58.3158 46.2844C58.2314 46.5931 58.1269 46.8302 58.0067 46.9959C57.8866 47.1622 57.7459 47.2762 57.5852 47.3322C57.4194 47.3921 57.2441 47.4216 57.0677 47.4192L57.0196 46.8102C57.1014 46.8121 57.1825 46.7945 57.2561 46.7589C57.3448 46.7195 57.4326 46.6326 57.517 46.5024C57.6014 46.3675 57.6777 46.178 57.7459 45.9324C57.8141 45.684 57.8584 45.36 57.8823 44.9525L57.9467 43.8576H60.4308V47.3755H59.7966V44.4784Z" fill="black"/>
<path fill-rule="evenodd" clip-rule="evenodd" d="M62.1403 43.8626C61.9352 43.9177 61.7506 43.9965 61.5942 44.0953L61.763 44.5936C61.9075 44.5223 62.052 44.463 62.1961 44.4117C62.3406 44.3604 62.5251 44.3366 62.7459 44.3366C62.9224 44.3366 63.0631 44.3642 63.1713 44.4193C63.2801 44.471 63.3602 44.5499 63.4164 44.6449C63.4722 44.7399 63.5085 44.8586 63.5285 44.9964C63.5485 45.1351 63.5567 45.2852 63.5567 45.4472C63.4267 45.3572 63.2786 45.2965 63.1227 45.2695C62.9722 45.2397 62.8192 45.2238 62.6658 45.222C62.4774 45.222 62.3005 45.2496 62.1317 45.2971C61.9633 45.3446 61.8188 45.4158 61.7025 45.5108C61.5835 45.6056 61.4874 45.7257 61.4211 45.8623C61.3507 46.0119 61.3153 46.1755 61.3176 46.3406C61.3176 46.6841 61.4178 46.9534 61.6181 47.1429C61.8184 47.3324 62.084 47.4274 62.413 47.4274C62.7102 47.4274 62.9467 47.3761 63.1274 47.2731C63.3077 47.1705 63.4517 47.0517 63.5567 46.9168V47.3719H64.1509V45.2139C64.1509 44.7556 64.0502 44.3998 63.8457 44.1509C63.6449 43.9015 63.2877 43.7756 62.7822 43.7756C62.5653 43.7758 62.3494 43.8054 62.1403 43.8626ZM63.2037 46.7116C63.0597 46.8147 62.8709 46.8622 62.6381 46.8622C62.4293 46.8622 62.2728 46.8109 62.1608 46.7116C62.0482 46.609 61.9919 46.4741 61.9919 46.3088C61.9919 46.21 62.012 46.1269 62.0563 46.0518C62.1002 45.9768 62.1608 45.9174 62.229 45.8699C62.2972 45.8224 62.3811 45.7868 62.4736 45.763C62.5654 45.7394 62.6597 45.7276 62.7545 45.7279C63.0673 45.7279 63.3363 45.8029 63.5571 45.9606V46.4071C63.4529 46.5231 63.3341 46.6258 63.2037 46.7116Z" fill="black"/>
<path d="M64.7723 43.8545H68.0271V44.4786H66.7185V47.3714H66.0842V44.4786H64.7766V43.8545H64.7723Z" fill="black"/>
<path fill-rule="evenodd" clip-rule="evenodd" d="M70.9894 47.336C71.2302 47.261 71.4348 47.146 71.6113 46.9883L71.4186 46.4981C71.3022 46.6012 71.1458 46.6881 70.957 46.7594C70.7686 46.8306 70.5559 46.8658 70.3227 46.8658C69.9741 46.8658 69.6851 46.775 69.4562 46.5893C69.2272 46.4036 69.1032 46.1428 69.0746 45.8103H71.8201C71.8478 45.6882 71.8602 45.5491 71.8602 45.3876C71.8602 45.1467 71.8159 44.9292 71.7276 44.7316C71.6455 44.5397 71.5253 44.3664 71.3742 44.2219C71.2217 44.0782 71.0417 43.9666 70.8449 43.8937C70.6389 43.8141 70.4197 43.7738 70.1987 43.7749C69.9016 43.7749 69.6407 43.8262 69.4118 43.9212C69.1959 44.0116 69.0007 44.1447 68.8381 44.3126C68.6798 44.4795 68.558 44.6774 68.4804 44.8936C68.396 45.1239 68.354 45.3675 68.3564 45.6127C68.3564 45.8896 68.4041 46.1423 68.4928 46.368C68.5815 46.5931 68.7136 46.7869 68.8781 46.9489C69.0427 47.1109 69.2435 47.2334 69.4805 47.3203C69.734 47.4101 70.0016 47.4544 70.2707 47.451C70.5077 47.451 70.7485 47.4111 70.9894 47.336ZM69.3803 44.6247C69.5768 44.4471 69.8377 44.3601 70.1667 44.3601C70.4801 44.3601 70.7247 44.4471 70.9055 44.609C71.0857 44.7753 71.1821 45.0042 71.1983 45.2968H69.0312C69.0618 45.038 69.1859 44.7991 69.3803 44.6247ZM72.1692 43.8543H72.9719L74.1956 45.55L72.8875 47.3716H72.1091L73.4812 45.5495L72.1692 43.8543ZM74.352 43.8543H74.9863V47.3716H74.352V43.8543ZM77.2535 47.3716L75.8571 45.5495L77.1614 43.8538H76.3745L75.1427 45.5495L76.4671 47.3716H77.2535ZM80.1511 47.336C80.3919 47.261 80.5965 47.146 80.773 46.9883L80.5803 46.4981C80.464 46.6012 80.3075 46.6881 80.1192 46.7594C79.9303 46.8306 79.7176 46.8658 79.4849 46.8658C79.1358 46.8658 78.8468 46.775 78.6179 46.5893C78.389 46.4036 78.265 46.1428 78.2364 45.8103H80.9819C81.01 45.6882 81.0219 45.5491 81.0219 45.3876C81.0219 45.1467 80.9781 44.9292 80.8894 44.7316C80.8072 44.5399 80.6872 44.3665 80.5365 44.2219C80.3837 44.0782 80.2035 43.9666 80.0066 43.8937C79.8006 43.8141 79.5814 43.7738 79.3604 43.7749C79.0638 43.7749 78.8024 43.8262 78.5735 43.9212C78.3578 44.0117 78.1628 44.1449 78.0003 44.3126C77.8417 44.4793 77.7198 44.6772 77.6426 44.8936C77.558 45.1238 77.516 45.3675 77.5186 45.6127C77.5186 45.8896 77.5663 46.1423 77.655 46.368C77.7432 46.5931 77.8758 46.7869 78.0404 46.9489C78.2049 47.1109 78.4052 47.2334 78.6422 47.3203C78.8959 47.4101 79.1636 47.4544 79.4329 47.451C79.6768 47.4492 79.9189 47.4104 80.1511 47.336ZM78.5421 44.6247C78.739 44.4471 78.9999 44.3601 79.3289 44.3601C79.638 44.3601 79.8864 44.4471 80.0672 44.609C80.2479 44.7753 80.3438 45.0042 80.36 45.2968H78.193C78.2236 45.038 78.3476 44.7991 78.5421 44.6247ZM83.5948 42.6725C83.2214 42.6725 83.0168 42.4668 82.9844 42.0559H82.3868C82.3868 42.2136 82.415 42.3561 82.4669 42.4905C82.5194 42.625 82.5957 42.7394 82.6959 42.8344C82.796 42.9294 82.9248 43.0045 83.0726 43.0634C83.2214 43.1228 83.394 43.1503 83.5905 43.1503C83.7567 43.1536 83.9218 43.124 84.0765 43.0634C84.221 43.0083 84.3412 42.9294 84.4456 42.8344C84.5479 42.7377 84.6285 42.6205 84.6821 42.4905C84.7384 42.3561 84.7666 42.2136 84.7666 42.0559H84.1728C84.1442 42.4668 83.9477 42.6725 83.5948 42.6725ZM81.8808 43.8538V47.3716H82.5151L84.5777 44.7511V47.3716H85.212V43.8538H84.5777L82.5151 46.4744V43.8538H81.8808Z" fill="black"/>
</g>
<defs>
<clipPath id="clip0_6399_507557">
<rect width="114" height="57" fill="white"/>
</clipPath>
</defs>
</svg>
