<svg width="136" height="25" viewBox="0 0 136 25" fill="none" xmlns="http://www.w3.org/2000/svg">
<path fill-rule="evenodd" clip-rule="evenodd" d="M39.9797 18.5564C38.7794 18.5564 37.6059 18.2014 36.6076 17.5363C35.6093 16.8712 34.8309 15.9257 34.3706 14.8194C33.9104 13.713 33.789 12.4954 34.0218 11.3203C34.2546 10.1452 34.8311 9.06518 35.6785 8.21687C36.526 7.36848 37.6063 6.78975 38.7832 6.55377C39.96 6.31771 41.1805 6.43501 42.2906 6.89078C43.4007 7.34663 44.3505 8.12046 45.0201 9.11456C45.6897 10.1087 46.0491 11.2786 46.0529 12.4765C46.0567 13.2732 45.9029 14.0627 45.6001 14.7999C45.2974 15.5371 44.8518 16.2073 44.2888 16.7722C43.7259 17.337 43.0567 17.7854 42.3197 18.0916C41.5827 18.3978 40.7924 18.5557 39.9941 18.5564H39.9797ZM39.9797 0.000823009C37.8721 -0.00513514 35.7969 0.519757 33.9467 1.52689C32.0963 2.53401 30.5306 3.9908 29.3945 5.76237C28.2583 7.53395 27.5884 9.56296 27.447 11.6615C27.3055 13.7601 27.697 15.8603 28.5852 17.7678C29.4734 19.6752 30.8295 21.3281 32.528 22.5735C34.2265 23.8188 36.2124 24.6163 38.302 24.8921C40.3914 25.1679 42.5168 24.913 44.4813 24.1511C46.4459 23.3893 48.186 22.1449 49.5405 20.5335C48.7597 22.0317 47.5815 23.2869 46.1345 24.1623V24.8085H52.4715V12.4478C52.4602 9.1501 51.1424 5.99082 48.8058 3.65897C46.4692 1.3272 43.3034 0.0121807 39.9989 0.000823009H39.9797ZM100.103 18.6712H91.8369V14.6212H99.9256C100.937 14.6212 102.117 15.5787 102.117 16.651C102.112 17.1866 101.895 17.6982 101.514 18.076C101.134 18.4538 100.62 18.6675 100.084 18.6712H100.103ZM91.8369 6.32961H98.7641C99.284 6.36798 99.7716 6.59279 100.138 6.96242C100.504 7.33213 100.723 7.82158 100.755 8.34032C100.749 8.6167 100.687 8.88911 100.574 9.14176C100.462 9.3945 100.3 9.62254 100.1 9.81286C99.8982 10.0032 99.662 10.1521 99.4033 10.251C99.1445 10.3499 98.8689 10.3969 98.5916 10.3892H91.8369V6.32961ZM105.715 11.7489C106.46 10.607 106.879 9.28416 106.925 7.92277C106.973 6.5613 106.647 5.21278 105.984 4.02213C105.305 2.86638 104.337 1.90604 103.176 1.23481C102.013 0.563584 100.697 0.204404 99.3541 0.192318H85.4998V24.8085H101C102.983 24.8341 104.896 24.073 106.317 22.6925C107.738 21.3119 108.552 19.4247 108.579 17.4457C108.591 16.3369 108.336 15.2417 107.835 14.2519C107.334 13.2622 106.602 12.4071 105.701 11.7584L105.715 11.7489ZM79.2353 9.27379C81.3173 14.8749 81.4229 19.9543 81.4229 24.8085H74.9847C74.9847 20.8734 74.8456 17.2877 74.0253 14.0419C72.9171 9.69985 70.8544 6.54025 68.9403 6.54025C67.0262 6.54025 64.9634 9.69985 63.8553 14.0419C63.0301 17.2877 62.8958 20.7776 62.8958 24.8085H56.4532C56.4532 20.3899 56.5587 14.8749 58.6407 9.27379C60.5596 4.05564 64.2007 0.000823009 68.9355 0.000823009C73.6703 0.000823009 77.3161 4.05564 79.2353 9.27379ZM18.5507 0.206679H24.9837V2.7966C24.9856 4.65753 24.5709 6.49532 23.7701 8.17583C22.9691 9.85641 21.8022 11.3371 20.3545 12.51C21.8021 13.6819 22.969 15.1618 23.77 16.8415C24.5709 18.5213 24.9856 20.3585 24.9837 22.2187V24.8085H18.5507V21.5676C18.5063 19.9941 17.8488 18.4999 16.7178 17.4025C15.5869 16.3052 14.0717 15.6913 12.4943 15.6913C10.9169 15.6913 9.40171 16.3052 8.27067 17.4025C7.13971 18.4999 6.48222 19.9941 6.43781 21.5676V24.8085H0V22.2187C4.03021e-05 20.3576 0.416047 18.5199 1.2177 16.8396C2.01935 15.1592 3.18649 13.6785 4.63405 12.5052C3.18659 11.3329 2.01948 9.85301 1.2178 8.1734C0.416119 6.49387 8.06042e-05 4.65696 0 2.7966V0.206679H6.43781V3.44291C6.41444 4.23722 6.54816 5.02829 6.8314 5.77104C7.11465 6.5137 7.54185 7.19338 8.08842 7.77122C8.63508 8.34899 9.29056 8.81366 10.0173 9.13852C10.744 9.46331 11.5277 9.64205 12.3238 9.66439C13.1197 9.68674 13.9123 9.55219 14.6561 9.26861C15.4 8.98512 16.0806 8.55793 16.6589 8.01174C17.2372 7.46546 17.702 6.8108 18.0266 6.08513C18.3512 5.35955 18.5293 4.57714 18.5507 3.78275C18.5507 3.66788 18.5507 3.55778 18.5507 3.44291V0.206679ZM123.493 18.5564C122.292 18.5602 121.117 18.2084 120.116 17.5456C119.116 16.8827 118.334 15.9387 117.871 14.8327C117.408 13.7267 117.284 12.5084 117.514 11.3321C117.745 10.1557 118.32 9.07392 119.167 8.22367C120.013 7.37342 121.094 6.79274 122.271 6.55523C123.448 6.31763 124.669 6.4338 125.781 6.889C126.893 7.3442 127.843 8.11803 128.513 9.11262C129.184 10.1072 129.544 11.2778 129.548 12.4765C129.551 13.2712 129.397 14.0586 129.095 14.794C128.794 15.5294 128.35 16.1982 127.789 16.7624C127.228 17.3264 126.561 17.7748 125.827 18.0818C125.093 18.3888 124.304 18.5484 123.508 18.5516L123.493 18.5564ZM135.981 12.4286C135.965 9.49407 134.915 6.65861 133.014 4.41936C131.114 2.18001 128.484 0.679728 125.586 0.181454C122.688 -0.31682 119.707 0.218716 117.165 1.69419C114.623 3.16969 112.683 5.49094 111.684 8.25103C110.685 11.0112 110.692 14.0341 111.703 16.7899C112.713 19.5456 114.664 21.8584 117.213 23.3228C119.761 24.7872 122.745 25.3098 125.64 24.7989C128.536 24.288 131.159 22.7763 133.05 20.5287C132.266 22.0263 131.089 23.2826 129.644 24.1623V24.8037H136V12.4478L135.981 12.4286Z" fill="#FF4E50"/>
</svg>
