<svg width="142" height="21" viewBox="0 0 142 21" fill="none" xmlns="http://www.w3.org/2000/svg">
<path d="M114.425 9.5491L108.947 3.3917H105.739V17.6558H109.088V8.5506L114.096 13.9392H114.714L119.636 8.5506V17.64H122.985V3.3758H119.777L114.433 9.5332L114.425 9.5491ZM138.933 3.3917L130.63 12.6555V3.3917H127.281V17.6558H130.356L138.651 8.4V17.64H142V3.3758L138.933 3.3917ZM87.687 8.606C87.654 9.636 87.938 10.6507 88.498 11.5107C89.059 12.3707 89.869 13.0337 90.817 13.4083L87.28 17.64H91.372L94.596 13.7966H98.078V17.64H101.427V3.3758H92.898C92.208 3.3339 91.518 3.4395 90.871 3.6858C90.224 3.9322 89.635 4.3137 89.144 4.8056C88.652 5.2975 88.268 5.8887 88.017 6.5408C87.766 7.1928 87.654 7.8911 87.687 8.5902V8.606ZM98.071 6.5298V10.7457H93.516C91.951 10.7457 91.169 9.8898 91.169 8.6377C91.169 7.3857 92.014 6.5298 93.516 6.5298H98.071ZM72.1307 6.2445C71.9194 11.1419 70.8944 14.3038 68.8599 14.3038H68.3904V17.7272H68.9225C72.9445 17.9491 75.1824 14.3909 75.5346 6.6328H80.8243V17.64H84.173V3.3758H72.2403L72.1307 6.2445ZM59.5247 3.1936C54.994 3.1936 51.6997 6.3634 51.6997 10.5158C51.6997 14.8189 55.2444 17.8698 59.5247 17.8698C63.938 17.8698 67.3496 14.6525 67.3496 10.5158C67.3496 6.3792 63.9145 3.1936 59.5247 3.1936ZM59.5247 14.4543C56.9581 14.4543 55.2209 12.7664 55.2209 10.4921C55.2209 8.2177 56.9659 6.5298 59.5247 6.5298C62.0834 6.5298 63.8832 8.2415 63.8832 10.4921C63.8832 12.7426 62.0521 14.4543 59.5247 14.4543ZM48.1784 3.4234H36.3627L36.2453 6.2683C36.081 10.3732 35.0168 14.28 33.0136 14.3355H32.0824V21H35.4628V17.64H47.2003V21H50.612V14.3355H48.1863L48.1784 3.4234ZM44.8293 14.3355H37.6851C38.8902 12.4811 39.5396 9.8026 39.657 6.6725H44.8293V14.3355ZM24.2575 0H21.1275V17.434H24.2575V0ZM3.13 3.566H0V21H3.13V3.566ZM10.1725 2.3774H7.0425V19.8113H10.1725V2.3774ZM17.215 1.1887H14.085V18.6226H17.215V1.1887Z" fill="black"/>
</svg>
