<svg width="44" height="44" viewBox="0 0 44 44" fill="none" xmlns="http://www.w3.org/2000/svg">
<path fill-rule="evenodd" clip-rule="evenodd" d="M22 1.95556C10.9472 1.95556 1.95556 10.9482 1.95556 22C1.95556 33.0538 10.9472 42.0444 22 42.0444C33.0528 42.0444 42.0444 33.0528 42.0444 22C42.0444 10.9492 33.0528 1.95556 22 1.95556ZM22 44C9.86969 44 0 34.1313 0 22C0 9.86871 9.86969 0 22 0C34.1313 0 44 9.86871 44 22C44 34.1313 34.1313 44 22 44Z" fill="black"/>
<path d="M28.8251 16.71C29.0254 16.5217 29.2922 16.4206 29.567 16.4291C29.8417 16.4375 30.1018 16.5548 30.2901 16.755C30.4784 16.9552 30.5795 17.2221 30.571 17.4968C30.5626 17.7715 30.4454 18.0317 30.2451 18.22L19.2741 28.54L13.7541 23.349C13.655 23.2558 13.5752 23.1439 13.5193 23.0198C13.4633 22.8957 13.4324 22.7618 13.4282 22.6258C13.424 22.4898 13.4467 22.3542 13.4949 22.227C13.5431 22.0997 13.6159 21.9831 13.7091 21.884C13.8024 21.7848 13.9142 21.705 14.0383 21.6491C14.1624 21.5932 14.2963 21.5623 14.4323 21.5581C14.5684 21.5539 14.7039 21.5766 14.8312 21.6248C14.9584 21.673 15.075 21.7458 15.1741 21.839L19.2731 25.694L28.8251 16.71Z" fill="#83C150"/>
</svg>
