<?xml version="1.0" encoding="UTF-8"?>
<svg width="28px" height="28px" viewBox="0 0 28 28" version="1.1" xmlns="http://www.w3.org/2000/svg" xmlns:xlink="http://www.w3.org/1999/xlink">
    <!-- Generator: Sketch 50.2 (55047) - http://www.bohemiancoding.com/sketch -->
    <title>Group 3</title>
    <desc>Created with Sketch.</desc>
    <defs></defs>
    <g id="new-pages" stroke="none" stroke-width="1" fill="none" fill-rule="evenodd">
        <g id="lifemebel_index" transform="translate(-1155.000000, -5672.000000)">
            <g id="footer" transform="translate(0.000000, 4809.000000)">
                <g transform="translate(92.000000, 581.000000)" id="social">
                    <g>
                        <g transform="translate(1026.000000, 282.000000)">
                            <g id="Group-3" transform="translate(37.000000, 0.000000)">
                                <path d="M20.071,10.2670229 C19.5815405,10.4835793 19.062481,10.6258151 18.531,10.6890229 C19.0913414,10.3532149 19.5103964,9.82504211 19.71,9.20302289 C19.1845285,9.51522448 18.6095967,9.73538954 18.01,9.85402289 C17.179654,8.96321172 15.8536263,8.74307291 14.7799817,9.3177955 C13.706337,9.89251809 13.1541782,11.1180511 13.435,12.3030229 C11.2786957,12.1956428 9.2693545,11.1778867 7.907,9.50302289 C7.19511844,10.7286568 7.55851938,12.2965349 8.737,13.0840229 C8.31097505,13.0706837 7.89434634,12.9554678 7.522,12.7480229 C7.522,12.7590229 7.522,12.7700229 7.522,12.7820229 C7.52187017,14.0588291 8.42154567,15.1588507 9.673,15.4120229 C9.44260526,15.4749824 9.20484225,15.5069307 8.966,15.5070229 C8.79819209,15.5068361 8.63077865,15.4907644 8.466,15.4590229 C8.81718718,16.5513085 9.82384695,17.2995722 10.971,17.3210229 C9.84550549,18.2002722 8.41836168,18.5995562 7,18.4320229 C9.34843813,19.9358685 12.3303997,20.0381276 14.7763412,18.6986934 C17.2222826,17.3592592 18.7422105,14.7916979 18.74,12.0030229 C18.74,11.8870229 18.74,11.7710229 18.732,11.6560229 C19.2573571,11.2763049 19.7107885,10.8059418 20.071,10.2670229 Z" id="Shape_39_copy_4" fill="#FFFFFF"></path>
                            </g>
                        </g>
                    </g>
                </g>
            </g>
        </g>
    </g>
</svg>