<svg width="80" height="80" viewBox="0 0 80 80" fill="none" xmlns="http://www.w3.org/2000/svg">
<path fill-rule="evenodd" clip-rule="evenodd" d="M27.2584 32.9286L20.733 29.1615L39.9995 18.0387L45.8811 21.4343L27.2584 32.9286ZM26.2116 34.518L20.0327 30.9507V53.1854L39.0178 64.1463V41.9117L33.0275 38.4532V43.7731C33.0275 43.9663 32.9254 44.1444 32.7593 44.2421C32.6746 44.2909 32.5791 44.3159 32.4846 44.3159C32.3934 44.3159 32.3011 44.2931 32.2186 44.2464L26.4884 41.0252C26.3169 40.9286 26.2116 40.7473 26.2116 40.5519V34.518ZM31.9418 37.8264V42.8459L27.2972 40.2338V35.1448L31.9418 37.8264ZM32.9162 36.195L28.3264 33.5452L46.9497 22.0511L51.5398 24.7011L32.9162 36.195ZM33.9843 36.8116L39.9995 40.2842L59.2659 29.1615L52.6083 25.318L33.9843 36.8116ZM40.9177 41.9483V64.1829L59.9662 53.1854V30.9507L40.9177 41.9483ZM18.6083 54.5566L39.5142 66.6261C39.6586 66.7097 39.8442 66.7531 40.0103 66.7531C40.1764 66.7531 40.3414 66.7097 40.4848 66.6261L61.3906 54.5566C61.6848 54.3872 61.8661 54.0734 61.8661 53.7336V29.3059C61.8661 29.257 61.8628 29.2092 61.8552 29.1615C61.9128 28.7858 61.7402 28.3961 61.3906 28.1941L40.4848 16.1246C40.1971 15.9585 39.8019 15.9585 39.5142 16.1246L18.6083 28.1941C18.3141 28.3646 18.1328 28.6783 18.1328 29.0171V53.7336C18.1328 54.0734 18.3141 54.3872 18.6083 54.5566Z" fill="black"/>
</svg>
