<svg width="80" height="80" viewBox="0 0 80 80" fill="none" xmlns="http://www.w3.org/2000/svg">
<path fill-rule="evenodd" clip-rule="evenodd" d="M37.3159 48.9375V43.1498H36.1543V42.3583C36.4817 42.3263 36.7932 42.2228 37.0887 42.049C37.3841 41.8751 37.5975 41.665 37.7265 41.4164H38.6791V48.9375H37.3159ZM39.5487 23.6885C33.7311 23.6885 33.1562 25.9776 33.1274 29.7707C35.2671 29.3408 37.6319 29.1232 40.1727 29.1232C42.2122 29.1232 44.1557 29.2661 45.9679 29.5499C45.9167 25.8891 45.2522 23.6885 39.5487 23.6885ZM42.7836 43.0959C42.7836 42.9156 42.7068 42.7631 42.5521 42.634C42.3985 42.506 42.2129 42.442 41.9975 42.442C41.7809 42.442 41.5964 42.506 41.4449 42.634C41.2945 42.7631 41.2177 42.9156 41.2177 43.0959V47.2047C41.2177 47.385 41.2945 47.5386 41.4449 47.6655C41.5964 47.7935 41.7809 47.8586 41.9975 47.8586C42.2129 47.8586 42.3985 47.7935 42.5521 47.6655C42.7068 47.5386 42.7836 47.385 42.7836 47.2047V43.0959ZM44.1969 47.2218C44.1969 47.722 43.9857 48.1455 43.5623 48.4943C43.1388 48.842 42.6321 49.0159 42.0401 49.0159C41.4396 49.0159 40.9287 48.841 40.5073 48.4911C40.0871 48.1402 39.8759 47.7178 39.8759 47.2218V43.1194C39.8759 42.6202 40.0881 42.1956 40.5116 41.8458C40.934 41.4959 41.4439 41.321 42.0401 41.321C42.6417 41.321 43.1516 41.497 43.5697 41.8479C43.9879 42.1999 44.1969 42.6244 44.1969 43.1194V47.2218ZM32.2474 31.8549C32.0586 31.8549 31.8709 31.7973 31.713 31.6864C31.4922 31.5328 31.3493 31.2917 31.3205 31.024C31.2863 30.7221 31.2597 30.4192 31.2597 30.1109C31.2597 25.7429 31.8933 21.8219 39.5487 21.8219C47.2042 21.8219 47.8378 25.7429 47.8378 30.1109C47.8378 30.2656 47.825 30.4181 47.8122 30.5696L47.7983 30.7211C47.7802 30.9877 47.6479 31.232 47.4357 31.3952C47.2245 31.5573 46.9535 31.6213 46.6911 31.5712C44.6975 31.1851 42.5045 30.9899 40.1727 30.9899C37.3365 30.9899 34.7445 31.2715 32.4693 31.8283C32.3957 31.8464 32.3221 31.8549 32.2474 31.8549ZM40.1701 38.2C36.1039 38.2 32.7951 41.5088 32.7951 45.5749C32.7951 49.6411 36.1039 52.9488 40.1701 52.9488C44.2362 52.9488 47.545 49.6411 47.545 45.5749C47.545 41.5088 44.2362 38.2 40.1701 38.2ZM40.1701 54.0155C35.5151 54.0155 31.7285 50.2288 31.7285 45.5749C31.7285 40.92 35.5151 37.1333 40.1701 37.1333C44.825 37.1333 48.6117 40.92 48.6117 45.5749C48.6117 50.2288 44.825 54.0155 40.1701 54.0155ZM39.5487 17.8667C31.3098 17.8667 27.3045 21.872 27.3045 30.1109C27.3045 31.0144 27.4207 31.9435 27.6618 32.9536C27.7535 33.3387 27.5925 33.7397 27.2597 33.9541C23.8581 36.1461 22.1333 39.5723 22.1333 44.1376C22.1333 54.0843 30.2261 62.176 40.1727 62.176C50.1194 62.176 58.2111 54.0843 58.2111 44.1376C58.2111 39.1392 56.1343 35.5125 52.0394 33.3579C51.6778 33.168 51.4815 32.7637 51.5573 32.3605C51.7183 31.4987 51.793 30.784 51.793 30.1109C51.793 21.872 47.7877 17.8667 39.5487 17.8667ZM40.1727 64.0427C29.1967 64.0427 20.2666 55.1136 20.2666 44.1376C20.2666 39.1392 22.097 35.312 25.7077 32.7509C25.5263 31.8357 25.4378 30.9664 25.4378 30.1109C25.4378 20.8789 30.3178 16 39.5487 16C48.7797 16 53.6597 20.8789 53.6597 30.1109C53.6597 30.7157 53.6106 31.3387 53.505 32.0352C57.8677 34.5685 60.0778 38.6368 60.0778 44.1376C60.0778 55.1136 51.1487 64.0427 40.1727 64.0427Z" fill="black"/>
</svg>
