<svg width="75" height="75" viewBox="0 0 75 75" fill="none" xmlns="http://www.w3.org/2000/svg">
<path fill-rule="evenodd" clip-rule="evenodd" d="M37 13.4223L34.7762 15.5719C34.3707 15.967 33.7118 15.967 33.3051 15.5719C32.8983 15.1768 32.8983 14.5367 33.3051 14.1428L37.2643 10.2969C37.3594 10.2045 37.4748 10.1294 37.602 10.0786C37.7305 10.0277 37.8649 10 38.0004 10C38.136 10 38.2716 10.0277 38.3977 10.0786C38.5261 10.1294 38.6403 10.2045 38.7366 10.2969L42.6958 14.1428C43.1014 14.5367 43.1014 15.1768 42.6958 15.5719C42.2891 15.967 41.6302 15.967 41.2235 15.5719L39 13.4223V24C39.0411 24.5471 38.5761 25 38.0004 25C37.426 25 36.9598 24.5471 37 24V13.4223ZM41.7885 20L43.8944 28.999H32.1056L34.2655 20H22.0211L16.5765 29.0858C16.2334 29.2321 16.0293 29.5575 16.0293 30L16.0212 29.9943C16.0163 29.9952 16.0121 30.0053 16.0089 30.0246L16.0017 30.1102L16 30.2507L16.008 30.5642L16.0293 31V60C16.0293 61 16.9525 61.9941 18 62H58C59.9632 62 59.9707 61.0163 59.9707 60V31L59.992 30.5642L60 30.2507L59.9983 30.1102L59.9911 30.0246L59.9856 30.0026L59.9788 29.9943L59.9707 30L59.9632 29.8569C59.9236 29.4874 59.7285 29.2158 59.4235 29.0858L53.9789 20H41.7885ZM58 31L57.9996 60H18.0004L18 31H30.9994L30.9998 41.4855C30.9998 41.7695 31.2277 42 31.5062 42H44.4938L44.5845 41.9917C44.8202 41.9481 45.0002 41.738 45.0002 41.4855L45.0006 31H58ZM43.9811 40.9711L43.9813 31H32.0187L32.0189 40.9711H43.9811ZM23.0197 22L32.806 21.999L31.1069 28.999L19.0252 29L23.0197 22ZM43.194 21.999L44.8931 28.999L56.9748 29L52.9803 22L43.194 21.999Z" fill="#393939"/>
</svg>
