<svg width="75" height="75" viewBox="0 0 75 75" fill="none" xmlns="http://www.w3.org/2000/svg">
<path fill-rule="evenodd" clip-rule="evenodd" d="M44.1299 20.0002C44.6102 20.0002 45 20.3869 45 20.8656V23.9992L53.0033 24C56.515 24 57.6558 26.2026 58.9751 28.753L62.8913 36.8664C62.9612 36.9976 63 37.1447 63 37.2938V50.1303C63 50.6104 62.6197 51 62.1512 51L56.9724 50.9999C56.7229 53.2464 54.8121 55 52.5005 55C50.189 55 48.2773 53.2464 48.0276 50.9999L27.9723 51.0009C27.7223 53.2469 25.8115 55 23.5 55C21.1885 55 19.2777 53.2469 19.0277 51.0009L12.8701 51.0002C12.3898 51.0002 12 50.6125 12 50.1349V20.8656C12 20.3869 12.3898 20.0002 12.8701 20.0002H44.1299ZM52.5005 48C51.1228 48 50 49.1221 50 50.5C50 51.8789 51.1228 53 52.5005 53C53.8772 53 55 51.8789 55 50.5C55 49.1221 53.8772 48 52.5005 48ZM21 50.5C21 49.1221 22.1211 48 23.5 48C24.8789 48 26 49.1221 26 50.5C26 51.8789 24.8789 53 23.5 53C22.1211 53 21 51.8789 21 50.5ZM43.259 48.1312L27.3247 48.1312C27.5425 48.4815 27.7135 48.8638 27.829 49.2694L43.2598 49.2695L43.259 48.1312ZM13.74 48.1312L19.6753 48.1312L19.5503 48.3451C19.3913 48.6354 19.2634 48.9449 19.171 49.2694L13.7402 49.2695L13.74 48.1312ZM49 25.7392H45V49.2602L48.1737 49.2603C48.6949 47.4447 50.3311 46.096 52.2891 46.0049L52.5005 46C54.5514 46 56.2868 47.3797 56.8264 49.2603L61.3024 49.2606V37.5214L60.5677 35.9964L60.5086 36H49.4918C49.2203 36 49 35.7761 49 35.5002V25.7392ZM13.7402 21.7309H43.2598L43.259 47.1312L26.4804 47.1312C25.686 46.4276 24.6419 46 23.5 46L23.2885 46.0049C22.2295 46.0542 21.2647 46.4713 20.5196 47.1312L13.74 47.1312L13.7402 21.7309ZM51.5502 37C51.7985 37 52 37.224 52 37.5C52 37.776 51.7985 38 51.5502 38H50.4498C50.2024 38 50 37.776 50 37.5C50 37.224 50.2024 37 50.4498 37H51.5502ZM50 26H54.3925C54.4788 26 54.5621 26.0037 54.6419 26.0122C55.5626 26.3874 56.1588 27.1592 56.8448 28.3848L60 35H50V26Z" fill="black"/>
</svg>
