<svg width="75" height="75" viewBox="0 0 75 75" fill="none" xmlns="http://www.w3.org/2000/svg">
<path fill-rule="evenodd" clip-rule="evenodd" d="M62.9724 49.9998H68.1512C68.6197 49.9998 69 49.6102 69 49.1301V36.2936C69 36.1445 68.9612 35.9974 68.8913 35.8662L64.9751 27.7528C63.6558 25.2024 62.515 22.9998 59.0033 22.9998H49.8488C49.3803 22.9998 49.2598 23.3894 49.2598 23.8695V46.1312H32.4806C31.6862 45.4275 30.642 44.9998 29.5 44.9998C28.358 44.9998 27.3138 45.4275 26.5194 46.1312H18.9367C18.6267 46.1312 18.375 46.3552 18.375 46.6312C18.375 46.9072 18.6267 47.1312 18.9367 47.1312H25.6751C25.2473 47.8196 25 48.6313 25 49.4998C25 51.9806 27.0193 53.9998 29.5 53.9998C31.9807 53.9998 34 51.9806 34 49.4998C34 48.6313 33.7527 47.8196 33.3249 47.1312H49.2598V49.1301C49.2598 49.6102 49.3803 49.9998 49.8488 49.9998H54.0276C54.2773 52.2463 56.189 53.9998 58.5005 53.9998C60.812 53.9998 62.7228 52.2463 62.9724 49.9998ZM62.8265 48.2604C62.287 46.3796 60.5515 44.9998 58.5005 44.9998C56.4496 44.9998 54.7133 46.3796 54.1736 48.2604H50.6976V46.9473C50.7679 46.8612 50.81 46.7511 50.81 46.6312C50.81 46.5113 50.7679 46.4013 50.6976 46.3151V24.7392H55V34.5C55 34.7759 55.2203 34.9998 55.4918 34.9998H66.5086C66.5288 34.9998 66.5488 34.9986 66.5686 34.9961L67.3024 36.5212V48.2604H62.8265ZM62.8439 27.3831C62.1577 26.1572 61.5611 25.3856 60.6393 25.0109C60.5598 25.0034 60.4776 24.9998 60.3925 24.9998H56V33.9998H66L62.8439 27.3831ZM58.5005 46.9998C57.1228 46.9998 56 48.1219 56 49.4998C56 50.8787 57.1228 51.9998 58.5005 51.9998C59.8772 51.9998 61 50.8787 61 49.4998C61 48.1219 59.8772 46.9998 58.5005 46.9998ZM27 49.4998C27 48.1219 28.1211 46.9998 29.5 46.9998C30.8789 46.9998 32 48.1219 32 49.4998C32 50.8787 30.8789 51.9998 29.5 51.9998C28.1211 51.9998 27 50.8787 27 49.4998ZM56 36.4998C56 36.7758 56.2024 36.9998 56.4498 36.9998H57.5502C57.7985 36.9998 58 36.7758 58 36.4998C58 36.2238 57.7985 35.9998 57.5502 35.9998H56.4498C56.2024 35.9998 56 36.2238 56 36.4998Z" fill="black"/>
<path d="M33 49H48C49.1046 49 50 48.1046 50 47V22C50 20.8954 49.1046 20 48 20H21C19.8954 20 19 20.8954 19 22V24.5" stroke="black" stroke-width="2" stroke-linecap="round"/>
<path d="M26 49H21C19.8954 49 19 48.1046 19 47V41.5" stroke="black" stroke-width="2" stroke-linecap="round"/>
<path d="M19 31.5V34.5" stroke="black" stroke-width="2" stroke-linecap="round"/>
<path d="M10 28L21 28" stroke="black" stroke-width="2" stroke-linecap="round"/>
<path d="M13 38L24 38" stroke="black" stroke-width="2" stroke-linecap="round"/>
<path d="M6 33L14 33" stroke="black" stroke-width="2" stroke-linecap="round"/>
<path d="M33 49H50" stroke="black" stroke-width="2" stroke-linecap="round"/>
</svg>
