<svg width="75" height="75" viewBox="0 0 75 75" fill="none" xmlns="http://www.w3.org/2000/svg">
<path fill-rule="evenodd" clip-rule="evenodd" d="M50.3192 33.3472H46.2909V24.5042H50.3192V33.3472ZM45.2443 33.5892C45.2594 33.5748 45.2749 33.5611 45.2909 33.5479V24.3042C45.2749 24.2911 45.2594 24.2774 45.2443 24.2632C44.2073 23.2722 41.6223 21.7512 40.3943 21.7502H24.6643H24.6083L24.4103 21.7516C22.5404 21.7651 20.8877 21.777 19.7913 22.5392C19.0083 23.0842 17.9653 24.2902 17.9653 28.4482V29.4052C17.9653 33.5612 19.0063 34.7672 19.7903 35.3132C20.769 35.9927 22.1567 36.0922 23.8374 36.1016H24.557L24.6643 36.1012H40.3933C41.6223 36.0992 44.2073 34.5792 45.2443 33.5892ZM51.3192 32.9734V24.8778L54.5383 27.2602V27.428C54.5381 27.4356 54.538 27.4433 54.538 27.451V30.4C54.538 30.4077 54.5381 30.4153 54.5383 30.423V30.5902L51.3192 32.9734ZM40.3943 37.8512H37.0933C36.9834 38.4452 36.7176 40.4685 37.6012 42.7764C37.7032 43.0434 37.6682 43.3464 37.5052 43.5844C37.3412 43.8214 37.0722 43.9634 36.7842 43.9634H34.1951L32.5983 50.9596C32.6686 51.1695 32.9173 51.6235 33.1057 51.9674L33.1113 51.9776C33.8133 53.2606 34.6083 54.7136 33.9603 55.8076C33.6103 56.3986 32.9493 56.6986 31.9983 56.6986H22.1263C21.5693 56.6986 21.0443 56.4436 20.6513 55.9816C20.1243 55.3646 19.8943 54.4656 20.0363 53.5756C20.0433 53.5256 20.0563 53.4766 20.0733 53.4306L23.0923 44.6526L23.2023 44.1136C23.6883 41.7646 24.1463 39.5446 22.9833 37.8986L22.9363 37.8317C21.3923 37.7763 19.9634 37.5636 18.7913 36.7472C17.0353 35.5262 16.2153 33.1912 16.2153 29.4052V28.4482C16.2153 24.6592 17.0353 22.3262 18.7913 21.1032C20.3643 20.0092 22.3993 20.0002 24.5563 20.0002H24.6083H24.6643H40.3973C42.2053 20.0022 44.9073 21.6592 46.1843 22.7542H51.1023C51.2903 22.7542 51.4723 22.8152 51.6233 22.9262L55.9323 26.1182C56.1563 26.2822 56.2883 26.5422 56.2883 26.8202V26.8785L58.476 27.836C58.795 27.976 59.001 28.291 59.001 28.638V29.212C59.001 29.56 58.795 29.874 58.476 30.014L56.2883 30.9723V31.0312C56.2883 31.3092 56.1563 31.5692 55.9323 31.7342L51.6233 34.9252C51.4723 35.0362 51.2903 35.0972 51.1023 35.0972H46.1843C44.9073 36.1932 42.2053 37.8482 40.3943 37.8512ZM56.599 28.925L56.2883 28.7891V29.0619L56.599 28.925ZM21.5731 25.8979H24.4391C24.7151 25.8979 24.9391 25.6739 24.9391 25.3979C24.9391 25.1219 24.7151 24.8979 24.4391 24.8979H21.5731C21.2981 24.8979 21.0731 25.1219 21.0731 25.3979C21.0731 25.6739 21.2981 25.8979 21.5731 25.8979ZM32.4393 54.9136C32.4273 54.9136 32.408 54.9164 32.3804 54.9205L32.3804 54.9205L32.3803 54.9205C32.3107 54.9307 32.1885 54.9486 31.9983 54.9486H22.1263C22.0923 54.9486 22.0353 54.9086 21.9813 54.8466C21.8323 54.6716 21.7103 54.3216 21.7553 53.9186L24.7643 45.1686C24.7773 45.1326 24.7893 45.0966 24.7943 45.0576L24.9163 44.4686L24.9165 44.4676C25.3604 42.3179 25.8551 39.9223 24.9553 37.8516H33.7943L30.8643 50.6966C30.7453 51.3006 31.0763 51.9046 31.5773 52.8176L31.5985 52.8566C31.8898 53.3934 32.5127 54.5409 32.4493 54.9146L32.4476 54.914L32.4455 54.9137C32.4437 54.9136 32.4415 54.9136 32.4393 54.9136ZM35.2177 39.483C35.2278 40.2611 35.3201 41.1958 35.5852 42.2134H34.5945L35.2177 39.483ZM24.4391 28.2505H21.5731C21.2981 28.2505 21.0731 28.0255 21.0731 27.7505C21.0731 27.4735 21.2981 27.2505 21.5731 27.2505H24.4391C24.7151 27.2505 24.9391 27.4735 24.9391 27.7505C24.9391 28.0255 24.7151 28.2505 24.4391 28.2505ZM21.5731 30.6011H24.4391C24.7151 30.6011 24.9391 30.3771 24.9391 30.1011C24.9391 29.8261 24.7151 29.6011 24.4391 29.6011H21.5731C21.2981 29.6011 21.0731 29.8261 21.0731 30.1011C21.0731 30.3771 21.2981 30.6011 21.5731 30.6011ZM24.4391 32.9546H21.5731C21.2981 32.9546 21.0731 32.7296 21.0731 32.4546C21.0731 32.1776 21.2981 31.9546 21.5731 31.9546H24.4391C24.7151 31.9546 24.9391 32.1776 24.9391 32.4546C24.9391 32.7296 24.7151 32.9546 24.4391 32.9546ZM29.1734 30.3132H39.8054V27.5392H29.1734V30.3132ZM40.3054 31.3132H28.6734C28.3974 31.3132 28.1734 31.0882 28.1734 30.8132V27.0382C28.1734 26.7632 28.3974 26.5382 28.6734 26.5382H40.3054C40.5824 26.5382 40.8054 26.7632 40.8054 27.0382V30.8132C40.8054 31.0882 40.5824 31.3132 40.3054 31.3132Z" fill="#393939"/>
</svg>
