<svg width="75" height="75" viewBox="0 0 75 75" fill="none" xmlns="http://www.w3.org/2000/svg">
<path fill-rule="evenodd" clip-rule="evenodd" d="M23.5914 35.719V30.044L42.5622 18.3354L42.0268 17.4692L23.0889 29.1581H22.5736V29.4762L22.3818 29.5946L22.5736 29.9054V36.0172C22.5736 36.2004 22.6723 36.3704 22.8331 36.461L28.2052 39.4809C28.2826 39.5247 28.3691 39.546 28.4546 39.546C28.5431 39.546 28.6327 39.5226 28.7121 39.4768C28.8678 39.3852 28.9635 39.2183 28.9635 39.0371V33.0643L47.9346 21.3565L47.3992 20.4903L28.4601 32.179H27.9457V32.4965L27.7542 32.6147L27.9457 32.925V38.1679L23.5914 35.719Z" fill="black"/>
<circle cx="55" cy="47" r="11" stroke="black" stroke-width="2"/>
<path d="M55 39.5V47H62.5" stroke="black" stroke-linecap="round"/>
<path d="M35.5 36.5V59M35.5 36.5L16 25.5M35.5 36.5L54.5 25.5M35.5 59L16.1017 48.0574C16.0389 48.0219 16 47.9554 16 47.8832V25.5M35.5 59L41.5 56M16 25.5L35.3971 14.0607C35.4605 14.0233 35.5393 14.0238 35.6022 14.0619L54.5 25.5M54.5 25.5V31" stroke="black" stroke-width="2" stroke-linecap="round" stroke-linejoin="round"/>
</svg>
