<?xml version="1.0" encoding="UTF-8"?>
<svg width="28px" height="28px" viewBox="0 0 28 28" version="1.1" xmlns="http://www.w3.org/2000/svg" xmlns:xlink="http://www.w3.org/1999/xlink">
    <title>viber</title>
    <g id="Page-1" stroke="none" stroke-width="1" fill="none" fill-rule="evenodd">
        <g id="viber">
            <path d="M14.001,0 C21.7329,0.00055521 28.0004,6.26881 28,14.0007 C27.9996,21.7325 21.7315,28 13.9997,28 C6.26781,28 0,21.7319 0,14 C0,10.2868 1.47513,6.72569 4.10086,4.10015 C6.72659,1.47461 10.2878,0 14.001,0 Z" id="Path" fill="#7360F2"></path>
            <path d="M18.0166,6.17796 C15.3048,5.66464 12.5547,5.66464 9.8424,6.17796 C8.65606,6.44089 7.16358,7.86401 6.8718,9.00871 C6.38648,11.2236 6.38648,13.4689 6.8718,15.6837 C7.16358,16.8284 8.65606,18.2515 9.8424,18.5145 L9.8433,18.5146 C9.8961,18.525 9.9346,18.5705 9.9346,18.6241 L9.9346,21.8687 C9.9346,22.0309 10.1336,22.1108 10.2468,21.9933 L11.7956,20.4116 L13.2517,18.9242 C13.2734,18.9021 13.3034,18.8901 13.3344,18.8909 C14.8981,18.934 16.4635,18.8083 18.0166,18.5145 C19.2029,18.2516 20.6959,16.8285 20.9871,15.6838 C21.473,13.4689 21.473,11.2236 20.9871,9.00876 C20.6959,7.86401 19.2035,6.44089 18.0166,6.17796 Z M18.0574,15.849 C17.8201,16.3503 17.4749,16.7673 16.9769,17.0335 C16.8808,17.0849 16.7718,17.1125 16.6618,17.1404 L16.6618,17.1404 L16.6618,17.1404 C16.611,17.1532 16.5599,17.1662 16.5098,17.1815 C16.4511,17.1638 16.3932,17.1479 16.3364,17.1323 L16.3362,17.1323 C16.2167,17.0995 16.1016,17.0679 15.9922,17.0227 C14.3196,16.3322 12.7803,15.4414 11.561,14.0758 C10.8676,13.2993 10.3248,12.4225 9.8661,11.4947 C9.6711,11.1002 9.5035,10.6919 9.3362,10.2842 L9.2784,10.1433 C9.1079,9.72905 9.3589,9.3011 9.6232,8.98899 C9.8712,8.69608 10.1903,8.47191 10.5359,8.3067 C10.8056,8.17775 11.0717,8.25209 11.2687,8.4796 C11.6946,8.97146 12.0858,9.48848 12.4026,10.0586 C12.5973,10.4093 12.5439,10.838 12.1909,11.0766 C12.1219,11.1232 12.0579,11.1764 11.9939,11.2294 L11.9939,11.2294 L11.947,11.2683 C11.8769,11.3257 11.8109,11.3837 11.7628,11.4614 C11.675,11.6036 11.6708,11.7714 11.7274,11.9261 C12.1627,13.1166 12.8965,14.0423 14.1007,14.5409 L14.1524,14.5625 C14.3282,14.6363 14.5067,14.7113 14.7089,14.6878 C14.9494,14.6598 15.0847,14.4801 15.2208,14.2992 C15.2951,14.2006 15.3696,14.1016 15.4615,14.0268 C15.7161,13.8196 16.0415,13.8169 16.3158,13.9896 C16.5902,14.1624 16.8561,14.3478 17.1205,14.5353 L17.174,14.5732 C17.4154,14.7442 17.6548,14.9137 17.8777,15.109 C18.1077,15.3106 18.187,15.5752 18.0574,15.849 Z M15.8741,11.9684 C15.8346,11.9695 15.7938,11.9716 15.8977,11.9697 C15.9156,11.9685 15.9168,11.968 15.9104,11.9679 C15.9895,11.9576 16.0678,11.9008 16.0932,11.7918 C16.1084,11.7268 16.1021,11.6554 16.0962,11.5873 L16.0956,11.5805 C16.0091,10.5868 15.4028,10.1505 14.5546,10.0896 C14.4189,10.0798 14.2981,10.1762 14.2773,10.2998 C14.2544,10.4356 14.3349,10.5529 14.4804,10.5883 C14.5432,10.6036 14.6071,10.6094 14.6712,10.6153 C14.7439,10.6219 14.8167,10.6285 14.888,10.649 C14.9937,10.6792 15.0946,10.7263 15.1837,10.7909 C15.3722,10.9276 15.4914,11.1344 15.5464,11.3575 C15.5704,11.455 15.5814,11.5559 15.5924,11.6564 L15.5924,11.6564 L15.5978,11.7052 C15.6158,11.8645 15.7068,11.9626 15.8741,11.9684 Z M15.3706,9.69684 C15.1103,9.57003 14.8288,9.49121 14.5435,9.44423 C14.4659,9.43147 14.3877,9.42182 14.3096,9.41216 C14.2622,9.40631 14.2148,9.40046 14.1675,9.39391 C14.0157,9.37293 13.9347,9.27664 13.9418,9.12777 C13.9486,8.98826 14.051,8.88792 14.2038,8.89651 C14.7059,8.92489 15.1908,9.03286 15.6372,9.26806 C16.5449,9.74639 17.0634,10.5014 17.2147,11.5096 C17.2172,11.5257 17.2201,11.5418 17.2231,11.5579 L17.2231,11.5579 C17.2285,11.5873 17.2338,11.6167 17.2361,11.6463 C17.2421,11.7256 17.2465,11.805 17.2517,11.8967 L17.2517,11.8967 L17.2588,12.0221 C17.2579,12.029 17.2571,12.0382 17.2561,12.0491 L17.2561,12.0492 C17.2533,12.0814 17.2492,12.1284 17.2373,12.1734 C17.1793,12.3919 16.8463,12.4193 16.7696,12.1987 C16.7469,12.1333 16.7435,12.0588 16.7433,11.9883 C16.7426,11.5272 16.6418,11.0666 16.4082,10.6654 C16.168,10.2532 15.8009,9.90658 15.3706,9.69684 Z M17.9091,12.5121 C17.9205,12.6686 17.9994,12.8146 18.1747,12.8125224 C18.3445,12.8105 18.4336,12.6617 18.4214,12.5052 C18.4178,12.4594 18.4143,12.4135 18.4108,12.3676 C18.3858,12.0408 18.3608,11.7129 18.3033,11.3914 C17.92,9.2497 16.1388,7.8087 13.9656,7.73448 C14.2277,7.74242 15.9418,7.78937 13.9335,7.73334 C13.9211,7.73329 13.9087,7.73309 13.8963,7.73289 C13.8663,7.73242023 13.8364,7.73192 13.8065,7.73352 C13.6514,7.74181 13.5139,7.87089 13.543,8.03299 C13.5757,8.21564 13.7602,8.23415 13.9123,8.24941 C13.9212,8.25031 13.93,8.25119 13.9386,8.25209 C14.0156,8.26013 14.0927,8.26676 14.1699,8.2734 C14.3408,8.28809 14.5117,8.30278 14.6799,8.33264 C16.302,8.62054 17.6015,9.96222 17.828,11.5839 C17.8623,11.8288 17.8791,12.0761 17.8959,12.3233 C17.9002,12.3862 17.9045,12.4492 17.9091,12.5121 Z" id="Shape" fill="#FFFFFF"></path>
        </g>
    </g>
</svg>