<svg width="40" height="40" viewBox="0 0 40 40" fill="none" xmlns="http://www.w3.org/2000/svg">
<path fill-rule="evenodd" clip-rule="evenodd" d="M31.3785 21.7299C31.0915 21.7299 30.8585 21.4971 30.8585 21.2102C30.8585 15.7368 26.5688 11.2689 21.0923 11.0385C20.8052 11.0266 20.5823 10.7849 20.5942 10.498C20.6067 10.2111 20.8498 9.99191 21.1356 10.0002C27.1708 10.2539 31.8985 15.1779 31.8985 21.2102C31.8985 21.4971 31.6656 21.7299 31.3785 21.7299ZM9.12074 16.3618C9.20751 16.8975 11.0635 27.5106 21.1186 31.4331C22.8932 32.2089 24.0176 32.2778 26.0436 30.6497C27.4028 29.5574 28.0589 28.6094 27.9941 27.8319C27.9412 27.2017 27.401 26.5953 26.3895 26.0292C22.6079 23.9141 22.4195 24.2491 21.5126 25.8576L21.3611 26.1343C21.2904 26.2662 21.1656 26.3612 21.0194 26.3945C20.8732 26.4278 20.7192 26.3963 20.598 26.3084C17.7899 24.2722 15.5553 21.4616 14.1355 18.1805C14.079 18.0492 14.079 17.9013 14.1349 17.7707C14.1908 17.6394 14.2977 17.5372 14.4315 17.4873L14.6692 17.3982C15.5238 17.0656 16.0165 16.812 16.1722 16.4271C16.398 15.8682 16.086 14.742 15.1286 12.6619C14.7144 11.7615 14.2038 11.2311 13.6125 11.0849C12.5951 10.8319 11.3345 11.667 10.3516 12.4214C9.32935 13.206 8.87232 14.4919 9.09816 15.9507L9.12074 16.3618ZM27.4897 21.7299C27.2027 21.7299 26.9697 21.4971 26.9697 21.2102C26.9697 17.9042 24.3821 15.1428 21.0795 14.9242C20.7931 14.9058 20.5761 14.6581 20.5952 14.3718C20.6142 14.0855 20.8638 13.8687 21.1485 13.8872C24.996 14.142 28.0097 17.3583 28.0097 21.2102C28.0097 21.4971 27.7768 21.7299 27.4897 21.7299ZM23.1708 33C22.4219 33 21.6345 32.7933 20.721 32.393C9.90049 28.1728 8.10568 16.607 8.08845 16.4906C8.08607 16.4746 8.08429 16.4579 8.08369 16.4413L8.06467 16.0552C7.78892 14.2911 8.40521 12.6043 9.71803 11.5969C10.8864 10.7006 12.412 9.71817 13.8621 10.0751C14.7762 10.3015 15.5202 11.0255 16.0735 12.2277C17.2206 14.72 17.4987 15.921 17.1362 16.8167C16.8402 17.5485 16.1455 17.9227 15.3116 18.2612C16.5888 21.0119 18.4121 23.3135 20.74 25.1162C22.0255 22.9536 23.087 22.9904 26.8971 25.1222C28.2295 25.867 28.9468 26.7497 29.03 27.7451C29.1275 28.904 28.3638 30.1192 26.6956 31.4598C25.3964 32.5034 24.3302 33 23.1708 33V33ZM23.6705 21.7299C23.3835 21.7299 23.1505 21.4971 23.1505 21.2102C23.1505 19.9777 22.2608 18.9472 21.0354 18.7601C20.7513 18.7167 20.5564 18.4512 20.5998 18.1673C20.6431 17.884 20.9082 17.6886 21.1929 17.7325C22.9294 17.9974 24.1906 19.4604 24.1906 21.2102C24.1906 21.4971 23.9576 21.7299 23.6705 21.7299Z" fill="#393939"/>
</svg>
