<svg width="50" height="50" viewBox="0 0 50 50" fill="none" xmlns="http://www.w3.org/2000/svg">
<path fill-rule="evenodd" clip-rule="evenodd" d="M23.0802 23.88C23.0802 24.0567 23.2017 24.2 23.3516 24.2H26.6489C26.7988 24.2 26.9202 24.0567 26.9202 23.88C26.9202 23.7033 26.7988 23.56 26.6489 23.56H23.3516C23.2017 23.56 23.0802 23.7033 23.0802 23.88ZM20.2002 34.76C20.2002 34.2298 20.63 33.8 21.1602 33.8C21.6903 33.8 22.1202 34.2298 22.1202 34.76C22.1202 35.2902 21.6903 35.72 21.1602 35.72C20.63 35.72 20.2002 35.2902 20.2002 34.76ZM27.8802 34.76C27.8802 34.2298 28.31 33.8 28.8402 33.8C29.3705 33.8 29.8002 34.2298 29.8002 34.76C29.8002 35.2902 29.3705 35.72 28.8402 35.72C28.31 35.72 27.8802 35.2902 27.8802 34.76ZM18.9202 24.2C18.9202 23.5747 19.5573 22.92 20.2002 22.92H29.8002C30.4434 22.92 31.0802 23.5747 31.0802 24.2V35.72C31.0802 36.3456 30.4434 37 29.8002 37H20.2002C19.5573 37 18.9202 36.3456 18.9202 35.72V24.2ZM29.1583 38.28H21.0797L20.1784 40.1375H29.9556L29.1583 38.28ZM20.2072 38.28H20.2002C18.8116 38.28 17.6402 37.0837 17.6402 35.72V24.2C17.6402 22.8365 18.8116 21.64 20.2002 21.64H29.8002C31.189 21.64 32.3602 22.8365 32.3602 24.2V35.72C32.3602 37.0154 31.3034 38.1598 30.007 38.2711L31.6857 42.1821C31.7739 42.388 31.6873 42.6304 31.4918 42.7236C31.44 42.7482 31.3856 42.76 31.332 42.76C31.1841 42.76 31.0426 42.6706 30.9778 42.5192L30.2823 40.8985C30.2245 40.9342 30.1582 40.956 30.0868 40.956H19.7815L19.0148 42.5369C18.9458 42.6785 18.8096 42.7598 18.6685 42.7598C18.609 42.7598 18.5486 42.7456 18.492 42.7152C18.3011 42.6123 18.2253 42.3657 18.3227 42.1644L20.2072 38.28ZM20.2002 26.76C20.2002 26.4437 20.521 26.12 20.8402 26.12H29.1602C29.4795 26.12 29.8002 26.4437 29.8002 26.76V30.6C29.8002 30.9163 29.4795 31.24 29.1602 31.24H20.8402C20.521 31.24 20.2002 30.9163 20.2002 30.6V26.76ZM19.5602 30.6C19.5602 31.2367 20.2114 31.88 20.7602 31.88H29.2402C29.789 31.88 30.4402 31.2367 30.4402 30.6V26.76C30.4402 26.1233 29.789 25.48 29.2402 25.48H20.7602C20.2114 25.48 19.5602 26.1233 19.5602 26.76V30.6ZM33.7016 40.055C33.7893 40.1511 33.9086 40.2 34.0283 40.2C34.1358 40.2 34.244 40.1604 34.3293 40.0807C37.1452 37.4467 38.7602 33.7097 38.7602 29.8281C38.7602 22.1371 32.5874 15.88 25.0002 15.88C17.4128 15.88 11.2402 22.1371 11.2402 29.8281C11.2402 33.6507 12.736 37.2175 15.4517 39.8711C15.6283 40.0438 15.9097 40.0381 16.0799 39.8591C16.25 39.6801 16.2451 39.3951 16.0683 39.2224C13.5278 36.7404 12.1287 33.4039 12.1287 29.8281C12.1287 22.6338 17.9028 16.7806 25.0002 16.7806C32.0977 16.7806 37.8718 22.6338 37.8718 29.8281C37.8718 33.4591 36.361 36.9547 33.7269 39.4187C33.5465 39.5874 33.5352 39.8724 33.7016 40.055Z" fill="#393939"/>
<path fill-rule="evenodd" clip-rule="evenodd" d="M22.1728 8.58434L21.1193 11.1689H20.8097H20.5V11.5589V11.949H22.09H23.68V11.5589V11.1689H23.4429C23.2565 11.1689 23.2066 11.1669 23.2092 11.1598C23.2111 11.1548 23.315 10.8641 23.4401 10.5139L23.6677 9.87724L23.6832 9.902C23.6918 9.9156 23.9907 10.3932 24.3475 10.9634C24.7043 11.5335 24.9979 12 25 12C25.0021 12 25.2957 11.5335 25.6525 10.9634C26.0093 10.3932 26.3082 9.9156 26.3168 9.902L26.3323 9.87724L26.5599 10.5139C26.685 10.8641 26.7889 11.1548 26.7908 11.1598C26.7934 11.1669 26.7435 11.1689 26.5571 11.1689H26.32V11.5589V11.949H27.91H29.5V11.5589V11.1689H29.1904H28.8807L27.831 8.5844C27.2536 7.16294 26.7796 6 26.7775 6.00009C26.7754 6.00018 26.3755 6.67763 25.8889 7.50553C25.4022 8.33343 25.002 9.0108 24.9997 9.0108C24.9973 9.0108 24.599 8.33341 24.1146 7.5055C23.6301 6.67758 23.2321 6.00011 23.23 6C23.2279 5.9999 22.7522 7.16285 22.1728 8.58434Z" fill="#BAD35D"/>
<g clip-path="url(#clip0_3718_11561)">
<path fill-rule="evenodd" clip-rule="evenodd" d="M22.1728 8.58434L21.1193 11.1689H20.8097H20.5V11.5589V11.949H22.09H23.68V11.5589V11.1689H23.4429C23.2565 11.1689 23.2066 11.1669 23.2092 11.1598C23.2111 11.1548 23.315 10.8641 23.4401 10.5139L23.6677 9.87724L23.6832 9.902C23.6918 9.9156 23.9907 10.3932 24.3475 10.9634C24.7043 11.5335 24.9979 12 25 12C25.0021 12 25.2957 11.5335 25.6525 10.9634C26.0093 10.3932 26.3082 9.9156 26.3168 9.902L26.3323 9.87724L26.5599 10.5139C26.685 10.8641 26.7889 11.1548 26.7908 11.1598C26.7934 11.1669 26.7435 11.1689 26.5571 11.1689H26.32V11.5589V11.949H27.91H29.5V11.5589V11.1689H29.1904H28.8807L27.831 8.5844C27.2536 7.16294 26.7796 6 26.7775 6.00009C26.7754 6.00018 26.3755 6.67763 25.8889 7.50553C25.4022 8.33343 25.002 9.0108 24.9997 9.0108C24.9973 9.0108 24.599 8.33341 24.1146 7.5055C23.6301 6.67758 23.2321 6.00011 23.23 6C23.2279 5.9999 22.7522 7.16285 22.1728 8.58434Z" fill="#3376BB"/>
</g>
<defs>
<clipPath id="clip0_3718_11561">
<rect width="5" height="6" fill="white" transform="translate(20 6)"/>
</clipPath>
</defs>
</svg>
