<svg width="50" height="50" viewBox="0 0 50 50" fill="none" xmlns="http://www.w3.org/2000/svg">
<path fill-rule="evenodd" clip-rule="evenodd" d="M23.0802 23.8799C23.0802 24.0566 23.2017 24.1999 23.3516 24.1999H26.6489C26.7988 24.1999 26.9202 24.0566 26.9202 23.8799C26.9202 23.7032 26.7988 23.5599 26.6489 23.5599H23.3516C23.2017 23.5599 23.0802 23.7032 23.0802 23.8799ZM20.2002 34.7599C20.2002 34.2297 20.63 33.7999 21.1602 33.7999C21.6903 33.7999 22.1202 34.2297 22.1202 34.7599C22.1202 35.2901 21.6903 35.7199 21.1602 35.7199C20.63 35.7199 20.2002 35.2901 20.2002 34.7599ZM27.8802 34.7599C27.8802 34.2297 28.31 33.7999 28.8402 33.7999C29.3705 33.7999 29.8002 34.2297 29.8002 34.7599C29.8002 35.2901 29.3705 35.7199 28.8402 35.7199C28.31 35.7199 27.8802 35.2901 27.8802 34.7599ZM18.9202 24.1999C18.9202 23.5745 19.5573 22.9199 20.2002 22.9199H29.8002C30.4434 22.9199 31.0802 23.5745 31.0802 24.1999V35.7199C31.0802 36.3454 30.4434 36.9999 29.8002 36.9999H20.2002C19.5573 36.9999 18.9202 36.3454 18.9202 35.7199V24.1999ZM29.1583 38.2799H21.0797L20.1784 40.1374H29.9556L29.1583 38.2799ZM20.2072 38.2799H20.2002C18.8116 38.2799 17.6402 37.0836 17.6402 35.7199V24.1999C17.6402 22.8364 18.8116 21.6399 20.2002 21.6399H29.8002C31.189 21.6399 32.3602 22.8364 32.3602 24.1999V35.7199C32.3602 37.0153 31.3034 38.1597 30.007 38.271L31.6857 42.1819C31.7739 42.3879 31.6873 42.6303 31.4918 42.7234C31.44 42.748 31.3856 42.7599 31.332 42.7599C31.1841 42.7599 31.0426 42.6705 30.9778 42.5191L30.2823 40.8983C30.2245 40.9341 30.1582 40.9559 30.0868 40.9559H19.7815L19.0148 42.5367C18.9458 42.6784 18.8096 42.7597 18.6685 42.7597C18.609 42.7597 18.5486 42.7455 18.492 42.7151C18.3011 42.6122 18.2253 42.3656 18.3227 42.1643L20.2072 38.2799ZM20.2002 26.7599C20.2002 26.4436 20.521 26.1199 20.8402 26.1199H29.1602C29.4795 26.1199 29.8002 26.4436 29.8002 26.7599V30.5999C29.8002 30.9161 29.4795 31.2399 29.1602 31.2399H20.8402C20.521 31.2399 20.2002 30.9161 20.2002 30.5999V26.7599ZM19.5602 30.5999C19.5602 31.2366 20.2114 31.8799 20.7602 31.8799H29.2402C29.789 31.8799 30.4402 31.2366 30.4402 30.5999V26.7599C30.4402 26.1232 29.789 25.4799 29.2402 25.4799H20.7602C20.2114 25.4799 19.5602 26.1232 19.5602 26.7599V30.5999ZM33.7016 40.0549C33.7893 40.151 33.9086 40.1999 34.0283 40.1999C34.1358 40.1999 34.244 40.1603 34.3293 40.0806C37.1452 37.4466 38.7602 33.7096 38.7602 29.828C38.7602 22.137 32.5874 15.8799 25.0002 15.8799C17.4128 15.8799 11.2402 22.137 11.2402 29.828C11.2402 33.6506 12.736 37.2174 15.4517 39.8709C15.6283 40.0436 15.9097 40.038 16.0799 39.859C16.25 39.68 16.2451 39.395 16.0683 39.2223C13.5278 36.7403 12.1287 33.4038 12.1287 29.828C12.1287 22.6336 17.9028 16.7805 25.0002 16.7805C32.0977 16.7805 37.8718 22.6336 37.8718 29.828C37.8718 33.459 36.361 36.9546 33.7269 39.4186C33.5465 39.5873 33.5352 39.8723 33.7016 40.0549Z" fill="#393939"/>
<path fill-rule="evenodd" clip-rule="evenodd" d="M22.1728 8.58434L21.1193 11.1689H20.8097H20.5V11.5589V11.949H22.09H23.68V11.5589V11.1689H23.4429C23.2565 11.1689 23.2066 11.1669 23.2092 11.1598C23.2111 11.1548 23.315 10.8641 23.4401 10.5139L23.6677 9.87724L23.6832 9.902C23.6918 9.9156 23.9907 10.3932 24.3475 10.9634C24.7043 11.5335 24.9979 12 25 12C25.0021 12 25.2957 11.5335 25.6525 10.9634C26.0093 10.3932 26.3082 9.9156 26.3168 9.902L26.3323 9.87724L26.5599 10.5139C26.685 10.8641 26.7889 11.1548 26.7908 11.1598C26.7934 11.1669 26.7435 11.1689 26.5571 11.1689H26.32V11.5589V11.949H27.91H29.5V11.5589V11.1689H29.1904H28.8807L27.831 8.5844C27.2536 7.16294 26.7796 6 26.7775 6.00009C26.7754 6.00018 26.3755 6.67763 25.8889 7.50553C25.4022 8.33343 25.002 9.0108 24.9997 9.0108C24.9973 9.0108 24.599 8.33341 24.1146 7.5055C23.6301 6.67758 23.2321 6.00011 23.23 6C23.2279 5.9999 22.7522 7.16285 22.1728 8.58434Z" fill="#3376BB"/>
</svg>
