<svg width="16" height="16" viewBox="0 0 16 16" fill="none" xmlns="http://www.w3.org/2000/svg">
<circle cx="8" cy="8" r="8" fill="#83C150"/>
<path fill-rule="evenodd" clip-rule="evenodd" d="M8.99327 3.88338C8.93551 3.38604 8.51284 3 8 3C7.44772 3 7 3.44772 7 4V8L7.00673 8.11662C7.06449 8.61396 7.48716 9 8 9C8.55228 9 9 8.55228 9 8V4L8.99327 3.88338ZM9 11C9 10.4477 8.55451 10 8.00498 10L7.87898 10.0067C7.38412 10.0645 7 10.4872 7 11C7 11.5523 7.44549 12 7.99502 12L8.12102 11.9933C8.61588 11.9355 9 11.5128 9 11Z" fill="white"/>
</svg>
