<?xml version="1.0" encoding="UTF-8"?>
<svg width="28px" height="28px" viewBox="0 0 28 28" version="1.1" xmlns="http://www.w3.org/2000/svg" xmlns:xlink="http://www.w3.org/1999/xlink">
    <!-- Generator: Sketch 50.2 (55047) - http://www.bohemiancoding.com/sketch -->
    <title>Group 11</title>
    <desc>Created with Sketch.</desc>
    <defs></defs>
    <g id="new-pages" stroke="none" stroke-width="1" fill="none" fill-rule="evenodd">
        <g id="lifemebel_index" transform="translate(-1228.000000, -5672.000000)">
            <g id="footer" transform="translate(0.000000, 4809.000000)">
                <g transform="translate(92.000000, 581.000000)" id="social">
                    <g>
                        <g transform="translate(1026.000000, 282.000000)">
                            <g id="Group-11" transform="translate(110.000000, 0.000000)">
                                <path d="M18.302,9.00253565 C16.298,8.94120232 14.9413333,9.99253565 14.232,12.1565357 C14.5718544,12.0205252 14.9339632,11.948646 15.3,11.9445357 C15.6033726,11.8990352 15.908646,12.0140666 16.1065522,12.2484559 C16.3044583,12.4828453 16.3667005,12.8030796 16.271,13.0945357 C16.1043973,13.8357514 15.7736058,14.5301403 15.303,15.1265357 C15.0317101,15.7239581 14.5485837,16.1996025 13.947,16.4615357 C13.557,16.4615357 13.203,15.7735357 12.879,14.3995357 C12.771,13.994869 12.5776667,12.9632023 12.299,11.3045357 C12.0383333,9.76786898 11.3486667,9.04986898 10.23,9.15053565 C9.42764617,9.36586022 8.69415322,9.78391676 8.1,10.3645357 C7.40866667,10.9512023 6.70866667,11.537869 6,12.1245357 L6.671,12.9425357 C7.01548518,12.6778471 7.39598953,12.4636871 7.801,12.3065357 C8.297,12.3065357 8.76033333,13.033869 9.191,14.4885357 C9.57833333,15.821869 9.96666667,17.156869 10.356,18.4935357 C10.934,19.9495357 11.647,20.6775357 12.486,20.6775357 C13.842,20.6775357 15.5003333,19.4845357 17.461,17.0985357 C19.3556667,14.813869 20.3353333,13.013869 20.4,11.6985357 C20.488,9.93986898 19.7886667,9.04120232 18.302,9.00253565 Z" id="Forma_1" fill="#FFFFFF"></path>
                            </g>
                        </g>
                    </g>
                </g>
            </g>
        </g>
    </g>
</svg>