<svg width="120" height="24" viewBox="0 0 120 24" fill="none" xmlns="http://www.w3.org/2000/svg">
<g clip-path="url(#clip0_2889_16356)">
<path d="M119.976 -48.2449H0V74.1796H119.976V-48.2449Z" fill="white"/>
<path d="M114.264 10.5551C114.864 9.99184 114.888 9.03673 114.312 8.44898C114.288 8.42449 114.264 8.4 114.216 8.35102C113.712 8.13061 113.16 8.05714 112.608 8.10612H110.64V10.8245H112.776C113.28 10.8735 113.808 10.7755 114.264 10.5551ZM119.976 19.1755V19.8367H114.888L114.864 19.7633C114.792 19.4204 114.72 19.151 114.672 18.9061L114.648 18.7592C114.6 18.5633 114.576 18.3429 114.576 18.1224V16.5551C114.576 15.7714 114.432 15.2571 114.12 14.9143C113.688 14.5714 113.136 14.4 112.584 14.449H110.64V19.8367H105.648V4.16327H113.016C115.2 4.16327 116.808 4.45714 117.864 5.16735C118.92 5.87755 119.448 7.02857 119.448 8.71837C119.472 9.57551 119.256 10.4082 118.824 11.1184C118.416 11.7306 117.84 12.2204 117.168 12.5143C117.816 12.6612 118.392 13.0286 118.8 13.5673C119.256 14.302 119.472 15.1347 119.448 15.9918L119.544 18.1469V18.1959C119.568 18.7837 119.568 19.0531 119.904 19.0776H119.976V19.1755ZM95.592 14.351H98.4L97.008 9.40408L95.592 14.351ZM99.552 4.21224L104.904 19.7143L104.952 19.8367H99.912L99.888 19.7633L99.336 17.7796H94.632L94.056 19.7633L94.032 19.8367H89.04L89.088 19.7143L94.44 4.21224L94.464 4.16327H99.528L99.552 4.21224ZM88.536 4.26122V19.8367H83.952V19.7388L84 12.098C84 11.9265 84 11.6082 84 11.1184C84 10.8735 84 10.6041 84 10.2857C83.88 10.8735 83.736 11.4612 83.592 12.0245L83.568 12.1714L81.696 19.7633L81.672 19.8367H78.12L78.096 19.7633L76.2 12.3429C76.08 11.902 75.984 11.4367 75.888 10.9714L75.792 10.4816C75.816 11.2408 75.816 11.8286 75.816 12.2449V19.8367H71.208V4.16327H77.304L77.328 4.23673L79.44 11.9755C79.464 12.098 79.56 12.5143 79.728 13.2245L79.824 13.6653L79.848 13.8122C79.968 13.2245 80.064 12.7347 80.16 12.3918L80.208 12.1714C80.232 12.1224 80.232 12.049 80.256 12L82.416 4.23673L82.44 4.16327H88.536V4.26122ZM69.84 15.6245V19.8367H58.152V4.16327H63.216V15.551H69.84V15.6245ZM48.096 14.351H50.928L49.536 9.40408L48.096 14.351ZM52.08 4.21224L57.432 19.7143L57.48 19.8367H52.44L52.416 19.7633L51.864 17.7796H47.16L46.584 19.7633L46.56 19.8367H41.568L41.616 19.7143L46.968 4.16327H52.032L52.08 4.21224ZM6.456 2.59592L6.312 2.49796V10.0408L6.48 9.94286L8.52 8.69388L8.568 8.66939V3.77143L8.52 3.74694L6.456 2.59592ZM10.008 9.62449L6.36 11.7061L6.312 11.7306V19.0776L4.632 20.0816L4.488 20.1796L4.632 20.2776L6.36 21.4286H6.456L8.472 20.2776L8.52 20.2531V20.1796V12.9061L10.104 11.9265L11.736 12.9061L11.784 12.9306L11.832 12.9061L13.416 11.9755V19.102L11.736 20.1061L11.592 20.2041L11.736 20.302L13.464 21.4531H13.584L15.624 20.2531L15.672 20.2286V20.1796V11.2653V11.2163L15.624 11.1918L10.008 7.76327V9.62449ZM0 0H20.28V24H0V0ZM40.944 4.26122V19.8367H35.88V13.8367H31.512V19.8367H26.448V4.16327H31.512V9.42857H35.88V4.16327H40.944V4.26122Z" fill="#E30614"/>
</g>
<defs>
<clipPath id="clip0_2889_16356">
<rect width="120" height="24" fill="white"/>
</clipPath>
</defs>
</svg>
